<?xml version="1.0" encoding="UTF-8"?>
<svg xmlns="http://www.w3.org/2000/svg"
     xmlns:xlink="http://www.w3.org/1999/xlink"
     xmlns:gadfly="http://www.gadflyjl.org/ns"
     version="1.2"
     width="160mm" height="160mm" viewBox="0 0 160 160"
     stroke="none"
     fill="#000000"
     stroke-width="0.3"
     font-size="3.88"
>
<g stroke-width="0.42" fill="#000000" fill-opacity="0.000" stroke="#D3D3D3" id="img-0de0e201-1">
  <path fill="none" d="M106.28,84.8 L 90.51 92.19"/>
  <path fill="none" d="M106.08,83.52 L 92.65 81.88"/>
  <path fill="none" d="M106.37,82.64 L 81.03 68.09"/>
  <path fill="none" d="M110.74,83.65 L 135.4 81.98"/>
  <path fill="none" d="M110.41,85.02 L 119.12 90.28"/>
  <path fill="none" d="M86.33,93.25 L 65.81 94.45"/>
  <path fill="none" d="M90.17,91.68 L 111.23 73.12"/>
  <path fill="none" d="M90.38,94.3 L 105.87 104.11"/>
  <path fill="none" d="M88.33,95.31 L 86.41 117.14"/>
  <path fill="none" d="M86.38,92.63 L 43.52 82.61"/>
  <path fill="none" d="M90.71,93.01 L 118.81 91.53"/>
  <path fill="none" d="M92.65,81.88 L 61.51 82.1"/>
  <path fill="none" d="M92.65,81.88 L 114.26 75.4"/>
  <path fill="none" d="M62.87,92.51 L 59.94 84.33"/>
  <path fill="none" d="M63.4,92.39 L 61.88 76.53"/>
  <path fill="none" d="M61.48,95.14 L 50.01 98.17"/>
  <path fill="none" d="M57.97,84.15 L 47.08 102.97"/>
  <path fill="none" d="M57.77,80.2 L 41.06 57.02"/>
  <path fill="none" d="M60.03,75.8 L 54.58 80.55"/>
  <path fill="none" d="M63.68,73.52 L 77.11 67.85"/>
  <path fill="none" d="M46.62,102.77 L 52.31 84.06"/>
  <path fill="none" d="M46.63,102.77 L 47.25 100.81"/>
  <path fill="none" d="M47.77,106.14 L 63.56 117.34"/>
  <path fill="none" d="M54.83,80.9 L 77.23 68.09"/>
  <path fill="none" d="M50.77,82 L 43.57 82.09"/>
  <path fill="none" d="M53.21,84.14 L 55.52 103.24"/>
  <path fill="none" d="M53.66,79.92 L 60.64 59.86"/>
  <path fill="none" d="M49.68,97.47 L 70.55 82.67"/>
  <path fill="none" d="M47.17,25.63 L 58.57 17.79"/>
  <path fill="none" d="M47.31,27.85 L 57.49 33.08"/>
  <path fill="none" d="M44.96,28.99 L 40.21 53.1"/>
  <path fill="none" d="M60.24,18.73 L 59.53 31.9"/>
  <path fill="none" d="M62.48,16.98 L 88.92 22.12"/>
  <path fill="none" d="M58.38,17.46 L 38.28 26.57"/>
  <path fill="none" d="M60.53,35.93 L 78.01 65.13"/>
  <path fill="none" d="M57.34,33.47 L 38.39 28.06"/>
  <path fill="none" d="M91.82,24.57 L 98.7 42.97"/>
  <path fill="none" d="M92.48,24.18 L 106.71 40.6"/>
  <path fill="none" d="M80.61,65.4 L 97.98 46.6"/>
  <path fill="none" d="M81.3,67.31 L 110.7 71.38"/>
  <path fill="none" d="M77.49,68.46 L 54.65 88.74"/>
  <path fill="none" d="M101.36,46.07 L 119.27 56.04"/>
  <path fill="none" d="M100.08,47.09 L 104.83 63.06"/>
  <path fill="none" d="M120.1,59.02 L 113.95 69.79"/>
  <path fill="none" d="M120.63,59.24 L 117.12 72.44"/>
  <path fill="none" d="M119.23,58.11 L 107.39 64.15"/>
  <path fill="none" d="M115.05,71.65 L 144.49 71.26"/>
  <path fill="none" d="M115.87,76.99 L 108.34 103.17"/>
  <path fill="none" d="M115.93,72.44 L 108.7 44.38"/>
  <path fill="none" d="M105.88,106.49 L 88.04 118.12"/>
  <path fill="none" d="M105.53,105.34 L 94.18 105.61"/>
  <path fill="none" d="M107.63,44.39 L 106.96 47.11"/>
  <path fill="none" d="M106.26,43.37 L 87.71 54.32"/>
  <path fill="none" d="M104.37,49.86 L 80.34 57.23"/>
  <path fill="none" d="M106.31,51.39 L 105.59 62.97"/>
  <path fill="none" d="M80.36,58.43 L 103.35 64.58"/>
  <path fill="none" d="M77.87,60 L 71.96 92.33"/>
  <path fill="none" d="M76.49,56.63 L 48.9 37.32"/>
  <path fill="none" d="M105.27,67.31 L 102.53 98.68"/>
  <path fill="none" d="M71.03,96.56 L 65.88 116.49"/>
  <path fill="none" d="M69.79,95.69 L 57.57 104.16"/>
  <path fill="none" d="M100.76,102.34 L 77.33 124.61"/>
  <path fill="none" d="M100.37,101.76 L 93.98 104.74"/>
  <path fill="none" d="M104.28,99.87 L 119.04 92.41"/>
  <path fill="none" d="M67.66,144.68 L 74.89 128.09"/>
  <path fill="none" d="M66.38,144.55 L 63.14 128.22"/>
  <path fill="none" d="M73.59,126.1 L 64.89 126.09"/>
  <path fill="none" d="M74,124.84 L 67.1 119.86"/>
  <path fill="none" d="M74.25,124.54 L 57.29 106.95"/>
  <path fill="none" d="M63.44,124.04 L 64.62 120.65"/>
  <path fill="none" d="M64.81,125.49 L 84.13 119.91"/>
  <path fill="none" d="M62.16,124 L 53.59 92.27"/>
  <path fill="none" d="M67.5,118.67 L 84.04 119.23"/>
  <path fill="none" d="M90.64,103.97 L 73.69 83.11"/>
  <path fill="none" d="M70.26,80.77 L 46.36 73.21"/>
  <path fill="none" d="M70.35,82.32 L 55 89.28"/>
  <path fill="none" d="M73.33,79.49 L 84.84 57.36"/>
  <path fill="none" d="M74.26,80.43 L 97.54 68.49"/>
  <path fill="none" d="M45.25,74.5 L 52.06 88.23"/>
  <path fill="none" d="M43.74,70.45 L 40.33 57.37"/>
  <path fill="none" d="M51.12,89.14 L 29.08 77.17"/>
  <path fill="none" d="M40.56,53.21 L 46.35 38.11"/>
  <path fill="none" d="M38.65,57.12 L 28.29 74.28"/>
  <path fill="none" d="M32.69,15.11 L 45.89 34.3"/>
  <path fill="none" d="M32.17,15.38 L 35.61 25.42"/>
  <path fill="none" d="M45.43,34.73 L 38 28.81"/>
  <path fill="none" d="M35.27,29.36 L 22.46 52.63"/>
  <path fill="none" d="M20.48,56.48 L 14.26 69.53"/>
  <path fill="none" d="M22.68,56.28 L 40.13 80.36"/>
  <path fill="none" d="M15.36,72.25 L 39.38 81.35"/>
  <path fill="none" d="M15.38,72.17 L 25.12 75.45"/>
  <path fill="none" d="M39.4,81.27 L 29.17 76.98"/>
  <path fill="none" d="M42.54,83.96 L 54.65 103.55"/>
  <path fill="none" d="M63.51,57.6 L 83.68 55.64"/>
  <path fill="none" d="M87.47,56.87 L 97.85 66.06"/>
  <path fill="none" d="M101.63,67.72 L 128.36 70.53"/>
  <path fill="none" d="M145.25,72.89 L 139.02 80.16"/>
  <path fill="none" d="M131.71,72.6 L 136.41 79.98"/>
  <path fill="none" d="M129.62,72.74 L 121.92 89.42"/>
  <path fill="none" d="M135.69,82.93 L 122.9 90.32"/>
</g>
<g stroke-width="0.42" stroke="#D3D3D3" id="img-0de0e201-2">
</g>
<g font-size="4" stroke="#000000" stroke-opacity="0.000" fill="#000000" id="img-0de0e201-3">
</g>
<g stroke-width="0" stroke="#000000" id="img-0de0e201-4">
  <circle cx="108.4" cy="83.81" r="2.25" fill="#092C58"/>
  <circle cx="88.52" cy="93.13" r="2.11" fill="#0E3567"/>
  <circle cx="92.65" cy="81.88" r="0" fill="#610102"/>
  <circle cx="63.61" cy="94.58" r="2.11" fill="#0E3567"/>
  <circle cx="59.15" cy="82.11" r="2.26" fill="#092C58"/>
  <circle cx="61.67" cy="74.37" r="2.09" fill="#0E3567"/>
  <circle cx="45.98" cy="104.87" r="2.11" fill="#0E3567"/>
  <circle cx="52.95" cy="81.98" r="2.09" fill="#10386B"/>
  <circle cx="47.9" cy="98.73" r="2.09" fill="#0E3567"/>
  <circle cx="45.38" cy="26.86" r="2.08" fill="#10386B"/>
  <circle cx="60.35" cy="16.57" r="2.08" fill="#10386B"/>
  <circle cx="59.42" cy="34.07" r="2.08" fill="#10386B"/>
  <circle cx="91.06" cy="22.54" r="2.09" fill="#10386B"/>
  <circle cx="79.13" cy="67.01" r="2.1" fill="#0E3567"/>
  <circle cx="99.46" cy="45.01" r="2.09" fill="#0E3567"/>
  <circle cx="121.19" cy="57.11" r="2.11" fill="#0E3567"/>
  <circle cx="112.87" cy="71.68" r="2.1" fill="#0E3567"/>
  <circle cx="116.52" cy="74.72" r="2.26" fill="#092C58"/>
  <circle cx="107.73" cy="105.29" r="2.11" fill="#0E3567"/>
  <circle cx="108.15" cy="42.25" r="2.11" fill="#0E3567"/>
  <circle cx="106.45" cy="49.22" r="2.09" fill="#10386B"/>
  <circle cx="78.26" cy="57.87" r="2.08" fill="#10386B"/>
  <circle cx="105.45" cy="65.14" r="2.09" fill="#10386B"/>
  <circle cx="71.57" cy="94.46" r="2.08" fill="#10386B"/>
  <circle cx="102.34" cy="100.85" r="2.09" fill="#10386B"/>
  <circle cx="66.8" cy="146.67" r="2.08" fill="#10386B"/>
  <circle cx="75.76" cy="126.1" r="2.08" fill="#10386B"/>
  <circle cx="62.72" cy="126.09" r="2.08" fill="#10386B"/>
  <circle cx="65.33" cy="118.59" r="2.08" fill="#10386B"/>
  <circle cx="86.22" cy="119.31" r="2.09" fill="#0E3567"/>
  <circle cx="92.01" cy="105.66" r="2.09" fill="#10386B"/>
  <circle cx="72.33" cy="81.42" r="2.08" fill="#10386B"/>
  <circle cx="44.29" cy="72.55" r="2.08" fill="#10386B"/>
  <circle cx="53.03" cy="90.18" r="2.08" fill="#10386B"/>
  <circle cx="39.78" cy="55.25" r="2.1" fill="#0E3567"/>
  <circle cx="31.47" cy="13.33" r="2.07" fill="#10386B"/>
  <circle cx="47.12" cy="36.08" r="2.08" fill="#10386B"/>
  <circle cx="36.31" cy="27.46" r="2.08" fill="#10386B"/>
  <circle cx="21.41" cy="54.53" r="2.08" fill="#10386B"/>
  <circle cx="13.33" cy="71.48" r="2.08" fill="#10386B"/>
  <circle cx="41.4" cy="82.11" r="2.08" fill="#10386B"/>
  <circle cx="27.17" cy="76.14" r="2.08" fill="#10386B"/>
  <circle cx="55.78" cy="105.4" r="2.08" fill="#10386B"/>
  <circle cx="61.35" cy="57.81" r="2.08" fill="#10386B"/>
  <circle cx="85.84" cy="55.43" r="2.08" fill="#10386B"/>
  <circle cx="99.47" cy="67.5" r="2.08" fill="#10386B"/>
  <circle cx="146.67" cy="71.23" r="2.09" fill="#0E3567"/>
  <circle cx="130.53" cy="70.76" r="2.09" fill="#0E3567"/>
  <circle cx="137.59" cy="81.83" r="2.11" fill="#0E3567"/>
  <circle cx="121" cy="91.41" r="2.11" fill="#0E3567"/>
</g>
<g font-size="4" stroke="#000000" stroke-opacity="0.000" fill="#000000" id="img-0de0e201-5">
</g>
</svg>
