<?xml version="1.0" encoding="UTF-8"?>
<svg xmlns="http://www.w3.org/2000/svg"
     xmlns:xlink="http://www.w3.org/1999/xlink"
     version="1.2"
     width="160mm" height="160mm" viewBox="0 0 160 160"
     stroke="none"
     fill="#000000"
     stroke-width="0.3"
     font-size="3.88"
>
<g stroke-width="0.42" fill="#000000" fill-opacity="0.000" stroke="#D3D3D3" id="img-e44a24bf-1">
  <path fill="none" d="M50.92,93.07 L 43.97 81.56"/>
  <path fill="none" d="M54.01,94.23 L 83.54 84.81"/>
  <path fill="none" d="M52.88,92.95 L 55.89 86.34"/>
  <path fill="none" d="M106.84,20.8 L 117.36 14.63"/>
  <path fill="none" d="M106.25,23.57 L 112.02 31.68"/>
  <path fill="none" d="M104.26,23.81 L 93.37 51.29"/>
  <path fill="none" d="M114.7,60.8 L 144.53 61.93"/>
  <path fill="none" d="M111.53,58.83 L 102.32 41.73"/>
  <path fill="none" d="M112.6,58.57 L 113.18 35.48"/>
  <path fill="none" d="M110.54,59.97 L 94.57 54"/>
  <path fill="none" d="M110.52,60.03 L 99.62 56.31"/>
  <path fill="none" d="M112.96,58.61 L 115.48 45.71"/>
  <path fill="none" d="M113.88,62.41 L 124.37 75.73"/>
  <path fill="none" d="M110.93,62.13 L 87.25 82.72"/>
  <path fill="none" d="M111.69,62.69 L 101.42 86.35"/>
  <path fill="none" d="M110.5,61.36 L 106.04 62.77"/>
  <path fill="none" d="M90.08,115.17 L 81.33 117.74"/>
  <path fill="none" d="M92.13,112.42 L 92.09 84.31"/>
  <path fill="none" d="M102.64,38.65 L 122.85 14.91"/>
  <path fill="none" d="M100.57,41.74 L 89.46 63.32"/>
  <path fill="none" d="M99.75,40.91 L 72.28 54.6"/>
  <path fill="none" d="M118.56,15.58 L 113.83 31.38"/>
  <path fill="none" d="M119.62,15.61 L 123.67 33.58"/>
  <path fill="none" d="M74.7,42.16 L 95.83 54.58"/>
  <path fill="none" d="M73.69,43.03 L 80.52 59.87"/>
  <path fill="none" d="M109.19,73.78 L 83.97 77.91"/>
  <path fill="none" d="M112.63,72.15 L 134.91 52.43"/>
  <path fill="none" d="M110,71.85 L 105.25 65.12"/>
  <path fill="none" d="M109.5,74.56 L 91.29 86.71"/>
  <path fill="none" d="M109.34,74.29 L 94 81.33"/>
  <path fill="none" d="M112.73,72.29 L 117.04 69.1"/>
  <path fill="none" d="M65.16,64.95 L 90.64 54.09"/>
  <path fill="none" d="M64.2,67.6 L 74.96 88.95"/>
  <path fill="none" d="M61.54,64.63 L 52.62 58.79"/>
  <path fill="none" d="M112.03,35.1 L 98.84 53.92"/>
  <path fill="none" d="M75.5,20.44 L 79.9 42.25"/>
  <path fill="none" d="M76.23,20 L 93.56 34.14"/>
  <path fill="none" d="M44.97,79.58 L 60.13 78.19"/>
  <path fill="none" d="M40.83,80.11 L 15.53 84.31"/>
  <path fill="none" d="M44.67,80.87 L 64.49 93.07"/>
  <path fill="none" d="M44.46,78.39 L 68.76 56.97"/>
  <path fill="none" d="M92.17,51.18 L 86.76 24.58"/>
  <path fill="none" d="M93.5,55.17 L 104.51 78.26"/>
  <path fill="none" d="M92.4,55.37 L 89.73 85.78"/>
  <path fill="none" d="M122.62,37.16 L 117.17 42.57"/>
  <path fill="none" d="M122.89,37.39 L 105.27 61.69"/>
  <path fill="none" d="M125.24,33.83 L 127.49 30.08"/>
  <path fill="none" d="M78.98,116.2 L 76.17 92.97"/>
  <path fill="none" d="M79.94,116.29 L 88.87 89.87"/>
  <path fill="none" d="M78.79,120.48 L 73.68 144.36"/>
  <path fill="none" d="M119.44,95.22 L 139.1 113.08"/>
  <path fill="none" d="M115.8,93.16 L 87.69 84.77"/>
  <path fill="none" d="M116.97,91.83 L 104.9 65.31"/>
  <path fill="none" d="M64.35,77.82 L 93.31 75.31"/>
  <path fill="none" d="M63.92,76.72 L 71.07 71.26"/>
  <path fill="none" d="M97.47,75.29 L 123.58 77.22"/>
  <path fill="none" d="M93.85,76.55 L 87.21 82.67"/>
  <path fill="none" d="M97.25,76.07 L 103.52 79.23"/>
  <path fill="none" d="M93.35,74.68 L 74.62 70.48"/>
  <path fill="none" d="M94.39,73.3 L 89.47 64.23"/>
  <path fill="none" d="M97.38,74.51 L 116.72 68.47"/>
  <path fill="none" d="M95.82,56.69 L 74.4 69.05"/>
  <path fill="none" d="M97.21,57.69 L 92.52 80.14"/>
  <path fill="none" d="M99.45,56.69 L 116.91 66.79"/>
  <path fill="none" d="M114.88,45.48 L 105.12 61.6"/>
  <path fill="none" d="M114.13,43.15 L 94.66 34.8"/>
  <path fill="none" d="M87.31,24.35 L 93.7 34"/>
  <path fill="none" d="M81.62,42.96 L 93.52 34.91"/>
  <path fill="none" d="M80.72,45.49 L 91.47 80.19"/>
  <path fill="none" d="M79.15,45.17 L 71.74 53.92"/>
  <path fill="none" d="M80.7,51.42 L 83.32 77.41"/>
  <path fill="none" d="M80.7,51.41 L 93.66 35.05"/>
  <path fill="none" d="M80.7,51.42 L 88.94 63.35"/>
  <path fill="none" d="M83.9,78.31 L 99.13 87.1"/>
  <path fill="none" d="M82.8,78.15 L 58.16 84.45"/>
  <path fill="none" d="M83.87,77.66 L 102.31 64.61"/>
  <path fill="none" d="M83.16,78.56 L 74.81 100.07"/>
  <path fill="none" d="M84.14,82.55 L 74.02 71.52"/>
  <path fill="none" d="M84.43,85.96 L 75.13 100.24"/>
  <path fill="none" d="M85.2,82.01 L 81.68 63.79"/>
  <path fill="none" d="M98.9,88.21 L 78.03 90.61"/>
  <path fill="none" d="M57.78,83.75 L 71.19 71.4"/>
  <path fill="none" d="M135.77,49.07 L 128.97 30.23"/>
  <path fill="none" d="M76.3,88.75 L 80.91 63.8"/>
  <path fill="none" d="M104.21,65.5 L 105.25 78.06"/>
  <path fill="none" d="M101.93,63.25 L 83.34 61.92"/>
  <path fill="none" d="M101.98,62.92 L 72.44 56.04"/>
  <path fill="none" d="M103.5,81.12 L 91.44 86.96"/>
  <path fill="none" d="M105.79,82.3 L 108.85 100.4"/>
  <path fill="none" d="M126.68,28.89 L 94.7 34.43"/>
  <path fill="none" d="M93.79,35.13 L 82.16 59.91"/>
  <path fill="none" d="M74.11,68.66 L 79.8 63.2"/>
  <path fill="none" d="M70.93,69.06 L 52.69 58.68"/>
  <path fill="none" d="M74.54,69.34 L 88.75 63.96"/>
  <path fill="none" d="M72.93,100.49 L 67.84 95.65"/>
  <path fill="none" d="M89.51,85.77 L 89.24 64.29"/>
  <path fill="none" d="M87.51,88.43 L 68.35 93.63"/>
  <path fill="none" d="M52.95,57.43 L 68.24 55.78"/>
  <path fill="none" d="M107.86,100.86 L 93.45 83.81"/>
  <path fill="none" d="M90.18,83.09 L 68.23 93.29"/>
</g>
<g stroke-width="0.42" stroke="#D3D3D3" id="img-e44a24bf-2">
</g>
<g font-size="4" stroke="#000000" stroke-opacity="0.000" fill="#000000" id="img-e44a24bf-3">
</g>
<g stroke-width="0" stroke="#000000" stroke-opacity="0.000" id="img-e44a24bf-4">
  <circle cx="52.01" cy="94.86" r="2.01" fill="#DCF0FC"/>
  <circle cx="105.03" cy="21.86" r="2.02" fill="#B3DCF6"/>
  <circle cx="112.55" cy="60.72" r="2.06" fill="#DCF0FC"/>
  <circle cx="146.67" cy="62.01" r="2.05" fill="#AED9F5"/>
  <circle cx="92.13" cy="114.56" r="2.05" fill="#AED9F5"/>
  <circle cx="101.43" cy="40.08" r="1.8" fill="#FFE8E1"/>
  <circle cx="119.16" cy="13.57" r="2.01" fill="#B6DDF7"/>
  <circle cx="72.91" cy="41.11" r="1.99" fill="#CFEAFA"/>
  <circle cx="111.14" cy="73.47" r="1.9" fill="#FFEEE9"/>
  <circle cx="63.27" cy="65.76" r="1.98" fill="#C7E6F9"/>
  <circle cx="113.23" cy="33.39" r="2.01" fill="#BBE0F7"/>
  <circle cx="75.24" cy="19.2" r="1.22" fill="#FFBFB0"/>
  <circle cx="42.89" cy="79.77" r="2" fill="#CAE7F9"/>
  <circle cx="92.59" cy="53.26" r="2.04" fill="#D8EEFB"/>
  <circle cx="124.14" cy="35.66" r="2.05" fill="#E3F3FC"/>
  <circle cx="79.24" cy="118.36" r="2.09" fill="#B6DDF7"/>
  <circle cx="117.85" cy="93.78" r="2.06" fill="#C5E5F9"/>
  <circle cx="140.79" cy="114.61" r="2.18" fill="#8EC5EF"/>
  <circle cx="62.24" cy="78" r="2.03" fill="#DAEFFB"/>
  <circle cx="95.39" cy="75.13" r="2" fill="#FFF3EF"/>
  <circle cx="97.63" cy="55.64" r="2.01" fill="#D1EBFA"/>
  <circle cx="115.84" cy="43.88" r="1.79" fill="#FFE8E1"/>
  <circle cx="86.44" cy="23.04" r="1.51" fill="#FFD5CB"/>
  <circle cx="80.23" cy="43.89" r="1.61" fill="#FFDDD4"/>
  <circle cx="125.66" cy="77.38" r="2.01" fill="#D3ECFB"/>
  <circle cx="80.7" cy="51.41" r="0.01" fill="#610102"/>
  <circle cx="83.38" cy="78.01" r="0.57" fill="#F5705F"/>
  <circle cx="85.61" cy="84.15" r="2.08" fill="#E3F3FC"/>
  <circle cx="100.7" cy="88.01" r="1.74" fill="#FFE4DD"/>
  <circle cx="56.57" cy="84.85" r="1.57" fill="#FFD9CF"/>
  <circle cx="124.2" cy="13.33" r="1.99" fill="#D6EDFB"/>
  <circle cx="136.48" cy="51.04" r="2.01" fill="#EAF6FD"/>
  <circle cx="75.92" cy="90.85" r="2.05" fill="#D6EDFB"/>
  <circle cx="104.03" cy="63.4" r="2.02" fill="#FFF5F1"/>
  <circle cx="105.43" cy="80.19" r="2.05" fill="#DCF0FC"/>
  <circle cx="128.39" cy="28.6" r="1.66" fill="#FFE1D8"/>
  <circle cx="94.06" cy="34.54" r="0.62" fill="#F87664"/>
  <circle cx="72.67" cy="70.05" r="1.92" fill="#FFEEE9"/>
  <circle cx="74.18" cy="101.69" r="1.66" fill="#FFE1D8"/>
  <circle cx="81.29" cy="61.77" r="1.98" fill="#FFF1ED"/>
  <circle cx="89.54" cy="87.88" r="2.02" fill="#FFF5F1"/>
  <circle cx="50.89" cy="57.65" r="1.99" fill="#D3ECFB"/>
  <circle cx="89.23" cy="63.78" r="0.49" fill="#EC6051"/>
  <circle cx="109.2" cy="102.44" r="1.98" fill="#C3E4F8"/>
  <circle cx="92.09" cy="82.21" r="2.02" fill="#D6EDFB"/>
  <circle cx="118.74" cy="67.84" r="2.03" fill="#DCF0FC"/>
  <circle cx="13.33" cy="84.68" r="2.14" fill="#91C7F0"/>
  <circle cx="66.3" cy="94.18" r="2.04" fill="#DCF0FC"/>
  <circle cx="73.18" cy="146.67" r="2.26" fill="#81BCEB"/>
  <circle cx="70.36" cy="55.55" r="2.05" fill="#E3F3FC"/>
</g>
<g font-size="4" stroke="#000000" stroke-opacity="0.000" fill="#000000" id="img-e44a24bf-5">
</g>
</svg>
