<?xml version="1.0" encoding="UTF-8"?>
<svg xmlns="http://www.w3.org/2000/svg"
     xmlns:xlink="http://www.w3.org/1999/xlink"
     version="1.2"
     width="160mm" height="160mm" viewBox="0 0 160 160"
     stroke="none"
     fill="#000000"
     stroke-width="0.3"
     font-size="3.88"
>
<g stroke-width="0.42" fill="#000000" fill-opacity="0.000" stroke="#D3D3D3" id="img-83e9c504-1">
  <path fill="none" d="M75.62,136.78 L 82.43 117.76"/>
  <path fill="none" d="M75.7,136.88 L 98.83 135.04"/>
  <path fill="none" d="M75.51,136.79 L 58.72 110.72"/>
  <path fill="none" d="M82.29,115.36 L 66.86 84.72"/>
  <path fill="none" d="M82.27,117.69 L 70.96 139.5"/>
  <path fill="none" d="M84.01,115.87 L 113.5 98.61"/>
  <path fill="none" d="M100.8,135.44 L 121.1 145.96"/>
  <path fill="none" d="M100.28,134 L 111.32 108.07"/>
  <path fill="none" d="M99.47,133.99 L 87.9 106.46"/>
  <path fill="none" d="M122.64,145.14 L 125.68 118.39"/>
  <path fill="none" d="M121.42,145.55 L 112.14 135.63"/>
  <path fill="none" d="M124.74,116.94 L 96.83 107.96"/>
  <path fill="none" d="M124.72,117.54 L 113.4 120.3"/>
  <path fill="none" d="M125.86,116.16 L 127.3 85.17"/>
  <path fill="none" d="M96.78,108.02 L 103.77 118.42"/>
  <path fill="none" d="M96.62,107.94 L 58.73 110.72"/>
  <path fill="none" d="M104.52,119.79 L 110.06 132.46"/>
  <path fill="none" d="M103.61,118.57 L 88.65 105.91"/>
  <path fill="none" d="M58.72,110.72 L 35.22 79.99"/>
  <path fill="none" d="M112.75,134.11 L 123.81 133.47"/>
  <path fill="none" d="M110.92,132.3 L 111.4 122.73"/>
  <path fill="none" d="M109.63,132.72 L 88.38 106.18"/>
  <path fill="none" d="M67.51,84.21 L 79.31 94.3"/>
  <path fill="none" d="M64.8,81.12 L 53.3 63.29"/>
  <path fill="none" d="M65.85,80.79 L 65.07 59.08"/>
  <path fill="none" d="M134.17,48.16 L 145.34 64.09"/>
  <path fill="none" d="M131.61,48.25 L 122.8 63.02"/>
  <path fill="none" d="M130.5,46.65 L 106.79 50.99"/>
  <path fill="none" d="M109.75,71.85 L 111.97 104.2"/>
  <path fill="none" d="M111.32,70.99 L 125.67 81.72"/>
  <path fill="none" d="M107.98,68.3 L 81.54 45.37"/>
  <path fill="none" d="M144.56,66.94 L 129.79 73.6"/>
  <path fill="none" d="M144.93,67.52 L 129.01 81.59"/>
  <path fill="none" d="M67.03,105.29 L 58.39 88.79"/>
  <path fill="none" d="M69.6,105.76 L 79.35 97.02"/>
  <path fill="none" d="M70.05,106.54 L 91.16 99.88"/>
  <path fill="none" d="M124.28,132.1 L 112.97 122.07"/>
  <path fill="none" d="M124.85,131.66 L 113.02 108.02"/>
  <path fill="none" d="M59.35,87.7 L 78.95 94.93"/>
  <path fill="none" d="M55.48,87.47 L 26.59 94.48"/>
  <path fill="none" d="M59.19,88.03 L 85.4 103.59"/>
  <path fill="none" d="M57.04,85.01 L 52.59 63.58"/>
  <path fill="none" d="M57.94,85.03 L 64.47 59.02"/>
  <path fill="none" d="M109.98,119.52 L 82.48 96.95"/>
  <path fill="none" d="M111.58,118.81 L 112.03 108.23"/>
  <path fill="none" d="M79.66,97.31 L 68.32 112.78"/>
  <path fill="none" d="M81.52,93.68 L 91.34 63.52"/>
  <path fill="none" d="M69.8,139.29 L 67.32 116.49"/>
  <path fill="none" d="M71.43,139.84 L 83 127.82"/>
  <path fill="none" d="M67.04,112.38 L 66.65 99.64"/>
  <path fill="none" d="M67.51,112.42 L 74.29 79.27"/>
  <path fill="none" d="M83.34,124.62 L 67.68 99.33"/>
  <path fill="none" d="M86.06,125.15 L 110.48 107.4"/>
  <path fill="none" d="M64.52,97.4 L 35.66 94.98"/>
  <path fill="none" d="M68.65,97.7 L 91.06 99.09"/>
  <path fill="none" d="M67.05,95.55 L 74.79 62.07"/>
  <path fill="none" d="M113.01,104.41 L 126.82 76.47"/>
  <path fill="none" d="M111.35,104.35 L 102.97 83.85"/>
  <path fill="none" d="M125.6,74.42 L 104.43 73.6"/>
  <path fill="none" d="M127.03,72.45 L 119.4 51.9"/>
  <path fill="none" d="M103.52,71.79 L 117.34 51.64"/>
  <path fill="none" d="M101.41,75.4 L 88.01 102.81"/>
  <path fill="none" d="M100.26,73.8 L 76.76 76.97"/>
  <path fill="none" d="M120.81,50.32 L 140.13 55.08"/>
  <path fill="none" d="M119.06,51.99 L 121.23 62.75"/>
  <path fill="none" d="M116.58,48.82 L 90.38 36.45"/>
  <path fill="none" d="M141.27,57.67 L 128.43 81.12"/>
  <path fill="none" d="M122.34,67.03 L 126.75 80.96"/>
  <path fill="none" d="M119.47,64.66 L 94.2 61.69"/>
  <path fill="none" d="M121.24,67.1 L 115.68 95.53"/>
  <path fill="none" d="M125.45,83.94 L 95.18 98.3"/>
  <path fill="none" d="M23.13,94.04 L 14.23 89.29"/>
  <path fill="none" d="M26.64,94.91 L 33.1 94.88"/>
  <path fill="none" d="M14.31,89.09 L 33.15 94.52"/>
  <path fill="none" d="M14.28,88.41 L 34.74 79.86"/>
  <path fill="none" d="M34.44,93.59 L 35.01 80.05"/>
  <path fill="none" d="M35.64,94.6 L 51 91.26"/>
  <path fill="none" d="M35.29,79.91 L 51.19 90.23"/>
  <path fill="none" d="M35.08,79.42 L 41.57 42.37"/>
  <path fill="none" d="M53.58,91.46 L 85.26 103.88"/>
  <path fill="none" d="M53.48,90.26 L 72.94 78.33"/>
  <path fill="none" d="M88.23,102.94 L 101.03 83.65"/>
  <path fill="none" d="M75.02,75.2 L 79.56 46.09"/>
  <path fill="none" d="M86.76,37.08 L 81.43 42.4"/>
  <path fill="none" d="M86.12,35.81 L 72.36 37.74"/>
  <path fill="none" d="M86.69,37.01 L 66.56 55.5"/>
  <path fill="none" d="M78.24,42.53 L 54.25 22.1"/>
  <path fill="none" d="M35.69,14.11 L 50.61 19.92"/>
  <path fill="none" d="M34.33,15.38 L 41.3 38.01"/>
  <path fill="none" d="M51.58,22.59 L 43.04 38.19"/>
  <path fill="none" d="M42.93,42.18 L 51.26 59.62"/>
  <path fill="none" d="M44.2,39.99 L 67.97 38.22"/>
  <path fill="none" d="M54.26,61.37 L 73.1 60.09"/>
  <path fill="none" d="M70.67,40.2 L 74.79 57.82"/>
  <path fill="none" d="M71.68,39.67 L 90.53 59.83"/>
  <path fill="none" d="M77.46,60.14 L 89.84 61.24"/>
  <path fill="none" d="M77.38,59.33 L 102.41 52.03"/>
  <path fill="none" d="M93.73,60.06 L 102.81 52.8"/>
  <path fill="none" d="M93,63.4 L 101.26 80.05"/>
  <path fill="none" d="M104.39,53.64 L 102.35 79.84"/>
</g>
<g stroke-width="0.42" stroke="#D3D3D3" id="img-83e9c504-2">
</g>
<g font-size="4" stroke="#000000" stroke-opacity="0.000" fill="#000000" id="img-83e9c504-3">
</g>
<g stroke-width="0" stroke="#000000" stroke-opacity="0.000" id="img-83e9c504-4">
  <circle cx="75.58" cy="136.89" r="0.12" fill="#951612"/>
  <circle cx="82.88" cy="116.53" r="1.26" fill="#FFC5B8"/>
  <circle cx="99.87" cy="134.96" r="1.01" fill="#FFAC9C"/>
  <circle cx="122.46" cy="146.67" r="1.47" fill="#FFD5CB"/>
  <circle cx="125.8" cy="117.28" r="1.07" fill="#FFB3A3"/>
  <circle cx="96.72" cy="107.93" r="0.1" fill="#901310"/>
  <circle cx="104.2" cy="119.07" r="0.75" fill="#FF8D7B"/>
  <circle cx="58.72" cy="110.72" r="0" fill="#610102"/>
  <circle cx="110.83" cy="134.22" r="1.85" fill="#FFEEE9"/>
  <circle cx="65.93" cy="82.86" r="1.99" fill="#C5E5F9"/>
  <circle cx="132.82" cy="46.23" r="2.26" fill="#71B0E5"/>
  <circle cx="109.6" cy="69.71" r="2.06" fill="#9CCEF2"/>
  <circle cx="146.67" cy="65.99" r="2.22" fill="#7BB8E9"/>
  <circle cx="68.02" cy="107.18" r="2.04" fill="#9CCEF2"/>
  <circle cx="125.71" cy="133.36" r="1.83" fill="#D6EDFB"/>
  <circle cx="57.45" cy="87" r="1.94" fill="#C3E4F8"/>
  <circle cx="111.5" cy="120.77" r="1.88" fill="#E1F2FC"/>
  <circle cx="80.88" cy="95.64" r="1.98" fill="#B1DAF6"/>
  <circle cx="70.02" cy="141.31" r="1.96" fill="#CFEAFA"/>
  <circle cx="67.1" cy="114.44" r="1.98" fill="#B3DCF6"/>
  <circle cx="84.41" cy="126.35" r="1.96" fill="#B6DDF7"/>
  <circle cx="66.59" cy="97.57" r="1.99" fill="#BEE1F8"/>
  <circle cx="112.11" cy="106.22" r="1.94" fill="#CAE7F9"/>
  <circle cx="127.79" cy="74.51" r="2.11" fill="#91C7F0"/>
  <circle cx="102.34" cy="73.52" r="2.01" fill="#AED9F5"/>
  <circle cx="118.62" cy="49.78" r="2.17" fill="#84BEEC"/>
  <circle cx="142.38" cy="55.64" r="2.23" fill="#7BB8E9"/>
  <circle cx="121.67" cy="64.92" r="2.13" fill="#91C7F0"/>
  <circle cx="127.4" cy="83.01" r="2.07" fill="#ACD7F5"/>
  <circle cx="24.78" cy="94.92" r="1.79" fill="#FFEBE5"/>
  <circle cx="13.33" cy="88.81" r="0.98" fill="#FFAA99"/>
  <circle cx="34.38" cy="94.88" r="1.23" fill="#FFC3B5"/>
  <circle cx="35.03" cy="79.73" r="0.3" fill="#CE3E33"/>
  <circle cx="52.32" cy="90.97" r="1.3" fill="#FFC7BA"/>
  <circle cx="87.12" cy="104.61" r="1.92" fill="#FFF1ED"/>
  <circle cx="74.71" cy="77.25" r="1.99" fill="#C0E2F8"/>
  <circle cx="88.34" cy="35.49" r="2.16" fill="#86C0ED"/>
  <circle cx="79.89" cy="43.94" r="2.09" fill="#99CCF1"/>
  <circle cx="93.22" cy="99.23" r="2.08" fill="#99CCF1"/>
  <circle cx="33.7" cy="13.33" r="2.05" fill="#B9DEF7"/>
  <circle cx="52.61" cy="20.7" r="2.07" fill="#B1DAF6"/>
  <circle cx="41.96" cy="40.16" r="2.15" fill="#E5F4FD"/>
  <circle cx="52.16" cy="61.52" r="2.02" fill="#B6DDF7"/>
  <circle cx="70.17" cy="38.05" r="2.12" fill="#9CCEF2"/>
  <circle cx="75.28" cy="59.94" r="2.1" fill="#97CBF1"/>
  <circle cx="92.02" cy="61.43" r="2.1" fill="#94C9F0"/>
  <circle cx="104.57" cy="51.4" r="2.16" fill="#84BEEC"/>
  <circle cx="102.18" cy="81.92" r="2" fill="#AED9F5"/>
  <circle cx="64.99" cy="56.95" r="2.05" fill="#9FCFF3"/>
  <circle cx="115.29" cy="97.56" r="1.99" fill="#D1EBFA"/>
</g>
<g font-size="4" stroke="#000000" stroke-opacity="0.000" fill="#000000" id="img-83e9c504-5">
</g>
</svg>
