<?xml version="1.0" encoding="UTF-8"?>
<svg xmlns="http://www.w3.org/2000/svg"
     xmlns:xlink="http://www.w3.org/1999/xlink"
     xmlns:gadfly="http://www.gadflyjl.org/ns"
     version="1.2"
     width="160mm" height="160mm" viewBox="0 0 160 160"
     stroke="none"
     fill="#000000"
     stroke-width="0.3"
     font-size="3.88"
>
<g stroke-width="0.42" fill="#000000" fill-opacity="0.000" stroke="#D3D3D3" id="img-473b57ce-1">
  <path fill="none" d="M38.37,49.18 L 61.43 48.69"/>
  <path fill="none" d="M37.54,47.47 L 47.46 35.38"/>
  <path fill="none" d="M35.21,51.33 L 26.6 71.68"/>
  <path fill="none" d="M38.31,49.74 L 53.9 53.29"/>
  <path fill="none" d="M43.15,114.32 L 59.23 130.83"/>
  <path fill="none" d="M41.28,110.47 L 38.57 89.92"/>
  <path fill="none" d="M43.79,112.26 L 65.24 107.98"/>
  <path fill="none" d="M39.61,111.59 L 19.89 100.4"/>
  <path fill="none" d="M15.48,45 L 41.83 53.96"/>
  <path fill="none" d="M74.64,75.2 L 64.58 50.75"/>
  <path fill="none" d="M76.68,75.34 L 90.64 51.1"/>
  <path fill="none" d="M76.31,79.52 L 81.95 95.09"/>
  <path fill="none" d="M73.87,78.97 L 53.55 99.02"/>
  <path fill="none" d="M76.58,75.29 L 83.27 62.35"/>
  <path fill="none" d="M75.84,75.05 L 77.02 66.52"/>
  <path fill="none" d="M77.24,78.89 L 93.89 93.78"/>
  <path fill="none" d="M33.59,109.01 L 37.79 89.88"/>
  <path fill="none" d="M35.08,110.11 L 49.95 101.73"/>
  <path fill="none" d="M34.54,112.97 L 43.83 124.33"/>
  <path fill="none" d="M75.77,39.36 L 51.13 34.09"/>
  <path fill="none" d="M78.43,42.08 L 83.72 69.43"/>
  <path fill="none" d="M80.26,39.55 L 104.21 36.45"/>
  <path fill="none" d="M62.85,131.5 L 82.21 122.54"/>
  <path fill="none" d="M65.84,49.46 L 89.84 58.74"/>
  <path fill="none" d="M61.45,48.94 L 51.71 50.26"/>
  <path fill="none" d="M65.76,47.65 L 85.74 37.95"/>
  <path fill="none" d="M61.53,49.31 L 46.17 54.03"/>
  <path fill="none" d="M63.12,46.44 L 57.07 23.94"/>
  <path fill="none" d="M111.71,75.61 L 105.29 61.08"/>
  <path fill="none" d="M110.4,77.24 L 86.43 72.18"/>
  <path fill="none" d="M106.48,58.03 L 122.49 51.1"/>
  <path fill="none" d="M102.33,57.8 L 90.64 51.1"/>
  <path fill="none" d="M103.76,61.21 L 98.11 82.98"/>
  <path fill="none" d="M102.95,57.1 L 89.18 38.78"/>
  <path fill="none" d="M102.06,59.4 L 79.59 63.81"/>
  <path fill="none" d="M105.85,57.18 L 116.43 44.78"/>
  <path fill="none" d="M39.32,69.76 L 54.47 55.4"/>
  <path fill="none" d="M90.36,57.94 L 80.6 48.14"/>
  <path fill="none" d="M92.45,61.79 L 97.05 82.96"/>
  <path fill="none" d="M89.69,59.79 L 86.58 60.1"/>
  <path fill="none" d="M94.11,58.76 L 112.54 51.85"/>
  <path fill="none" d="M94.2,24.51 L 90.64 51.1"/>
  <path fill="none" d="M93.54,24.32 L 88.75 34.86"/>
  <path fill="none" d="M78.63,44.2 L 76.32 28.52"/>
  <path fill="none" d="M81.12,47.35 L 90.64 51.1"/>
  <path fill="none" d="M79.43,48.77 L 83.69 69.43"/>
  <path fill="none" d="M76.71,47.02 L 46.21 54.17"/>
  <path fill="none" d="M80.93,45.26 L 103.71 30.92"/>
  <path fill="none" d="M74.32,27.82 L 61.72 39.58"/>
  <path fill="none" d="M77.98,27.37 L 99.99 39.54"/>
  <path fill="none" d="M73.76,25.75 L 58.69 22.26"/>
  <path fill="none" d="M58.36,42.64 L 51.16 49.05"/>
  <path fill="none" d="M59.88,43.39 L 58.05 66.14"/>
  <path fill="none" d="M62.31,40.79 L 85.54 37.29"/>
  <path fill="none" d="M58.32,42.59 L 45.73 53.22"/>
  <path fill="none" d="M122.48,49.3 L 104.07 41.52"/>
  <path fill="none" d="M125.04,52.43 L 128.39 68.81"/>
  <path fill="none" d="M122.78,48.79 L 108.27 37.56"/>
  <path fill="none" d="M51.25,51.95 L 64.24 62.08"/>
  <path fill="none" d="M50.43,52.61 L 56.9 66.35"/>
  <path fill="none" d="M68.11,64.42 L 82.05 70.75"/>
  <path fill="none" d="M68.28,63.09 L 82.07 60.71"/>
  <path fill="none" d="M144.42,45.66 L 116.99 50.62"/>
  <path fill="none" d="M90.64,51.1 L 84.86 69.49"/>
  <path fill="none" d="M90.64,51.1 L 112.39 51.04"/>
  <path fill="none" d="M90.64,51.1 L 115.69 43.65"/>
  <path fill="none" d="M90.64,51.1 L 58.47 53.63"/>
  <path fill="none" d="M39.89,86.08 L 56.25 69.99"/>
  <path fill="none" d="M38.66,85.44 L 43.6 56.94"/>
  <path fill="none" d="M126,15 L 108.02 34.48"/>
  <path fill="none" d="M102.3,42.89 L 105.35 64.5"/>
  <path fill="none" d="M99.77,40.06 L 90.02 37.52"/>
  <path fill="none" d="M84.02,95.35 L 96.16 77.77"/>
  <path fill="none" d="M80.84,98.5 L 69.34 106.26"/>
  <path fill="none" d="M49.67,35.76 L 55.37 51.63"/>
  <path fill="none" d="M50.13,31.7 L 55.26 23.66"/>
  <path fill="none" d="M85.79,73.35 L 95.93 83.57"/>
  <path fill="none" d="M86.37,72.4 L 95.28 75.21"/>
  <path fill="none" d="M83.18,73.8 L 68.42 105.48"/>
  <path fill="none" d="M47,124.63 L 65.72 108.99"/>
  <path fill="none" d="M91.78,144.52 L 84.97 123.74"/>
  <path fill="none" d="M96.75,87.34 L 85.04 119.46"/>
  <path fill="none" d="M98.46,83.1 L 104.75 68.83"/>
  <path fill="none" d="M95.22,75.47 L 60.1 68.82"/>
  <path fill="none" d="M98.98,74.2 L 104.15 68.44"/>
  <path fill="none" d="M99.71,75.54 L 126.6 71.38"/>
  <path fill="none" d="M98.76,74.02 L 113.39 52.94"/>
  <path fill="none" d="M97.24,78.16 L 95.8 93.03"/>
  <path fill="none" d="M69.2,108.99 L 82.53 120.14"/>
  <path fill="none" d="M55.63,68.77 L 27.95 73.4"/>
  <path fill="none" d="M60.04,67.74 L 82.14 60.99"/>
  <path fill="none" d="M103.49,66.1 L 86.5 60.98"/>
  <path fill="none" d="M25.06,75.93 L 18.59 97.12"/>
  <path fill="none" d="M85.85,58.65 L 104.93 37.84"/>
  <path fill="none" d="M113.59,49.01 L 107.58 38.16"/>
  <path fill="none" d="M113.81,48.9 L 106.55 31.81"/>
  <path fill="none" d="M90.1,36.85 L 104.19 36.26"/>
  <path fill="none" d="M75.28,63.24 L 58.23 54.83"/>
  <path fill="none" d="M46.26,54.53 L 53.84 53.98"/>
  <path fill="none" d="M106.18,33.9 L 105.94 31.97"/>
</g>
<g stroke-width="0.42" stroke="#D3D3D3" id="img-473b57ce-2">
</g>
<g font-size="4" stroke="#000000" stroke-opacity="0.000" fill="#000000" id="img-473b57ce-3">
</g>
<g stroke-width="0" stroke="#000000" id="img-473b57ce-4">
  <circle cx="36.09" cy="49.23" r="2.19" fill="#0B2F5D"/>
  <circle cx="41.58" cy="112.7" r="2.17" fill="#0D3262"/>
  <circle cx="13.33" cy="44.27" r="2.17" fill="#0D3262"/>
  <circle cx="75.52" cy="77.34" r="2.22" fill="#0B2F5D"/>
  <circle cx="33.1" cy="111.22" r="2.17" fill="#0D3262"/>
  <circle cx="78" cy="39.84" r="2.19" fill="#0B2F5D"/>
  <circle cx="60.8" cy="132.45" r="2.17" fill="#0D3262"/>
  <circle cx="63.71" cy="48.64" r="2.19" fill="#0B2F5D"/>
  <circle cx="112.64" cy="77.71" r="2.2" fill="#0B2F5D"/>
  <circle cx="104.35" cy="58.95" r="2.23" fill="#092C58"/>
  <circle cx="37.67" cy="71.33" r="2.19" fill="#0B2F5D"/>
  <circle cx="91.97" cy="59.56" r="2.19" fill="#0B2F5D"/>
  <circle cx="94.51" cy="22.18" r="2.25" fill="#092C58"/>
  <circle cx="78.96" cy="46.49" r="2.23" fill="#0B2F5D"/>
  <circle cx="75.98" cy="26.27" r="2.19" fill="#0B2F5D"/>
  <circle cx="60.06" cy="41.13" r="2.18" fill="#0B2F5D"/>
  <circle cx="124.59" cy="50.19" r="2.19" fill="#0B2F5D"/>
  <circle cx="49.46" cy="50.56" r="2.18" fill="#0D3262"/>
  <circle cx="66.03" cy="63.48" r="2.19" fill="#0B2F5D"/>
  <circle cx="146.67" cy="45.25" r="2.19" fill="#0B2F5D"/>
  <circle cx="90.64" cy="51.1" r="0" fill="#610102"/>
  <circle cx="38.27" cy="87.67" r="2.17" fill="#0D3262"/>
  <circle cx="127.54" cy="13.33" r="2.18" fill="#0D3262"/>
  <circle cx="101.98" cy="40.64" r="2.18" fill="#0B2F5D"/>
  <circle cx="82.72" cy="97.23" r="2.18" fill="#0B2F5D"/>
  <circle cx="48.9" cy="33.62" r="2.19" fill="#0B2F5D"/>
  <circle cx="51.93" cy="100.61" r="2.18" fill="#0D3262"/>
  <circle cx="84.16" cy="71.7" r="2.22" fill="#0B2F5D"/>
  <circle cx="45.26" cy="126.08" r="2.17" fill="#0D3262"/>
  <circle cx="92.48" cy="146.67" r="2.16" fill="#0D3262"/>
  <circle cx="97.53" cy="85.19" r="2.19" fill="#0B2F5D"/>
  <circle cx="97.46" cy="75.89" r="2.19" fill="#0B2F5D"/>
  <circle cx="67.46" cy="107.53" r="2.18" fill="#0D3262"/>
  <circle cx="57.87" cy="68.4" r="2.18" fill="#0D3262"/>
  <circle cx="84.27" cy="121.59" r="2.17" fill="#0D3262"/>
  <circle cx="105.67" cy="66.75" r="2.18" fill="#0B2F5D"/>
  <circle cx="25.72" cy="73.77" r="2.17" fill="#0D3262"/>
  <circle cx="128.84" cy="71.03" r="2.18" fill="#0D3262"/>
  <circle cx="84.32" cy="60.32" r="2.19" fill="#0B2F5D"/>
  <circle cx="114.71" cy="51.03" r="2.23" fill="#0B2F5D"/>
  <circle cx="87.81" cy="36.94" r="2.2" fill="#0B2F5D"/>
  <circle cx="77.34" cy="64.25" r="2.2" fill="#0B2F5D"/>
  <circle cx="95.59" cy="95.3" r="2.19" fill="#0B2F5D"/>
  <circle cx="117.95" cy="42.98" r="2.26" fill="#092C58"/>
  <circle cx="43.99" cy="54.69" r="2.19" fill="#0B2F5D"/>
  <circle cx="17.93" cy="99.28" r="2.17" fill="#0D3262"/>
  <circle cx="106.47" cy="36.16" r="2.19" fill="#0B2F5D"/>
  <circle cx="56.16" cy="53.81" r="2.22" fill="#0B2F5D"/>
  <circle cx="56.48" cy="21.74" r="2.18" fill="#0B2F5D"/>
  <circle cx="105.65" cy="29.7" r="2.2" fill="#0B2F5D"/>
</g>
<g font-size="4" stroke="#000000" stroke-opacity="0.000" fill="#000000" id="img-473b57ce-5">
</g>
</svg>
