<?xml version="1.0" encoding="UTF-8"?>
<svg xmlns="http://www.w3.org/2000/svg"
     xmlns:xlink="http://www.w3.org/1999/xlink"
     xmlns:gadfly="http://www.gadflyjl.org/ns"
     version="1.2"
     width="160mm" height="160mm" viewBox="0 0 160 160"
     stroke="none"
     fill="#000000"
     stroke-width="0.3"
     font-size="3.88"
>
<g stroke-width="0.42" fill="#000000" fill-opacity="0.000" stroke="#D3D3D3" id="img-222a6454-1">
  <path fill="none" d="M130.12,42.6 L 106.97 44.92"/>
  <path fill="none" d="M134.47,42.78 L 144.51 44.63"/>
  <path fill="none" d="M130.51,41.11 L 115.16 30.27"/>
  <path fill="none" d="M132.1,44.57 L 129.74 68.86"/>
  <path fill="none" d="M108.62,53.56 L 120.56 41.25"/>
  <path fill="none" d="M109.26,54.81 L 129.2 51.81"/>
  <path fill="none" d="M105.37,53.77 L 86.55 38.76"/>
  <path fill="none" d="M105.2,56.27 L 78.93 72.08"/>
  <path fill="none" d="M108.88,56.41 L 127.73 69.78"/>
  <path fill="none" d="M123.45,41.4 L 130.02 49.75"/>
  <path fill="none" d="M123.63,41.24 L 142.24 60.16"/>
  <path fill="none" d="M120.01,38.96 L 91.18 29.02"/>
  <path fill="none" d="M133.07,52.88 L 142.08 60.33"/>
  <path fill="none" d="M129.51,52.65 L 113.46 62.76"/>
  <path fill="none" d="M143.18,63.84 L 137.85 82.61"/>
  <path fill="none" d="M142.62,63.6 L 135.33 75.43"/>
  <path fill="none" d="M135.27,85.72 L 112.93 96.91"/>
  <path fill="none" d="M136.5,82.66 L 128.46 60.33"/>
  <path fill="none" d="M137.14,86.94 L 136.56 99.26"/>
  <path fill="none" d="M132.52,78.77 L 112.61 96.43"/>
  <path fill="none" d="M133.32,75.27 L 124.06 52.85"/>
  <path fill="none" d="M112.09,99.82 L 125.78 122.47"/>
  <path fill="none" d="M110.36,100.07 L 104.06 123.5"/>
  <path fill="none" d="M109.13,96.6 L 78.82 74.52"/>
  <path fill="none" d="M108.73,97.56 L 87.72 94.18"/>
  <path fill="none" d="M127.81,144.41 L 127.04 126.63"/>
  <path fill="none" d="M126.12,145.3 L 114.05 136.12"/>
  <path fill="none" d="M125.11,125.68 L 114.11 133.35"/>
  <path fill="none" d="M127.81,122.32 L 135.61 103.51"/>
  <path fill="none" d="M110.55,133 L 105.04 127.29"/>
  <path fill="none" d="M110.81,132.79 L 94.24 109.71"/>
  <path fill="none" d="M101.47,124.66 L 89.52 118.66"/>
  <path fill="none" d="M94.24,109.71 L 85.15 104.18"/>
  <path fill="none" d="M94.24,109.71 L 88.89 77.97"/>
  <path fill="none" d="M94.24,109.71 L 86.54 95.85"/>
  <path fill="none" d="M86.87,115.49 L 83.81 105.21"/>
  <path fill="none" d="M88.12,115.48 L 94.83 91.71"/>
  <path fill="none" d="M84.73,101.22 L 93.93 91.2"/>
  <path fill="none" d="M83.59,100.64 L 88.05 77.96"/>
  <path fill="none" d="M95.47,87.32 L 95.88 56.75"/>
  <path fill="none" d="M94.93,87.38 L 89.35 63.55"/>
  <path fill="none" d="M97.19,90.95 L 117.5 107.23"/>
  <path fill="none" d="M97.42,52.94 L 103.27 46.74"/>
  <path fill="none" d="M97.65,53.19 L 112.98 41.17"/>
  <path fill="none" d="M95.36,52.41 L 89.65 30.43"/>
  <path fill="none" d="M90.4,59.82 L 103.24 46.71"/>
  <path fill="none" d="M87.61,59.57 L 73.25 38.48"/>
  <path fill="none" d="M91.05,61.64 L 109.37 63.7"/>
  <path fill="none" d="M102.65,44.59 L 74.14 37.21"/>
  <path fill="none" d="M106.69,46.24 L 125.81 57.17"/>
  <path fill="none" d="M69.82,36.67 L 57.52 36.73"/>
  <path fill="none" d="M70.19,35.44 L 50.84 22.52"/>
  <path fill="none" d="M71.81,34.47 L 71.16 27.82"/>
  <path fill="none" d="M126.45,56.46 L 115.99 41.61"/>
  <path fill="none" d="M129.52,57 L 144.86 46.29"/>
  <path fill="none" d="M125.56,58.68 L 105.18 62.71"/>
  <path fill="none" d="M116,38.02 L 121.81 29.96"/>
  <path fill="none" d="M112.52,40.02 L 101.6 41.05"/>
  <path fill="none" d="M144.53,45.55 L 125.36 50.28"/>
  <path fill="none" d="M123.11,30.38 L 123.21 48.6"/>
  <path fill="none" d="M121.17,29.24 L 101.34 40.18"/>
  <path fill="none" d="M121.17,49.98 L 101.45 42.08"/>
  <path fill="none" d="M121.76,52.46 L 113.06 62.28"/>
  <path fill="none" d="M122.31,48.79 L 114.27 31"/>
  <path fill="none" d="M122.31,52.82 L 112.53 74.53"/>
  <path fill="none" d="M98.73,43.37 L 89.21 73.43"/>
  <path fill="none" d="M97.45,40.19 L 72.88 26.69"/>
  <path fill="none" d="M109.6,64.96 L 90.59 74.6"/>
  <path fill="none" d="M86.89,73.96 L 68.96 55.09"/>
  <path fill="none" d="M111.26,29.62 L 86.94 36.77"/>
  <path fill="none" d="M69.06,51.97 L 83.21 38.88"/>
  <path fill="none" d="M66.12,51.67 L 56.61 38.53"/>
  <path fill="none" d="M82.63,37.34 L 57.52 36.79"/>
  <path fill="none" d="M53.14,36.43 L 33.86 33.65"/>
  <path fill="none" d="M14.94,17.79 L 30.08 31.85"/>
  <path fill="none" d="M15.49,15.95 L 29.65 13.68"/>
  <path fill="none" d="M31.7,31.15 L 31.8 15.52"/>
  <path fill="none" d="M33.49,32.09 L 47.22 22.56"/>
  <path fill="none" d="M32.34,35.44 L 41.11 63.44"/>
  <path fill="none" d="M33.8,14.25 L 47.03 20.38"/>
  <path fill="none" d="M34,13.33 L 56.7 13.35"/>
  <path fill="none" d="M50.73,19.93 L 57.18 14.72"/>
  <path fill="none" d="M51.17,21.73 L 68.8 25.21"/>
  <path fill="none" d="M60.43,14.91 L 69.41 24.07"/>
  <path fill="none" d="M60.85,14.32 L 87.13 27.33"/>
  <path fill="none" d="M71.77,27.67 L 79.12 45.92"/>
  <path fill="none" d="M88.17,30.29 L 80.87 45.97"/>
  <path fill="none" d="M81.77,49.17 L 101.18 61.93"/>
  <path fill="none" d="M79.69,50.15 L 77.29 71.03"/>
  <path fill="none" d="M104.21,65 L 110.42 74.68"/>
  <path fill="none" d="M74.88,72.75 L 43.92 66.01"/>
  <path fill="none" d="M75.04,74.16 L 55.77 83.18"/>
  <path fill="none" d="M30.72,80.52 L 40.46 67.32"/>
  <path fill="none" d="M31.6,82.46 L 51.54 83.96"/>
  <path fill="none" d="M42.96,67.4 L 52.55 82.26"/>
  <path fill="none" d="M55.88,84.77 L 83.17 93.13"/>
  <path fill="none" d="M87.36,92.53 L 109.76 77.77"/>
  <path fill="none" d="M121.27,107.77 L 134.41 102.32"/>
  <path fill="none" d="M113.74,75.9 L 127.42 71.7"/>
  <path fill="none" d="M135.96,99.31 L 130.02 73.21"/>
</g>
<g stroke-width="0.42" stroke="#D3D3D3" id="img-222a6454-2">
</g>
<g font-size="4" stroke="#000000" stroke-opacity="0.000" fill="#000000" id="img-222a6454-3">
</g>
<g stroke-width="0" stroke="#000000" id="img-222a6454-4">
  <circle cx="132.31" cy="42.38" r="2.11" fill="#0E3567"/>
  <circle cx="107.09" cy="55.14" r="2.11" fill="#0E3567"/>
  <circle cx="122.09" cy="39.67" r="2.11" fill="#0E3567"/>
  <circle cx="131.38" cy="51.48" r="2.11" fill="#0E3567"/>
  <circle cx="143.78" cy="61.73" r="2.11" fill="#0E3567"/>
  <circle cx="137.24" cy="84.73" r="2.12" fill="#0E3567"/>
  <circle cx="134.17" cy="77.31" r="2.12" fill="#0E3567"/>
  <circle cx="110.94" cy="97.91" r="2.14" fill="#0D3262"/>
  <circle cx="127.91" cy="146.67" r="2.16" fill="#0D3262"/>
  <circle cx="126.95" cy="124.39" r="2.15" fill="#0D3262"/>
  <circle cx="112.18" cy="134.7" r="2.26" fill="#092C58"/>
  <circle cx="103.48" cy="125.68" r="2.16" fill="#0D3262"/>
  <circle cx="94.24" cy="109.71" r="0" fill="#610102"/>
  <circle cx="87.51" cy="117.65" r="2.16" fill="#0D3262"/>
  <circle cx="83.13" cy="102.95" r="2.26" fill="#092C58"/>
  <circle cx="95.44" cy="89.56" r="2.15" fill="#0D3262"/>
  <circle cx="95.91" cy="54.55" r="2.12" fill="#0E3567"/>
  <circle cx="88.85" cy="61.4" r="2.12" fill="#0E3567"/>
  <circle cx="104.78" cy="45.14" r="2.11" fill="#0E3567"/>
  <circle cx="72.02" cy="36.66" r="2.11" fill="#0E3567"/>
  <circle cx="127.72" cy="58.26" r="2.11" fill="#0E3567"/>
  <circle cx="114.72" cy="39.81" r="2.11" fill="#0E3567"/>
  <circle cx="146.67" cy="45.03" r="2.11" fill="#0E3567"/>
  <circle cx="123.1" cy="28.18" r="2.12" fill="#0E3567"/>
  <circle cx="123.22" cy="50.81" r="2.12" fill="#0E3567"/>
  <circle cx="99.39" cy="41.25" r="2.13" fill="#0D3262"/>
  <circle cx="111.58" cy="63.95" r="2.13" fill="#0D3262"/>
  <circle cx="88.5" cy="75.66" r="2.25" fill="#092C58"/>
  <circle cx="113.37" cy="29" r="2.11" fill="#0E3567"/>
  <circle cx="67.43" cy="53.48" r="2.14" fill="#0D3262"/>
  <circle cx="84.83" cy="37.39" r="2.11" fill="#0E3567"/>
  <circle cx="55.32" cy="36.74" r="2.11" fill="#0E3567"/>
  <circle cx="13.33" cy="16.3" r="2.1" fill="#0E3567"/>
  <circle cx="31.69" cy="33.34" r="2.11" fill="#0E3567"/>
  <circle cx="31.81" cy="13.33" r="2.1" fill="#0E3567"/>
  <circle cx="49.02" cy="21.31" r="2.11" fill="#0E3567"/>
  <circle cx="58.89" cy="13.35" r="2.1" fill="#0E3567"/>
  <circle cx="70.95" cy="25.63" r="2.11" fill="#0E3567"/>
  <circle cx="89.1" cy="28.3" r="2.11" fill="#0E3567"/>
  <circle cx="79.94" cy="47.96" r="2.11" fill="#0E3567"/>
  <circle cx="103.02" cy="63.14" r="2.11" fill="#0E3567"/>
  <circle cx="77.04" cy="73.22" r="2.12" fill="#0E3567"/>
  <circle cx="29.41" cy="82.29" r="2.12" fill="#0E3567"/>
  <circle cx="41.77" cy="65.55" r="2.11" fill="#0E3567"/>
  <circle cx="53.76" cy="84.12" r="2.13" fill="#0D3262"/>
  <circle cx="85.41" cy="93.81" r="2.24" fill="#092C58"/>
  <circle cx="119.23" cy="108.62" r="2.12" fill="#0D3262"/>
  <circle cx="111.61" cy="76.55" r="2.13" fill="#0D3262"/>
  <circle cx="136.45" cy="101.47" r="2.12" fill="#0D3262"/>
  <circle cx="129.53" cy="71.06" r="2.12" fill="#0E3567"/>
</g>
<g font-size="4" stroke="#000000" stroke-opacity="0.000" fill="#000000" id="img-222a6454-5">
</g>
</svg>
