<?xml version="1.0" encoding="UTF-8"?>
<svg xmlns="http://www.w3.org/2000/svg"
     xmlns:xlink="http://www.w3.org/1999/xlink"
     xmlns:gadfly="http://www.gadflyjl.org/ns"
     version="1.2"
     width="160mm" height="160mm" viewBox="0 0 160 160"
     stroke="none"
     fill="#000000"
     stroke-width="0.3"
     font-size="3.88"
>
<g stroke-width="0.42" fill="#000000" fill-opacity="0.000" stroke="#D3D3D3" id="img-cbaa0934-1">
  <path fill="none" d="M118.69,80.18 L 145.55 85.34"/>
  <path fill="none" d="M118.52,80.44 L 130.77 98.05"/>
  <path fill="none" d="M118.02,80.4 L 104.59 94.74"/>
  <path fill="none" d="M118,79.83 L 107.79 70.11"/>
  <path fill="none" d="M117.94,79.91 L 87.17 62.24"/>
  <path fill="none" d="M118.24,80.51 L 116.46 93.97"/>
  <path fill="none" d="M118.69,80.01 L 131.68 76.71"/>
  <path fill="none" d="M110.12,52.74 L 95 51.83"/>
  <path fill="none" d="M112.55,53.95 L 125.12 68.78"/>
  <path fill="none" d="M112.04,54.24 L 116.24 67.51"/>
  <path fill="none" d="M110.73,54.03 L 99.02 70.3"/>
  <path fill="none" d="M111.47,51.36 L 110.5 40.07"/>
  <path fill="none" d="M94.35,52.59 L 98.41 70.17"/>
  <path fill="none" d="M93.9,52.57 L 87.55 71.86"/>
  <path fill="none" d="M93.53,52.33 L 77.25 66.62"/>
  <path fill="none" d="M94.81,51.25 L 109.09 39.47"/>
  <path fill="none" d="M102.59,86.74 L 118.64 99.28"/>
  <path fill="none" d="M102.44,84.89 L 115.48 70.89"/>
  <path fill="none" d="M101.81,87.24 L 103.43 94.42"/>
  <path fill="none" d="M101.24,84.54 L 98.73 71.63"/>
  <path fill="none" d="M101.92,84.58 L 106.44 70.46"/>
  <path fill="none" d="M100.36,86.67 L 77.84 101.97"/>
  <path fill="none" d="M100.71,87.03 L 96.49 93.05"/>
  <path fill="none" d="M100.53,103.21 L 126.16 93.13"/>
  <path fill="none" d="M96.68,103.82 L 78.04 102.71"/>
  <path fill="none" d="M100.34,102.85 L 107.04 98.52"/>
  <path fill="none" d="M96.97,102.9 L 84.94 95.55"/>
  <path fill="none" d="M78.82,124.23 L 96.88 115.85"/>
  <path fill="none" d="M77.08,123.13 L 76.86 103.84"/>
  <path fill="none" d="M117.78,91.6 L 99.88 113.52"/>
  <path fill="none" d="M120.39,88.51 L 137.66 68.64"/>
  <path fill="none" d="M118.35,91.93 L 108.97 117.23"/>
  <path fill="none" d="M119.76,88.14 L 125.71 72.14"/>
  <path fill="none" d="M118.84,88.02 L 117.06 71.41"/>
  <path fill="none" d="M117.58,88.65 L 99.13 71.41"/>
  <path fill="none" d="M120.17,91.73 L 130.64 107.73"/>
  <path fill="none" d="M100.53,115.53 L 119.94 120.71"/>
  <path fill="none" d="M97.48,113.47 L 84.46 96.08"/>
  <path fill="none" d="M122.74,123.17 L 131.68 144.7"/>
  <path fill="none" d="M122.78,119.34 L 131.01 100.51"/>
  <path fill="none" d="M120.74,119.55 L 104.46 96.71"/>
  <path fill="none" d="M123.27,119.64 L 130.47 110.9"/>
  <path fill="none" d="M95.59,78.52 L 75.65 80.22"/>
  <path fill="none" d="M98.07,79.79 L 107.68 95.72"/>
  <path fill="none" d="M96.16,79.63 L 84.56 93.11"/>
  <path fill="none" d="M98.38,77.22 L 117.23 58.03"/>
  <path fill="none" d="M15.64,90.12 L 37.92 88.12"/>
  <path fill="none" d="M137.22,66.31 L 120.44 57.53"/>
  <path fill="none" d="M106.56,118.19 L 94.03 112.05"/>
  <path fill="none" d="M118.35,99.84 L 104.94 96.02"/>
  <path fill="none" d="M120.82,101.67 L 132.1 119.34"/>
  <path fill="none" d="M120.72,98.85 L 132.37 77.59"/>
  <path fill="none" d="M118.35,99.87 L 96.93 94.25"/>
  <path fill="none" d="M93.9,110.03 L 115.29 95.84"/>
  <path fill="none" d="M94.19,111.59 L 112.17 115.49"/>
  <path fill="none" d="M90.23,110.64 L 68.39 104.87"/>
  <path fill="none" d="M91.24,109.36 L 84.22 96.23"/>
  <path fill="none" d="M43.13,60.06 L 27.3 68.86"/>
  <path fill="none" d="M44.63,59.83 L 76.88 66.72"/>
  <path fill="none" d="M145.6,85.95 L 129.9 91.71"/>
  <path fill="none" d="M126.54,72.26 L 127.88 90.4"/>
  <path fill="none" d="M124.42,70.18 L 108.15 69.28"/>
  <path fill="none" d="M71.09,68.32 L 97.84 70.83"/>
  <path fill="none" d="M71.02,68.42 L 74.92 79.74"/>
  <path fill="none" d="M71.09,68.27 L 87.16 62.24"/>
  <path fill="none" d="M71.09,68.28 L 76.88 66.81"/>
  <path fill="none" d="M70.9,68.39 L 59.02 80.52"/>
  <path fill="none" d="M130.17,99.1 L 110.71 97.59"/>
  <path fill="none" d="M131.67,97.8 L 132.95 77.76"/>
  <path fill="none" d="M127.51,84.72 L 99.26 71.22"/>
  <path fill="none" d="M129.31,87.25 L 131.51 107.42"/>
  <path fill="none" d="M126.08,92.91 L 110.65 96.93"/>
  <path fill="none" d="M135.85,37.18 L 134.23 15.68"/>
  <path fill="none" d="M135.84,41.58 L 133.15 74.97"/>
  <path fill="none" d="M102.98,94.62 L 87.74 73.09"/>
  <path fill="none" d="M102.44,95.6 L 85.22 94.66"/>
  <path fill="none" d="M97.89,71.18 L 75.62 80.06"/>
  <path fill="none" d="M97.85,70.76 L 77.3 66.8"/>
  <path fill="none" d="M88.13,78.2 L 105.66 69.77"/>
  <path fill="none" d="M85.92,81.06 L 83.68 92.69"/>
  <path fill="none" d="M88.02,72.4 L 105.55 69.43"/>
  <path fill="none" d="M86.71,72.21 L 65.65 61.91"/>
  <path fill="none" d="M87.21,73.2 L 83.66 92.68"/>
  <path fill="none" d="M131.96,111.33 L 132.91 119.05"/>
  <path fill="none" d="M129.88,110.07 L 116.03 115.21"/>
  <path fill="none" d="M107.74,68.25 L 117.26 58.07"/>
  <path fill="none" d="M26.79,71.46 L 38.68 86.35"/>
  <path fill="none" d="M75.18,79.72 L 77.05 66.97"/>
  <path fill="none" d="M74.93,80.79 L 67.49 103.2"/>
  <path fill="none" d="M87.16,62.24 L 77.28 66.67"/>
  <path fill="none" d="M87.16,62.24 L 65.65 61.88"/>
  <path fill="none" d="M117.11,94.26 L 132.11 77.41"/>
  <path fill="none" d="M76.09,101.71 L 59 80.84"/>
  <path fill="none" d="M131.27,120.48 L 116.09 116.44"/>
  <path fill="none" d="M77.21,66.94 L 95.22 93.05"/>
  <path fill="none" d="M111.05,39.92 L 117.81 54.75"/>
  <path fill="none" d="M112.85,114.37 L 96.57 94.82"/>
  <path fill="none" d="M106.73,97.21 L 85.21 94.77"/>
  <path fill="none" d="M65.58,61.94 L 58.94 80.47"/>
  <path fill="none" d="M81.44,94.27 L 41.97 88.25"/>
</g>
<g stroke-width="0.42" stroke="#D3D3D3" id="img-cbaa0934-2">
</g>
<g font-size="4" stroke="#000000" stroke-opacity="0.000" fill="#000000" id="img-cbaa0934-3">
</g>
<g stroke-width="0" stroke="#000000" stroke-opacity="0.000" id="img-cbaa0934-4">
  <circle cx="118.29" cy="80.11" r="0.39" fill="#D8473B"/>
  <circle cx="111.6" cy="52.83" r="1.42" fill="#FFC7BA"/>
  <circle cx="94.16" cy="51.78" r="0.8" fill="#FF8A78"/>
  <circle cx="101.5" cy="85.9" r="1.32" fill="#FFBFB0"/>
  <circle cx="98.67" cy="103.94" r="1.91" fill="#FFE8E1"/>
  <circle cx="77.1" cy="125.02" r="1.82" fill="#FFF0EB"/>
  <circle cx="119.06" cy="90.04" r="1.94" fill="#FFEEE9"/>
  <circle cx="98.65" cy="115.03" r="1.87" fill="#F0F9FE"/>
  <circle cx="121.95" cy="121.25" r="2" fill="#FFF5F1"/>
  <circle cx="97.23" cy="78.39" r="1.57" fill="#FFD2C6"/>
  <circle cx="13.33" cy="90.33" r="2.22" fill="#97CBF1"/>
  <circle cx="138.92" cy="67.2" r="1.84" fill="#E5F4FD"/>
  <circle cx="132.49" cy="146.67" r="2.05" fill="#BEE1F8"/>
  <circle cx="108.3" cy="119.04" r="1.86" fill="#E5F4FD"/>
  <circle cx="119.93" cy="100.29" r="1.58" fill="#FFD2C6"/>
  <circle cx="92.2" cy="111.16" r="1.95" fill="#FFE9E3"/>
  <circle cx="43.84" cy="59.66" r="0.78" fill="#FF8473"/>
  <circle cx="146.67" cy="85.56" r="1.09" fill="#FFAA99"/>
  <circle cx="126.4" cy="70.29" r="1.9" fill="#FFE6DF"/>
  <circle cx="70.98" cy="68.31" r="0.11" fill="#901310"/>
  <circle cx="131.58" cy="99.21" r="1.36" fill="#FFC3B5"/>
  <circle cx="129.12" cy="85.48" r="1.7" fill="#FFDBD2"/>
  <circle cx="116.85" cy="69.42" r="1.93" fill="#FFE8E1"/>
  <circle cx="128.02" cy="92.4" r="1.92" fill="#FFE8E1"/>
  <circle cx="136.02" cy="39.38" r="2.12" fill="#D3ECFB"/>
  <circle cx="103.72" cy="95.67" r="1.23" fill="#FFB6A6"/>
  <circle cx="98.58" cy="70.9" r="0.72" fill="#FB7C6A"/>
  <circle cx="86.3" cy="79.07" r="1.94" fill="#FFEBE5"/>
  <circle cx="87.34" cy="72.52" r="0.67" fill="#F87664"/>
  <circle cx="131.72" cy="109.38" r="1.89" fill="#FFF5F1"/>
  <circle cx="106.84" cy="69.21" r="1.26" fill="#FFBAAB"/>
  <circle cx="25.51" cy="69.85" r="1.97" fill="#FFE9E3"/>
  <circle cx="75.1" cy="80.27" r="0.53" fill="#EC6051"/>
  <circle cx="87.17" cy="62.24" r="0" fill="#610102"/>
  <circle cx="116.3" cy="95.17" r="1.17" fill="#FFB1A1"/>
  <circle cx="76.85" cy="102.64" r="1.15" fill="#FFAF9E"/>
  <circle cx="134.05" cy="13.33" r="2.26" fill="#9CCEF2"/>
  <circle cx="133.15" cy="120.99" r="1.87" fill="#F0F9FE"/>
  <circle cx="77.08" cy="66.76" r="0.21" fill="#B02620"/>
  <circle cx="110.36" cy="38.42" r="1.59" fill="#FFD4C8"/>
  <circle cx="114.14" cy="115.92" r="1.94" fill="#FFF0EB"/>
  <circle cx="108.72" cy="97.43" r="1.92" fill="#FFE8E1"/>
  <circle cx="65.6" cy="61.88" r="0.05" fill="#770706"/>
  <circle cx="133.04" cy="76.36" r="1.34" fill="#FFC1B3"/>
  <circle cx="67.05" cy="104.52" r="1.33" fill="#FFBFB0"/>
  <circle cx="83.32" cy="94.56" r="1.83" fill="#FFE2DA"/>
  <circle cx="58.86" cy="80.67" r="0.21" fill="#B02620"/>
  <circle cx="118.65" cy="56.59" r="1.94" fill="#FFE9E3"/>
  <circle cx="39.95" cy="87.94" r="1.96" fill="#D8EEFB"/>
  <circle cx="95.85" cy="93.96" r="1.07" fill="#FFA796"/>
</g>
<g font-size="4" stroke="#000000" stroke-opacity="0.000" fill="#000000" id="img-cbaa0934-5">
</g>
</svg>
