<?xml version="1.0" encoding="UTF-8"?>
<svg xmlns="http://www.w3.org/2000/svg"
     xmlns:xlink="http://www.w3.org/1999/xlink"
     xmlns:gadfly="http://www.gadflyjl.org/ns"
     version="1.2"
     width="160mm" height="160mm" viewBox="0 0 160 160"
     stroke="none"
     fill="#000000"
     stroke-width="0.3"
     font-size="3.88"
>
<g stroke-width="0.42" fill="#000000" fill-opacity="0.000" stroke="#D3D3D3" id="img-c484b82b-1">
  <path fill="none" d="M107.85,89.45 L 88.52 99.59"/>
  <path fill="none" d="M107.89,87.24 L 105.33 85.77"/>
  <path fill="none" d="M112.09,88.96 L 135.02 94.89"/>
  <path fill="none" d="M108.42,86.61 L 92.06 66.63"/>
  <path fill="none" d="M111.54,89.95 L 134.42 111.51"/>
  <path fill="none" d="M107.88,87.25 L 77.96 70.32"/>
  <path fill="none" d="M67.16,123.62 L 72.43 111.37"/>
  <path fill="none" d="M67.16,123.62 L 79.76 90.26"/>
  <path fill="none" d="M74.79,56.1 L 73.89 79.83"/>
  <path fill="none" d="M74.35,52.63 L 68.56 33.02"/>
  <path fill="none" d="M75.46,55.99 L 83.79 78.72"/>
  <path fill="none" d="M72.44,111.32 L 73.83 81.4"/>
  <path fill="none" d="M72.47,111.36 L 90.92 123.66"/>
  <path fill="none" d="M72.44,111.32 L 67.14 89.27"/>
  <path fill="none" d="M73.14,80.93 L 57.22 87.76"/>
  <path fill="none" d="M74.45,80.09 L 89.66 66.44"/>
  <path fill="none" d="M74.65,80.6 L 82.63 80.42"/>
  <path fill="none" d="M56.58,90.43 L 79.67 118.06"/>
  <path fill="none" d="M55.3,86.37 L 56.62 70.72"/>
  <path fill="none" d="M53.99,86.65 L 39.37 60.22"/>
  <path fill="none" d="M81.7,117.63 L 85.97 102.72"/>
  <path fill="none" d="M83.01,120.85 L 108.84 135.53"/>
  <path fill="none" d="M46.85,53.59 L 55.55 66.59"/>
  <path fill="none" d="M47.11,53.39 L 64.81 72.75"/>
  <path fill="none" d="M56.53,70.71 L 53.48 95.02"/>
  <path fill="none" d="M58.92,67.67 L 87.56 56.92"/>
  <path fill="none" d="M84.39,100.38 L 55.24 97.25"/>
  <path fill="none" d="M87.48,98.61 L 96.6 78.25"/>
  <path fill="none" d="M51.19,97.02 L 37.42 96.86"/>
  <path fill="none" d="M54.96,95.98 L 66.46 88.99"/>
  <path fill="none" d="M90.99,123.57 L 66.74 97.49"/>
  <path fill="none" d="M91.59,123.55 L 107.44 103.41"/>
  <path fill="none" d="M91.63,124.24 L 111.8 144.98"/>
  <path fill="none" d="M37.42,96.82 L 64.68 96.61"/>
  <path fill="none" d="M34.94,94.66 L 32.32 74.98"/>
  <path fill="none" d="M65.12,95.66 L 52.64 80.97"/>
  <path fill="none" d="M65.39,97.7 L 57.88 113.63"/>
  <path fill="none" d="M65.9,95.37 L 65.73 75.1"/>
  <path fill="none" d="M66.68,95.64 L 89.87 66.64"/>
  <path fill="none" d="M34.14,73.51 L 49.87 79.06"/>
  <path fill="none" d="M34.06,71.82 L 64.15 57.9"/>
  <path fill="none" d="M29.97,71.85 L 15.33 65.39"/>
  <path fill="none" d="M50.6,78.16 L 39.46 60.16"/>
  <path fill="none" d="M53.25,79.68 L 82.63 80.34"/>
  <path fill="none" d="M53.02,80.52 L 66.45 88.35"/>
  <path fill="none" d="M38.99,56.23 L 47.03 31.57"/>
  <path fill="none" d="M39.01,60.38 L 40.11 63.65"/>
  <path fill="none" d="M107.28,102.74 L 79.93 90.19"/>
  <path fill="none" d="M108.22,102.62 L 132.85 82.59"/>
  <path fill="none" d="M58.01,113.72 L 79.72 90.24"/>
  <path fill="none" d="M79.94,90.11 L 103.12 85.41"/>
  <path fill="none" d="M79.72,90.03 L 66.61 74.78"/>
  <path fill="none" d="M79.76,90.01 L 66.02 58.6"/>
  <path fill="none" d="M79.85,90 L 88.65 57.91"/>
  <path fill="none" d="M105.14,86.03 L 119.26 100.23"/>
  <path fill="none" d="M103.63,84.18 L 91.93 66.73"/>
  <path fill="none" d="M67.07,73.85 L 95.26 76"/>
  <path fill="none" d="M67,74.2 L 82.73 79.79"/>
  <path fill="none" d="M64.43,73.33 L 42.96 66.45"/>
  <path fill="none" d="M119.34,100.16 L 99.07 77.86"/>
  <path fill="none" d="M121.5,104.1 L 128.31 129.07"/>
  <path fill="none" d="M97.35,73.9 L 94.99 44.45"/>
  <path fill="none" d="M127.31,132.84 L 115.11 145"/>
  <path fill="none" d="M128.38,133.44 L 126.61 140.82"/>
  <path fill="none" d="M126.74,131.89 L 112.95 136"/>
  <path fill="none" d="M129.74,129.15 L 135.25 115.24"/>
  <path fill="none" d="M115.71,146.01 L 123.92 143.63"/>
  <path fill="none" d="M112.84,144.39 L 111.37 138.81"/>
  <path fill="none" d="M124.01,142.14 L 112.87 137.5"/>
  <path fill="none" d="M125.3,140.9 L 116.4 116.94"/>
  <path fill="none" d="M111.28,134.44 L 115.14 117.03"/>
  <path fill="none" d="M117.29,113.36 L 135.52 96.93"/>
  <path fill="none" d="M114.13,113.2 L 85.59 81.7"/>
  <path fill="none" d="M65.58,55.88 L 67.71 33.1"/>
  <path fill="none" d="M66.71,56.65 L 92.73 43.19"/>
  <path fill="none" d="M66.39,58.37 L 74.45 67.48"/>
  <path fill="none" d="M138.07,93.42 L 145.8 76.03"/>
  <path fill="none" d="M70.19,30.9 L 85.52 31.32"/>
  <path fill="none" d="M100.97,34.29 L 89.83 31.85"/>
  <path fill="none" d="M102.28,36.76 L 91.6 63.67"/>
  <path fill="none" d="M87.91,33.55 L 90.79 63.55"/>
  <path fill="none" d="M85.65,32.15 L 80.38 34.12"/>
  <path fill="none" d="M90.29,63.68 L 79.14 37"/>
  <path fill="none" d="M89.71,66.5 L 67.44 88.22"/>
  <path fill="none" d="M92.69,65.15 L 118.54 63.18"/>
  <path fill="none" d="M106.69,14.9 L 98.01 23.3"/>
  <path fill="none" d="M107.35,15.37 L 95.8 40"/>
  <path fill="none" d="M96.17,27.14 L 95.02 39.79"/>
  <path fill="none" d="M95.86,27.09 L 89.44 54.77"/>
  <path fill="none" d="M94.39,25.98 L 80.24 33.82"/>
  <path fill="none" d="M93.93,44.29 L 89.68 54.85"/>
  <path fill="none" d="M88.77,57.94 L 84.74 78.64"/>
  <path fill="none" d="M88.35,54.9 L 79.28 36.93"/>
  <path fill="none" d="M90.66,56.68 L 118.58 62.55"/>
  <path fill="none" d="M49.89,29.85 L 76.04 34.52"/>
  <path fill="none" d="M144.83,75.17 L 135.9 80.46"/>
  <path fill="none" d="M144.7,73.24 L 122.88 63.9"/>
  <path fill="none" d="M133.19,79.91 L 122.14 64.84"/>
  <path fill="none" d="M15.51,64.61 L 38.58 65.67"/>
  <path fill="none" d="M43.05,65.99 L 73.69 68.97"/>
</g>
<g stroke-width="0.42" stroke="#D3D3D3" id="img-c484b82b-2">
</g>
<g font-size="4" stroke="#000000" stroke-opacity="0.000" fill="#000000" id="img-c484b82b-3">
</g>
<g stroke-width="0" stroke="#000000" stroke-opacity="0.000" id="img-c484b82b-4">
  <circle cx="109.88" cy="88.38" r="2.2" fill="#F0F9FE"/>
  <circle cx="67.16" cy="123.62" r="0" fill="#610102"/>
  <circle cx="74.85" cy="54.33" r="1.7" fill="#FFCEC1"/>
  <circle cx="72.44" cy="111.34" r="0.03" fill="#6C0303"/>
  <circle cx="73.86" cy="80.62" r="0.75" fill="#F87664"/>
  <circle cx="55.11" cy="88.67" r="2.21" fill="#FFEDE7"/>
  <circle cx="81.09" cy="119.76" r="2.13" fill="#D6EDFB"/>
  <circle cx="45.59" cy="51.72" r="2.16" fill="#FFEDE7"/>
  <circle cx="56.81" cy="68.47" r="2.17" fill="#FFEDE7"/>
  <circle cx="86.58" cy="100.61" r="2.11" fill="#E5F4FD"/>
  <circle cx="53.22" cy="97.04" r="1.95" fill="#FFDDD4"/>
  <circle cx="91.31" cy="123.91" r="0.44" fill="#DB4A3E"/>
  <circle cx="35.23" cy="96.84" r="2.11" fill="#FFE6DF"/>
  <circle cx="65.91" cy="96.6" r="1.18" fill="#FFA594"/>
  <circle cx="32.02" cy="72.76" r="2.15" fill="#FFEDE7"/>
  <circle cx="51.51" cy="79.64" r="1.67" fill="#FFCCBF"/>
  <circle cx="38.31" cy="58.31" r="2.1" fill="#ECF7FD"/>
  <circle cx="107.79" cy="102.97" r="0.54" fill="#E55748"/>
  <circle cx="57.66" cy="114.09" r="0.49" fill="#E05143"/>
  <circle cx="79.81" cy="90.14" r="0.13" fill="#901310"/>
  <circle cx="104.29" cy="85.18" r="1.15" fill="#FFA291"/>
  <circle cx="65.72" cy="73.75" r="1.3" fill="#FFB1A1"/>
  <circle cx="120.89" cy="101.87" r="2.22" fill="#FFF5F1"/>
  <circle cx="97.53" cy="76.17" r="2.19" fill="#FFF3EF"/>
  <circle cx="128.9" cy="131.25" r="2.17" fill="#D6EDFB"/>
  <circle cx="113.45" cy="146.67" r="2.26" fill="#FFEEE9"/>
  <circle cx="126.09" cy="143.01" r="2.16" fill="#D3ECFB"/>
  <circle cx="110.8" cy="136.64" r="2.16" fill="#D3ECFB"/>
  <circle cx="115.63" cy="114.85" r="2.14" fill="#D8EEFB"/>
  <circle cx="65.44" cy="57.3" r="1.37" fill="#FFB6A6"/>
  <circle cx="137.16" cy="95.44" r="2.13" fill="#D3ECFB"/>
  <circle cx="67.92" cy="30.84" r="2.18" fill="#FFE9E3"/>
  <circle cx="103.07" cy="34.76" r="2.07" fill="#EEF8FE"/>
  <circle cx="87.7" cy="31.38" r="2.1" fill="#FFF5F1"/>
  <circle cx="90.96" cy="65.28" r="1.67" fill="#FFCCBF"/>
  <circle cx="108.31" cy="13.33" r="2.16" fill="#D8EEFB"/>
  <circle cx="96.38" cy="24.88" r="2.18" fill="#ECF7FD"/>
  <circle cx="94.8" cy="42.12" r="2.25" fill="#FFF1ED"/>
  <circle cx="89.08" cy="56.35" r="1.55" fill="#FFC5B8"/>
  <circle cx="84.4" cy="80.38" r="1.7" fill="#FFCEC1"/>
  <circle cx="47.72" cy="29.46" r="2.12" fill="#D3ECFB"/>
  <circle cx="78.27" cy="34.91" r="2.17" fill="#FFF5F1"/>
  <circle cx="66.99" cy="88.66" r="0.6" fill="#EC6051"/>
  <circle cx="146.67" cy="74.08" r="2.05" fill="#EAF6FD"/>
  <circle cx="134.29" cy="81.41" r="1.79" fill="#FFD4C8"/>
  <circle cx="120.8" cy="63.01" r="2.17" fill="#FFE9E3"/>
  <circle cx="13.33" cy="64.51" r="2.09" fill="#DCF0FC"/>
  <circle cx="40.82" cy="65.77" r="2.15" fill="#EEF8FE"/>
  <circle cx="136.1" cy="113.09" r="2.21" fill="#C5E5F9"/>
  <circle cx="75.97" cy="69.19" r="2.2" fill="#FFF5F1"/>
</g>
<g font-size="4" stroke="#000000" stroke-opacity="0.000" fill="#000000" id="img-c484b82b-5">
</g>
</svg>
