<?xml version="1.0" encoding="UTF-8"?>
<svg xmlns="http://www.w3.org/2000/svg"
     xmlns:xlink="http://www.w3.org/1999/xlink"
     xmlns:gadfly="http://www.gadflyjl.org/ns"
     version="1.2"
     width="160mm" height="160mm" viewBox="0 0 160 160"
     stroke="none"
     fill="#000000"
     stroke-width="0.3"
     font-size="3.88"
>
<g stroke-width="0.42" fill="#000000" fill-opacity="0.000" stroke="#D3D3D3" id="img-5dc52059-1">
  <path fill="none" d="M118.52,70.64 L 84.85 117.05"/>
  <path fill="none" d="M119.84,67.08 L 120.64 57.14"/>
  <path fill="none" d="M117.72,69.21 L 74.65 72.9"/>
  <path fill="none" d="M120.9,67.49 L 128.31 58.06"/>
  <path fill="none" d="M117.71,69.17 L 94.33 70.62"/>
  <path fill="none" d="M118.58,67.41 L 104.29 46.17"/>
  <path fill="none" d="M117.82,69.69 L 95.1 77.6"/>
  <path fill="none" d="M121.46,69.9 L 130.97 74.49"/>
  <path fill="none" d="M119.93,71 L 123.16 96.46"/>
  <path fill="none" d="M118.08,67.9 L 96.95 52.85"/>
  <path fill="none" d="M83.45,120.95 L 81.91 144.51"/>
  <path fill="none" d="M85.74,118.96 L 132.57 122.64"/>
  <path fill="none" d="M82,117.33 L 38.68 77.48"/>
  <path fill="none" d="M81.53,118.15 L 45.25 106.74"/>
  <path fill="none" d="M81.79,119.99 L 69.09 128.45"/>
  <path fill="none" d="M84.11,116.7 L 93.48 79.38"/>
  <path fill="none" d="M81.74,117.69 L 71.13 111.33"/>
  <path fill="none" d="M84.65,116.92 L 93.24 101.72"/>
  <path fill="none" d="M85.51,117.82 L 121.48 99.64"/>
  <path fill="none" d="M81.51,119.36 L 55.17 126.55"/>
  <path fill="none" d="M15.46,85.06 L 56.88 86.68"/>
  <path fill="none" d="M15.42,84.56 L 54.22 76.7"/>
  <path fill="none" d="M15.32,84.23 L 35.01 76.77"/>
  <path fill="none" d="M14.6,83.27 L 35.53 55.2"/>
  <path fill="none" d="M15.27,85.85 L 67.18 109.27"/>
  <path fill="none" d="M119.17,56.16 L 59.98 86.01"/>
  <path fill="none" d="M120.54,57.13 L 112.48 117.22"/>
  <path fill="none" d="M121.31,57.07 L 134.06 98.28"/>
  <path fill="none" d="M121.73,53.81 L 145.43 15.34"/>
  <path fill="none" d="M119.4,56.5 L 94.86 77.17"/>
  <path fill="none" d="M119.13,54.63 L 80.63 37.99"/>
  <path fill="none" d="M60.14,86.54 L 105.39 80.59"/>
  <path fill="none" d="M59.81,87.75 L 65.77 92.36"/>
  <path fill="none" d="M58.72,88.37 L 59.71 96"/>
  <path fill="none" d="M57.98,85.2 L 51.67 67.07"/>
  <path fill="none" d="M59.71,87.87 L 92.45 118.74"/>
  <path fill="none" d="M59.2,88.24 L 68.29 108.16"/>
  <path fill="none" d="M58.98,85.18 L 64.9 65.23"/>
  <path fill="none" d="M104.64,91.78 L 76.02 82.76"/>
  <path fill="none" d="M105.57,90.57 L 93.73 71.81"/>
  <path fill="none" d="M108.26,94.07 L 133.25 121.23"/>
  <path fill="none" d="M105.5,90.62 L 73.64 44.31"/>
  <path fill="none" d="M104.91,93.67 L 84.4 107.23"/>
  <path fill="none" d="M104.75,93.39 L 71.23 109.23"/>
  <path fill="none" d="M102.96,69.93 L 74.65 72.88"/>
  <path fill="none" d="M102.96,69.99 L 58.68 75.95"/>
  <path fill="none" d="M102.95,69.89 L 94.33 70.59"/>
  <path fill="none" d="M104.31,67.99 L 102.59 61.14"/>
  <path fill="none" d="M103.03,69.2 L 75.14 60.32"/>
  <path fill="none" d="M106.19,70.84 L 125.65 85.68"/>
  <path fill="none" d="M104.16,71.45 L 95.01 97.81"/>
  <path fill="none" d="M104.51,71.54 L 99.15 110.84"/>
  <path fill="none" d="M80.88,144.7 L 60.84 100.01"/>
  <path fill="none" d="M83.73,145.78 L 132.75 123.68"/>
  <path fill="none" d="M80.29,145.09 L 44.92 107.26"/>
  <path fill="none" d="M82.73,144.74 L 98.12 114.14"/>
  <path fill="none" d="M72.79,74.42 L 67.56 91.79"/>
  <path fill="none" d="M72.25,74.12 L 44.89 105.45"/>
  <path fill="none" d="M71.85,73.55 L 37.61 86.76"/>
  <path fill="none" d="M71.91,72.37 L 37.18 54.81"/>
  <path fill="none" d="M73.05,74.47 L 69.45 107.97"/>
  <path fill="none" d="M74.5,73.69 L 121.48 97.65"/>
  <path fill="none" d="M73.5,71.61 L 80.51 38.05"/>
  <path fill="none" d="M143.77,79.38 L 135.13 120.71"/>
  <path fill="none" d="M143.39,79.26 L 135.55 98.35"/>
  <path fill="none" d="M142.51,75.88 L 104.68 45.81"/>
  <path fill="none" d="M142.03,77.27 L 95.18 78.03"/>
  <path fill="none" d="M142.23,78.14 L 96.27 98.96"/>
  <path fill="none" d="M142.28,76.23 L 97.01 52.75"/>
  <path fill="none" d="M107.75,79.39 L 128.2 57.96"/>
  <path fill="none" d="M106.8,81.81 L 107.13 102.26"/>
  <path fill="none" d="M105.46,80.91 L 61.94 97.35"/>
  <path fill="none" d="M107.92,81.23 L 132.93 99.1"/>
  <path fill="none" d="M105.64,79.59 L 69.01 53.22"/>
  <path fill="none" d="M68.68,93.78 L 105.85 103.27"/>
  <path fill="none" d="M65.7,94.28 L 61.73 96.93"/>
  <path fill="none" d="M67.46,91.76 L 74.87 60.46"/>
  <path fill="none" d="M65.64,94.18 L 45.15 105.77"/>
  <path fill="none" d="M68.28,94.51 L 81.34 106.96"/>
  <path fill="none" d="M66.05,92.07 L 36.88 55.18"/>
  <path fill="none" d="M68.72,93.2 L 125.21 87.26"/>
  <path fill="none" d="M66.03,94.65 L 53.56 109.92"/>
  <path fill="none" d="M127.77,56.49 L 74.12 43.6"/>
  <path fill="none" d="M129.17,58.38 L 127.55 84.81"/>
  <path fill="none" d="M129.05,58.37 L 123.74 96.47"/>
  <path fill="none" d="M128.53,58.2 L 99.75 111.04"/>
  <path fill="none" d="M127.83,56.29 L 80.63 37.98"/>
  <path fill="none" d="M110.63,117.85 L 75.74 83.23"/>
  <path fill="none" d="M111.52,117.3 L 107.56 104.88"/>
  <path fill="none" d="M114.35,119.72 L 132.58 122.48"/>
  <path fill="none" d="M110.14,118.62 L 84.6 109.01"/>
  <path fill="none" d="M113.23,117.47 L 122.39 100.58"/>
  <path fill="none" d="M110.01,119.68 L 55.23 126.84"/>
  <path fill="none" d="M55.43,74.22 L 51.86 66.99"/>
  <path fill="none" d="M57.45,74.23 L 72.43 44.39"/>
  <path fill="none" d="M58.56,75.47 L 100.58 60.07"/>
  <path fill="none" d="M57.87,78 L 81.51 106.8"/>
  <path fill="none" d="M58.31,74.99 L 101.9 45.7"/>
  <path fill="none" d="M56.88,78.47 L 66.83 127.52"/>
  <path fill="none" d="M54.9,74.59 L 36.94 55.13"/>
  <path fill="none" d="M56.29,78.51 L 53.26 125"/>
  <path fill="none" d="M75.44,83.45 L 93.06 118.29"/>
  <path fill="none" d="M73.76,82.21 L 39.23 76.36"/>
  <path fill="none" d="M75.25,83.53 L 82.19 106.43"/>
  <path fill="none" d="M73.97,81.72 L 37.09 54.96"/>
  <path fill="none" d="M75.78,83.19 L 92.7 98.4"/>
  <path fill="none" d="M74.33,81.4 L 64.97 65.22"/>
  <path fill="none" d="M75.59,81.46 L 95.8 53.05"/>
  <path fill="none" d="M75.06,81.25 L 80.52 38.05"/>
  <path fill="none" d="M106.06,102.83 L 86.5 89.04"/>
  <path fill="none" d="M108.49,103.44 L 132.53 100.63"/>
  <path fill="none" d="M106.32,104.65 L 95.4 118.52"/>
  <path fill="none" d="M106.35,102.52 L 75.06 60.43"/>
  <path fill="none" d="M108.44,103.21 L 121.33 99.29"/>
  <path fill="none" d="M106.16,102.69 L 64.99 65.2"/>
  <path fill="none" d="M107.68,104.83 L 119.2 132.02"/>
  <path fill="none" d="M59.42,96.06 L 51.56 67.1"/>
  <path fill="none" d="M58.46,96.63 L 38.65 77.52"/>
  <path fill="none" d="M61.79,97.02 L 92.63 78.75"/>
  <path fill="none" d="M61.28,96.44 L 95.76 53.02"/>
  <path fill="none" d="M86.02,87.37 L 92.52 71.91"/>
  <path fill="none" d="M86.15,87.43 L 101.33 60.96"/>
  <path fill="none" d="M85.2,87.36 L 75 60.46"/>
  <path fill="none" d="M84.48,88.37 L 37.68 87.17"/>
  <path fill="none" d="M84.92,89.28 L 70.55 108.4"/>
  <path fill="none" d="M86.26,89.28 L 118.74 132.29"/>
  <path fill="none" d="M85.48,87.29 L 80.54 38.05"/>
  <path fill="none" d="M52.28,64.37 L 72.13 44.17"/>
  <path fill="none" d="M52.65,64.93 L 101.73 45.38"/>
  <path fill="none" d="M50.23,66.88 L 37.22 86.27"/>
  <path fill="none" d="M52.41,66.55 L 92.62 98.5"/>
  <path fill="none" d="M51.19,67.16 L 53.06 124.99"/>
  <path fill="none" d="M52.32,64.42 L 80.45 38.02"/>
  <path fill="none" d="M94.09,71.46 L 132.92 99.11"/>
  <path fill="none" d="M91.97,69.93 L 69.01 53.22"/>
  <path fill="none" d="M93.06,72.01 L 94 118.05"/>
  <path fill="none" d="M91.9,70.05 L 75.12 60.36"/>
  <path fill="none" d="M91.73,70.82 L 39.25 75.78"/>
  <path fill="none" d="M93.51,69.49 L 102.69 46.34"/>
  <path fill="none" d="M134.59,120.67 L 132.48 76.78"/>
  <path fill="none" d="M133.79,120.87 L 124.37 100.64"/>
  <path fill="none" d="M72.51,44.43 L 68.97 53.09"/>
  <path fill="none" d="M74,43.9 L 100.69 58.67"/>
  <path fill="none" d="M73.1,44.51 L 74.9 60.03"/>
  <path fill="none" d="M72.08,44.13 L 38.69 74.51"/>
  <path fill="none" d="M132.54,100.7 L 71.42 109.85"/>
  <path fill="none" d="M133.66,98.45 L 128.49 88.98"/>
  <path fill="none" d="M132.54,100.05 L 125.61 98.98"/>
  <path fill="none" d="M133.83,102.39 L 120.9 132.03"/>
  <path fill="none" d="M68.91,53.24 L 44.6 105.27"/>
  <path fill="none" d="M68.91,53.09 L 52.32 17.41"/>
  <path fill="none" d="M68.89,53.23 L 37.36 86.38"/>
  <path fill="none" d="M69,53.23 L 92.84 77.08"/>
  <path fill="none" d="M69.02,53.19 L 130.9 74.66"/>
  <path fill="none" d="M103.36,58.27 L 145.03 15.03"/>
  <path fill="none" d="M103.33,60.74 L 125.92 85.39"/>
  <path fill="none" d="M103.69,60.27 L 130.99 74.44"/>
  <path fill="none" d="M101,60.72 L 53.69 110.04"/>
  <path fill="none" d="M102.99,60.98 L 122.39 96.71"/>
  <path fill="none" d="M100.5,59.74 L 65.01 65.13"/>
  <path fill="none" d="M95.46,118.57 L 131.37 76.4"/>
  <path fill="none" d="M91.89,120.6 L 55.22 126.76"/>
  <path fill="none" d="M95.22,118.39 L 97.97 114.05"/>
  <path fill="none" d="M74.82,60.05 L 52.32 17.41"/>
  <path fill="none" d="M74.96,60.47 L 82.45 106.37"/>
  <path fill="none" d="M75.12,60.14 L 101.81 45.57"/>
  <path fill="none" d="M74.74,60.38 L 37.49 86.53"/>
  <path fill="none" d="M74.71,60.22 L 37.29 54.48"/>
  <path fill="none" d="M75.09,60.4 L 92.81 77.11"/>
  <path fill="none" d="M75.13,60.17 L 95.5 52.66"/>
  <path fill="none" d="M36.98,78.19 L 36.67 86.09"/>
  <path fill="none" d="M44.95,107.23 L 65.72 128.11"/>
  <path fill="none" d="M43.65,105.24 L 37.01 88.12"/>
  <path fill="none" d="M45.29,106.55 L 67.01 109.85"/>
  <path fill="none" d="M45.11,107.03 L 50.33 110.43"/>
  <path fill="none" d="M44.64,105.28 L 64.89 65.22"/>
  <path fill="none" d="M52.32,17.41 L 64.9 65.07"/>
  <path fill="none" d="M52.32,17.41 L 80.45 37.88"/>
  <path fill="none" d="M81.61,109.91 L 68.55 127.89"/>
  <path fill="none" d="M84.67,107.86 L 121.3 99.15"/>
  <path fill="none" d="M84.66,108.82 L 97.22 112.13"/>
  <path fill="none" d="M102.85,46.4 L 94.18 76.73"/>
  <path fill="none" d="M104.52,45.99 L 131.3 74.03"/>
  <path fill="none" d="M65.98,127.89 L 37.25 88"/>
  <path fill="none" d="M68.74,128.04 L 92.86 101.44"/>
  <path fill="none" d="M69.45,129.85 L 117.89 133.83"/>
  <path fill="none" d="M65.11,129.28 L 55.21 127.49"/>
  <path fill="none" d="M69.19,128.62 L 97.37 113.41"/>
  <path fill="none" d="M37.23,53.93 L 80.43 37.98"/>
  <path fill="none" d="M92.74,78.91 L 53.88 110.25"/>
  <path fill="none" d="M71.28,109.34 L 92.31 100.67"/>
  <path fill="none" d="M71.44,110.36 L 97.16 112.44"/>
  <path fill="none" d="M125.34,87.83 L 96.31 99.07"/>
  <path fill="none" d="M126.7,89.13 L 124.15 96.56"/>
  <path fill="none" d="M127.07,89.23 L 120.37 131.88"/>
  <path fill="none" d="M125.93,85.37 L 96.83 52.99"/>
  <path fill="none" d="M52.31,113.82 L 53 125"/>
  <path fill="none" d="M65,65.12 L 95.51 52.69"/>
  <path fill="none" d="M64.97,65.21 L 97.89 111.15"/>
  <path fill="none" d="M95.67,51.82 L 80.61 38.02"/>
</g>
<g stroke-width="0.42" stroke="#D3D3D3" id="img-5dc52059-2">
</g>
<g font-size="4" stroke="#000000" stroke-opacity="0.000" fill="#000000" id="img-5dc52059-3">
</g>
<g stroke-width="0" stroke="#000000" id="img-5dc52059-4">
  <circle cx="119.68" cy="69.05" r="1.89" fill="#ACD8F5"/>
  <circle cx="83.59" cy="118.79" r="2.07" fill="#62A4DF"/>
  <circle cx="13.33" cy="84.98" r="2.04" fill="#5C9FDC"/>
  <circle cx="120.78" cy="55.34" r="1.73" fill="#C2E3F8"/>
  <circle cx="58.52" cy="86.75" r="1.57" fill="#D6EDFB"/>
  <circle cx="106.75" cy="92.44" r="2.13" fill="#79B6E9"/>
  <circle cx="104.75" cy="69.75" r="1.74" fill="#C2E3F8"/>
  <circle cx="81.76" cy="146.67" r="2.07" fill="#478ACD"/>
  <circle cx="73.21" cy="73.03" r="1.4" fill="#E9F6FD"/>
  <circle cx="144.22" cy="77.24" r="2.1" fill="#6DADE4"/>
  <circle cx="106.78" cy="80.41" r="1.35" fill="#EEF8FE"/>
  <circle cx="67.08" cy="93.37" r="1.59" fill="#D1EBFA"/>
  <circle cx="129.26" cy="56.85" r="1.47" fill="#E0F2FC"/>
  <circle cx="112.19" cy="119.39" r="2.1" fill="#62A4DF"/>
  <circle cx="56.44" cy="76.25" r="2.17" fill="#84BFEC"/>
  <circle cx="74.91" cy="82.41" r="1.12" fill="#FFE1D9"/>
  <circle cx="107.15" cy="103.6" r="1.29" fill="#FFF3EF"/>
  <circle cx="59.97" cy="98.09" r="2.02" fill="#9BCEF2"/>
  <circle cx="85.59" cy="88.4" r="1.07" fill="#FFDDD4"/>
  <circle cx="51.14" cy="65.53" r="1.56" fill="#D6EDFB"/>
  <circle cx="93.03" cy="70.7" r="1.25" fill="#FFEFEB"/>
  <circle cx="134.7" cy="122.8" r="2.05" fill="#3979BE"/>
  <circle cx="72.96" cy="43.32" r="1.14" fill="#FFE5DD"/>
  <circle cx="134.71" cy="100.38" r="2.11" fill="#79B6E9"/>
  <circle cx="68.94" cy="53.17" r="0.08" fill="#8E120F"/>
  <circle cx="102.18" cy="59.49" r="1.63" fill="#CCE9FA"/>
  <circle cx="94.04" cy="120.24" r="2.1" fill="#90C6EF"/>
  <circle cx="146.67" cy="13.33" r="2.26" fill="#0D3363"/>
  <circle cx="74.92" cy="60.25" r="0.21" fill="#C5362C"/>
  <circle cx="37.06" cy="75.99" r="2.11" fill="#90C6EF"/>
  <circle cx="44.09" cy="106.37" r="1.17" fill="#FFE8E2"/>
  <circle cx="52.32" cy="17.41" r="0" fill="#6C0404"/>
  <circle cx="82.76" cy="108.31" r="1.89" fill="#ACD8F5"/>
  <circle cx="103.33" cy="44.74" r="1.65" fill="#CCE9FA"/>
  <circle cx="67.26" cy="129.67" r="2.1" fill="#6DADE4"/>
  <circle cx="36.63" cy="87.14" r="1.01" fill="#FFD5CA"/>
  <circle cx="36.19" cy="54.31" r="1.06" fill="#FFDDD4"/>
  <circle cx="93.81" cy="78.05" r="1.31" fill="#F9F8F9"/>
  <circle cx="69.22" cy="110.18" r="2.14" fill="#7FBAEA"/>
  <circle cx="127.42" cy="87.03" r="2.14" fill="#7FBAEA"/>
  <circle cx="132.41" cy="75.18" r="1.53" fill="#DBF0FC"/>
  <circle cx="94.3" cy="99.85" r="2.07" fill="#68A9E2"/>
  <circle cx="52.17" cy="111.63" r="2.11" fill="#6DADE4"/>
  <circle cx="123.44" cy="98.64" r="2.11" fill="#73B2E6"/>
  <circle cx="64.93" cy="65.15" r="0.08" fill="#8E120F"/>
  <circle cx="120.04" cy="134" r="2.06" fill="#5C9FDC"/>
  <circle cx="53.13" cy="127.11" r="2.04" fill="#478ACD"/>
  <circle cx="96.28" cy="52.38" r="0.79" fill="#FFB6A6"/>
  <circle cx="98.91" cy="112.58" r="1.68" fill="#C7E6F9"/>
  <circle cx="80.53" cy="37.95" r="0.1" fill="#A21D18"/>
</g>
<g font-size="4" stroke="#000000" stroke-opacity="0.000" fill="#000000" id="img-5dc52059-5">
</g>
</svg>
