<?xml version="1.0" encoding="UTF-8"?>
<svg xmlns="http://www.w3.org/2000/svg"
     xmlns:xlink="http://www.w3.org/1999/xlink"
     xmlns:gadfly="http://www.gadflyjl.org/ns"
     version="1.2"
     width="160mm" height="160mm" viewBox="0 0 160 160"
     stroke="none"
     fill="#000000"
     stroke-width="0.3"
     font-size="3.88"
>
<g stroke-width="0.42" fill="#000000" fill-opacity="0.000" stroke="#D3D3D3" id="img-363f6c3a-1">
  <path fill="none" d="M91.68,50.96 L 92.72 64.28"/>
  <path fill="none" d="M89.81,47.55 L 63.07 27.33"/>
  <path fill="none" d="M89.63,49.84 L 48.91 71.65"/>
  <path fill="none" d="M91.13,46.74 L 85.63 16.24"/>
  <path fill="none" d="M92.46,50.74 L 105.03 75.86"/>
  <path fill="none" d="M91.51,50.96 L 91.49 85.33"/>
  <path fill="none" d="M92.79,50.53 L 115.11 80.14"/>
  <path fill="none" d="M95,66.09 L 103.39 64.82"/>
  <path fill="none" d="M91.58,64.72 L 62.84 27.56"/>
  <path fill="none" d="M90.89,67.18 L 71.97 74.39"/>
  <path fill="none" d="M94.1,68.18 L 108.38 88.97"/>
  <path fill="none" d="M93.52,68.46 L 107.45 113.62"/>
  <path fill="none" d="M91.83,68.27 L 82.05 85.37"/>
  <path fill="none" d="M103.38,64.72 L 84.16 66.77"/>
  <path fill="none" d="M103.46,65.11 L 72 74.49"/>
  <path fill="none" d="M105.86,66.63 L 109.3 88.61"/>
  <path fill="none" d="M103.94,65.96 L 82.46 85.7"/>
  <path fill="none" d="M106.68,66.33 L 115.26 80.03"/>
  <path fill="none" d="M80.25,68.23 L 71.81 74.1"/>
  <path fill="none" d="M80.5,68.52 L 62.13 86.79"/>
  <path fill="none" d="M80.11,66.01 L 44.24 47.35"/>
  <path fill="none" d="M81.78,64.86 L 77.56 26.8"/>
  <path fill="none" d="M83.97,66.1 L 112.36 52.92"/>
  <path fill="none" d="M81.84,69.15 L 77.37 123.6"/>
  <path fill="none" d="M84,67.86 L 114.41 81.02"/>
  <path fill="none" d="M62.29,27.81 L 70.44 73.53"/>
  <path fill="none" d="M61.22,27.51 L 44.12 46.67"/>
  <path fill="none" d="M60.89,27.02 L 31.26 38.58"/>
  <path fill="none" d="M63.19,25.99 L 83.86 15.36"/>
  <path fill="none" d="M69.87,75.99 L 61.99 86.67"/>
  <path fill="none" d="M69.67,73.95 L 31.24 38.66"/>
  <path fill="none" d="M69.58,74.06 L 50.33 59.73"/>
  <path fill="none" d="M71.75,75.74 L 106.8 103.79"/>
  <path fill="none" d="M71.04,76.21 L 85.35 129.16"/>
  <path fill="none" d="M71.86,75.59 L 89.65 86.37"/>
  <path fill="none" d="M60.79,86.54 L 43.97 47.61"/>
  <path fill="none" d="M60.51,86.7 L 48.83 72.05"/>
  <path fill="none" d="M60.83,86.52 L 50.28 59.77"/>
  <path fill="none" d="M62.41,88.08 L 106.46 104.4"/>
  <path fill="none" d="M62.49,87.65 L 89.33 87.5"/>
  <path fill="none" d="M62.49,87.61 L 79.49 86.93"/>
  <path fill="none" d="M43.27,46.77 L 31.25 38.65"/>
  <path fill="none" d="M43.45,47.57 L 24.13 79.35"/>
  <path fill="none" d="M43.85,47.64 L 48.56 71.49"/>
  <path fill="none" d="M43.34,47.49 L 24.7 66.18"/>
  <path fill="none" d="M44.29,46.93 L 87.55 34.72"/>
  <path fill="none" d="M31.17,38.68 L 24.02 79.3"/>
  <path fill="none" d="M31.22,38.67 L 48.48 71.52"/>
  <path fill="none" d="M31.17,38.68 L 24.68 66.17"/>
  <path fill="none" d="M31.12,38.65 L 13.33 52.19"/>
  <path fill="none" d="M31.25,38.56 L 65.18 13.81"/>
  <path fill="none" d="M24.27,79.53 L 48.32 71.9"/>
  <path fill="none" d="M24.07,79.32 L 32.12 56.53"/>
  <path fill="none" d="M24.22,79.43 L 50.15 59.73"/>
  <path fill="none" d="M24.23,79.8 L 68.9 109.1"/>
  <path fill="none" d="M48.31,71.73 L 24.71 66.21"/>
  <path fill="none" d="M48.39,71.58 L 32.19 56.51"/>
  <path fill="none" d="M48.32,71.92 L 35.66 76.68"/>
  <path fill="none" d="M48.93,71.9 L 107.52 90.15"/>
  <path fill="none" d="M24.65,66.17 L 13.33 52.19"/>
  <path fill="none" d="M24.7,66.23 L 35.6 76.67"/>
  <path fill="none" d="M24.71,66.19 L 50.14 59.69"/>
  <path fill="none" d="M24.71,66.21 L 79.59 86.27"/>
  <path fill="none" d="M13.33,52.19 L 32.08 56.45"/>
  <path fill="none" d="M13.33,52.19 L 35.6 76.66"/>
  <path fill="none" d="M13.33,52.19 L 50.13 59.65"/>
  <path fill="none" d="M13.33,52.19 L 60.51 63.42"/>
  <path fill="none" d="M32.16,56.53 L 35.62 76.65"/>
  <path fill="none" d="M32.21,56.48 L 50.13 59.65"/>
  <path fill="none" d="M32.21,56.48 L 60.51 63.42"/>
  <path fill="none" d="M32.19,56.43 L 56.28 36.5"/>
  <path fill="none" d="M32.18,56.42 L 65.33 13.97"/>
  <path fill="none" d="M32.17,56.53 L 52.69 109.6"/>
  <path fill="none" d="M35.65,76.66 L 50.17 59.75"/>
  <path fill="none" d="M35.66,76.68 L 60.51 63.47"/>
  <path fill="none" d="M35.66,76.67 L 80.52 49.39"/>
  <path fill="none" d="M35.65,76.72 L 69.08 108.88"/>
  <path fill="none" d="M50.34,59.63 L 80.44 49.21"/>
  <path fill="none" d="M50.31,59.59 L 61.13 48.48"/>
  <path fill="none" d="M50.33,59.62 L 104.62 29.74"/>
  <path fill="none" d="M50.3,59.76 L 75.55 98.18"/>
  <path fill="none" d="M60.57,63.36 L 56.92 36.75"/>
  <path fill="none" d="M60.59,63.36 L 61.62 48.7"/>
  <path fill="none" d="M60.62,63.36 L 76.94 26.7"/>
  <path fill="none" d="M60.66,63.43 L 113.21 62.51"/>
  <path fill="none" d="M60.62,63.51 L 92.08 119.49"/>
  <path fill="none" d="M57.44,36.38 L 80.49 48.44"/>
  <path fill="none" d="M57.09,36.7 L 61.38 47.19"/>
  <path fill="none" d="M57.44,35.74 L 76.36 26.15"/>
  <path fill="none" d="M57.38,35.64 L 84.01 15.6"/>
  <path fill="none" d="M57.03,36.73 L 76.06 97.94"/>
  <path fill="none" d="M81.19,47.94 L 77.63 26.79"/>
  <path fill="none" d="M81.46,47.93 L 85.14 16.25"/>
  <path fill="none" d="M80.96,48.01 L 66.15 14.07"/>
  <path fill="none" d="M82.15,48.36 L 117.63 24.8"/>
  <path fill="none" d="M82.09,49.51 L 130.24 89.72"/>
  <path fill="none" d="M81.59,49.82 L 90.94 85.4"/>
  <path fill="none" d="M81.34,49.86 L 81.21 85.15"/>
  <path fill="none" d="M62.13,47.27 L 76.74 26.59"/>
  <path fill="none" d="M62.13,47.27 L 84.37 15.96"/>
  <path fill="none" d="M61.77,47.13 L 65.73 14.13"/>
  <path fill="none" d="M61.57,48.7 L 53.53 109.5"/>
  <path fill="none" d="M62.03,48.62 L 80.43 85.33"/>
  <path fill="none" d="M78.13,24.64 L 84.37 15.95"/>
  <path fill="none" d="M76.61,24.74 L 66.38 13.92"/>
  <path fill="none" d="M78.4,26.31 L 112.56 50.8"/>
  <path fill="none" d="M78.41,26.3 L 87.85 32.95"/>
  <path fill="none" d="M83.68,14.49 L 66.64 13.39"/>
  <path fill="none" d="M86.35,15.92 L 112.99 50.36"/>
  <path fill="none" d="M85.69,16.23 L 89.11 32.12"/>
  <path fill="none" d="M86.72,15.53 L 104.71 27.69"/>
  <path fill="none" d="M66.44,13.87 L 87.99 32.78"/>
  <path fill="none" d="M66.62,13.49 L 117.3 23.19"/>
  <path fill="none" d="M113.6,50.03 L 106.98 30.66"/>
  <path fill="none" d="M114.66,49.95 L 119.05 25.73"/>
  <path fill="none" d="M115.76,53.54 L 142.72 80.92"/>
  <path fill="none" d="M114.24,54.14 L 112.92 125.44"/>
  <path fill="none" d="M113.14,53.81 L 92.65 85.67"/>
  <path fill="none" d="M90.96,35.69 L 113.97 60.73"/>
  <path fill="none" d="M90.29,36.1 L 105.23 75.77"/>
  <path fill="none" d="M89.63,36.23 L 91.41 85.33"/>
  <path fill="none" d="M108.18,28.07 L 117.42 24.4"/>
  <path fill="none" d="M107.29,30.52 L 128.84 69.57"/>
  <path fill="none" d="M106.86,30.69 L 114.94 60.19"/>
  <path fill="none" d="M119.22,25.76 L 115.8 60.12"/>
  <path fill="none" d="M120.54,25.46 L 145.49 67.55"/>
  <path fill="none" d="M128.02,70.34 L 117.55 63.73"/>
  <path fill="none" d="M132.19,71.28 L 144.37 69.81"/>
  <path fill="none" d="M131.74,72.93 L 142.51 81.16"/>
  <path fill="none" d="M130.17,73.81 L 131.74 88.92"/>
  <path fill="none" d="M128.03,72.78 L 71.53 109.12"/>
  <path fill="none" d="M128.14,72.93 L 118.2 80.56"/>
  <path fill="none" d="M117.86,62.99 L 144.41 69.02"/>
  <path fill="none" d="M117.49,63.82 L 142.45 81.24"/>
  <path fill="none" d="M116.73,64.51 L 130.85 89.21"/>
  <path fill="none" d="M115.08,64.77 L 110.1 88.63"/>
  <path fill="none" d="M114.61,64.62 L 96.18 106.55"/>
  <path fill="none" d="M113.64,63.83 L 82.6 85.87"/>
  <path fill="none" d="M146.26,71.81 L 144.74 80.3"/>
  <path fill="none" d="M145.37,71.45 L 133.24 89.3"/>
  <path fill="none" d="M144.66,70.69 L 111.58 89.7"/>
  <path fill="none" d="M145.95,71.73 L 131.06 117.66"/>
  <path fill="none" d="M142.45,83.86 L 133.82 89.87"/>
  <path fill="none" d="M142.1,83.08 L 111.82 90.3"/>
  <path fill="none" d="M142.39,83.77 L 110.39 103.99"/>
  <path fill="none" d="M129.71,91.13 L 111.88 90.85"/>
  <path fill="none" d="M131.84,93.42 L 130.48 117.55"/>
  <path fill="none" d="M130.03,92.32 L 110.42 104.03"/>
  <path fill="none" d="M130.92,93.16 L 113.93 125.7"/>
  <path fill="none" d="M110.94,92.63 L 129.01 117.97"/>
  <path fill="none" d="M109.47,93.04 L 108.7 102.97"/>
  <path fill="none" d="M108.59,92.78 L 94.21 119.47"/>
  <path fill="none" d="M107.5,91.4 L 78.59 99.33"/>
  <path fill="none" d="M107.45,90.41 L 93.6 87.87"/>
  <path fill="none" d="M107.44,90.51 L 82.9 87.1"/>
  <path fill="none" d="M128.43,118.56 L 110.36 106.4"/>
  <path fill="none" d="M128.24,120.8 L 114.95 126.78"/>
  <path fill="none" d="M128.04,119.95 L 95.37 121.33"/>
  <path fill="none" d="M128.11,120.43 L 88.05 130.73"/>
  <path fill="none" d="M107.01,106.77 L 94.68 119.81"/>
  <path fill="none" d="M106.34,105.44 L 71.76 109.77"/>
  <path fill="none" d="M106.39,105.72 L 97.43 108.03"/>
  <path fill="none" d="M110.71,127.03 L 95.27 122.09"/>
  <path fill="none" d="M110.62,128.02 L 88.1 130.99"/>
  <path fill="none" d="M110.85,128.77 L 78.37 145.65"/>
  <path fill="none" d="M110.95,128.93 L 97.26 137.51"/>
  <path fill="none" d="M110.6,127.59 L 79.37 125.9"/>
  <path fill="none" d="M91.94,123.26 L 77.63 144.83"/>
  <path fill="none" d="M93.45,123.61 L 95.09 136.48"/>
  <path fill="none" d="M91.19,120.43 L 71.61 110.66"/>
  <path fill="none" d="M92.44,119.33 L 81.76 88.48"/>
  <path fill="none" d="M84.77,133.15 L 77.57 144.79"/>
  <path fill="none" d="M84.62,129.51 L 71.14 111.22"/>
  <path fill="none" d="M84.05,130.13 L 54.75 112.07"/>
  <path fill="none" d="M86.2,129.1 L 91.21 89.62"/>
  <path fill="none" d="M78.45,145.81 L 93.32 139.56"/>
  <path fill="none" d="M76.05,144.49 L 70.47 111.51"/>
  <path fill="none" d="M75.21,144.82 L 54.23 112.6"/>
  <path fill="none" d="M76.42,144.46 L 76.64 101.86"/>
  <path fill="none" d="M94.41,136.69 L 77.52 101.66"/>
  <path fill="none" d="M96.46,136.75 L 107.02 117.76"/>
  <path fill="none" d="M95.21,136.47 L 91.65 89.63"/>
  <path fill="none" d="M94.79,136.54 L 81.65 88.52"/>
  <path fill="none" d="M70.84,111.4 L 76.31 123.78"/>
  <path fill="none" d="M70.88,108.55 L 80.46 88.41"/>
  <path fill="none" d="M55,111.08 L 93.08 108.71"/>
  <path fill="none" d="M54.75,112.07 L 75.32 124.64"/>
  <path fill="none" d="M78.47,100.71 L 93.29 107.64"/>
  <path fill="none" d="M78.48,99.03 L 114.42 82.82"/>
  <path fill="none" d="M97.22,109.66 L 106.15 114.68"/>
  <path fill="none" d="M96.02,106.49 L 105.29 79.85"/>
  <path fill="none" d="M94.9,106.4 L 91.87 89.6"/>
  <path fill="none" d="M79.27,125.11 L 105.97 116.48"/>
  <path fill="none" d="M77.95,123.73 L 90.73 89.5"/>
  <path fill="none" d="M108,113.53 L 106.12 79.97"/>
  <path fill="none" d="M106.58,114.13 L 82.37 88.12"/>
  <path fill="none" d="M108.66,113.59 L 115.91 84.06"/>
  <path fill="none" d="M104.19,79 L 93.27 86.29"/>
  <path fill="none" d="M103.96,78.55 L 82.81 86.27"/>
  <path fill="none" d="M108.02,78.59 L 114.38 81.09"/>
</g>
<g stroke-width="0.42" stroke="#D3D3D3" id="img-363f6c3a-2">
</g>
<g font-size="4" stroke="#000000" stroke-opacity="0.000" fill="#000000" id="img-363f6c3a-3">
</g>
<g stroke-width="0" stroke="#000000" id="img-363f6c3a-4">
  <circle cx="91.51" cy="48.83" r="2.04" fill="#7CB8E9"/>
  <circle cx="92.89" cy="66.41" r="2.05" fill="#5598D7"/>
  <circle cx="105.53" cy="64.49" r="2.08" fill="#4182C7"/>
  <circle cx="82.02" cy="67" r="2.07" fill="#81BCEB"/>
  <circle cx="62.07" cy="26.56" r="1.21" fill="#FFECE7"/>
  <circle cx="70.68" cy="74.88" r="1.32" fill="#F9F8F9"/>
  <circle cx="61.27" cy="87.65" r="1.17" fill="#FFE5DE"/>
  <circle cx="43.74" cy="47.09" r="0.54" fill="#FF8D7B"/>
  <circle cx="31.19" cy="38.61" r="0.07" fill="#8D110F"/>
  <circle cx="23.96" cy="79.62" r="0.31" fill="#E35446"/>
  <circle cx="48.63" cy="71.8" r="0.31" fill="#E35446"/>
  <circle cx="24.67" cy="66.2" r="0.03" fill="#770706"/>
  <circle cx="13.33" cy="52.19" r="0" fill="#6C0403"/>
  <circle cx="32.14" cy="56.47" r="0.06" fill="#8D110F"/>
  <circle cx="35.62" cy="76.69" r="0.04" fill="#770706"/>
  <circle cx="50.24" cy="59.67" r="0.1" fill="#A11C18"/>
  <circle cx="60.58" cy="63.44" r="0.08" fill="#8D110F"/>
  <circle cx="56.82" cy="36.06" r="0.67" fill="#FFA392"/>
  <circle cx="81.35" cy="48.89" r="0.93" fill="#FFC9BC"/>
  <circle cx="61.68" cy="47.92" r="0.76" fill="#FFB2A2"/>
  <circle cx="77.43" cy="25.61" r="1.15" fill="#FFE5DE"/>
  <circle cx="85.34" cy="14.6" r="1.6" fill="#D2EBFA"/>
  <circle cx="65.83" cy="13.33" r="0.77" fill="#FFB7A8"/>
  <circle cx="114.28" cy="52.03" r="2.03" fill="#4B8DD0"/>
  <circle cx="89.55" cy="34.15" r="2" fill="#A3D2F3"/>
  <circle cx="106.34" cy="28.79" r="1.89" fill="#AED8F5"/>
  <circle cx="119.43" cy="23.6" r="2.08" fill="#70B0E5"/>
  <circle cx="129.94" cy="71.55" r="2.18" fill="#235999"/>
  <circle cx="115.56" cy="62.47" r="2.26" fill="#81BCEB"/>
  <circle cx="146.67" cy="69.54" r="2.22" fill="#0D3262"/>
  <circle cx="144.33" cy="82.55" r="2.2" fill="#11396C"/>
  <circle cx="131.97" cy="91.16" r="2.17" fill="#275FA1"/>
  <circle cx="109.65" cy="90.81" r="2.14" fill="#5A9DDB"/>
  <circle cx="130.35" cy="119.85" r="2.21" fill="#0D3262"/>
  <circle cx="108.53" cy="105.17" r="2.12" fill="#4B8DD0"/>
  <circle cx="112.87" cy="127.72" r="2.19" fill="#11396C"/>
  <circle cx="93.17" cy="121.42" r="2.12" fill="#92C8F0"/>
  <circle cx="85.92" cy="131.28" r="2.11" fill="#4182C7"/>
  <circle cx="76.41" cy="146.67" r="2.12" fill="#4182C7"/>
  <circle cx="95.38" cy="138.69" r="2.14" fill="#2B65A8"/>
  <circle cx="70.21" cy="109.96" r="1.5" fill="#E0F2FC"/>
  <circle cx="53.3" cy="111.18" r="1.63" fill="#CDE9FA"/>
  <circle cx="76.65" cy="99.86" r="1.93" fill="#A8D5F4"/>
  <circle cx="95.29" cy="108.58" r="2.12" fill="#2F6BAF"/>
  <circle cx="77.19" cy="125.78" r="2.1" fill="#2F6BAF"/>
  <circle cx="108.12" cy="115.78" r="2.17" fill="#143F76"/>
  <circle cx="106" cy="77.8" r="2.08" fill="#275FA1"/>
  <circle cx="91.48" cy="87.48" r="2.06" fill="#60A2DE"/>
  <circle cx="81.2" cy="86.86" r="1.65" fill="#CDE9FA"/>
  <circle cx="116.44" cy="81.9" r="2.13" fill="#1C4C89"/>
</g>
<g font-size="4" stroke="#000000" stroke-opacity="0.000" fill="#000000" id="img-363f6c3a-5">
</g>
</svg>
