<?xml version="1.0" encoding="UTF-8"?>
<svg xmlns="http://www.w3.org/2000/svg"
     xmlns:xlink="http://www.w3.org/1999/xlink"
     xmlns:gadfly="http://www.gadflyjl.org/ns"
     version="1.2"
     width="160mm" height="160mm" viewBox="0 0 160 160"
     stroke="none"
     fill="#000000"
     stroke-width="0.3"
     font-size="3.88"
>
<g stroke-width="0.42" fill="#000000" fill-opacity="0.000" stroke="#D3D3D3" id="img-7d259603-1">
  <path fill="none" d="M92.11,104.04 L 47.7 74.92"/>
  <path fill="none" d="M92.6,104.77 L 95.82 121.65"/>
  <path fill="none" d="M92.19,104.65 L 88.55 108.54"/>
  <path fill="none" d="M92.98,104.2 L 134.05 95.84"/>
  <path fill="none" d="M92.41,104.76 L 84.73 139.91"/>
  <path fill="none" d="M92.06,104.15 L 58.29 93.17"/>
  <path fill="none" d="M92.6,103.83 L 96.23 83.93"/>
  <path fill="none" d="M92.12,104.03 L 75.34 92.46"/>
  <path fill="none" d="M92.11,104.05 L 61.52 85.63"/>
  <path fill="none" d="M92.99,104.27 L 125.71 102.32"/>
  <path fill="none" d="M92.93,104.07 L 144.74 76.29"/>
  <path fill="none" d="M92.26,103.9 L 75.38 76.87"/>
  <path fill="none" d="M121.08,77.55 L 98.93 51.97"/>
  <path fill="none" d="M120.74,77.94 L 85.53 55.05"/>
  <path fill="none" d="M120.59,78.22 L 109.71 73.56"/>
  <path fill="none" d="M122.01,80.8 L 117.8 107.04"/>
  <path fill="none" d="M120.46,79.22 L 97.8 82.42"/>
  <path fill="none" d="M120.78,80.02 L 103.94 91.77"/>
  <path fill="none" d="M120.67,79.84 L 84.28 99.58"/>
  <path fill="none" d="M100.36,70.28 L 110.54 64.21"/>
  <path fill="none" d="M100.41,70.61 L 106.42 72.37"/>
  <path fill="none" d="M100.34,70.74 L 134.07 95.75"/>
  <path fill="none" d="M99.62,70.36 L 65.97 59.11"/>
  <path fill="none" d="M99.61,70.38 L 55.92 58.06"/>
  <path fill="none" d="M99.89,70.89 L 96.85 81.32"/>
  <path fill="none" d="M100.21,70.13 L 113.2 46.59"/>
  <path fill="none" d="M99.95,70.08 L 95.64 41.66"/>
  <path fill="none" d="M99.81,70.85 L 83.72 99"/>
  <path fill="none" d="M100.27,70.81 L 125.71 102.32"/>
  <path fill="none" d="M99.83,70.86 L 89.54 91.76"/>
  <path fill="none" d="M119.96,14.46 L 85.48 35.66"/>
  <path fill="none" d="M123.12,15.01 L 142.7 39.69"/>
  <path fill="none" d="M121.64,15.47 L 118.95 54.85"/>
  <path fill="none" d="M121.27,15.42 L 114.39 43.52"/>
  <path fill="none" d="M120.28,14.86 L 96.49 39.04"/>
  <path fill="none" d="M90.07,61.16 L 96.91 52.04"/>
  <path fill="none" d="M89.92,64.77 L 116.64 107.28"/>
  <path fill="none" d="M87.14,64.41 L 57.96 91.69"/>
  <path fill="none" d="M90.9,62.49 L 116.65 57.45"/>
  <path fill="none" d="M90.54,61.65 L 112.64 46.09"/>
  <path fill="none" d="M89.36,60.81 L 94.97 41.62"/>
  <path fill="none" d="M88.41,65.08 L 83.21 98.83"/>
  <path fill="none" d="M71.39,106.69 L 110.5 93.63"/>
  <path fill="none" d="M69.11,105.95 L 47.18 75.47"/>
  <path fill="none" d="M71.09,106.16 L 106.8 74.04"/>
  <path fill="none" d="M69.8,105.68 L 64.3 60.48"/>
  <path fill="none" d="M70.57,108.53 L 84.09 139.98"/>
  <path fill="none" d="M69.12,108.37 L 54.87 128.39"/>
  <path fill="none" d="M68.98,106.06 L 57.87 93.81"/>
  <path fill="none" d="M71.41,106.75 L 96.83 99.57"/>
  <path fill="none" d="M71.3,106.46 L 81.69 100.97"/>
  <path fill="none" d="M71.17,106.26 L 88.21 93.37"/>
  <path fill="none" d="M111.68,64.88 L 110.92 93.06"/>
  <path fill="none" d="M111.61,62.14 L 109.59 37.23"/>
  <path fill="none" d="M110.42,63.06 L 85.77 54.56"/>
  <path fill="none" d="M111.08,64.72 L 88.16 108.27"/>
  <path fill="none" d="M110.73,62.55 L 85.23 37.87"/>
  <path fill="none" d="M110.86,64.58 L 97.31 81.56"/>
  <path fill="none" d="M111.89,62.14 L 113.79 46.78"/>
  <path fill="none" d="M111.21,64.78 L 97.5 98.96"/>
  <path fill="none" d="M111.83,64.88 L 112.91 78.49"/>
  <path fill="none" d="M108.35,119.46 L 110.87 93.93"/>
  <path fill="none" d="M107.13,120.12 L 88.92 110.69"/>
  <path fill="none" d="M108.99,119.71 L 116.5 110.03"/>
  <path fill="none" d="M107.87,119.5 L 96.87 83.9"/>
  <path fill="none" d="M107.67,119.59 L 97.55 99.89"/>
  <path fill="none" d="M108.03,119.47 L 103.55 92.69"/>
  <path fill="none" d="M107.49,119.7 L 75.48 76.8"/>
  <path fill="none" d="M84.9,76.35 L 83.78 56.06"/>
  <path fill="none" d="M85.15,80.31 L 87.19 108.06"/>
  <path fill="none" d="M86.93,77.87 L 106.4 73.27"/>
  <path fill="none" d="M84.81,80.3 L 80.42 124.52"/>
  <path fill="none" d="M83.36,77.22 L 55.67 58.59"/>
  <path fill="none" d="M83.08,78.81 L 61.74 84.14"/>
  <path fill="none" d="M86.68,77.27 L 116.94 58.2"/>
  <path fill="none" d="M86.31,76.84 L 112.91 46.38"/>
  <path fill="none" d="M86,80.04 L 97.06 99"/>
  <path fill="none" d="M110.58,93.21 L 81.1 68.65"/>
  <path fill="none" d="M110.9,93.06 L 109.49 37.23"/>
  <path fill="none" d="M111.35,93.54 L 134.04 95.8"/>
  <path fill="none" d="M110.61,93.81 L 81.32 124.93"/>
  <path fill="none" d="M111.09,93.89 L 116.86 107.16"/>
  <path fill="none" d="M110.48,93.47 L 75.62 91.63"/>
  <path fill="none" d="M111.2,93.16 L 139.27 60.63"/>
  <path fill="none" d="M110.49,93.6 L 84.42 99.93"/>
  <path fill="none" d="M111.29,93.72 L 125.71 102.32"/>
  <path fill="none" d="M80.94,66.34 L 108.22 36.76"/>
  <path fill="none" d="M78.15,67.88 L 48 73.42"/>
  <path fill="none" d="M80.26,65.96 L 83.06 55.98"/>
  <path fill="none" d="M80.1,69.23 L 87.01 108.09"/>
  <path fill="none" d="M79.02,66.09 L 70.12 49.25"/>
  <path fill="none" d="M80.61,69.05 L 97.07 98.99"/>
  <path fill="none" d="M78.13,67.72 L 59.03 69.33"/>
  <path fill="none" d="M81.37,68.18 L 111.36 79.64"/>
  <path fill="none" d="M98.55,52.21 L 107.37 71.28"/>
  <path fill="none" d="M96.31,51.11 L 66.03 58.03"/>
  <path fill="none" d="M96.29,51 L 55.96 57.28"/>
  <path fill="none" d="M96.28,50.59 L 70.99 47.95"/>
  <path fill="none" d="M99.45,51.1 L 139.01 59.83"/>
  <path fill="none" d="M99.42,51.22 L 116.7 56.4"/>
  <path fill="none" d="M98.09,52.35 L 103.38 91.53"/>
  <path fill="none" d="M96.78,51.93 L 75.61 74.49"/>
  <path fill="none" d="M97.95,52.36 L 98.34 61.65"/>
  <path fill="none" d="M107.84,36.25 L 65.86 57.56"/>
  <path fill="none" d="M111.21,35.74 L 141.97 40.92"/>
  <path fill="none" d="M110.2,37.06 L 113.29 43.63"/>
  <path fill="none" d="M107.73,36.01 L 96.87 39.65"/>
  <path fill="none" d="M47.45,72.34 L 82.62 37.88"/>
  <path fill="none" d="M44.32,72.54 L 15.21 50.49"/>
  <path fill="none" d="M47.72,74.9 L 72.64 90.68"/>
  <path fill="none" d="M47.6,75.06 L 58.28 83.4"/>
  <path fill="none" d="M83.8,56.06 L 87.21 108.06"/>
  <path fill="none" d="M81.49,54.35 L 66.02 58.01"/>
  <path fill="none" d="M85.11,52.14 L 94.4 41.31"/>
  <path fill="none" d="M81.73,54.96 L 58.76 68.49"/>
  <path fill="none" d="M95.24,121.88 L 88.31 111.36"/>
  <path fill="none" d="M94.55,123.5 L 81.78 125.78"/>
  <path fill="none" d="M94.55,123.48 L 55.75 129.8"/>
  <path fill="none" d="M96.64,121.71 L 118.09 59.1"/>
  <path fill="none" d="M96.49,121.66 L 103.32 92.68"/>
  <path fill="none" d="M95.76,121.66 L 89.31 93.76"/>
  <path fill="none" d="M87.8,111.59 L 96.81 144.77"/>
  <path fill="none" d="M86.27,108.4 L 74.96 92.85"/>
  <path fill="none" d="M85.58,109.4 L 57.33 101.92"/>
  <path fill="none" d="M106.76,74 L 97.5 81.74"/>
  <path fill="none" d="M106.56,73.71 L 75.43 90.76"/>
  <path fill="none" d="M107.47,71.23 L 95.97 41.58"/>
  <path fill="none" d="M109.85,72.98 L 144.49 75.12"/>
  <path fill="none" d="M82.7,37.96 L 65.42 56.98"/>
  <path fill="none" d="M82.12,36.39 L 49.49 32.45"/>
  <path fill="none" d="M85.5,37.53 L 116.91 55.92"/>
  <path fill="none" d="M85.66,37.14 L 93.93 39.68"/>
  <path fill="none" d="M84.53,38.33 L 103.26 91.55"/>
  <path fill="none" d="M84.82,38.19 L 98.14 61.71"/>
  <path fill="none" d="M134.18,95.7 L 139.68 60.82"/>
  <path fill="none" d="M134.07,95.89 L 125.71 102.32"/>
  <path fill="none" d="M134.04,95.81 L 90.13 92.79"/>
  <path fill="none" d="M79.39,124.79 L 57.73 93.93"/>
  <path fill="none" d="M81.25,127.23 L 96.08 145.15"/>
  <path fill="none" d="M81.13,124.78 L 103.12 92.6"/>
  <path fill="none" d="M80.43,124.52 L 82.83 101.74"/>
  <path fill="none" d="M115.9,108.3 L 84.42 100.63"/>
  <path fill="none" d="M117.27,107.04 L 113.34 82.08"/>
  <path fill="none" d="M116.07,107.88 L 90 93.24"/>
  <path fill="none" d="M62.98,56.77 L 48.51 34"/>
  <path fill="none" d="M62.08,58.11 L 15.65 49.49"/>
  <path fill="none" d="M64.64,60.41 L 73.54 89.99"/>
  <path fill="none" d="M64.89,60.31 L 82.38 98.94"/>
  <path fill="none" d="M63.66,60.45 L 55.83 99.52"/>
  <path fill="none" d="M84.82,139.94 L 97.17 99.92"/>
  <path fill="none" d="M84.89,139.96 L 103.24 92.66"/>
  <path fill="none" d="M53.92,128.01 L 59.57 86.56"/>
  <path fill="none" d="M55.14,128.61 L 81.96 101.33"/>
  <path fill="none" d="M53.76,127.99 L 55.33 103.36"/>
  <path fill="none" d="M54.29,59.39 L 56.76 91.22"/>
  <path fill="none" d="M55.69,56.57 L 67.93 48.68"/>
  <path fill="none" d="M54.21,59.4 L 55.39 99.48"/>
  <path fill="none" d="M58.07,91.82 L 98 62.37"/>
  <path fill="none" d="M95.12,82.68 L 61.8 84.5"/>
  <path fill="none" d="M97.04,81.39 L 113.29 46.64"/>
  <path fill="none" d="M96.54,83.95 L 97.29 98.93"/>
  <path fill="none" d="M95.19,82.18 L 58.94 70.13"/>
  <path fill="none" d="M95.65,83.68 L 83.88 99.11"/>
  <path fill="none" d="M47.9,34.27 L 56.54 67.57"/>
  <path fill="none" d="M48.5,34.01 L 73.77 74.31"/>
  <path fill="none" d="M69.76,49.39 L 82.62 98.86"/>
  <path fill="none" d="M70.83,48.52 L 97.95 61.9"/>
  <path fill="none" d="M70.01,49.31 L 88.64 91.74"/>
  <path fill="none" d="M97.55,144.72 L 103.39 92.7"/>
  <path fill="none" d="M96.75,144.79 L 83.42 101.69"/>
  <path fill="none" d="M72.58,92.3 L 57.16 100.51"/>
  <path fill="none" d="M75.56,91.09 L 111.32 80.79"/>
  <path fill="none" d="M74.06,89.92 L 74.52 77.1"/>
  <path fill="none" d="M139.99,59.21 L 143.5 43.18"/>
  <path fill="none" d="M138.99,60.05 L 98.8 62.08"/>
  <path fill="none" d="M142.7,42.8 L 103.82 91.65"/>
  <path fill="none" d="M144.09,43.22 L 146.49 73.08"/>
  <path fill="none" d="M61.06,83.08 L 94.44 41.34"/>
  <path fill="none" d="M117.98,55 L 114.62 46.67"/>
  <path fill="none" d="M120.63,58.23 L 144.84 74.06"/>
  <path fill="none" d="M118.27,59.16 L 113.49 78.53"/>
  <path fill="none" d="M113.95,46.79 L 113.1 78.48"/>
  <path fill="none" d="M112.87,46.35 L 98.66 61.77"/>
  <path fill="none" d="M96.91,99.13 L 58.65 70.69"/>
  <path fill="none" d="M96.81,99.46 L 84.46 100.19"/>
  <path fill="none" d="M97.82,99.49 L 125.71 102.32"/>
  <path fill="none" d="M97.64,99.04 L 111.91 81.69"/>
  <path fill="none" d="M97.33,98.93 L 98.34 62.55"/>
  <path fill="none" d="M95.64,41.66 L 103.36 91.53"/>
  <path fill="none" d="M95.61,41.67 L 98.3 61.66"/>
  <path fill="none" d="M56.94,71.5 L 55.55 99.48"/>
  <path fill="none" d="M58.93,70.16 L 73.15 75.09"/>
  <path fill="none" d="M103.99,92.36 L 125.71 102.32"/>
  <path fill="none" d="M102.88,92.22 L 57.36 101.05"/>
  <path fill="none" d="M125.71,102.32 L 98.61 62.47"/>
  <path fill="none" d="M57.33,100.94 L 88.03 92.99"/>
  <path fill="none" d="M111.26,80.07 L 76.07 75.77"/>
  <path fill="none" d="M75.89,74.84 L 97.97 62.32"/>
  <path fill="none" d="M75.55,76.74 L 88.37 91.9"/>
  <path fill="none" d="M98.23,62.53 L 89.38 91.7"/>
</g>
<g stroke-width="0.42" stroke="#D3D3D3" id="img-7d259603-2">
</g>
<g font-size="4" stroke="#000000" stroke-opacity="0.000" fill="#000000" id="img-7d259603-3">
</g>
<g stroke-width="0" stroke="#000000" id="img-7d259603-4">
  <circle cx="92.51" cy="104.3" r="0.46" fill="#F77362"/>
  <circle cx="122.3" cy="78.96" r="1.79" fill="#C1E3F8"/>
  <circle cx="100.01" cy="70.49" r="0.4" fill="#F06757"/>
  <circle cx="121.78" cy="13.33" r="2.06" fill="#6EAEE4"/>
  <circle cx="88.75" cy="62.91" r="2.11" fill="#99CCF1"/>
  <circle cx="69.98" cy="107.16" r="1.43" fill="#EAF6FD"/>
  <circle cx="111.72" cy="63.51" r="1.32" fill="#FFF0EB"/>
  <circle cx="108.23" cy="120.69" r="1.19" fill="#FFE3DB"/>
  <circle cx="85.01" cy="78.33" r="1.9" fill="#B2DBF6"/>
  <circle cx="110.91" cy="93.49" r="0.42" fill="#F46D5D"/>
  <circle cx="79.8" cy="67.58" r="1.61" fill="#D4ECFB"/>
  <circle cx="97.88" cy="50.75" r="1.54" fill="#DDF1FC"/>
  <circle cx="109.44" cy="35.44" r="1.73" fill="#C6E5F9"/>
  <circle cx="45.97" cy="73.79" r="1.99" fill="#A8D5F4"/>
  <circle cx="83.66" cy="53.83" r="2.14" fill="#93C8F0"/>
  <circle cx="96.12" cy="123.22" r="1.54" fill="#DDF1FC"/>
  <circle cx="87.32" cy="109.86" r="1.73" fill="#C6E5F9"/>
  <circle cx="108.1" cy="72.87" r="1.68" fill="#CBE8FA"/>
  <circle cx="83.92" cy="36.61" r="1.75" fill="#C6E5F9"/>
  <circle cx="134.16" cy="95.82" r="0.12" fill="#9D1A16"/>
  <circle cx="80.27" cy="126.05" r="1.47" fill="#E6F5FD"/>
  <circle cx="117.53" cy="108.7" r="1.61" fill="#D4ECFB"/>
  <circle cx="64.06" cy="58.48" r="1.94" fill="#ADD8F5"/>
  <circle cx="84.5" cy="140.95" r="1.02" fill="#FFD0C5"/>
  <circle cx="53.62" cy="130.14" r="2.07" fill="#83BEEC"/>
  <circle cx="54.15" cy="57.56" r="1.76" fill="#C1E3F8"/>
  <circle cx="56.87" cy="92.71" r="1.43" fill="#EAF6FD"/>
  <circle cx="96.47" cy="82.61" r="1.29" fill="#FFEDE7"/>
  <circle cx="47.37" cy="32.2" r="2.05" fill="#64A5E0"/>
  <circle cx="13.33" cy="49.06" r="2.26" fill="#0D3262"/>
  <circle cx="69.34" cy="47.78" r="1.6" fill="#D4ECFB"/>
  <circle cx="97.33" cy="146.67" r="1.88" fill="#B2DBF6"/>
  <circle cx="74.01" cy="91.54" r="1.56" fill="#DDF1FC"/>
  <circle cx="139.81" cy="60.01" r="0.79" fill="#FFB3A3"/>
  <circle cx="143.93" cy="41.25" r="1.9" fill="#B2DBF6"/>
  <circle cx="59.83" cy="84.61" r="1.89" fill="#B2DBF6"/>
  <circle cx="118.8" cy="57.03" r="2.1" fill="#89C1ED"/>
  <circle cx="114" cy="45.14" r="1.59" fill="#D8EEFB"/>
  <circle cx="97.32" cy="99.44" r="0.49" fill="#FA7968"/>
  <circle cx="95.41" cy="40.14" r="1.48" fill="#E1F3FC"/>
  <circle cx="57.04" cy="69.5" r="1.92" fill="#ADD8F5"/>
  <circle cx="103.46" cy="92.11" r="0.57" fill="#FF8A78"/>
  <circle cx="82.99" cy="100.28" r="1.41" fill="#EAF6FD"/>
  <circle cx="125.71" cy="102.32" r="0" fill="#6C0303"/>
  <circle cx="55.45" cy="101.42" r="1.86" fill="#B7DEF7"/>
  <circle cx="146.67" cy="75.26" r="2.1" fill="#99CCF1"/>
  <circle cx="113.06" cy="80.29" r="1.74" fill="#C6E5F9"/>
  <circle cx="74.58" cy="75.59" r="1.45" fill="#E6F5FD"/>
  <circle cx="98.36" cy="62.1" r="0.43" fill="#F46D5D"/>
  <circle cx="89.07" cy="92.72" r="1.03" fill="#FFD4C9"/>
</g>
<g font-size="4" stroke="#000000" stroke-opacity="0.000" fill="#000000" id="img-7d259603-5">
</g>
</svg>
