<?xml version="1.0" encoding="UTF-8"?>
<svg xmlns="http://www.w3.org/2000/svg"
     xmlns:xlink="http://www.w3.org/1999/xlink"
     xmlns:gadfly="http://www.gadflyjl.org/ns"
     version="1.2"
     width="160mm" height="160mm" viewBox="0 0 160 160"
     stroke="none"
     fill="#000000"
     stroke-width="0.3"
     font-size="3.88"
>
<g stroke-width="0.42" fill="#000000" fill-opacity="0.000" stroke="#D3D3D3" id="img-bbd4a202-1">
  <path fill="none" d="M71.46,144.82 L 81.61 97.43"/>
  <path fill="none" d="M72.58,145.54 L 89.22 133.21"/>
  <path fill="none" d="M69.22,146.27 L 33.85 138.57"/>
  <path fill="none" d="M69.6,145.48 L 27.9 111.58"/>
  <path fill="none" d="M72.63,145.62 L 117.36 115.88"/>
  <path fill="none" d="M87.28,90.19 L 81.93 96.75"/>
  <path fill="none" d="M87.5,90.33 L 69.13 134.08"/>
  <path fill="none" d="M87.08,89.96 L 39.8 117.63"/>
  <path fill="none" d="M87.43,88.73 L 62.19 39.98"/>
  <path fill="none" d="M87.89,88.63 L 90.29 44.75"/>
  <path fill="none" d="M88.53,88.95 L 111.99 69.88"/>
  <path fill="none" d="M88.52,90.08 L 117.46 114.12"/>
  <path fill="none" d="M88.66,89.85 L 108.53 98.15"/>
  <path fill="none" d="M88.72,89.61 L 124.34 93.75"/>
  <path fill="none" d="M82.07,97.11 L 95.3 99.2"/>
  <path fill="none" d="M81.78,97.43 L 89.7 131.9"/>
  <path fill="none" d="M81.9,97.37 L 94.22 115.87"/>
  <path fill="none" d="M81.43,97.33 L 71.86 107.82"/>
  <path fill="none" d="M81.35,96.85 L 42.14 73.87"/>
  <path fill="none" d="M81.75,96.66 L 90.09 44.73"/>
  <path fill="none" d="M81.66,96.66 L 78.79 53.1"/>
  <path fill="none" d="M82.08,97.07 L 108.44 98.51"/>
  <path fill="none" d="M95.3,99.2 L 69.18 134.11"/>
  <path fill="none" d="M95.3,99.2 L 66.09 116.47"/>
  <path fill="none" d="M95.3,99.2 L 53.31 57.17"/>
  <path fill="none" d="M95.3,99.2 L 112.06 69.94"/>
  <path fill="none" d="M95.3,99.2 L 102.91 65.2"/>
  <path fill="none" d="M95.3,99.2 L 124.35 93.83"/>
  <path fill="none" d="M89.06,132.77 L 69.27 134.27"/>
  <path fill="none" d="M90.13,131.91 L 94.44 117.38"/>
  <path fill="none" d="M89.2,132.25 L 66.08 116.79"/>
  <path fill="none" d="M89.58,131.93 L 67.57 76.47"/>
  <path fill="none" d="M69.23,134.16 L 93.99 117.05"/>
  <path fill="none" d="M69.06,134.06 L 71.24 109.23"/>
  <path fill="none" d="M68.87,134.14 L 54.77 121.53"/>
  <path fill="none" d="M68.82,134.24 L 20.69 122.82"/>
  <path fill="none" d="M93.84,116.57 L 66.13 116.63"/>
  <path fill="none" d="M93.89,116.29 L 72.08 108.69"/>
  <path fill="none" d="M93.85,116.65 L 55.13 120.43"/>
  <path fill="none" d="M94.83,115.74 L 106.01 50.47"/>
  <path fill="none" d="M66,116.38 L 70.86 109.1"/>
  <path fill="none" d="M65.55,116.72 L 55.06 120.13"/>
  <path fill="none" d="M65.53,116.65 L 40.03 118.36"/>
  <path fill="none" d="M65.64,116.4 L 44.36 91.25"/>
  <path fill="none" d="M65.79,116.33 L 59.34 66.27"/>
  <path fill="none" d="M71.5,109.21 L 75.16 124.99"/>
  <path fill="none" d="M70.52,108.27 L 16.93 98.06"/>
  <path fill="none" d="M71.21,107.61 L 67.23 76.56"/>
  <path fill="none" d="M71.91,107.86 L 112.01 69.9"/>
  <path fill="none" d="M52.27,120.38 L 40.02 118.7"/>
  <path fill="none" d="M55.08,120.96 L 73.85 126.25"/>
  <path fill="none" d="M52.26,120.64 L 20.75 122.16"/>
  <path fill="none" d="M52.64,119.59 L 14.93 84.71"/>
  <path fill="none" d="M52.35,120.06 L 28.25 110.98"/>
  <path fill="none" d="M54.9,119.78 L 109.28 84.02"/>
  <path fill="none" d="M39.99,118.84 L 73.82 126.35"/>
  <path fill="none" d="M37.1,117.37 L 16.42 99.1"/>
  <path fill="none" d="M38.03,116.84 L 29.57 75.17"/>
  <path fill="none" d="M73.84,127.19 L 33.83 137.56"/>
  <path fill="none" d="M74.05,125.79 L 38.13 103.3"/>
  <path fill="none" d="M74.52,125.29 L 57.2 101.34"/>
  <path fill="none" d="M77.29,126.27 L 117.17 115.45"/>
  <path fill="none" d="M77.05,125.74 L 124.39 93.93"/>
  <path fill="none" d="M32,135.95 L 36 104.31"/>
  <path fill="none" d="M30.88,136.1 L 15.63 99.67"/>
  <path fill="none" d="M32.88,136.26 L 54.57 101.43"/>
  <path fill="none" d="M30.32,136.45 L 19.92 124.08"/>
  <path fill="none" d="M34.14,101.69 L 16.93 98.1"/>
  <path fill="none" d="M34.83,103.77 L 19.96 120.51"/>
  <path fill="none" d="M34.81,100.52 L 27.54 92.51"/>
  <path fill="none" d="M37.6,100.39 L 81.09 42.65"/>
  <path fill="none" d="M15.1,99.82 L 18.06 119.94"/>
  <path fill="none" d="M16.66,96.53 L 24.23 92.02"/>
  <path fill="none" d="M14.57,95.48 L 13.55 85.4"/>
  <path fill="none" d="M15.65,95.65 L 42.64 33.36"/>
  <path fill="none" d="M53.81,100.66 L 20.41 121.05"/>
  <path fill="none" d="M53.56,98.78 L 28.16 91.51"/>
  <path fill="none" d="M56.04,97.09 L 59.01 66.27"/>
  <path fill="none" d="M57.34,97.64 L 84.67 65.58"/>
  <path fill="none" d="M57.71,98.04 L 102.55 64.96"/>
  <path fill="none" d="M18.96,119.98 L 25.57 93.01"/>
  <path fill="none" d="M18.1,119.94 L 13.61 85.39"/>
  <path fill="none" d="M19.68,120.29 L 25.01 112.04"/>
  <path fill="none" d="M24.23,89.79 L 15.2 84.35"/>
  <path fill="none" d="M26.1,93.07 L 26.19 108.01"/>
  <path fill="none" d="M28.24,90.76 L 41.09 89.87"/>
  <path fill="none" d="M28.14,90.23 L 54.65 81.52"/>
  <path fill="none" d="M28.06,90.02 L 84.12 64.85"/>
  <path fill="none" d="M15.46,83.7 L 41.14 89.31"/>
  <path fill="none" d="M15.37,82.47 L 39.04 73.6"/>
  <path fill="none" d="M14.92,81.73 L 59.54 39.53"/>
  <path fill="none" d="M27.59,108.51 L 41.81 91.26"/>
  <path fill="none" d="M27.78,108.68 L 55.15 82.37"/>
  <path fill="none" d="M26.99,108.16 L 40.03 74.61"/>
  <path fill="none" d="M26.38,108.02 L 29.02 75.2"/>
  <path fill="none" d="M44.74,88.65 L 54.89 82.04"/>
  <path fill="none" d="M42.79,87.77 L 40.9 74.71"/>
  <path fill="none" d="M41.8,88.22 L 30.44 74.75"/>
  <path fill="none" d="M42.11,88 L 26.85 60.43"/>
  <path fill="none" d="M44.77,88.7 L 65.81 75.88"/>
  <path fill="none" d="M45.04,89.99 L 108.45 98.42"/>
  <path fill="none" d="M54.76,79.87 L 42.21 73.75"/>
  <path fill="none" d="M54.62,80.25 L 31.07 73.76"/>
  <path fill="none" d="M54.95,79.55 L 27.47 59.88"/>
  <path fill="none" d="M58.94,80.61 L 96.25 76.81"/>
  <path fill="none" d="M58.95,80.73 L 121.86 77.63"/>
  <path fill="none" d="M39.41,71.8 L 27.29 60.09"/>
  <path fill="none" d="M39.85,71.47 L 26.79 46.63"/>
  <path fill="none" d="M41.71,71.63 L 52.81 57.2"/>
  <path fill="none" d="M42.23,72.3 L 57.79 65.39"/>
  <path fill="none" d="M42.38,73.11 L 96.25 76.55"/>
  <path fill="none" d="M28.75,71.32 L 26.35 60.61"/>
  <path fill="none" d="M28.95,71.29 L 26.12 46.84"/>
  <path fill="none" d="M30.8,72.13 L 52.72 57.11"/>
  <path fill="none" d="M31.14,73.34 L 65.6 75.06"/>
  <path fill="none" d="M30.98,72.44 L 77.04 52.04"/>
  <path fill="none" d="M25.93,56.91 L 25.9 46.85"/>
  <path fill="none" d="M27.81,58.65 L 52.66 56.92"/>
  <path fill="none" d="M27.68,59.48 L 65.7 74.6"/>
  <path fill="none" d="M27.79,59.12 L 57.69 64.52"/>
  <path fill="none" d="M27.65,45.71 L 52.69 56.74"/>
  <path fill="none" d="M27.44,46.07 L 65.88 74.28"/>
  <path fill="none" d="M27.54,45.92 L 57.87 64.02"/>
  <path fill="none" d="M27.41,43.77 L 41.78 32.69"/>
  <path fill="none" d="M53.28,57.2 L 66.16 73.99"/>
  <path fill="none" d="M53.42,56.81 L 76.93 51.7"/>
  <path fill="none" d="M53.39,57.05 L 96.38 76.01"/>
  <path fill="none" d="M66.17,73.98 L 60.06 65.97"/>
  <path fill="none" d="M68.36,74.55 L 116.79 53.38"/>
  <path fill="none" d="M68.29,74.4 L 84.22 65.05"/>
  <path fill="none" d="M68.43,74.73 L 102.46 64.77"/>
  <path fill="none" d="M59.26,63.3 L 61 40.23"/>
  <path fill="none" d="M60.37,63.93 L 88.79 43.92"/>
  <path fill="none" d="M60.64,64.93 L 111.94 69.7"/>
  <path fill="none" d="M45.53,32.13 L 59.07 37.21"/>
  <path fill="none" d="M45.46,30.43 L 73.78 16.93"/>
  <path fill="none" d="M45.51,30.54 L 85.8 14.15"/>
  <path fill="none" d="M45.61,31.88 L 80.27 40.34"/>
  <path fill="none" d="M45.39,32.43 L 77.12 50.43"/>
  <path fill="none" d="M62.4,36.14 L 74.59 17.86"/>
  <path fill="none" d="M62.8,36.48 L 86.22 14.81"/>
  <path fill="none" d="M63.4,37.95 L 110.98 36.99"/>
  <path fill="none" d="M78.11,15.45 L 85.69 13.8"/>
  <path fill="none" d="M76.96,17.96 L 89.46 41.05"/>
  <path fill="none" d="M76.45,18.17 L 81.86 38.71"/>
  <path fill="none" d="M76.99,17.95 L 102.75 64.07"/>
  <path fill="none" d="M88,15.5 L 90.23 40.82"/>
  <path fill="none" d="M89.38,14.84 L 111.36 36.01"/>
  <path fill="none" d="M88.83,15.25 L 105.35 46.39"/>
  <path fill="none" d="M87.4,15.47 L 82.86 38.67"/>
  <path fill="none" d="M92.26,43.43 L 104.31 47.6"/>
  <path fill="none" d="M88.48,42.32 L 84.6 41.39"/>
  <path fill="none" d="M88.8,43.94 L 80.12 50.26"/>
  <path fill="none" d="M111.71,38.17 L 107.39 46.38"/>
  <path fill="none" d="M110.99,37.14 L 84.65 40.58"/>
  <path fill="none" d="M113.69,36.78 L 123.82 35.42"/>
  <path fill="none" d="M112.34,38.32 L 112.19 69.47"/>
  <path fill="none" d="M111.91,38.25 L 103.24 64.02"/>
  <path fill="none" d="M112.63,38.29 L 124.55 93.53"/>
  <path fill="none" d="M104.29,47.67 L 84.56 41.53"/>
  <path fill="none" d="M108.18,47.08 L 124.1 36.15"/>
  <path fill="none" d="M104.21,48.55 L 80.45 51.12"/>
  <path fill="none" d="M104.65,49.65 L 87.68 62.71"/>
  <path fill="none" d="M105.75,50.41 L 98.3 75.12"/>
  <path fill="none" d="M81.68,42.96 L 79.28 49.63"/>
  <path fill="none" d="M84.55,41.57 L 116.74 52.28"/>
  <path fill="none" d="M84.1,42.35 L 122.25 76.53"/>
  <path fill="none" d="M124.89,36.77 L 112.28 69.49"/>
  <path fill="none" d="M123.9,35.74 L 80.36 50.73"/>
  <path fill="none" d="M124.85,36.75 L 118.79 51.35"/>
  <path fill="none" d="M124.13,36.19 L 87.71 62.76"/>
  <path fill="none" d="M112.27,69.48 L 117.69 54.21"/>
  <path fill="none" d="M112.31,69.95 L 124.48 93.55"/>
  <path fill="none" d="M79.57,52.86 L 84.98 62.18"/>
  <path fill="none" d="M79.95,52.57 L 109.51 81.68"/>
  <path fill="none" d="M116.75,53.27 L 88 63.3"/>
  <path fill="none" d="M117.84,54.26 L 111.28 81.17"/>
  <path fill="none" d="M117.2,53.93 L 98.88 75.43"/>
  <path fill="none" d="M116.99,53.71 L 103.53 64.23"/>
  <path fill="none" d="M87.69,65.26 L 109.36 81.85"/>
  <path fill="none" d="M88.12,64.06 L 102.43 64.58"/>
  <path fill="none" d="M112.7,83.15 L 144.75 85.94"/>
  <path fill="none" d="M109.16,82.17 L 99.27 77.35"/>
  <path fill="none" d="M110.11,81.27 L 103.28 65.16"/>
  <path fill="none" d="M112.56,82.24 L 121.98 78.16"/>
  <path fill="none" d="M144.78,85.74 L 99.41 76.95"/>
  <path fill="none" d="M144.94,85.26 L 103.59 64.87"/>
  <path fill="none" d="M144.86,85.44 L 124.83 78.08"/>
  <path fill="none" d="M145.33,87.49 L 119.62 114.01"/>
  <path fill="none" d="M98.47,75.18 L 102.8 65.16"/>
  <path fill="none" d="M98.6,78.06 L 117.89 113.77"/>
  <path fill="none" d="M98.59,78.06 L 109.02 97.6"/>
  <path fill="none" d="M103.56,64.93 L 122.1 76.73"/>
  <path fill="none" d="M103.16,65.2 L 109.33 97.5"/>
  <path fill="none" d="M123.2,79.07 L 118.78 113.6"/>
  <path fill="none" d="M122.55,78.83 L 110.13 97.66"/>
  <path fill="none" d="M123.51,79.08 L 124.58 93.52"/>
  <path fill="none" d="M117.88,113.77 L 110.06 99.52"/>
  <path fill="none" d="M118.99,113.65 L 124.53 94.03"/>
  <path fill="none" d="M110.57,98.24 L 124.35 93.86"/>
</g>
<g stroke-width="0.42" stroke="#D3D3D3" id="img-bbd4a202-2">
</g>
<g font-size="4" stroke="#000000" stroke-opacity="0.000" fill="#000000" id="img-bbd4a202-3">
</g>
<g stroke-width="0" stroke="#000000" id="img-bbd4a202-4">
  <circle cx="71.06" cy="146.67" r="1.81" fill="#97CBF1"/>
  <circle cx="87.84" cy="89.51" r="0.85" fill="#FFCFC3"/>
  <circle cx="81.69" cy="97.05" r="0.37" fill="#F5705F"/>
  <circle cx="95.3" cy="99.2" r="0" fill="#6D0404"/>
  <circle cx="89.89" cy="132.71" r="0.8" fill="#FFC6B8"/>
  <circle cx="69.04" cy="134.29" r="0.22" fill="#D03F34"/>
  <circle cx="94.68" cy="116.57" r="0.81" fill="#FFC6B8"/>
  <circle cx="65.83" cy="116.63" r="0.29" fill="#E35446"/>
  <circle cx="71.31" cy="108.42" r="0.78" fill="#FFC1B3"/>
  <circle cx="53.7" cy="120.57" r="1.38" fill="#D5EDFB"/>
  <circle cx="38.36" cy="118.48" r="1.61" fill="#B4DCF6"/>
  <circle cx="75.57" cy="126.74" r="1.72" fill="#A3D2F3"/>
  <circle cx="31.73" cy="138.11" r="2.09" fill="#1D4E8B"/>
  <circle cx="36.28" cy="102.14" r="2.1" fill="#0D3363"/>
  <circle cx="14.79" cy="97.65" r="2.1" fill="#2E69AD"/>
  <circle cx="55.82" cy="99.43" r="2.26" fill="#5093D4"/>
  <circle cx="18.4" cy="122.27" r="2.26" fill="#5093D4"/>
  <circle cx="26.08" cy="90.91" r="2.08" fill="#255C9D"/>
  <circle cx="13.33" cy="83.23" r="2.09" fill="#326FB4"/>
  <circle cx="26.2" cy="110.2" r="2.1" fill="#4588CB"/>
  <circle cx="43.07" cy="89.73" r="1.9" fill="#8BC3EE"/>
  <circle cx="56.74" cy="80.83" r="2.12" fill="#4B8DD0"/>
  <circle cx="40.65" cy="73" r="1.66" fill="#AFD9F5"/>
  <circle cx="29.18" cy="73.24" r="1.89" fill="#8BC3EE"/>
  <circle cx="25.94" cy="58.78" r="1.8" fill="#97CBF1"/>
  <circle cx="25.9" cy="44.94" r="1.84" fill="#91C7F0"/>
  <circle cx="53.04" cy="56.89" r="0.37" fill="#F5705F"/>
  <circle cx="67.04" cy="75.13" r="1.39" fill="#D5EDFB"/>
  <circle cx="59.15" cy="64.79" r="1.43" fill="#CAE8FA"/>
  <circle cx="43.5" cy="31.36" r="2.09" fill="#215594"/>
  <circle cx="61.16" cy="38" r="2.14" fill="#4588CB"/>
  <circle cx="75.86" cy="15.94" r="2.21" fill="#3B7CC1"/>
  <circle cx="87.81" cy="13.33" r="2.09" fill="#2E69AD"/>
  <circle cx="90.4" cy="42.78" r="1.89" fill="#8BC3EE"/>
  <circle cx="112.34" cy="36.96" r="1.31" fill="#DFF2FC"/>
  <circle cx="106.38" cy="48.32" r="2.1" fill="#6DADE4"/>
  <circle cx="82.43" cy="40.86" r="2.14" fill="#4588CB"/>
  <circle cx="125.49" cy="35.19" r="1.62" fill="#B4DCF6"/>
  <circle cx="112.19" cy="69.72" r="0.24" fill="#D7463A"/>
  <circle cx="78.67" cy="51.32" r="1.72" fill="#A3D2F3"/>
  <circle cx="118.2" cy="52.77" r="1.47" fill="#C5E5F9"/>
  <circle cx="86.03" cy="63.99" r="2.01" fill="#79B6E9"/>
  <circle cx="110.84" cy="82.99" r="1.79" fill="#97CBF1"/>
  <circle cx="146.67" cy="86.11" r="1.85" fill="#91C7F0"/>
  <circle cx="97.84" cy="76.65" r="1.53" fill="#BFE2F8"/>
  <circle cx="103.04" cy="64.6" r="0.59" fill="#FFA290"/>
  <circle cx="123.39" cy="77.55" r="1.47" fill="#C5E5F9"/>
  <circle cx="118.59" cy="115.07" r="1.42" fill="#D0EAFA"/>
  <circle cx="109.53" cy="98.57" r="1.05" fill="#FFE8E1"/>
  <circle cx="124.6" cy="93.78" r="0.25" fill="#DD4D40"/>
</g>
<g font-size="4" stroke="#000000" stroke-opacity="0.000" fill="#000000" id="img-bbd4a202-5">
</g>
</svg>
