<?xml version="1.0" encoding="UTF-8"?>
<svg xmlns="http://www.w3.org/2000/svg"
     xmlns:xlink="http://www.w3.org/1999/xlink"
     version="1.2"
     width="160mm" height="160mm" viewBox="0 0 160 160"
     stroke="none"
     fill="#000000"
     stroke-width="0.3"
     font-size="3.88"
>
<g stroke-width="0.67" fill="#000000" fill-opacity="0.000" stroke="#D3D3D3" id="img-2f94f031-1">
  <path fill="none" d="M14.04,43.64 L 13.44 64.81"/>
  <path fill="none" d="M16.69,37.72 L 39.83 15.77"/>
  <path fill="none" d="M16.87,42.34 L 49.31 68.53"/>
  <path fill="none" d="M28.79,88.22 L 15.62 71.43"/>
  <path fill="none" d="M33.76,93.27 L 59.11 113.79"/>
  <path fill="none" d="M34.54,90.78 L 67.89 88.49"/>
  <path fill="none" d="M33.56,88.56 L 49.51 73.25"/>
  <path fill="none" d="M91.58,145.98 L 108.81 113.88"/>
  <path fill="none" d="M90.67,146.11 L 62.91 117.27"/>
  <path fill="none" d="M104.08,92.83 L 94.54 100.96"/>
  <path fill="none" d="M105.05,87.48 L 97.31 73.47"/>
  <path fill="none" d="M103.25,90.32 L 75.02 88.47"/>
  <path fill="none" d="M109.84,92.21 L 118.29 96.74"/>
  <path fill="none" d="M103.71,55.25 L 97.28 67.16"/>
  <path fill="none" d="M107.41,54.35 L 146 80.61"/>
  <path fill="none" d="M102.37,53.66 L 55.48 69.62"/>
  <path fill="none" d="M102.28,52.16 L 80.19 47.46"/>
  <path fill="none" d="M118.06,75.09 L 108.94 113.55"/>
  <path fill="none" d="M116.72,73.14 L 99.13 70.8"/>
  <path fill="none" d="M118.68,75.13 L 121.1 94.82"/>
  <path fill="none" d="M116.98,72.43 L 79.69 48.68"/>
  <path fill="none" d="M92.22,99.72 L 95.16 73.9"/>
  <path fill="none" d="M88.49,104.6 L 63.52 114.46"/>
  <path fill="none" d="M88.94,101.15 L 74.33 90.36"/>
  <path fill="none" d="M95.35,102.71 L 117.89 99.09"/>
  <path fill="none" d="M109.03,113.61 L 146.06 81.59"/>
  <path fill="none" d="M108.71,113.71 L 47.18 108.32"/>
  <path fill="none" d="M15.27,65.36 L 31.45 38.95"/>
  <path fill="none" d="M15.67,71.39 L 44.58 106.94"/>
  <path fill="none" d="M92.68,72.47 L 74.32 86.11"/>
  <path fill="none" d="M93.32,67.52 L 78.88 49.59"/>
  <path fill="none" d="M60.61,112.88 L 52.8 74.28"/>
  <path fill="none" d="M58.78,114.32 L 47.04 108.86"/>
  <path fill="none" d="M74.95,88.96 L 117.92 97.76"/>
  <path fill="none" d="M68.76,90.59 L 32.85 121.88"/>
  <path fill="none" d="M68.8,85.85 L 54.75 73.17"/>
  <path fill="none" d="M71.89,84.7 L 76.09 50.38"/>
  <path fill="none" d="M44.94,15.81 L 73.88 44.08"/>
  <path fill="none" d="M32.65,121.67 L 44.49 109.33"/>
  <path fill="none" d="M36.73,36.78 L 72.93 45.78"/>
</g>
<g stroke-width="0.67" stroke="#D3D3D3" id="img-2f94f031-2">
</g>
<g font-size="4" stroke="#000000" stroke-opacity="0.000" fill="#000000" id="img-2f94f031-3">
</g>
<g stroke-width="0" stroke="#000000" stroke-opacity="0.000" id="img-2f94f031-4">
  <circle cx="14.14" cy="40.13" r="3.37" fill="#D3ECFB"/>
  <circle cx="30.99" cy="91.02" r="3.42" fill="#EEF8FE"/>
  <circle cx="91.21" cy="146.67" r="0.74" fill="#E35446"/>
  <circle cx="106.75" cy="90.55" r="3.37" fill="#E7F5FD"/>
  <circle cx="105.06" cy="52.75" r="2.73" fill="#FFD7CD"/>
  <circle cx="118.47" cy="73.38" r="1.7" fill="#FFA291"/>
  <circle cx="91.82" cy="103.28" r="3.44" fill="#F0F9FE"/>
  <circle cx="108.89" cy="113.72" r="0.17" fill="#8B100E"/>
  <circle cx="13.33" cy="68.51" r="3.56" fill="#ECF7FD"/>
  <circle cx="95.57" cy="70.32" r="3.45" fill="#FFF0EB"/>
  <circle cx="61.12" cy="115.41" r="2.48" fill="#FFCCBF"/>
  <circle cx="71.46" cy="88.24" r="3.43" fill="#EEF8FE"/>
  <circle cx="42.4" cy="13.33" r="3.4" fill="#CAE7F9"/>
  <circle cx="121.55" cy="98.5" r="3.56" fill="#FFF3EF"/>
  <circle cx="146.67" cy="81.06" r="0.78" fill="#E55748"/>
  <circle cx="30.42" cy="123.99" r="3.09" fill="#FFE4DD"/>
  <circle cx="52.09" cy="70.77" r="3.44" fill="#EEF8FE"/>
  <circle cx="33.3" cy="35.93" r="3.4" fill="#DAEFFB"/>
  <circle cx="45.59" cy="108.18" r="1.53" fill="#FF9886"/>
  <circle cx="76.55" cy="46.68" r="3.58" fill="#F0F9FE"/>
</g>
<g font-size="4" stroke="#000000" stroke-opacity="0.000" fill="#000000" id="img-2f94f031-5">
</g>
</svg>
