<?xml version="1.0" encoding="UTF-8"?>
<svg xmlns="http://www.w3.org/2000/svg"
     xmlns:xlink="http://www.w3.org/1999/xlink"
     version="1.2"
     width="160mm" height="160mm" viewBox="0 0 160 160"
     stroke="none"
     fill="#000000"
     stroke-width="0.3"
     font-size="3.88"
>
<g stroke-width="0.67" fill="#000000" fill-opacity="0.000" stroke="#D3D3D3" id="img-6d7ea82f-1">
  <path fill="none" d="M82.98,110.28 L 74.75 68.94"/>
  <path fill="none" d="M80.24,112.57 L 56.58 103.23"/>
  <path fill="none" d="M82.68,110.35 L 76.04 87.2"/>
  <path fill="none" d="M86.95,115.77 L 115.59 132.04"/>
  <path fill="none" d="M85.63,117.13 L 98 137.69"/>
  <path fill="none" d="M145.01,108.93 L 138.68 97.21"/>
  <path fill="none" d="M143.9,114.15 L 121.4 131.62"/>
  <path fill="none" d="M144.12,109.61 L 110.18 77.72"/>
  <path fill="none" d="M72.51,67.71 L 33.23 82.91"/>
  <path fill="none" d="M74.47,68.98 L 75.1 81.51"/>
  <path fill="none" d="M76.29,67.47 L 103.86 74.28"/>
  <path fill="none" d="M73.68,65.13 L 57.8 22.21"/>
  <path fill="none" d="M75.87,68.29 L 100.81 89.91"/>
  <path fill="none" d="M76.24,66.34 L 110.94 54.22"/>
  <path fill="none" d="M54.81,105.13 L 73.51 143.55"/>
  <path fill="none" d="M50.39,99.74 L 32.75 86.35"/>
  <path fill="none" d="M50.71,99.38 L 14.8 63.52"/>
  <path fill="none" d="M56.46,100.32 L 104.13 76.82"/>
  <path fill="none" d="M52.59,105.43 L 48.85 125.73"/>
  <path fill="none" d="M135.46,97.31 L 120.1 130.59"/>
  <path fill="none" d="M133.38,93.81 L 106.08 92.07"/>
  <path fill="none" d="M135.19,90.92 L 115.08 55.77"/>
  <path fill="none" d="M78.35,145.68 L 115.28 134.76"/>
  <path fill="none" d="M72.12,144.77 L 51.16 131.1"/>
  <path fill="none" d="M78.4,145.86 L 96.38 141.56"/>
  <path fill="none" d="M31.83,26.91 L 14.3 60.23"/>
  <path fill="none" d="M32.84,26.5 L 79.86 41.39"/>
  <path fill="none" d="M32.86,26.17 L 57.65 22.13"/>
  <path fill="none" d="M75.64,81.54 L 80.94 43.11"/>
  <path fill="none" d="M77.5,82.58 L 111.42 55.08"/>
  <path fill="none" d="M73.74,86.89 L 50.03 126.17"/>
  <path fill="none" d="M115.35,134.98 L 103.16 139.5"/>
  <path fill="none" d="M117.35,29.31 L 108.25 71.53"/>
  <path fill="none" d="M115.14,27.48 L 82.35 41.28"/>
  <path fill="none" d="M120.78,24.9 L 141.03 14.91"/>
  <path fill="none" d="M80.11,40.94 L 57.84 22.18"/>
  <path fill="none" d="M81.66,43.01 L 101.87 89.12"/>
  <path fill="none" d="M82.38,42.24 L 110.94 52.32"/>
  <path fill="none" d="M102.88,94.87 L 100.07 137.19"/>
  <path fill="none" d="M142.06,16.17 L 115.4 50.99"/>
</g>
<g stroke-width="0.67" stroke="#D3D3D3" id="img-6d7ea82f-2">
</g>
<g font-size="4" stroke="#000000" stroke-opacity="0.000" fill="#000000" id="img-6d7ea82f-3">
</g>
<g stroke-width="0" stroke="#000000" stroke-opacity="0.000" id="img-6d7ea82f-4">
  <circle cx="83.71" cy="113.93" r="3.58" fill="#F0F9FE"/>
  <circle cx="146.67" cy="112.01" r="3.36" fill="#D8EEFB"/>
  <circle cx="74.37" cy="66.99" r="1.91" fill="#FFAF9E"/>
  <circle cx="53.24" cy="101.91" r="3.44" fill="#F0F9FE"/>
  <circle cx="136.97" cy="94.04" r="3.45" fill="#E7F5FD"/>
  <circle cx="75.03" cy="146.67" r="3.33" fill="#D8EEFB"/>
  <circle cx="32.16" cy="26.28" r="0.68" fill="#DB4A3E"/>
  <circle cx="29.91" cy="84.2" r="3.42" fill="#FFEEE9"/>
  <circle cx="75.24" cy="84.41" r="2.78" fill="#FFD9CF"/>
  <circle cx="13.33" cy="62.06" r="1.98" fill="#FFB3A3"/>
  <circle cx="118.63" cy="133.77" r="3.36" fill="#D8EEFB"/>
  <circle cx="118" cy="26.27" r="2.98" fill="#FFE1D8"/>
  <circle cx="107.47" cy="75.17" r="3.57" fill="#FFF3EF"/>
  <circle cx="81.12" cy="41.8" r="1.28" fill="#FF8473"/>
  <circle cx="57.76" cy="22.11" r="0.1" fill="#7C0908"/>
  <circle cx="103.08" cy="91.87" r="2.89" fill="#FFDDD4"/>
  <circle cx="144.23" cy="13.33" r="3.43" fill="#FFF3EF"/>
  <circle cx="113.65" cy="53.27" r="2.76" fill="#FFD7CD"/>
  <circle cx="48.21" cy="129.18" r="3.37" fill="#E3F3FC"/>
  <circle cx="99.83" cy="140.73" r="3.41" fill="#E1F2FC"/>
</g>
<g font-size="4" stroke="#000000" stroke-opacity="0.000" fill="#000000" id="img-6d7ea82f-5">
</g>
</svg>
