<?xml version="1.0" encoding="UTF-8"?>
<svg xmlns="http://www.w3.org/2000/svg"
     xmlns:xlink="http://www.w3.org/1999/xlink"
     xmlns:gadfly="http://www.gadflyjl.org/ns"
     version="1.2"
     width="160mm" height="160mm" viewBox="0 0 160 160"
     stroke="none"
     fill="#000000"
     stroke-width="0.3"
     font-size="3.88"
>
<g stroke-width="0.42" fill="#000000" fill-opacity="0.000" stroke="#D3D3D3" id="img-3a249728-1">
  <path fill="none" d="M97.04,48.8 L 78.21 64.48"/>
  <path fill="none" d="M97.32,48.71 L 118.74 49.9"/>
  <path fill="none" d="M97.02,48.63 L 78.98 40.62"/>
  <path fill="none" d="M97.02,48.64 L 70.2 38.5"/>
  <path fill="none" d="M97.29,48.78 L 116.52 61.62"/>
  <path fill="none" d="M97.01,48.68 L 84.8 47.25"/>
  <path fill="none" d="M50.99,55.15 L 77.34 64.64"/>
  <path fill="none" d="M50.05,55.42 L 40.43 67.5"/>
  <path fill="none" d="M50.32,54.35 L 47.22 36.31"/>
  <path fill="none" d="M50.53,54.36 L 52.39 44.13"/>
  <path fill="none" d="M49.85,54.76 L 43.6 52.67"/>
  <path fill="none" d="M77.98,65.29 L 82.97 80.11"/>
  <path fill="none" d="M77.94,64.32 L 79.74 56.72"/>
  <path fill="none" d="M78.15,65.2 L 86.7 75.53"/>
  <path fill="none" d="M77.33,64.66 L 62.53 60.09"/>
  <path fill="none" d="M77.63,65.28 L 72.73 77.16"/>
  <path fill="none" d="M83.36,80.16 L 96.62 60.24"/>
  <path fill="none" d="M82.72,80.78 L 62.05 93.78"/>
  <path fill="none" d="M82.7,80.35 L 59.51 69.56"/>
  <path fill="none" d="M83.57,80.54 L 106.48 80.64"/>
  <path fill="none" d="M14.09,69.81 L 31.76 62"/>
  <path fill="none" d="M14.16,70.08 L 39.47 68.01"/>
  <path fill="none" d="M145.97,40.99 L 119.69 49.77"/>
  <path fill="none" d="M127.66,56.64 L 96.92 60.06"/>
  <path fill="none" d="M127.74,56.33 L 119.62 50.22"/>
  <path fill="none" d="M128.13,57.02 L 128.87 65.31"/>
  <path fill="none" d="M87.28,44.74 L 67.37 66.85"/>
  <path fill="none" d="M112.71,101.98 L 101.08 74.13"/>
  <path fill="none" d="M113.17,104.97 L 111.46 124.28"/>
  <path fill="none" d="M66.15,27.43 L 90.93 34.79"/>
  <path fill="none" d="M65.13,27.3 L 56.49 27.64"/>
  <path fill="none" d="M65.49,27.77 L 60.35 43.75"/>
  <path fill="none" d="M65.21,27.55 L 42.57 41.18"/>
  <path fill="none" d="M96.69,59.89 L 91.41 35.31"/>
  <path fill="none" d="M96.6,59.94 L 78.95 40.66"/>
  <path fill="none" d="M96.57,60.2 L 72.93 77.31"/>
  <path fill="none" d="M96.82,60.26 L 106.67 80.32"/>
  <path fill="none" d="M96.6,59.94 L 84.8 47.26"/>
  <path fill="none" d="M61.22,94.93 L 55.97 116.35"/>
  <path fill="none" d="M61.56,93.44 L 66.83 67.91"/>
  <path fill="none" d="M60.74,93.82 L 43.97 84.58"/>
  <path fill="none" d="M35.56,18.2 L 46.97 35.69"/>
  <path fill="none" d="M35.77,17.97 L 55.43 27.42"/>
  <path fill="none" d="M34.68,17.89 L 22.51 21.86"/>
  <path fill="none" d="M33.21,61.81 L 66.35 67.21"/>
  <path fill="none" d="M32.79,61 L 41.82 42"/>
  <path fill="none" d="M118.74,50 L 80.57 55.95"/>
  <path fill="none" d="M119.48,50.34 L 128.6 65.4"/>
  <path fill="none" d="M91.05,35.21 L 78.97 48.06"/>
  <path fill="none" d="M79.28,55.77 L 53.17 43.73"/>
  <path fill="none" d="M79.24,56.19 L 62.55 59.73"/>
  <path fill="none" d="M80.42,56.49 L 100.25 73"/>
  <path fill="none" d="M79.22,55.99 L 43.63 52.52"/>
  <path fill="none" d="M78.75,40.55 L 47.5 36.02"/>
  <path fill="none" d="M78.75,40.59 L 60.61 44.04"/>
  <path fill="none" d="M78.95,40.66 L 84.79 47.25"/>
  <path fill="none" d="M86.51,75.78 L 67.53 67.55"/>
  <path fill="none" d="M69.85,38.42 L 47.5 36.01"/>
  <path fill="none" d="M70.15,38.58 L 78.33 48.05"/>
  <path fill="none" d="M69.87,38.53 L 60.56 43.92"/>
  <path fill="none" d="M69.85,38.46 L 42.65 41.41"/>
  <path fill="none" d="M70.18,38.53 L 84.79 47.25"/>
  <path fill="none" d="M118.37,144.62 L 112.12 128.82"/>
  <path fill="none" d="M40.52,67.59 L 58.35 53.05"/>
  <path fill="none" d="M40.6,68.22 L 70.8 82.86"/>
  <path fill="none" d="M40.17,67.38 L 42.78 53.16"/>
  <path fill="none" d="M40.38,67.45 L 43.06 63.08"/>
  <path fill="none" d="M39.55,67.67 L 22.41 58.17"/>
  <path fill="none" d="M17.39,80.6 L 42.65 84.14"/>
  <path fill="none" d="M16.77,79.69 L 21.72 58.48"/>
  <path fill="none" d="M47.35,36.26 L 58.38 52.8"/>
  <path fill="none" d="M47.15,35.63 L 46.32 13.86"/>
  <path fill="none" d="M46.9,36.2 L 22.34 57.46"/>
  <path fill="none" d="M78.39,48.82 L 67.28 66.78"/>
  <path fill="none" d="M78.96,48.77 L 100.32 72.92"/>
  <path fill="none" d="M78.29,48.09 L 56.35 28.04"/>
  <path fill="none" d="M58.56,53.08 L 66.65 66.78"/>
  <path fill="none" d="M58.64,52.9 L 84.79 47.25"/>
  <path fill="none" d="M46.6,13.77 L 55.62 27.2"/>
  <path fill="none" d="M29.52,39.35 L 51.82 43.3"/>
  <path fill="none" d="M29.32,39.74 L 42.38 51.95"/>
  <path fill="none" d="M29.52,39.34 L 41.5 41.38"/>
  <path fill="none" d="M52.88,44.05 L 61.5 59.26"/>
  <path fill="none" d="M52.67,42.73 L 55.81 28.21"/>
  <path fill="none" d="M62.12,60.53 L 71.24 82.44"/>
  <path fill="none" d="M61.33,59.39 L 42.5 41.87"/>
  <path fill="none" d="M67.13,67.9 L 71.33 82.41"/>
  <path fill="none" d="M44.04,84.08 L 72.1 77.69"/>
  <path fill="none" d="M43.35,83.53 L 43.37 63.17"/>
  <path fill="none" d="M100.12,73.69 L 72.38 82.96"/>
  <path fill="none" d="M101.51,73.27 L 128.33 66.08"/>
  <path fill="none" d="M101.39,73.04 L 116.53 62.07"/>
  <path fill="none" d="M56.07,28.2 L 60.15 43.75"/>
  <path fill="none" d="M72.05,83.94 L 89.47 109.91"/>
  <path fill="none" d="M60.22,44.48 L 59.05 68.8"/>
  <path fill="none" d="M59.99,44.38 L 43.77 62.15"/>
  <path fill="none" d="M22.34,22.57 L 41.65 41.07"/>
  <path fill="none" d="M58.54,69.12 L 43.91 62.81"/>
  <path fill="none" d="M43.33,61.99 L 42.11 42.06"/>
  <path fill="none" d="M109.35,125.23 L 91.79 112.33"/>
</g>
<g stroke-width="0.42" stroke="#D3D3D3" id="img-3a249728-2">
</g>
<g font-size="4" stroke="#000000" stroke-opacity="0.000" fill="#000000" id="img-3a249728-3">
</g>
<g stroke-width="0" stroke="#000000" id="img-3a249728-4">
  <circle cx="97.16" cy="48.7" r="0.15" fill="#B62B23"/>
  <circle cx="50.42" cy="54.95" r="0.58" fill="#FFA190"/>
  <circle cx="77.82" cy="64.81" r="0.49" fill="#FF8D7B"/>
  <circle cx="83.11" cy="80.54" r="0.44" fill="#FD7F6D"/>
  <circle cx="13.33" cy="70.14" r="0.79" fill="#FFC9BC"/>
  <circle cx="146.67" cy="40.76" r="0.7" fill="#FFB9AA"/>
  <circle cx="128.09" cy="56.59" r="0.42" fill="#F97766"/>
  <circle cx="87.9" cy="44.05" r="0.89" fill="#FFD8CE"/>
  <circle cx="113.31" cy="103.41" r="1.5" fill="#BFE2F8"/>
  <circle cx="65.65" cy="27.28" r="0.5" fill="#FF8D7B"/>
  <circle cx="96.73" cy="60.08" r="0.19" fill="#C9392F"/>
  <circle cx="61.4" cy="94.19" r="0.73" fill="#FFBFB0"/>
  <circle cx="35.24" cy="17.71" r="0.56" fill="#FF9A89"/>
  <circle cx="32.46" cy="61.69" r="0.73" fill="#FFBFB0"/>
  <circle cx="119.23" cy="49.92" r="0.47" fill="#FF8674"/>
  <circle cx="91.33" cy="34.91" r="0.39" fill="#F97766"/>
  <circle cx="79.9" cy="56.05" r="0.65" fill="#FFAD9D"/>
  <circle cx="78.87" cy="40.57" r="0.12" fill="#AC231E"/>
  <circle cx="87.14" cy="76.06" r="0.66" fill="#FFB3A3"/>
  <circle cx="70.03" cy="38.44" r="0.17" fill="#C03229"/>
  <circle cx="55.69" cy="117.48" r="1.11" fill="#FFF2EE"/>
  <circle cx="119.18" cy="146.67" r="2.12" fill="#0E3464"/>
  <circle cx="40.07" cy="67.96" r="0.57" fill="#FFA190"/>
  <circle cx="16.58" cy="80.49" r="0.78" fill="#FFC4B6"/>
  <circle cx="47.16" cy="35.97" r="0.33" fill="#EC6051"/>
  <circle cx="78.64" cy="48.41" r="0.46" fill="#FF8674"/>
  <circle cx="58.47" cy="52.94" r="0.16" fill="#C03229"/>
  <circle cx="46.3" cy="13.33" r="0.51" fill="#FF9482"/>
  <circle cx="28.76" cy="39.21" r="0.74" fill="#FFBFB0"/>
  <circle cx="52.52" cy="43.43" r="0.69" fill="#FFB3A3"/>
  <circle cx="61.85" cy="59.88" r="0.68" fill="#FFB3A3"/>
  <circle cx="66.96" cy="67.31" r="0.59" fill="#FFA190"/>
  <circle cx="43.35" cy="84.24" r="0.68" fill="#FFB3A3"/>
  <circle cx="72.55" cy="77.59" r="0.44" fill="#FD7F6D"/>
  <circle cx="100.8" cy="73.46" r="0.7" fill="#FFB9AA"/>
  <circle cx="55.93" cy="27.66" r="0.54" fill="#FF9A89"/>
  <circle cx="71.57" cy="83.23" r="0.82" fill="#FFCFC2"/>
  <circle cx="128.92" cy="65.92" r="0.59" fill="#FFA190"/>
  <circle cx="60.24" cy="44.11" r="0.36" fill="#F16858"/>
  <circle cx="21.83" cy="22.08" r="0.69" fill="#FFB3A3"/>
  <circle cx="42.91" cy="52.45" r="0.7" fill="#FFB9AA"/>
  <circle cx="59.03" cy="69.33" r="0.51" fill="#FF9482"/>
  <circle cx="116.84" cy="61.84" r="0.38" fill="#F5705F"/>
  <circle cx="43.37" cy="62.58" r="0.57" fill="#FFA190"/>
  <circle cx="21.87" cy="57.87" r="0.6" fill="#FFA796"/>
  <circle cx="42.07" cy="41.48" r="0.56" fill="#FF9A89"/>
  <circle cx="111.25" cy="126.63" r="2.26" fill="#4F92D3"/>
  <circle cx="106.83" cy="80.65" r="0.34" fill="#F16858"/>
  <circle cx="84.79" cy="47.25" r="0.01" fill="#6E0404"/>
  <circle cx="90.42" cy="111.32" r="1.64" fill="#ACD7F5"/>
</g>
<g font-size="4" stroke="#000000" stroke-opacity="0.000" fill="#000000" id="img-3a249728-5">
</g>
</svg>
