<?xml version="1.0" encoding="UTF-8"?>
<svg xmlns="http://www.w3.org/2000/svg"
     xmlns:xlink="http://www.w3.org/1999/xlink"
     xmlns:gadfly="http://www.gadflyjl.org/ns"
     version="1.2"
     width="160mm" height="160mm" viewBox="0 0 160 160"
     stroke="none"
     fill="#000000"
     stroke-width="0.3"
     font-size="3.88"
>
<g stroke-width="0.42" fill="#000000" fill-opacity="0.000" stroke="#D3D3D3" id="img-4265e972-1">
  <path fill="none" d="M79.62,120.52 L 97.57 140.73"/>
  <path fill="none" d="M78.47,120.4 L 53.07 138.62"/>
  <path fill="none" d="M79.33,119.2 L 89.82 84.53"/>
  <path fill="none" d="M79.05,119.16 L 77.06 90.38"/>
  <path fill="none" d="M109.45,94.95 L 106.92 123.26"/>
  <path fill="none" d="M109.95,93.28 L 124.24 66.6"/>
  <path fill="none" d="M108.64,93.95 L 77.6 89.87"/>
  <path fill="none" d="M99.12,140.51 L 106.15 126.04"/>
  <path fill="none" d="M99.82,141.27 L 109.1 137.63"/>
  <path fill="none" d="M107.23,126.12 L 110.14 135.45"/>
  <path fill="none" d="M105.52,123.99 L 89.47 114.74"/>
  <path fill="none" d="M109.48,135.85 L 89.22 115.06"/>
  <path fill="none" d="M112.18,136.45 L 127.73 130.63"/>
  <path fill="none" d="M89.66,113.83 L 110.26 111.47"/>
  <path fill="none" d="M86.74,114.28 L 48.6 121.71"/>
  <path fill="none" d="M88.13,112.52 L 86.39 69.22"/>
  <path fill="none" d="M128.12,128.95 L 112.28 112.2"/>
  <path fill="none" d="M129.3,128.53 L 130.41 112.46"/>
  <path fill="none" d="M110.47,110.64 L 102.62 105.07"/>
  <path fill="none" d="M110.27,111.1 L 79.48 105.18"/>
  <path fill="none" d="M112.3,110.47 L 132.79 89.68"/>
  <path fill="none" d="M129.28,110.93 L 102.77 104.75"/>
  <path fill="none" d="M130.66,109.97 L 133.31 89.93"/>
  <path fill="none" d="M100.96,104.38 L 66.38 98.14"/>
  <path fill="none" d="M101.85,103.62 L 101.59 82.68"/>
  <path fill="none" d="M64.72,97.81 L 39.61 92.41"/>
  <path fill="none" d="M65.47,98.83 L 62.8 127.59"/>
  <path fill="none" d="M65.42,97.16 L 60.7 67"/>
  <path fill="none" d="M51.01,85.19 L 39.47 91.38"/>
  <path fill="none" d="M53.12,84.88 L 76.45 89.68"/>
  <path fill="none" d="M36.65,92.47 L 20.97 96.43"/>
  <path fill="none" d="M37.96,93.61 L 37.24 100.42"/>
  <path fill="none" d="M20.95,97.54 L 35.29 101.73"/>
  <path fill="none" d="M17.24,95.72 L 15.09 94.16"/>
  <path fill="none" d="M35.34,101.57 L 15.36 93.68"/>
  <path fill="none" d="M35.47,103.18 L 22.91 110.65"/>
  <path fill="none" d="M38.87,102.37 L 77.76 104.96"/>
  <path fill="none" d="M14.14,94.9 L 20.01 109.66"/>
  <path fill="none" d="M14.62,91.12 L 24.66 77.36"/>
  <path fill="none" d="M23.07,112.73 L 44.5 121.32"/>
  <path fill="none" d="M25.66,77.67 L 26.56 116.29"/>
  <path fill="none" d="M26.46,74.66 L 47.44 40.02"/>
  <path fill="none" d="M44.38,121.72 L 28.63 118.73"/>
  <path fill="none" d="M45,123.67 L 32.65 136.55"/>
  <path fill="none" d="M27.09,120.35 L 30.84 136.06"/>
  <path fill="none" d="M27.11,120.35 L 33.28 145"/>
  <path fill="none" d="M31.82,139.86 L 33.24 145.01"/>
  <path fill="none" d="M33.25,138.1 L 50.72 139.29"/>
  <path fill="none" d="M35.3,146.03 L 50.81 139.86"/>
  <path fill="none" d="M35.42,146.56 L 52.06 145.58"/>
  <path fill="none" d="M52.25,140.65 L 52.96 144.42"/>
  <path fill="none" d="M53.15,140 L 61.42 144.55"/>
  <path fill="none" d="M52.93,138.46 L 61.92 129.46"/>
  <path fill="none" d="M54.28,145.45 L 61.3 145.1"/>
  <path fill="none" d="M53.72,144.54 L 62.15 129.64"/>
  <path fill="none" d="M53.63,144.5 L 66.14 117.09"/>
  <path fill="none" d="M62.34,144.03 L 62.67 129.79"/>
  <path fill="none" d="M62.46,144.04 L 66.27 117.13"/>
  <path fill="none" d="M63.31,127.77 L 78.14 105.74"/>
  <path fill="none" d="M66.69,116.33 L 78 105.62"/>
  <path fill="none" d="M66.47,116.2 L 78.99 72.08"/>
  <path fill="none" d="M79.28,104.44 L 98.01 87.93"/>
  <path fill="none" d="M79.24,104.41 L 101.3 82.56"/>
  <path fill="none" d="M98.87,86.89 L 101.38 82.63"/>
  <path fill="none" d="M99.14,87.19 L 118.5 78.15"/>
  <path fill="none" d="M98.16,86.9 L 86.77 69.1"/>
  <path fill="none" d="M101.98,82.18 L 118.46 78.05"/>
  <path fill="none" d="M101.47,81.9 L 93.94 57.42"/>
  <path fill="none" d="M119.43,78.25 L 132.71 88.49"/>
  <path fill="none" d="M118.61,77.52 L 105.44 63.95"/>
  <path fill="none" d="M146.14,71.84 L 133.96 88.31"/>
  <path fill="none" d="M145.81,70.94 L 125.06 66.22"/>
  <path fill="none" d="M133.1,88.19 L 124.72 66.63"/>
  <path fill="none" d="M124.15,65.66 L 102.86 40.16"/>
  <path fill="none" d="M123.95,66.03 L 105.52 63.8"/>
  <path fill="none" d="M102.73,40.21 L 105.24 63.51"/>
  <path fill="none" d="M102.5,39.86 L 72.28 21.64"/>
  <path fill="none" d="M102.6,40.19 L 93.94 57.36"/>
  <path fill="none" d="M105.02,63.84 L 79.05 72.02"/>
  <path fill="none" d="M105.11,63.97 L 90.05 84.07"/>
  <path fill="none" d="M71.31,21.15 L 53.14 13.6"/>
  <path fill="none" d="M71.38,21.69 L 48.31 39.05"/>
  <path fill="none" d="M52.37,14.02 L 47.9 38.8"/>
  <path fill="none" d="M52.94,13.87 L 60.44 22.78"/>
  <path fill="none" d="M48.2,38.93 L 60.45 23.76"/>
  <path fill="none" d="M48.07,40.05 L 60.56 66.54"/>
  <path fill="none" d="M61.4,23.57 L 78.28 32.94"/>
  <path fill="none" d="M61.21,23.78 L 74.75 43.01"/>
  <path fill="none" d="M78.61,33.85 L 75.1 42.96"/>
  <path fill="none" d="M78.97,33.88 L 86.2 67.71"/>
  <path fill="none" d="M75.12,43.64 L 86.05 67.77"/>
  <path fill="none" d="M75.02,43.67 L 79 71.98"/>
  <path fill="none" d="M79.02,71.99 L 85.46 47.03"/>
  <path fill="none" d="M85.46,47.03 L 73.07 49.87"/>
  <path fill="none" d="M85.46,47.03 L 93.91 57.37"/>
  <path fill="none" d="M73.07,49.87 L 93.9 57.38"/>
  <path fill="none" d="M73.05,49.88 L 60.81 66.56"/>
  <path fill="none" d="M93.92,57.42 L 89.93 84.03"/>
  <path fill="none" d="M60.8,66.96 L 76.69 89.32"/>
  <path fill="none" d="M89.65,84.38 L 77.56 89.57"/>
</g>
<g stroke-width="0.42" stroke="#D3D3D3" id="img-4265e972-2">
</g>
<g font-size="4" stroke="#000000" stroke-opacity="0.000" fill="#000000" id="img-4265e972-3">
</g>
<g stroke-width="0" stroke="#000000" id="img-4265e972-4">
  <circle cx="79.1" cy="119.94" r="0.75" fill="#FFDBD1"/>
  <circle cx="109.53" cy="94.06" r="0.85" fill="#FFECE6"/>
  <circle cx="98.5" cy="141.78" r="1.36" fill="#9DCFF2"/>
  <circle cx="106.79" cy="124.72" r="1.41" fill="#95C9F0"/>
  <circle cx="110.63" cy="137.03" r="1.58" fill="#72B1E6"/>
  <circle cx="88.19" cy="114" r="1.42" fill="#95C9F0"/>
  <circle cx="129.19" cy="130.08" r="1.5" fill="#83BEEC"/>
  <circle cx="111.45" cy="111.33" r="1.15" fill="#C7E6F9"/>
  <circle cx="130.5" cy="111.21" r="1.2" fill="#BFE2F8"/>
  <circle cx="101.87" cy="104.54" r="0.89" fill="#FFF1ED"/>
  <circle cx="65.55" cy="97.99" r="0.81" fill="#FFE6DF"/>
  <circle cx="52.01" cy="84.66" r="1.09" fill="#D6EDFB"/>
  <circle cx="38.12" cy="92.09" r="1.46" fill="#8CC4EE"/>
  <circle cx="18.94" cy="96.95" r="2.01" fill="#2C67AB"/>
  <circle cx="37.05" cy="102.25" r="1.76" fill="#5093D4"/>
  <circle cx="13.33" cy="92.88" r="2.09" fill="#205493"/>
  <circle cx="20.88" cy="111.85" r="2.26" fill="#0F3668"/>
  <circle cx="25.62" cy="76.05" r="1.56" fill="#72B1E6"/>
  <circle cx="46.49" cy="122.12" r="2.07" fill="#265D9F"/>
  <circle cx="26.61" cy="118.35" r="1.98" fill="#3370B5"/>
  <circle cx="31.29" cy="137.97" r="1.89" fill="#3979BE"/>
  <circle cx="33.7" cy="146.67" r="1.65" fill="#60A2DE"/>
  <circle cx="52.01" cy="139.38" r="1.25" fill="#B6DDF7"/>
  <circle cx="53.17" cy="145.51" r="1.07" fill="#D6EDFB"/>
  <circle cx="62.32" cy="145.05" r="0.98" fill="#E4F4FD"/>
  <circle cx="62.69" cy="128.69" r="1.06" fill="#DDF1FC"/>
  <circle cx="66.34" cy="116.66" r="0.46" fill="#FF9A88"/>
  <circle cx="78.63" cy="105.02" r="0.83" fill="#FFECE6"/>
  <circle cx="98.52" cy="87.48" r="0.65" fill="#FFC8BA"/>
  <circle cx="101.59" cy="82.28" r="0.39" fill="#FF8876"/>
  <circle cx="119" cy="77.91" r="0.53" fill="#FFB2A2"/>
  <circle cx="146.67" cy="71.13" r="0.84" fill="#FFECE6"/>
  <circle cx="133.43" cy="89.04" r="0.87" fill="#FFECE6"/>
  <circle cx="124.51" cy="66.1" r="0.54" fill="#FFB2A2"/>
  <circle cx="102.71" cy="39.98" r="0.23" fill="#DE4D40"/>
  <circle cx="105.26" cy="63.77" r="0.25" fill="#E65849"/>
  <circle cx="71.82" cy="21.36" r="0.52" fill="#FFAA9A"/>
  <circle cx="52.49" cy="13.33" r="0.67" fill="#FFCEC2"/>
  <circle cx="47.78" cy="39.45" r="0.64" fill="#FFC8BA"/>
  <circle cx="60.85" cy="23.26" r="0.61" fill="#FFC1B3"/>
  <circle cx="78.84" cy="33.25" r="0.62" fill="#FFC1B3"/>
  <circle cx="74.96" cy="43.31" r="0.35" fill="#FD7F6D"/>
  <circle cx="86.36" cy="68.46" r="0.73" fill="#FFDBD1"/>
  <circle cx="79.01" cy="72.03" r="0.05" fill="#830C0B"/>
  <circle cx="85.46" cy="47.03" r="0" fill="#720505"/>
  <circle cx="73.06" cy="49.87" r="0.01" fill="#720505"/>
  <circle cx="93.93" cy="57.39" r="0.03" fill="#830C0B"/>
  <circle cx="60.66" cy="66.76" r="0.23" fill="#E65849"/>
  <circle cx="89.89" cy="84.28" r="0.25" fill="#E65849"/>
  <circle cx="77.02" cy="89.8" r="0.56" fill="#FFBAAA"/>
</g>
<g font-size="4" stroke="#000000" stroke-opacity="0.000" fill="#000000" id="img-4265e972-5">
</g>
</svg>
