<?xml version="1.0" encoding="UTF-8"?>
<svg xmlns="http://www.w3.org/2000/svg"
     xmlns:xlink="http://www.w3.org/1999/xlink"
     xmlns:gadfly="http://www.gadflyjl.org/ns"
     version="1.2"
     width="160mm" height="160mm" viewBox="0 0 160 160"
     stroke="none"
     fill="#000000"
     stroke-width="0.3"
     font-size="3.88"
>
<g stroke-width="0.42" fill="#000000" fill-opacity="0.000" stroke="#D3D3D3" id="img-9db3acb2-1">
  <path fill="none" d="M48.9,74.46 L 52.66 75.31"/>
  <path fill="none" d="M47.05,76.21 L 50.15 94.75"/>
  <path fill="none" d="M48.7,72.93 L 66.11 64"/>
  <path fill="none" d="M42.72,117.79 L 60.16 95.62"/>
  <path fill="none" d="M43.19,118.29 L 52.1 112.19"/>
  <path fill="none" d="M39.83,121.28 L 33.03 129.08"/>
  <path fill="none" d="M40.18,121.53 L 28.8 141.22"/>
  <path fill="none" d="M42.17,117.47 L 49.66 99.11"/>
  <path fill="none" d="M68.76,46.59 L 58.63 27.89"/>
  <path fill="none" d="M71.63,50.02 L 87.58 62.75"/>
  <path fill="none" d="M67.75,47.71 L 50.49 40.47"/>
  <path fill="none" d="M70.33,50.82 L 77.06 81.75"/>
  <path fill="none" d="M61.3,91.58 L 58.84 70.58"/>
  <path fill="none" d="M60.77,91.7 L 55.67 77.94"/>
  <path fill="none" d="M63.81,94.2 L 83.34 97.35"/>
  <path fill="none" d="M63.45,92.57 L 78.39 82.49"/>
  <path fill="none" d="M56.41,67.65 L 48.26 65.12"/>
  <path fill="none" d="M60.53,69.48 L 78.32 80.05"/>
  <path fill="none" d="M56.91,66.78 L 40.65 51.69"/>
  <path fill="none" d="M60.81,68.75 L 66.85 69.91"/>
  <path fill="none" d="M60.6,69.36 L 71.09 74.76"/>
  <path fill="none" d="M72.3,87.11 L 85.34 84.6"/>
  <path fill="none" d="M68.24,86.14 L 56.68 77.2"/>
  <path fill="none" d="M69.06,89.6 L 62.52 103.19"/>
  <path fill="none" d="M69.92,85.25 L 69.22 72.63"/>
  <path fill="none" d="M72.08,86.48 L 81.77 81.4"/>
  <path fill="none" d="M110.51,71.71 L 104.97 66.3"/>
  <path fill="none" d="M110.06,74.24 L 89.77 83.21"/>
  <path fill="none" d="M112.37,75.59 L 113.1 83.4"/>
  <path fill="none" d="M101.41,63.39 L 86.44 53.18"/>
  <path fill="none" d="M103.28,66.99 L 102.86 93.67"/>
  <path fill="none" d="M101.01,64.61 L 91.76 64.29"/>
  <path fill="none" d="M15.11,34.67 L 30.76 46.89"/>
  <path fill="none" d="M41.24,86.57 L 53.1 77.22"/>
  <path fill="none" d="M40.08,85.79 L 45.48 66.63"/>
  <path fill="none" d="M41.18,86.5 L 46.92 81.59"/>
  <path fill="none" d="M39.95,90.19 L 45.23 113.99"/>
  <path fill="none" d="M85.37,83.58 L 57.09 76.37"/>
  <path fill="none" d="M87.29,86.47 L 85.94 95.46"/>
  <path fill="none" d="M89.48,85.59 L 101.01 94.56"/>
  <path fill="none" d="M88.04,81.86 L 89.13 75.7"/>
  <path fill="none" d="M88.65,86.26 L 91.53 92.21"/>
  <path fill="none" d="M62.58,40.89 L 64.47 15.6"/>
  <path fill="none" d="M64.53,44 L 82.31 50.99"/>
  <path fill="none" d="M61.61,45.31 L 49.44 77.98"/>
  <path fill="none" d="M97.57,144.53 L 89.65 122.22"/>
  <path fill="none" d="M88.55,117.81 L 85.93 99.98"/>
  <path fill="none" d="M86.61,120.27 L 69.65 121.79"/>
  <path fill="none" d="M90.02,118.09 L 101.67 97.95"/>
  <path fill="none" d="M87.18,118.54 L 74.24 106.91"/>
  <path fill="none" d="M90.14,118.16 L 94.37 111.76"/>
  <path fill="none" d="M53.45,74.04 L 33.97 50.04"/>
  <path fill="none" d="M55.74,112.36 L 65.64 120.55"/>
  <path fill="none" d="M53.59,108.66 L 49.03 82.35"/>
  <path fill="none" d="M55.8,109.54 L 59.72 106.6"/>
  <path fill="none" d="M56.16,110.25 L 70.26 106.02"/>
  <path fill="none" d="M33.12,129.16 L 44.14 117.82"/>
  <path fill="none" d="M85.86,95.44 L 89.15 66.55"/>
  <path fill="none" d="M83.7,99 L 82.76 99.63"/>
  <path fill="none" d="M87.06,99.48 L 94.18 108.1"/>
  <path fill="none" d="M46.31,62.2 L 48.2 41.85"/>
  <path fill="none" d="M47.82,65.93 L 63.86 79.69"/>
  <path fill="none" d="M84.95,54.16 L 89.13 75.7"/>
  <path fill="none" d="M82.56,53.17 L 70.06 61.66"/>
  <path fill="none" d="M34.72,48.91 L 36.82 49.52"/>
  <path fill="none" d="M34.53,47.19 L 46.42 40.68"/>
  <path fill="none" d="M82.5,80.67 L 100.55 76.24"/>
  <path fill="none" d="M82.47,81.87 L 101.2 87.47"/>
  <path fill="none" d="M80.35,83.5 L 80.81 98.62"/>
  <path fill="none" d="M78,81.21 L 67.86 81.18"/>
  <path fill="none" d="M100.48,75.68 L 89.13 75.7"/>
  <path fill="none" d="M104.54,77.3 L 111.65 84.1"/>
  <path fill="none" d="M65.19,121.41 L 47.9 116.78"/>
  <path fill="none" d="M68.61,120.08 L 79.65 102.81"/>
  <path fill="none" d="M105.4,89.17 L 122.91 98.27"/>
  <path fill="none" d="M105.59,87.58 L 111.08 86.23"/>
  <path fill="none" d="M101.13,87.76 L 79.79 84.33"/>
  <path fill="none" d="M48.9,82.37 L 50.27 94.73"/>
  <path fill="none" d="M105.09,96.31 L 122.68 98.97"/>
  <path fill="none" d="M101.05,94.5 L 85.65 81.8"/>
  <path fill="none" d="M101.77,98 L 96.68 107.83"/>
  <path fill="none" d="M59.67,106.53 L 47.58 114.91"/>
  <path fill="none" d="M62.9,103.42 L 76.18 85.78"/>
  <path fill="none" d="M52.66,97.81 L 70.31 104.51"/>
  <path fill="none" d="M52.1,95.35 L 64.02 82.82"/>
  <path fill="none" d="M89.13,75.7 L 89.36 66.56"/>
  <path fill="none" d="M89.13,75.7 L 73.65 103.3"/>
  <path fill="none" d="M89.13,75.7 L 85.61 78.77"/>
  <path fill="none" d="M56.29,27.79 L 49.66 37.71"/>
  <path fill="none" d="M82.85,99.77 L 90.54 95.39"/>
  <path fill="none" d="M80.44,98.67 L 77.98 86.2"/>
  <path fill="none" d="M82.82,102.08 L 93.68 108.67"/>
  <path fill="none" d="M80.21,98.72 L 73.78 77.96"/>
  <path fill="none" d="M144.51,105.34 L 127.09 99.98"/>
  <path fill="none" d="M70.99,71.63 L 81.91 79"/>
  <path fill="none" d="M111.19,86.56 L 94.64 93.39"/>
  <path fill="none" d="M90.47,93.27 L 67.64 82.17"/>
  <path fill="none" d="M92.97,96.5 L 95.18 107.62"/>
  <path fill="none" d="M65.91,78.92 L 67.84 65.23"/>
  <path fill="none" d="M82.28,78.58 L 69.7 64.66"/>
</g>
<g stroke-width="0.42" stroke="#D3D3D3" id="img-9db3acb2-2">
</g>
<g font-size="4" stroke="#000000" stroke-opacity="0.000" fill="#000000" id="img-9db3acb2-3">
</g>
<g stroke-width="0" stroke="#FF0000" id="img-9db3acb2-4">
  <circle cx="46.68" cy="73.96" r="2.19" fill="#0B2F5D"/>
  <circle cx="41.31" cy="119.57" r="2.18" fill="#0D3262"/>
  <circle cx="69.85" cy="48.6" r="2.19" fill="#0B2F5D"/>
  <circle cx="61.56" cy="93.84" r="2.18" fill="#0D3262"/>
  <circle cx="58.58" cy="68.33" r="2.18" fill="#0D3262"/>
  <circle cx="70.05" cy="87.54" r="2.2" fill="#0B2F5D"/>
  <circle cx="112.15" cy="73.31" r="2.2" fill="#0B2F5D"/>
  <circle cx="103.32" cy="64.69" r="2.21" fill="#0B2F5D"/>
  <circle cx="13.33" cy="33.28" r="2.16" fill="#0D3262"/>
  <circle cx="39.46" cy="87.97" r="2.18" fill="#0D3262"/>
  <circle cx="87.64" cy="84.16" r="2.24" fill="#092C58"/>
  <circle cx="62.41" cy="43.16" r="2.19" fill="#0B2F5D"/>
  <circle cx="98.33" cy="146.67" r="2.18" fill="#0D3262"/>
  <circle cx="64.64" cy="13.33" r="2.18" fill="#0D3262"/>
  <circle cx="88.88" cy="120.07" r="2.19" fill="#0B2F5D"/>
  <circle cx="54.88" cy="75.81" r="2.19" fill="#0B2F5D"/>
  <circle cx="53.98" cy="110.91" r="2.19" fill="#0B2F5D"/>
  <circle cx="31.55" cy="130.78" r="2.17" fill="#0D3262"/>
  <circle cx="85.6" cy="97.72" r="2.2" fill="#0B2F5D"/>
  <circle cx="46.1" cy="64.45" r="2.18" fill="#0D3262"/>
  <circle cx="84.5" cy="51.85" r="2.26" fill="#092C58"/>
  <circle cx="32.54" cy="48.28" r="2.17" fill="#0D3262"/>
  <circle cx="80.29" cy="81.22" r="2.19" fill="#0B2F5D"/>
  <circle cx="102.84" cy="75.67" r="2.26" fill="#092C58"/>
  <circle cx="67.39" cy="121.99" r="2.18" fill="#0D3262"/>
  <circle cx="103.38" cy="88.12" r="2.18" fill="#0B2F5D"/>
  <circle cx="48.64" cy="80.11" r="2.18" fill="#0D3262"/>
  <circle cx="102.82" cy="95.96" r="2.2" fill="#0B2F5D"/>
  <circle cx="27.67" cy="143.18" r="2.17" fill="#0D3262"/>
  <circle cx="61.54" cy="105.23" r="2.18" fill="#0D3262"/>
  <circle cx="50.52" cy="97" r="2.19" fill="#0B2F5D"/>
  <circle cx="89.13" cy="75.7" r="0" fill="#610102"/>
  <circle cx="57.55" cy="25.9" r="2.17" fill="#0D3262"/>
  <circle cx="45.72" cy="116.2" r="2.17" fill="#0D3262"/>
  <circle cx="38.99" cy="50.15" r="2.17" fill="#0D3262"/>
  <circle cx="89.42" cy="64.21" r="2.25" fill="#092C58"/>
  <circle cx="48.4" cy="39.59" r="2.17" fill="#0D3262"/>
  <circle cx="80.88" cy="100.9" r="2.18" fill="#0B2F5D"/>
  <circle cx="72.5" cy="105.35" r="2.25" fill="#092C58"/>
  <circle cx="146.67" cy="106" r="2.17" fill="#0D3262"/>
  <circle cx="69.09" cy="70.35" r="2.2" fill="#0B2F5D"/>
  <circle cx="124.93" cy="99.31" r="2.18" fill="#0D3262"/>
  <circle cx="113.31" cy="85.68" r="2.2" fill="#0B2F5D"/>
  <circle cx="92.53" cy="94.27" r="2.19" fill="#0B2F5D"/>
  <circle cx="65.59" cy="81.17" r="2.19" fill="#0B2F5D"/>
  <circle cx="77.54" cy="83.97" r="2.18" fill="#0D3262"/>
  <circle cx="83.85" cy="80.31" r="2.25" fill="#092C58"/>
  <circle cx="95.63" cy="109.86" r="2.19" fill="#0B2F5D"/>
  <circle cx="68.16" cy="62.95" r="2.21" fill="#0B2F5D"/>
  <circle cx="73.11" cy="75.79" r="2.17" fill="#0D3262"/>
</g>
<g font-size="4" stroke="#000000" stroke-opacity="0.000" fill="#000000" id="img-9db3acb2-5">
</g>
</svg>
