<?xml version="1.0" encoding="UTF-8"?>
<svg xmlns="http://www.w3.org/2000/svg"
     xmlns:xlink="http://www.w3.org/1999/xlink"
     xmlns:gadfly="http://www.gadflyjl.org/ns"
     version="1.2"
     width="160mm" height="160mm" viewBox="0 0 160 160"
     stroke="none"
     fill="#000000"
     stroke-width="0.3"
     font-size="3.88"
>
<g stroke-width="0.42" fill="#000000" fill-opacity="0.000" stroke="#D3D3D3" id="img-eee053ac-1">
  <path fill="none" d="M106.14,35.76 L 91.16 49.06"/>
  <path fill="none" d="M108.17,36.44 L 111.19 51.45"/>
  <path fill="none" d="M97.29,83.68 L 99.34 65.3"/>
  <path fill="none" d="M94.94,86.31 L 74.24 91"/>
  <path fill="none" d="M99.22,85.74 L 126.96 84.54"/>
  <path fill="none" d="M98.13,87.72 L 100.64 92.1"/>
  <path fill="none" d="M94.93,85.4 L 63.59 78.99"/>
  <path fill="none" d="M31.49,65.08 L 55.56 83.05"/>
  <path fill="none" d="M31.63,62.6 L 49.89 51.84"/>
  <path fill="none" d="M27.88,62.44 L 15.21 53.45"/>
  <path fill="none" d="M31.88,64.24 L 41.83 66.51"/>
  <path fill="none" d="M59.49,83.95 L 91.18 77.78"/>
  <path fill="none" d="M59.53,84.55 L 87.66 86.92"/>
  <path fill="none" d="M58.35,86.32 L 63.65 96.46"/>
  <path fill="none" d="M56.88,86.53 L 54.65 97.18"/>
  <path fill="none" d="M98.22,61.42 L 90.89 52.27"/>
  <path fill="none" d="M98.62,61.17 L 90.39 44.39"/>
  <path fill="none" d="M98.75,65.15 L 90.4 85.26"/>
  <path fill="none" d="M112.77,75.24 L 127.23 83.39"/>
  <path fill="none" d="M108.77,74.53 L 76.23 79.87"/>
  <path fill="none" d="M108.78,73.77 L 93.69 70.84"/>
  <path fill="none" d="M110.97,72.03 L 111.52 55.41"/>
  <path fill="none" d="M74.23,37.97 L 91.54 64.14"/>
  <path fill="none" d="M87.86,52.02 L 67.07 70.71"/>
  <path fill="none" d="M89.88,52.72 L 91.83 64.02"/>
  <path fill="none" d="M46.98,59.24 L 63.67 70.92"/>
  <path fill="none" d="M46.66,56.34 L 50.3 52.35"/>
  <path fill="none" d="M47.32,57.5 L 75.25 51.38"/>
  <path fill="none" d="M42.99,57.57 L 15.6 52.54"/>
  <path fill="none" d="M46.54,59.71 L 60.07 76.83"/>
  <path fill="none" d="M63.99,73.77 L 44.39 95.33"/>
  <path fill="none" d="M67.36,71.12 L 86.59 60.56"/>
  <path fill="none" d="M64.28,70.33 L 52.98 52.58"/>
  <path fill="none" d="M66.16,74.22 L 71.4 89.42"/>
  <path fill="none" d="M65.39,74.34 L 64.73 96.21"/>
  <path fill="none" d="M67.55,72.74 L 96.91 80.72"/>
  <path fill="none" d="M133.46,14.07 L 120.94 37.53"/>
  <path fill="none" d="M120.23,38.12 L 79.55 50.27"/>
  <path fill="none" d="M121.12,37.69 L 145.97 20.78"/>
  <path fill="none" d="M120.62,38.47 L 115.27 69.5"/>
  <path fill="none" d="M120.45,38.41 L 112.61 51.68"/>
  <path fill="none" d="M45.09,97.07 L 62.49 98.25"/>
  <path fill="none" d="M44.06,98.77 L 51.22 110.59"/>
  <path fill="none" d="M138.87,73.48 L 115.28 69.52"/>
  <path fill="none" d="M138.95,73.74 L 122.36 89.36"/>
  <path fill="none" d="M138.9,73.4 L 118.37 63.25"/>
  <path fill="none" d="M66.3,52.09 L 87.38 43.25"/>
  <path fill="none" d="M66.44,52.6 L 75.22 51.25"/>
  <path fill="none" d="M65.63,54.65 L 78.67 71.35"/>
  <path fill="none" d="M62.49,54.18 L 45.8 65.74"/>
  <path fill="none" d="M89.05,61.6 L 92.74 75.27"/>
  <path fill="none" d="M89.07,61.6 L 90.99 68.35"/>
  <path fill="none" d="M90.57,58.96 L 109.65 53.92"/>
  <path fill="none" d="M53.95,50.24 L 87.26 42.88"/>
  <path fill="none" d="M102.86,108.72 L 103 116.28"/>
  <path fill="none" d="M101.22,105.09 L 75.68 81.71"/>
  <path fill="none" d="M104.98,106.58 L 130.26 106.93"/>
  <path fill="none" d="M91.16,77.69 L 76.23 79.9"/>
  <path fill="none" d="M93.08,75.21 L 92.03 65.5"/>
  <path fill="none" d="M94.59,79.12 L 111.78 102.52"/>
  <path fill="none" d="M94.63,75.64 L 110.37 55"/>
  <path fill="none" d="M95.07,78.63 L 97.19 80.14"/>
  <path fill="none" d="M87.23,118.99 L 82.96 101.73"/>
  <path fill="none" d="M86.22,119.57 L 66.23 99.93"/>
  <path fill="none" d="M88.32,123.09 L 94.42 144.61"/>
  <path fill="none" d="M89.51,119.88 L 111.24 105.53"/>
  <path fill="none" d="M90.85,40.71 L 106.89 21.71"/>
  <path fill="none" d="M91.2,43.71 L 115.25 61.35"/>
  <path fill="none" d="M77.17,53.12 L 74.31 78.05"/>
  <path fill="none" d="M102.92,116.29 L 101.81 96.04"/>
  <path fill="none" d="M88.77,88.87 L 83.11 100.41"/>
  <path fill="none" d="M91.37,88.07 L 99.85 92.89"/>
  <path fill="none" d="M91.61,87.29 L 120.06 90.14"/>
  <path fill="none" d="M88.52,85.45 L 81.27 74.9"/>
  <path fill="none" d="M129.43,86.59 L 132.09 104.84"/>
  <path fill="none" d="M128.05,82.57 L 117.63 64.04"/>
  <path fill="none" d="M82.09,101.01 L 56.49 99.57"/>
  <path fill="none" d="M83.3,100.55 L 115.25 69.52"/>
  <path fill="none" d="M82.13,101.29 L 54.41 111.69"/>
  <path fill="none" d="M101.02,91.93 L 92.19 65.47"/>
  <path fill="none" d="M101.2,91.88 L 99.08 82.96"/>
  <path fill="none" d="M65.8,96.53 L 78.88 74.97"/>
  <path fill="none" d="M63.23,100.04 L 53.8 110.81"/>
  <path fill="none" d="M55.84,97.83 L 72.49 81.75"/>
  <path fill="none" d="M52.55,101.09 L 36.18 117.66"/>
  <path fill="none" d="M54.94,97.26 L 60.71 80.62"/>
  <path fill="none" d="M71.87,80.16 L 42.62 79.35"/>
  <path fill="none" d="M75.47,78.54 L 78.61 74.77"/>
  <path fill="none" d="M72.06,79.34 L 46.01 67.89"/>
  <path fill="none" d="M36.68,118.44 L 50.31 113.24"/>
  <path fill="none" d="M92.68,64.91 L 115.25 69.51"/>
  <path fill="none" d="M92.24,65.45 L 97.98 79.52"/>
  <path fill="none" d="M130.28,106.67 L 115.29 104.61"/>
  <path fill="none" d="M42.62,79.21 L 59.24 78.63"/>
  <path fill="none" d="M41.02,77.16 L 43.36 69.13"/>
  <path fill="none" d="M89.49,70.99 L 63.55 77.98"/>
  <path fill="none" d="M114.22,102.4 L 120.71 91.43"/>
  <path fill="none" d="M120.14,89.78 L 100.35 81.87"/>
  <path fill="none" d="M82.13,72.47 L 114.96 62.95"/>
  <path fill="none" d="M112.58,55.15 L 115.82 60.84"/>
</g>
<g stroke-width="0.42" stroke="#D3D3D3" id="img-eee053ac-2">
</g>
<g font-size="4" stroke="#000000" stroke-opacity="0.000" fill="#000000" id="img-eee053ac-3">
</g>
<g stroke-width="0" stroke="#000000" stroke-opacity="0.000" id="img-eee053ac-4">
  <circle cx="107.75" cy="34.34" r="2.05" fill="#E1F2FC"/>
  <circle cx="97.05" cy="85.83" r="2.08" fill="#C3E4F8"/>
  <circle cx="29.7" cy="63.74" r="2.15" fill="#A4D3F4"/>
  <circle cx="57.33" cy="84.37" r="2.12" fill="#D6EDFB"/>
  <circle cx="99.59" cy="63.13" r="2.1" fill="#D1EBFA"/>
  <circle cx="110.9" cy="74.18" r="2.07" fill="#C7E6F9"/>
  <circle cx="73.59" cy="36.99" r="1.12" fill="#FFB3A3"/>
  <circle cx="89.5" cy="50.54" r="2.13" fill="#EEF8FE"/>
  <circle cx="45.17" cy="57.97" r="2.12" fill="#B6DDF7"/>
  <circle cx="65.45" cy="72.16" r="2.09" fill="#CCE9FA"/>
  <circle cx="133.85" cy="13.33" r="0.8" fill="#FF907E"/>
  <circle cx="120.71" cy="37.97" r="0.48" fill="#EA5D4E"/>
  <circle cx="42.94" cy="96.93" r="2.07" fill="#CFEAFA"/>
  <circle cx="139.17" cy="73.53" r="0.29" fill="#C7382E"/>
  <circle cx="64.29" cy="52.93" r="2.1" fill="#C3E4F8"/>
  <circle cx="88.48" cy="59.52" r="2.07" fill="#D3ECFB"/>
  <circle cx="51.79" cy="50.72" r="2.12" fill="#ACD7F5"/>
  <circle cx="102.81" cy="106.55" r="2.08" fill="#B1DAF6"/>
  <circle cx="93.31" cy="77.37" r="2.08" fill="#F0F9FE"/>
  <circle cx="87.74" cy="121.05" r="2.04" fill="#FFF3EF"/>
  <circle cx="72.11" cy="91.48" r="2.09" fill="#AED9F5"/>
  <circle cx="89.42" cy="42.4" r="2.12" fill="#BEE1F8"/>
  <circle cx="77.42" cy="50.91" r="2.13" fill="#EEF8FE"/>
  <circle cx="103.04" cy="118.45" r="2.09" fill="#C0E2F8"/>
  <circle cx="146.67" cy="20.31" r="0.8" fill="#FF907E"/>
  <circle cx="89.64" cy="87.09" r="1.9" fill="#FFEDE7"/>
  <circle cx="129.11" cy="84.45" r="2.07" fill="#CAE7F9"/>
  <circle cx="82.79" cy="101.04" r="0.68" fill="#FB7C6A"/>
  <circle cx="101.69" cy="93.93" r="2.03" fill="#FFF3EF"/>
  <circle cx="64.67" cy="98.4" r="2.1" fill="#D6EDFB"/>
  <circle cx="54.18" cy="99.44" r="2.22" fill="#E3F3FC"/>
  <circle cx="74.07" cy="80.22" r="2.1" fill="#CAE7F9"/>
  <circle cx="34.64" cy="119.22" r="2.1" fill="#D6EDFB"/>
  <circle cx="91.95" cy="64.76" r="0.72" fill="#FE8270"/>
  <circle cx="132.4" cy="106.96" r="2.05" fill="#BEE1F8"/>
  <circle cx="108.41" cy="19.91" r="2.26" fill="#89C2ED"/>
  <circle cx="95.01" cy="146.67" r="2.05" fill="#CAE7F9"/>
  <circle cx="40.41" cy="79.29" r="2.13" fill="#A7D4F4"/>
  <circle cx="91.57" cy="70.43" r="2.07" fill="#B6DDF7"/>
  <circle cx="113.09" cy="104.31" r="2.13" fill="#E7F5FD"/>
  <circle cx="115.26" cy="69.51" r="0.01" fill="#660202"/>
  <circle cx="121.39" cy="90.28" r="1.29" fill="#FFC1B3"/>
  <circle cx="13.33" cy="52.12" r="2.21" fill="#91C7F0"/>
  <circle cx="80.02" cy="73.08" r="2.11" fill="#D8EEFB"/>
  <circle cx="111.59" cy="53.41" r="1.92" fill="#FFEDE7"/>
  <circle cx="61.43" cy="78.55" r="2.11" fill="#B6DDF7"/>
  <circle cx="52.36" cy="112.46" r="2.1" fill="#F0F9FE"/>
  <circle cx="116.72" cy="62.44" r="1.76" fill="#FFE4DD"/>
  <circle cx="43.98" cy="67" r="2.12" fill="#A9D6F5"/>
  <circle cx="98.66" cy="81.2" r="1.74" fill="#FFE2DA"/>
</g>
<g font-size="4" stroke="#000000" stroke-opacity="0.000" fill="#000000" id="img-eee053ac-5">
</g>
</svg>
