<?xml version="1.0" encoding="UTF-8"?>
<svg xmlns="http://www.w3.org/2000/svg"
     xmlns:xlink="http://www.w3.org/1999/xlink"
     xmlns:gadfly="http://www.gadflyjl.org/ns"
     version="1.2"
     width="160mm" height="160mm" viewBox="0 0 160 160"
     stroke="none"
     fill="#000000"
     stroke-width="0.3"
     font-size="3.88"
>
<g stroke-width="0.42" fill="#000000" fill-opacity="0.000" stroke="#D3D3D3" id="img-cf2a0daf-1">
  <path fill="none" d="M87.23,144.98 L 99.56 126.92"/>
  <path fill="none" d="M85.37,144.75 L 74.39 115.12"/>
  <path fill="none" d="M85.97,144.63 L 85.21 131.21"/>
  <path fill="none" d="M119.67,108.33 L 102.31 123.8"/>
  <path fill="none" d="M120.74,104.79 L 110.79 66.98"/>
  <path fill="none" d="M119.55,108.18 L 111.97 113.81"/>
  <path fill="none" d="M98.68,125.57 L 71.84 130.46"/>
  <path fill="none" d="M101.17,123.14 L 109.69 82.16"/>
  <path fill="none" d="M68.3,129.64 L 46.04 113.2"/>
  <path fill="none" d="M70.69,129 L 81.68 103.85"/>
  <path fill="none" d="M110.27,77.99 L 113.42 34.97"/>
  <path fill="none" d="M109.52,78.07 L 99.49 44.36"/>
  <path fill="none" d="M109.53,82.12 L 102.2 107.43"/>
  <path fill="none" d="M43.12,111.13 L 23.81 98.02"/>
  <path fill="none" d="M45.05,110.4 L 49.83 91.82"/>
  <path fill="none" d="M44.01,110.45 L 33.8 81.54"/>
  <path fill="none" d="M46.39,112.21 L 71.87 113.28"/>
  <path fill="none" d="M23.94,97.3 L 48.69 90.7"/>
  <path fill="none" d="M22.88,96.68 L 15.63 67.49"/>
  <path fill="none" d="M50.69,88.77 L 55.67 72.56"/>
  <path fill="none" d="M50.5,88.73 L 56.05 57.64"/>
  <path fill="none" d="M51.71,90.83 L 80.58 101.29"/>
  <path fill="none" d="M51.68,89.67 L 68.4 82.59"/>
  <path fill="none" d="M15.55,67.13 L 13.47 56.67"/>
  <path fill="none" d="M15.7,67.16 L 33.04 45.24"/>
  <path fill="none" d="M15.77,67.28 L 34.77 63.87"/>
  <path fill="none" d="M13.93,55.65 L 32.82 44.99"/>
  <path fill="none" d="M13.77,56.52 L 32.42 79.11"/>
  <path fill="none" d="M33.57,45.43 L 33.34 78.78"/>
  <path fill="none" d="M34.34,44.15 L 72.68 23.16"/>
  <path fill="none" d="M34.59,80.85 L 66.06 96.96"/>
  <path fill="none" d="M76.49,22.35 L 98.67 24.17"/>
  <path fill="none" d="M76.42,22.72 L 111.49 32.24"/>
  <path fill="none" d="M76.2,23.25 L 80.91 26.12"/>
  <path fill="none" d="M101.25,26.4 L 109.76 62.84"/>
  <path fill="none" d="M102.53,25.51 L 111.78 31.62"/>
  <path fill="none" d="M74.74,59.16 L 90.67 68.58"/>
  <path fill="none" d="M73.35,60.12 L 74.91 68.99"/>
  <path fill="none" d="M72.77,60.13 L 70.47 79.82"/>
  <path fill="none" d="M108.36,63.92 L 89.71 54.05"/>
  <path fill="none" d="M111.49,63.18 L 131.26 35.49"/>
  <path fill="none" d="M108.97,66.63 L 83.71 100.36"/>
  <path fill="none" d="M92.2,67.59 L 88.85 37.21"/>
  <path fill="none" d="M91.08,71.14 L 69.1 96.37"/>
  <path fill="none" d="M94.27,70.44 L 124.37 84.01"/>
  <path fill="none" d="M93.45,67.86 L 101.48 54.32"/>
  <path fill="none" d="M90.4,69.77 L 77.29 70.83"/>
  <path fill="none" d="M88.55,37.22 L 87.99 51.06"/>
  <path fill="none" d="M87.41,33.59 L 83.53 28.48"/>
  <path fill="none" d="M69.63,97.12 L 83.06 91.71"/>
  <path fill="none" d="M68.76,99.58 L 84.12 127.42"/>
  <path fill="none" d="M89.43,54.45 L 102.31 65.91"/>
  <path fill="none" d="M89.94,53.31 L 120.59 56.54"/>
  <path fill="none" d="M89.37,51.67 L 97.41 43.82"/>
  <path fill="none" d="M85.88,53.26 L 58.43 55.48"/>
  <path fill="none" d="M86.02,52.34 L 61.32 42.42"/>
  <path fill="none" d="M86.84,54.83 L 71.29 80.1"/>
  <path fill="none" d="M86.06,89.48 L 102.56 68.89"/>
  <path fill="none" d="M83.23,89.94 L 56.13 72.39"/>
  <path fill="none" d="M86.25,92.31 L 108.76 113.62"/>
  <path fill="none" d="M105.65,66.27 L 120.85 57.81"/>
  <path fill="none" d="M103.66,65.22 L 102.71 54.6"/>
  <path fill="none" d="M124.86,56.81 L 144.36 57.19"/>
  <path fill="none" d="M123.95,58.52 L 130.76 68.2"/>
  <path fill="none" d="M145.3,59.1 L 127.64 83.16"/>
  <path fill="none" d="M146.49,54.94 L 144.64 31.59"/>
  <path fill="none" d="M125.33,86.82 L 111.27 113.21"/>
  <path fill="none" d="M142.24,30.06 L 134.76 32.81"/>
  <path fill="none" d="M142.12,29.52 L 115.73 32.56"/>
  <path fill="none" d="M130.3,33.51 L 115.74 32.9"/>
  <path fill="none" d="M115.67,33.35 L 121.59 34.89"/>
  <path fill="none" d="M122.35,33.75 L 107.93 14.97"/>
  <path fill="none" d="M122,36.75 L 104.12 51.26"/>
  <path fill="none" d="M124.13,37.47 L 131.48 67.87"/>
  <path fill="none" d="M104.89,14.35 L 84 26.17"/>
  <path fill="none" d="M106.15,15.32 L 99.43 40.37"/>
  <path fill="none" d="M100.82,53.7 L 76.95 69.86"/>
  <path fill="none" d="M101.83,50.62 L 99.59 44.33"/>
  <path fill="none" d="M73.22,71.12 L 56.19 72.15"/>
  <path fill="none" d="M74.36,72.83 L 61.66 98.9"/>
  <path fill="none" d="M85.62,66.01 L 97.88 44.18"/>
  <path fill="none" d="M83.57,67.18 L 64.61 66.77"/>
  <path fill="none" d="M85.3,68.53 L 92.18 94.11"/>
  <path fill="none" d="M83.76,28.28 L 97.38 40.96"/>
  <path fill="none" d="M81.7,28.69 L 64.45 66.51"/>
  <path fill="none" d="M64.05,66.74 L 34.78 63.87"/>
  <path fill="none" d="M64.38,67.04 L 73.37 111.52"/>
  <path fill="none" d="M34.78,63.87 L 55.42 72.02"/>
  <path fill="none" d="M55.85,71.77 L 59.73 43.35"/>
  <path fill="none" d="M56.91,53.67 L 59.56 43.32"/>
  <path fill="none" d="M84.39,102.72 L 99.7 108.66"/>
  <path fill="none" d="M100.48,107.69 L 93.84 97.76"/>
  <path fill="none" d="M71.93,82.88 L 91 94.98"/>
  <path fill="none" d="M69.34,83.59 L 61.67 98.91"/>
  <path fill="none" d="M94.68,96.59 L 106.85 99.84"/>
  <path fill="none" d="M62.22,102.14 L 72.4 112.05"/>
  <path fill="none" d="M106.91,101.08 L 75.5 112.71"/>
  <path fill="none" d="M110.07,98.74 L 130.69 71.65"/>
  <path fill="none" d="M74.84,114.89 L 83.92 127.55"/>
  <path fill="none" d="M86.86,128.2 L 108.45 116.1"/>
</g>
<g stroke-width="0.42" stroke="#D3D3D3" id="img-cf2a0daf-2">
</g>
<g font-size="4" stroke="#000000" stroke-opacity="0.000" fill="#000000" id="img-cf2a0daf-3">
</g>
<g stroke-width="0" stroke="#000000" stroke-opacity="0.000" id="img-cf2a0daf-4">
  <circle cx="86.08" cy="146.67" r="1.96" fill="#C0E2F8"/>
  <circle cx="121.29" cy="106.89" r="2.08" fill="#91C7F0"/>
  <circle cx="100.74" cy="125.19" r="2.01" fill="#9FCFF3"/>
  <circle cx="69.89" cy="130.82" r="1.9" fill="#C0E2F8"/>
  <circle cx="110.12" cy="80.1" r="2.03" fill="#A1D1F3"/>
  <circle cx="44.6" cy="112.13" r="1.72" fill="#FFE8E1"/>
  <circle cx="23.09" cy="97.53" r="0.84" fill="#FF9A89"/>
  <circle cx="50.22" cy="90.29" r="1.52" fill="#FFDBD2"/>
  <circle cx="15.59" cy="67.31" r="0.18" fill="#AC231E"/>
  <circle cx="13.33" cy="55.99" r="0.66" fill="#FE8270"/>
  <circle cx="33.57" cy="44.56" r="0.83" fill="#FF9886"/>
  <circle cx="33.33" cy="80.2" r="1.36" fill="#FFD0C4"/>
  <circle cx="74.46" cy="22.19" r="1.95" fill="#DFF1FC"/>
  <circle cx="100.77" cy="24.35" r="2.02" fill="#A1D1F3"/>
  <circle cx="73.01" cy="58.14" r="1.93" fill="#CCE9FA"/>
  <circle cx="110.25" cy="64.92" r="2.05" fill="#99CCF1"/>
  <circle cx="92.42" cy="69.61" r="1.95" fill="#C5E5F9"/>
  <circle cx="88.63" cy="35.2" r="1.95" fill="#CFEAFA"/>
  <circle cx="67.81" cy="97.85" r="1.89" fill="#E1F2FC"/>
  <circle cx="87.91" cy="53.1" r="1.96" fill="#CCE9FA"/>
  <circle cx="84.85" cy="90.99" r="1.85" fill="#FFF0EB"/>
  <circle cx="103.85" cy="67.28" r="1.98" fill="#C0E2F8"/>
  <circle cx="122.72" cy="56.76" r="2.06" fill="#9CCEF2"/>
  <circle cx="146.67" cy="57.24" r="2.21" fill="#76B4E8"/>
  <circle cx="126.35" cy="84.91" r="2.08" fill="#94C9F0"/>
  <circle cx="144.46" cy="29.25" r="2.26" fill="#6BACE3"/>
  <circle cx="132.6" cy="33.61" r="2.21" fill="#76B4E8"/>
  <circle cx="113.58" cy="32.81" r="2.08" fill="#97CBF1"/>
  <circle cx="123.64" cy="35.42" r="2.03" fill="#A1D1F3"/>
  <circle cx="106.68" cy="13.33" r="1.98" fill="#C7E6F9"/>
  <circle cx="102.52" cy="52.55" r="1.97" fill="#C3E4F8"/>
  <circle cx="75.26" cy="71" r="1.96" fill="#FFF5F1"/>
  <circle cx="84.94" cy="67.21" r="1.32" fill="#FFCCBF"/>
  <circle cx="82.44" cy="27.06" r="1.72" fill="#FFE8E1"/>
  <circle cx="98.9" cy="42.37" r="1.99" fill="#D3ECFB"/>
  <circle cx="64.33" cy="66.77" r="0.27" fill="#C7382E"/>
  <circle cx="34.78" cy="63.87" r="0" fill="#610102"/>
  <circle cx="55.79" cy="72.17" r="0.39" fill="#E05143"/>
  <circle cx="56.41" cy="55.64" r="1.95" fill="#ECF7FD"/>
  <circle cx="59.93" cy="41.87" r="1.44" fill="#FFD5CB"/>
  <circle cx="82.49" cy="101.99" r="1.95" fill="#BEE1F8"/>
  <circle cx="101.63" cy="109.41" r="1.98" fill="#A9D6F5"/>
  <circle cx="70.24" cy="81.81" r="1.92" fill="#D6EDFB"/>
  <circle cx="92.71" cy="96.07" r="1.95" fill="#CFEAFA"/>
  <circle cx="60.77" cy="100.73" r="1.95" fill="#DFF1FC"/>
  <circle cx="108.83" cy="100.37" r="1.97" fill="#C0E2F8"/>
  <circle cx="73.74" cy="113.36" r="1.8" fill="#FFEDE7"/>
  <circle cx="131.99" cy="69.95" r="2.05" fill="#97CBF1"/>
  <circle cx="85.1" cy="129.19" r="1.94" fill="#CAE7F9"/>
  <circle cx="110.28" cy="115.07" r="2.02" fill="#B3DCF6"/>
</g>
<g font-size="4" stroke="#000000" stroke-opacity="0.000" fill="#000000" id="img-cf2a0daf-5">
</g>
</svg>
