<?xml version="1.0" encoding="UTF-8"?>
<svg xmlns="http://www.w3.org/2000/svg"
     xmlns:xlink="http://www.w3.org/1999/xlink"
     xmlns:gadfly="http://www.gadflyjl.org/ns"
     version="1.2"
     width="160mm" height="160mm" viewBox="0 0 160 160"
     stroke="none"
     fill="#000000"
     stroke-width="0.3"
     font-size="3.88"
>
<g stroke-width="0.42" fill="#000000" fill-opacity="0.000" stroke="#D3D3D3" id="img-df1e9a84-1">
  <path fill="none" d="M74.33,36.6 L 65.52 52.41"/>
  <path fill="none" d="M74.98,36.46 L 83.62 43.06"/>
  <path fill="none" d="M74.81,36.61 L 84.11 55.41"/>
  <path fill="none" d="M74.47,35.66 L 72.67 27.77"/>
  <path fill="none" d="M74.87,35.74 L 82.58 24.76"/>
  <path fill="none" d="M67.62,96.95 L 53.51 105.36"/>
  <path fill="none" d="M70.09,94.71 L 85.47 73.79"/>
  <path fill="none" d="M41.76,46.11 L 44.76 53.77"/>
  <path fill="none" d="M42.36,45.16 L 59.74 43.94"/>
  <path fill="none" d="M41.93,46.02 L 49.39 57.56"/>
  <path fill="none" d="M42.36,45.18 L 67.14 43.8"/>
  <path fill="none" d="M90.68,47.9 L 65.87 52.9"/>
  <path fill="none" d="M90.71,47.75 L 83.99 43.33"/>
  <path fill="none" d="M90.68,47.87 L 71.75 48.26"/>
  <path fill="none" d="M91.08,47.91 L 112.59 53.02"/>
  <path fill="none" d="M90.71,52.39 L 77.7 41.37"/>
  <path fill="none" d="M90.77,53.43 L 75.24 70.19"/>
  <path fill="none" d="M91.99,52.61 L 115.12 44.04"/>
  <path fill="none" d="M90.56,52.66 L 61.04 44.08"/>
  <path fill="none" d="M90.54,52.77 L 80.06 51.3"/>
  <path fill="none" d="M91.98,53.17 L 113.73 62.52"/>
  <path fill="none" d="M61.41,59.9 L 71.73 48.27"/>
  <path fill="none" d="M61.49,60.03 L 83.75 56.11"/>
  <path fill="none" d="M61.49,60.09 L 80.55 61.22"/>
  <path fill="none" d="M61.03,60.04 L 50.51 58.29"/>
  <path fill="none" d="M64.45,53.1 L 46.13 54.62"/>
  <path fill="none" d="M65.81,53.37 L 80.6 61.05"/>
  <path fill="none" d="M65.3,52.34 L 68.89 33.95"/>
  <path fill="none" d="M64.83,52.4 L 60.71 44.48"/>
  <path fill="none" d="M64.94,53.72 L 56.88 78.05"/>
  <path fill="none" d="M65.03,53.75 L 61.58 71.38"/>
  <path fill="none" d="M65.75,52.62 L 84.46 39.01"/>
  <path fill="none" d="M83.59,43.29 L 71.75 48.25"/>
  <path fill="none" d="M83.57,43.21 L 61.07 43.87"/>
  <path fill="none" d="M84,43.32 L 104.03 55.28"/>
  <path fill="none" d="M14.9,53.9 L 44.12 54.68"/>
  <path fill="none" d="M111.43,77.96 L 81.35 61.45"/>
  <path fill="none" d="M111.28,78.36 L 88.03 72.85"/>
  <path fill="none" d="M113.95,79.95 L 128.04 95.55"/>
  <path fill="none" d="M114.36,78.1 L 138.34 67.91"/>
  <path fill="none" d="M47.24,132.16 L 48.93 144.33"/>
  <path fill="none" d="M47.39,128.04 L 51.63 107.99"/>
  <path fill="none" d="M71.74,48.27 L 80.73 60.9"/>
  <path fill="none" d="M71.74,48.24 L 72.63 27.77"/>
  <path fill="none" d="M71.75,48.26 L 79.56 51.18"/>
  <path fill="none" d="M71.73,48.27 L 66.76 64.3"/>
  <path fill="none" d="M97.79,35.95 L 117.34 22.37"/>
  <path fill="none" d="M96.03,38.42 L 86.88 70.89"/>
  <path fill="none" d="M95.32,35.74 L 84.01 24.63"/>
  <path fill="none" d="M97.43,35.58 L 109.24 19.7"/>
  <path fill="none" d="M94.9,37.25 L 68.95 43.53"/>
  <path fill="none" d="M46.12,54.89 L 80.56 61.17"/>
  <path fill="none" d="M46.13,54.67 L 71.86 53.74"/>
  <path fill="none" d="M145.19,51.42 L 117.61 43.93"/>
  <path fill="none" d="M146.04,53.22 L 140.45 65.84"/>
  <path fill="none" d="M84.99,56.29 L 111.43 69.77"/>
  <path fill="none" d="M83.87,55.6 L 68.79 44.3"/>
  <path fill="none" d="M81.28,60.95 L 98.39 44.22"/>
  <path fill="none" d="M80.74,61.6 L 75.15 70.12"/>
  <path fill="none" d="M81.39,61.15 L 103.94 55.8"/>
  <path fill="none" d="M69.85,33.39 L 98.19 43.3"/>
  <path fill="none" d="M68.5,32.46 L 53.41 14.52"/>
  <path fill="none" d="M69.66,33.7 L 76.51 40.29"/>
  <path fill="none" d="M69.76,32.65 L 82.28 24.46"/>
  <path fill="none" d="M69.48,33.85 L 79.67 51.05"/>
  <path fill="none" d="M68.97,33.96 L 68.14 42.84"/>
  <path fill="none" d="M112.69,69.23 L 114.33 63.8"/>
  <path fill="none" d="M110.72,32.79 L 77.87 40.66"/>
  <path fill="none" d="M113.09,31.02 L 117.84 22.83"/>
  <path fill="none" d="M112.04,30.82 L 110.4 19.99"/>
  <path fill="none" d="M113.07,33.81 L 123.95 53.03"/>
  <path fill="none" d="M80.35,84.32 L 57.54 79.21"/>
  <path fill="none" d="M82.81,83.62 L 100.29 66.62"/>
  <path fill="none" d="M91.15,67.18 L 79.95 51.48"/>
  <path fill="none" d="M90.94,67.53 L 66.99 64.65"/>
  <path fill="none" d="M91.94,67.49 L 113.67 63.08"/>
  <path fill="none" d="M99.91,43.6 L 115.04 43.59"/>
  <path fill="none" d="M99.76,44.09 L 112.7 52.77"/>
  <path fill="none" d="M72.69,27.76 L 76.83 40.09"/>
  <path fill="none" d="M76.84,41.61 L 73.4 52.56"/>
  <path fill="none" d="M76.41,41.28 L 50.4 57.78"/>
  <path fill="none" d="M52.29,104.53 L 56.4 79.98"/>
  <path fill="none" d="M74.11,70.77 L 62.53 72.38"/>
  <path fill="none" d="M74.24,70.28 L 66.93 64.81"/>
  <path fill="none" d="M115.06,43.37 L 86.53 38.52"/>
  <path fill="none" d="M73.79,52.77 L 84.67 39.23"/>
  <path fill="none" d="M74.13,54.17 L 100.05 65.34"/>
  <path fill="none" d="M84.8,72.47 L 62.54 72.54"/>
  <path fill="none" d="M56.26,78.05 L 50.02 58.87"/>
  <path fill="none" d="M57.14,78.18 L 66.48 64.88"/>
  <path fill="none" d="M112.8,53.73 L 101.94 64.96"/>
  <path fill="none" d="M113.42,53.93 L 114.48 61.96"/>
  <path fill="none" d="M83.38,24.95 L 85.22 37.19"/>
  <path fill="none" d="M66.69,64.28 L 68 44.66"/>
  <path fill="none" d="M84.29,38.67 L 68.93 43.48"/>
  <path fill="none" d="M104.4,56.31 L 101.51 64.7"/>
  <path fill="none" d="M105.33,55.59 L 123.26 54.32"/>
  <path fill="none" d="M138.6,66.25 L 125.67 55.12"/>
  <path fill="none" d="M102.18,65.29 L 123.39 54.83"/>
  <path fill="none" d="M123.59,55.13 L 115.31 62.28"/>
</g>
<g stroke-width="0.42" stroke="#D3D3D3" id="img-df1e9a84-2">
</g>
<g font-size="4" stroke="#000000" stroke-opacity="0.000" fill="#000000" id="img-df1e9a84-3">
</g>
<g stroke-width="0" stroke="#000000" id="img-df1e9a84-4">
  <circle cx="74.58" cy="36.16" r="0.49" fill="#F46D5C"/>
  <circle cx="69.08" cy="96.08" r="1.64" fill="#C0E2F8"/>
  <circle cx="41.41" cy="45.23" r="0.91" fill="#FFAF9E"/>
  <circle cx="90.88" cy="47.86" r="0.2" fill="#B82C25"/>
  <circle cx="91.29" cy="52.87" r="0.72" fill="#FF9886"/>
  <circle cx="61.26" cy="60.07" r="0.22" fill="#C03229"/>
  <circle cx="65.17" cy="53.04" r="0.69" fill="#FF9280"/>
  <circle cx="83.8" cy="43.2" r="0.22" fill="#C4352C"/>
  <circle cx="13.33" cy="53.86" r="1.5" fill="#FFF0EB"/>
  <circle cx="112.86" cy="78.74" r="1.56" fill="#FFEBE5"/>
  <circle cx="46.96" cy="130.09" r="2.01" fill="#73B2E7"/>
  <circle cx="71.74" cy="48.26" r="0.01" fill="#660202"/>
  <circle cx="96.47" cy="36.87" r="1.54" fill="#FFF1ED"/>
  <circle cx="49.26" cy="146.67" r="2.26" fill="#4587CB"/>
  <circle cx="45.13" cy="54.7" r="0.97" fill="#FFB6A6"/>
  <circle cx="146.67" cy="51.82" r="1.47" fill="#E7F5FD"/>
  <circle cx="84.4" cy="56" r="0.63" fill="#FF8775"/>
  <circle cx="80.98" cy="61.25" r="0.41" fill="#EA5D4E"/>
  <circle cx="69.05" cy="33.11" r="0.82" fill="#FFA594"/>
  <circle cx="112.38" cy="70.25" r="1.03" fill="#FFBDAE"/>
  <circle cx="112.28" cy="32.41" r="1.54" fill="#FFF1ED"/>
  <circle cx="81.77" cy="84.63" r="1.39" fill="#FFDFD6"/>
  <circle cx="91.45" cy="67.59" r="0.49" fill="#F46D5C"/>
  <circle cx="99.03" cy="43.6" r="0.85" fill="#FFA796"/>
  <circle cx="72.63" cy="27.59" r="0.17" fill="#B02620"/>
  <circle cx="52.42" cy="13.33" r="1.48" fill="#FFE4DD"/>
  <circle cx="77.09" cy="40.85" r="0.77" fill="#FF9D8B"/>
  <circle cx="52" cy="106.27" r="1.69" fill="#CAE7F9"/>
  <circle cx="74.78" cy="70.68" r="0.65" fill="#FF8A78"/>
  <circle cx="118.62" cy="21.48" r="1.49" fill="#DCF0FC"/>
  <circle cx="116.35" cy="43.59" r="1.26" fill="#FFD4C8"/>
  <circle cx="60.4" cy="43.89" r="0.64" fill="#FF8A78"/>
  <circle cx="73.04" cy="53.7" r="1.14" fill="#FFC7BA"/>
  <circle cx="86.44" cy="72.47" r="1.57" fill="#ECF7FD"/>
  <circle cx="56.56" cy="79" r="0.96" fill="#FFB6A6"/>
  <circle cx="129.18" cy="96.82" r="1.64" fill="#CFEAFA"/>
  <circle cx="113.32" cy="53.19" r="0.72" fill="#FF9583"/>
  <circle cx="49.79" cy="58.17" r="0.7" fill="#FF9280"/>
  <circle cx="83.22" cy="23.85" r="1.07" fill="#FFC1B3"/>
  <circle cx="61.36" cy="72.54" r="1.14" fill="#FFC7BA"/>
  <circle cx="79.8" cy="51.27" r="0.25" fill="#C7382E"/>
  <circle cx="66.67" cy="64.61" r="0.31" fill="#DB4A3E"/>
  <circle cx="110.17" cy="18.45" r="1.49" fill="#DCF0FC"/>
  <circle cx="85.39" cy="38.33" r="1.11" fill="#FFC5B8"/>
  <circle cx="104.63" cy="55.64" r="0.68" fill="#FF907E"/>
  <circle cx="139.81" cy="67.29" r="1.53" fill="#ECF7FD"/>
  <circle cx="101.13" cy="65.81" r="1.13" fill="#FFC7BA"/>
  <circle cx="124.63" cy="54.22" r="1.32" fill="#FFD9CF"/>
  <circle cx="114.6" cy="62.89" r="0.91" fill="#FFAF9E"/>
  <circle cx="68.06" cy="43.75" r="0.88" fill="#FFAC9C"/>
</g>
<g font-size="4" stroke="#000000" stroke-opacity="0.000" fill="#000000" id="img-df1e9a84-5">
</g>
</svg>
