<?xml version="1.0" encoding="UTF-8"?>
<svg xmlns="http://www.w3.org/2000/svg"
     xmlns:xlink="http://www.w3.org/1999/xlink"
     xmlns:gadfly="http://www.gadflyjl.org/ns"
     version="1.2"
     width="160mm" height="160mm" viewBox="0 0 160 160"
     stroke="none"
     fill="#000000"
     stroke-width="0.3"
     font-size="3.88"
>
<g stroke-width="0.42" fill="#000000" fill-opacity="0.000" stroke="#D3D3D3" id="img-816012dc-1">
  <path fill="none" d="M102.03,145.44 L 88.18 129.43"/>
  <path fill="none" d="M104.21,145.51 L 120.1 129.14"/>
  <path fill="none" d="M101.52,146.29 L 85.79 142.56"/>
  <path fill="none" d="M86.55,125.72 L 82.96 95.11"/>
  <path fill="none" d="M86.57,125.72 L 84.97 110.87"/>
  <path fill="none" d="M86.51,129.93 L 84.97 141.37"/>
  <path fill="none" d="M82.99,95.11 L 84.46 106.56"/>
  <path fill="none" d="M83.87,91.24 L 104.72 59.26"/>
  <path fill="none" d="M80.67,92.49 L 51.24 85.06"/>
  <path fill="none" d="M84.16,106.62 L 77.01 80.61"/>
  <path fill="none" d="M86.51,109.96 L 102.97 121.49"/>
  <path fill="none" d="M74.71,79.81 L 60.11 90.49"/>
  <path fill="none" d="M77.85,76.93 L 99.74 51.82"/>
  <path fill="none" d="M74.41,77.84 L 49.9 69.41"/>
  <path fill="none" d="M104.27,121.77 L 119.78 118.81"/>
  <path fill="none" d="M103.35,121.22 L 97.26 100.88"/>
  <path fill="none" d="M58.97,89.72 L 63.12 73.87"/>
  <path fill="none" d="M56.9,93.08 L 48.2 100.75"/>
  <path fill="none" d="M120.66,118.2 L 127.8 106.44"/>
  <path fill="none" d="M119.9,118.34 L 97.35 100.82"/>
  <path fill="none" d="M121.2,127.32 L 127.97 106.52"/>
  <path fill="none" d="M120.31,127.41 L 105.83 102.69"/>
  <path fill="none" d="M127.41,105.6 L 106.08 102.33"/>
  <path fill="none" d="M128.05,104.91 L 120.6 71.56"/>
  <path fill="none" d="M105.26,101.83 L 79.54 66.88"/>
  <path fill="none" d="M106.05,102.07 L 127.88 94.27"/>
  <path fill="none" d="M105.1,102.47 L 80.09 114.67"/>
  <path fill="none" d="M118,37.14 L 106.96 55.66"/>
  <path fill="none" d="M117.45,36.67 L 102.85 48.78"/>
  <path fill="none" d="M135.82,45.14 L 107.84 56.68"/>
  <path fill="none" d="M137.17,46.35 L 133.85 57.77"/>
  <path fill="none" d="M103.77,57.27 L 85.65 55.48"/>
  <path fill="none" d="M104.12,56.29 L 88.87 45.92"/>
  <path fill="none" d="M84.15,53.14 L 86.36 46.76"/>
  <path fill="none" d="M81.74,56.72 L 64.39 71.83"/>
  <path fill="none" d="M86.2,46.7 L 79.11 63.09"/>
  <path fill="none" d="M85.13,43.69 L 71.87 36.79"/>
  <path fill="none" d="M62.65,71.68 L 45.58 50.58"/>
  <path fill="none" d="M64.66,72.94 L 98.68 80.82"/>
  <path fill="none" d="M62.59,73.58 L 44.77 93.08"/>
  <path fill="none" d="M76.25,64.16 L 46.2 49.79"/>
  <path fill="none" d="M77.51,63.03 L 71.45 45.88"/>
  <path fill="none" d="M43.38,46.65 L 34.89 22.61"/>
  <path fill="none" d="M44.29,46.53 L 45.61 26.76"/>
  <path fill="none" d="M42.27,50.13 L 16.55 68.27"/>
  <path fill="none" d="M36.33,21.16 L 43.58 23.68"/>
  <path fill="none" d="M36.32,19.59 L 51.44 14.12"/>
  <path fill="none" d="M47.11,22.55 L 52.28 15.23"/>
  <path fill="none" d="M47.87,25.43 L 67.79 34.77"/>
  <path fill="none" d="M54.99,15.22 L 68.51 33.9"/>
  <path fill="none" d="M55.85,14.01 L 69.79 18.28"/>
  <path fill="none" d="M70.13,33.48 L 71.66 21.17"/>
  <path fill="none" d="M71.85,34.66 L 83.43 28.44"/>
  <path fill="none" d="M71.6,37.19 L 106.74 66.28"/>
  <path fill="none" d="M67.81,36.75 L 40.06 50.44"/>
  <path fill="none" d="M73.83,20.14 L 83.5 26.24"/>
  <path fill="none" d="M71.82,21.18 L 70.83 41.7"/>
  <path fill="none" d="M83.9,29.03 L 72.16 42.24"/>
  <path fill="none" d="M86.6,29.2 L 99.92 48.38"/>
  <path fill="none" d="M72.87,44.05 L 110.27 47.58"/>
  <path fill="none" d="M68.77,44.76 L 31.48 62.1"/>
  <path fill="none" d="M103.3,49.7 L 110.31 48.11"/>
  <path fill="none" d="M102.66,51.77 L 119.89 70.22"/>
  <path fill="none" d="M112.54,49.33 L 120.16 70.06"/>
  <path fill="none" d="M113.47,48.49 L 132.86 58.2"/>
  <path fill="none" d="M121,70.26 L 133 59.14"/>
  <path fill="none" d="M119.68,70.56 L 107.58 66.74"/>
  <path fill="none" d="M119.72,71.12 L 98.91 80.8"/>
  <path fill="none" d="M132.81,58.82 L 107.58 66.45"/>
  <path fill="none" d="M134.13,59.24 L 146.55 75.18"/>
  <path fill="none" d="M107.53,66.86 L 132.39 83.06"/>
  <path fill="none" d="M106.98,67.07 L 97.26 100.53"/>
  <path fill="none" d="M146.49,75.43 L 132.51 83.06"/>
  <path fill="none" d="M146.53,75.47 L 128.01 94.18"/>
  <path fill="none" d="M132.42,83.16 L 127.98 94.16"/>
  <path fill="none" d="M132.39,83.14 L 112.07 98.14"/>
  <path fill="none" d="M127.87,94.26 L 112.07 98.14"/>
  <path fill="none" d="M127.87,94.26 L 97.39 100.67"/>
  <path fill="none" d="M112.07,98.14 L 97.39 100.68"/>
  <path fill="none" d="M112.07,98.14 L 98.87 80.95"/>
  <path fill="none" d="M112.07,98.14 L 80.09 114.67"/>
  <path fill="none" d="M97.02,100.71 L 48.55 101.65"/>
  <path fill="none" d="M45.78,101.45 L 15.55 96.5"/>
  <path fill="none" d="M45.91,101.04 L 21.02 88.46"/>
  <path fill="none" d="M46.61,100.39 L 44.41 95.21"/>
  <path fill="none" d="M14.56,94.26 L 17.79 89.33"/>
  <path fill="none" d="M13.45,93.9 L 14.61 71.78"/>
  <path fill="none" d="M18.5,85.27 L 15.25 71.72"/>
  <path fill="none" d="M19.9,85.39 L 28.6 65.07"/>
  <path fill="none" d="M16.77,68.65 L 27.45 63.93"/>
  <path fill="none" d="M28.06,64.74 L 16.29 79.02"/>
  <path fill="none" d="M46.93,83.63 L 30.9 77.01"/>
  <path fill="none" d="M48.84,82.23 L 47.91 70.95"/>
  <path fill="none" d="M17.01,80.06 L 26.6 76.86"/>
  <path fill="none" d="M16.92,81.73 L 42.74 93.49"/>
  <path fill="none" d="M30.26,77.88 L 43.08 93.05"/>
  <path fill="none" d="M29.58,73.97 L 37.18 53.62"/>
  <path fill="none" d="M45.02,94.67 L 79.77 114.66"/>
  <path fill="none" d="M39.13,53.47 L 46.59 66.66"/>
  <path fill="none" d="M79.96,114.94 L 84.67 141.37"/>
</g>
<g stroke-width="0.42" stroke="#D3D3D3" id="img-816012dc-2">
</g>
<g font-size="4" stroke="#000000" stroke-opacity="0.000" fill="#000000" id="img-816012dc-3">
</g>
<g stroke-width="0" stroke="#000000" id="img-816012dc-4">
  <circle cx="103.09" cy="146.67" r="1.55" fill="#FFC9BC"/>
  <circle cx="86.79" cy="127.82" r="2.04" fill="#FFE6DF"/>
  <circle cx="82.72" cy="93.01" r="2.03" fill="#DCF0FC"/>
  <circle cx="84.74" cy="108.71" r="2.08" fill="#FFEBE5"/>
  <circle cx="76.44" cy="78.54" r="2.06" fill="#E3F3FC"/>
  <circle cx="103.56" cy="121.91" r="0.69" fill="#F77362"/>
  <circle cx="58.44" cy="91.71" r="1.98" fill="#FFE2DA"/>
  <circle cx="120.35" cy="118.7" r="0.56" fill="#EC6051"/>
  <circle cx="120.86" cy="128.36" r="1.05" fill="#FF9D8B"/>
  <circle cx="128.23" cy="105.72" r="0.8" fill="#FE8270"/>
  <circle cx="105.56" cy="102.25" r="0.5" fill="#E35446"/>
  <circle cx="119.11" cy="35.3" r="2.07" fill="#CFEAFA"/>
  <circle cx="137.76" cy="44.35" r="2.01" fill="#FFE8E1"/>
  <circle cx="105.88" cy="57.48" r="2.04" fill="#DAEFFB"/>
  <circle cx="83.42" cy="55.26" r="2.15" fill="#EAF6FD"/>
  <circle cx="87.07" cy="44.7" r="2.09" fill="#DFF1FC"/>
  <circle cx="63.44" cy="72.66" r="1.2" fill="#FFAC9C"/>
  <circle cx="78.24" cy="65.11" r="2.11" fill="#FFE9E3"/>
  <circle cx="44.14" cy="48.81" r="2.19" fill="#DFF1FC"/>
  <circle cx="34.11" cy="20.39" r="2.26" fill="#B3DCF6"/>
  <circle cx="45.77" cy="24.45" r="2.23" fill="#BEE1F8"/>
  <circle cx="53.62" cy="13.33" r="2.23" fill="#B9DEF7"/>
  <circle cx="69.85" cy="35.74" r="2.18" fill="#E3F3FC"/>
  <circle cx="71.93" cy="18.94" r="2.15" fill="#C7E6F9"/>
  <circle cx="85.35" cy="27.4" r="2.1" fill="#D3ECFB"/>
  <circle cx="70.73" cy="43.85" r="2.07" fill="#E1F2FC"/>
  <circle cx="101.17" cy="50.18" r="2.1" fill="#FFF0EB"/>
  <circle cx="111.96" cy="47.74" r="1.63" fill="#FFCEC1"/>
  <circle cx="120.43" cy="70.79" r="0.75" fill="#FB7C6A"/>
  <circle cx="133.61" cy="58.57" r="0.81" fill="#FE8270"/>
  <circle cx="107.11" cy="66.59" r="0.47" fill="#E05143"/>
  <circle cx="146.67" cy="75.33" r="0.19" fill="#A8211B"/>
  <circle cx="132.45" cy="83.1" r="0.07" fill="#7C0908"/>
  <circle cx="127.95" cy="94.24" r="0.08" fill="#810B0A"/>
  <circle cx="112.07" cy="98.14" r="0" fill="#610102"/>
  <circle cx="97.21" cy="100.71" r="0.18" fill="#A31E19"/>
  <circle cx="98.8" cy="80.85" r="0.12" fill="#901310"/>
  <circle cx="47.15" cy="101.67" r="1.34" fill="#FFB8A9"/>
  <circle cx="13.33" cy="96.14" r="2.16" fill="#E5F4FD"/>
  <circle cx="19.02" cy="87.45" r="2.15" fill="#E3F3FC"/>
  <circle cx="14.73" cy="69.55" r="2.14" fill="#D1EBFA"/>
  <circle cx="29.47" cy="63.03" r="2.12" fill="#D1EBFA"/>
  <circle cx="49.03" cy="84.5" r="2.19" fill="#BBE0F7"/>
  <circle cx="14.84" cy="80.79" r="2.2" fill="#E7F5FD"/>
  <circle cx="28.78" cy="76.13" r="2.21" fill="#DCF0FC"/>
  <circle cx="43.91" cy="94.03" r="1.23" fill="#FFAF9E"/>
  <circle cx="37.99" cy="51.46" r="2.21" fill="#C0E2F8"/>
  <circle cx="79.93" cy="114.75" r="0.18" fill="#A31E19"/>
  <circle cx="47.72" cy="68.66" r="2.21" fill="#B6DDF7"/>
  <circle cx="84.84" cy="142.33" r="0.94" fill="#FF9280"/>
</g>
<g font-size="4" stroke="#000000" stroke-opacity="0.000" fill="#000000" id="img-816012dc-5">
</g>
</svg>
