<?xml version="1.0" encoding="UTF-8"?>
<svg xmlns="http://www.w3.org/2000/svg"
     xmlns:xlink="http://www.w3.org/1999/xlink"
     xmlns:gadfly="http://www.gadflyjl.org/ns"
     version="1.2"
     width="160mm" height="160mm" viewBox="0 0 160 160"
     stroke="none"
     fill="#000000"
     stroke-width="0.3"
     font-size="3.88"
>
<g stroke-width="0.42" fill="#000000" fill-opacity="0.000" stroke="#D3D3D3" id="img-d823337c-1">
  <path fill="none" d="M57.04,68.47 L 70.29 64.48"/>
  <path fill="none" d="M56.97,68.3 L 79.98 56.02"/>
  <path fill="none" d="M55.71,67.91 L 45.5 48.61"/>
  <path fill="none" d="M56.43,69.63 L 66.08 99.37"/>
  <path fill="none" d="M92.66,66.07 L 94.72 37.48"/>
  <path fill="none" d="M92.75,70.59 L 96.84 106.83"/>
  <path fill="none" d="M90.55,67.18 L 65.59 52.35"/>
  <path fill="none" d="M81.61,29.91 L 85.93 57.26"/>
  <path fill="none" d="M80.92,29.89 L 77.47 45.77"/>
  <path fill="none" d="M82.81,26.98 L 90.49 21.39"/>
  <path fill="none" d="M83.32,107.12 L 84.57 82.32"/>
  <path fill="none" d="M84.13,110.19 L 88.13 116.52"/>
  <path fill="none" d="M83.78,110.35 L 94.07 140.14"/>
  <path fill="none" d="M82.09,107.58 L 58.2 82.68"/>
  <path fill="none" d="M84.8,108.21 L 102.12 101.88"/>
  <path fill="none" d="M84.72,79.84 L 86.08 60.56"/>
  <path fill="none" d="M83.87,80.1 L 72.18 65.08"/>
  <path fill="none" d="M85.65,80.36 L 91.01 76.6"/>
  <path fill="none" d="M84.53,82.31 L 83.85 90.98"/>
  <path fill="none" d="M85.19,79.96 L 93.56 63.18"/>
  <path fill="none" d="M89.11,116.48 L 100.76 94.91"/>
  <path fill="none" d="M89.34,116.65 L 95.62 110.33"/>
  <path fill="none" d="M87.88,116.74 L 66.55 100.04"/>
  <path fill="none" d="M38.21,29.24 L 53.88 50.31"/>
  <path fill="none" d="M38.72,27.16 L 61.79 16.01"/>
  <path fill="none" d="M37.82,29.45 L 44.27 45.91"/>
  <path fill="none" d="M35.63,28.44 L 15.51 35.36"/>
  <path fill="none" d="M92.81,45.09 L 94.45 37.44"/>
  <path fill="none" d="M91.95,47.55 L 83.19 64.81"/>
  <path fill="none" d="M92.11,47.62 L 79.3 85.03"/>
  <path fill="none" d="M91.23,46.44 L 78.55 47.06"/>
  <path fill="none" d="M93.26,45.28 L 108.26 22.21"/>
  <path fill="none" d="M96.83,35.38 L 121.98 33.8"/>
  <path fill="none" d="M93.21,34.42 L 65.81 16.28"/>
  <path fill="none" d="M94.8,37.49 L 94.06 61.22"/>
  <path fill="none" d="M97.03,141.98 L 106.88 140.77"/>
  <path fill="none" d="M25.68,63.46 L 56.12 81.04"/>
  <path fill="none" d="M22.78,60.09 L 14.18 38.25"/>
  <path fill="none" d="M82.33,64.73 L 77.56 48.45"/>
  <path fill="none" d="M83.46,66.74 L 91.17 75.04"/>
  <path fill="none" d="M82.71,67.05 L 83.79 90.98"/>
  <path fill="none" d="M29.78,91.97 L 56.02 82.18"/>
  <path fill="none" d="M87.29,60.16 L 103.79 79.07"/>
  <path fill="none" d="M84.89,59.93 L 58.33 80.88"/>
  <path fill="none" d="M85.18,57.58 L 78.01 48.22"/>
  <path fill="none" d="M87.84,58.66 L 106.84 55.81"/>
  <path fill="none" d="M103.31,79.7 L 72.52 64.66"/>
  <path fill="none" d="M107.03,80.24 L 135.05 75.69"/>
  <path fill="none" d="M104.94,82.53 L 103.66 99.83"/>
  <path fill="none" d="M104.55,82.46 L 97.63 106.9"/>
  <path fill="none" d="M70.49,63.4 L 54.61 51.06"/>
  <path fill="none" d="M70.42,63.49 L 46.06 48.09"/>
  <path fill="none" d="M72.64,64.04 L 93 62.34"/>
  <path fill="none" d="M122.18,119.17 L 101.22 94.85"/>
  <path fill="none" d="M144.97,14.87 L 125.89 32.15"/>
  <path fill="none" d="M58.6,81.93 L 78.79 85.33"/>
  <path fill="none" d="M58.17,80.71 L 80.11 56.19"/>
  <path fill="none" d="M56.51,80.61 L 43.71 62.16"/>
  <path fill="none" d="M57.67,82.99 L 67.11 113.44"/>
  <path fill="none" d="M78.89,85.12 L 72.1 78.52"/>
  <path fill="none" d="M79.16,85.78 L 78.43 114.98"/>
  <path fill="none" d="M79.53,85.55 L 100.57 94.39"/>
  <path fill="none" d="M122.54,32.17 L 110.86 21.86"/>
  <path fill="none" d="M122.94,35.5 L 105.11 61.11"/>
  <path fill="none" d="M124.99,35.77 L 132.82 57.41"/>
  <path fill="none" d="M124.99,88.76 L 101.35 94.45"/>
  <path fill="none" d="M125.12,89.1 L 104.88 100.6"/>
  <path fill="none" d="M126.55,87.22 L 133.03 61.42"/>
  <path fill="none" d="M54.72,50.66 L 75.81 47.34"/>
  <path fill="none" d="M54.48,51.18 L 72.08 78.5"/>
  <path fill="none" d="M53.81,51.09 L 43.92 60.19"/>
  <path fill="none" d="M108.3,138.42 L 97.8 110.8"/>
  <path fill="none" d="M77.8,48.35 L 91.44 74.85"/>
  <path fill="none" d="M75.85,47.54 L 65.77 50.75"/>
  <path fill="none" d="M72.09,78.49 L 80.31 56.3"/>
  <path fill="none" d="M72.1,78.51 L 100.59 94.34"/>
  <path fill="none" d="M72.1,78.52 L 83.45 91.11"/>
  <path fill="none" d="M72.08,78.52 L 66.32 99.36"/>
  <path fill="none" d="M81.12,55.88 L 103.43 61.73"/>
  <path fill="none" d="M80.71,55.14 L 91.28 21.95"/>
  <path fill="none" d="M81.14,55.72 L 106.82 55.61"/>
  <path fill="none" d="M81.08,55.99 L 93.1 61.8"/>
  <path fill="none" d="M48.84,130.53 L 54.95 145.12"/>
  <path fill="none" d="M48.98,128.57 L 65.99 100.15"/>
  <path fill="none" d="M107.35,20.52 L 93.32 20.47"/>
  <path fill="none" d="M92.78,75.02 L 103.76 62.82"/>
  <path fill="none" d="M92.48,77 L 102.92 99.97"/>
  <path fill="none" d="M92.73,74.98 L 107.36 56.72"/>
  <path fill="none" d="M91.11,76.72 L 66.53 99.48"/>
  <path fill="none" d="M103.86,62.9 L 84.12 91.07"/>
  <path fill="none" d="M56.19,145.1 L 67.03 116.13"/>
  <path fill="none" d="M78.61,115 L 83.69 92.05"/>
  <path fill="none" d="M79.24,115.46 L 102.23 102.13"/>
  <path fill="none" d="M77.81,116.7 L 60.01 139.45"/>
  <path fill="none" d="M136.72,73.22 L 134.01 61.43"/>
  <path fill="none" d="M100.86,94.14 L 94.24 63.26"/>
  <path fill="none" d="M83.5,91.96 L 68.34 113.63"/>
  <path fill="none" d="M95.06,109.28 L 68.92 114.52"/>
  <path fill="none" d="M109.68,55.81 L 131.46 59.07"/>
  <path fill="none" d="M62.1,52.18 L 44.15 60.52"/>
</g>
<g stroke-width="0.42" stroke="#D3D3D3" id="img-d823337c-2">
</g>
<g font-size="4" stroke="#000000" stroke-opacity="0.000" fill="#000000" id="img-d823337c-3">
</g>
<g stroke-width="0" stroke="#000000" id="img-d823337c-4">
  <circle cx="56.14" cy="68.74" r="0.9" fill="#FF8775"/>
  <circle cx="92.5" cy="68.34" r="2.18" fill="#FFEDE7"/>
  <circle cx="81.32" cy="28.07" r="1.78" fill="#FFD4C8"/>
  <circle cx="83.24" cy="108.78" r="1.6" fill="#FFC7BA"/>
  <circle cx="84.63" cy="81.08" r="1.19" fill="#FFA796"/>
  <circle cx="88.65" cy="117.34" r="0.94" fill="#FF8D7B"/>
  <circle cx="37.21" cy="27.89" r="1.61" fill="#FFC7BA"/>
  <circle cx="92.54" cy="46.38" r="1.26" fill="#FFAC9C"/>
  <circle cx="94.86" cy="35.51" r="1.9" fill="#FFD9CF"/>
  <circle cx="94.8" cy="142.26" r="2.15" fill="#E7F5FD"/>
  <circle cx="23.64" cy="62.28" r="2.26" fill="#FFF0EB"/>
  <circle cx="82.66" cy="65.87" r="1.14" fill="#FFA291"/>
  <circle cx="27.61" cy="92.79" r="2.23" fill="#FFEBE5"/>
  <circle cx="86.19" cy="58.9" r="1.6" fill="#FFC7BA"/>
  <circle cx="105.09" cy="80.56" r="1.89" fill="#FFD9CF"/>
  <circle cx="71.44" cy="64.14" r="1.15" fill="#FFA291"/>
  <circle cx="122.66" cy="119.72" r="0.7" fill="#F5705F"/>
  <circle cx="146.67" cy="13.33" r="2.2" fill="#D1EBFA"/>
  <circle cx="57.28" cy="81.71" r="1.29" fill="#FFAF9E"/>
  <circle cx="79.17" cy="85.4" r="0.37" fill="#CE3E33"/>
  <circle cx="124.22" cy="33.66" r="2.16" fill="#FFE8E1"/>
  <circle cx="126.23" cy="88.46" r="1.23" fill="#FFAA99"/>
  <circle cx="54.2" cy="50.74" r="0.51" fill="#E35446"/>
  <circle cx="63.88" cy="15.01" r="2.23" fill="#FFEDE7"/>
  <circle cx="109.09" cy="140.5" r="2.14" fill="#E1F2FC"/>
  <circle cx="77.17" cy="47.13" r="1.33" fill="#FFB3A3"/>
  <circle cx="72.09" cy="78.51" r="0.01" fill="#660202"/>
  <circle cx="80.52" cy="55.72" r="0.59" fill="#EC6051"/>
  <circle cx="48.41" cy="129.51" r="1.06" fill="#FF9A89"/>
  <circle cx="109.35" cy="20.53" r="1.93" fill="#FFDBD2"/>
  <circle cx="91.98" cy="75.91" r="1.14" fill="#FFA291"/>
  <circle cx="104.49" cy="62.01" r="1.05" fill="#FF9886"/>
  <circle cx="55.6" cy="146.67" r="1.61" fill="#FFC7BA"/>
  <circle cx="78.4" cy="115.94" r="0.93" fill="#FF8D7B"/>
  <circle cx="137.2" cy="75.34" r="2.09" fill="#FFF3EF"/>
  <circle cx="100.95" cy="94.54" r="0.39" fill="#D24136"/>
  <circle cx="83.81" cy="91.52" r="0.52" fill="#E35446"/>
  <circle cx="103.55" cy="101.36" r="1.47" fill="#FFBDAE"/>
  <circle cx="44.81" cy="47.29" r="1.43" fill="#FFBAAB"/>
  <circle cx="91.75" cy="20.47" r="1.5" fill="#FFC1B3"/>
  <circle cx="97.07" cy="108.88" r="1.97" fill="#FFDDD4"/>
  <circle cx="108.26" cy="55.6" r="1.38" fill="#FFB6A6"/>
  <circle cx="13.33" cy="36.11" r="2.21" fill="#FFF5F1"/>
  <circle cx="133.54" cy="59.38" r="2.02" fill="#FFE1D8"/>
  <circle cx="66.21" cy="99.78" r="0.42" fill="#D54438"/>
  <circle cx="58.95" cy="140.81" r="1.66" fill="#FFCCBF"/>
  <circle cx="94.02" cy="62.25" r="0.99" fill="#FF9280"/>
  <circle cx="63.89" cy="51.34" r="1.89" fill="#FFD9CF"/>
  <circle cx="42.96" cy="61.08" r="1.26" fill="#FFAC9C"/>
  <circle cx="67.53" cy="114.8" r="1.37" fill="#FFB6A6"/>
</g>
<g font-size="4" stroke="#000000" stroke-opacity="0.000" fill="#000000" id="img-d823337c-5">
</g>
</svg>
