<?xml version="1.0" encoding="UTF-8"?>
<svg xmlns="http://www.w3.org/2000/svg"
     xmlns:xlink="http://www.w3.org/1999/xlink"
     xmlns:gadfly="http://www.gadflyjl.org/ns"
     version="1.2"
     width="160mm" height="160mm" viewBox="0 0 160 160"
     stroke="none"
     fill="#000000"
     stroke-width="0.3"
     font-size="3.88"
>
<g stroke-width="0.42" fill="#000000" fill-opacity="0.000" stroke="#D3D3D3" id="img-23348659-1">
  <path fill="none" d="M98.28,30.55 L 105.07 22.01"/>
  <path fill="none" d="M96.08,34.45 L 85.37 63.54"/>
  <path fill="none" d="M99.22,14.64 L 104.72 18.99"/>
  <path fill="none" d="M95.95,14.66 L 81.63 26.34"/>
  <path fill="none" d="M97.71,15.43 L 99.16 38.53"/>
  <path fill="none" d="M104.34,20.91 L 82.05 27.15"/>
  <path fill="none" d="M107.02,22.39 L 113.32 43.59"/>
  <path fill="none" d="M80.91,29.73 L 95.42 58.66"/>
  <path fill="none" d="M77.72,27.38 L 50.78 22.92"/>
  <path fill="none" d="M77.69,27.88 L 44.24 29.86"/>
  <path fill="none" d="M81.76,28.98 L 97.55 39.46"/>
  <path fill="none" d="M112.31,47.02 L 98.15 59.21"/>
  <path fill="none" d="M113.21,47.64 L 104.24 72.88"/>
  <path fill="none" d="M98.08,62.25 L 125.24 88.07"/>
  <path fill="none" d="M94.34,61.55 L 86.62 64.75"/>
  <path fill="none" d="M94.55,61.94 L 63.55 82.57"/>
  <path fill="none" d="M126.12,91.61 L 118.74 113.79"/>
  <path fill="none" d="M128.81,90.35 L 143.09 96"/>
  <path fill="none" d="M116.7,114.15 L 105.76 100.15"/>
  <path fill="none" d="M116.75,114.11 L 109.89 104.85"/>
  <path fill="none" d="M116.2,117.02 L 93.44 131.23"/>
  <path fill="none" d="M143.03,97.45 L 122.26 103.64"/>
  <path fill="none" d="M143.68,95.17 L 130.83 80.73"/>
  <path fill="none" d="M106.41,99.26 L 118.1 103.51"/>
  <path fill="none" d="M105.87,100.06 L 107.1 101.43"/>
  <path fill="none" d="M104.43,96.55 L 103.6 77.16"/>
  <path fill="none" d="M102.56,98.09 L 71.61 90.52"/>
  <path fill="none" d="M117.97,104.04 L 110.77 103.3"/>
  <path fill="none" d="M118.03,103.74 L 83.77 95.31"/>
  <path fill="none" d="M106.46,102.42 L 83.75 95.38"/>
  <path fill="none" d="M108.18,100.9 L 103.89 77.13"/>
  <path fill="none" d="M83.46,94.15 L 101.91 76.49"/>
  <path fill="none" d="M81.83,94 L 60.8 64.75"/>
  <path fill="none" d="M81.82,96.01 L 68.41 114.25"/>
  <path fill="none" d="M81.33,95.18 L 48.17 99.76"/>
  <path fill="none" d="M102.27,73.13 L 87.89 51.71"/>
  <path fill="none" d="M60.58,63.59 L 66.29 40.45"/>
  <path fill="none" d="M59.81,63.98 L 37.97 55.27"/>
  <path fill="none" d="M85.45,49.52 L 67.4 39.95"/>
  <path fill="none" d="M87.89,48.91 L 91.29 43.91"/>
  <path fill="none" d="M67.51,39.62 L 90.75 42.69"/>
  <path fill="none" d="M66.38,40.47 L 64.28 53.73"/>
  <path fill="none" d="M65.83,38.8 L 50.44 23.6"/>
  <path fill="none" d="M90.83,43.33 L 64.54 53.93"/>
  <path fill="none" d="M93.23,43.2 L 128.24 52.86"/>
  <path fill="none" d="M64.52,54.22 L 82.73 64.51"/>
  <path fill="none" d="M63.99,54.3 L 39.44 79.08"/>
  <path fill="none" d="M132.39,54.74 L 144.69 62.78"/>
  <path fill="none" d="M130.36,55.78 L 129.4 76.7"/>
  <path fill="none" d="M144.88,65.6 L 131.04 77.5"/>
  <path fill="none" d="M144.36,64.55 L 123.98 68.85"/>
  <path fill="none" d="M127.87,77.19 L 123.14 71.16"/>
  <path fill="none" d="M127.1,79.71 L 107.68 85.96"/>
  <path fill="none" d="M127.21,79.98 L 95.33 94.89"/>
  <path fill="none" d="M120.1,71.03 L 107.06 84.98"/>
  <path fill="none" d="M119.37,69.09 L 86.78 65.8"/>
  <path fill="none" d="M103.86,85.03 L 86.15 67.12"/>
  <path fill="none" d="M103.93,88.36 L 81.46 112.86"/>
  <path fill="none" d="M85.22,67.66 L 92.67 93.68"/>
  <path fill="none" d="M82.45,65.65 L 37.98 67.13"/>
  <path fill="none" d="M81.25,112.69 L 91.97 97.69"/>
  <path fill="none" d="M77.7,114.76 L 46.22 118.1"/>
  <path fill="none" d="M79.68,116.76 L 77.53 135.14"/>
  <path fill="none" d="M91.5,97.23 L 68.85 114.68"/>
  <path fill="none" d="M64.89,116.25 L 46.22 118.11"/>
  <path fill="none" d="M42.59,116.8 L 22.49 96.35"/>
  <path fill="none" d="M21.46,93.16 L 23.55 79.6"/>
  <path fill="none" d="M22.07,93.37 L 35.78 68.48"/>
  <path fill="none" d="M24.34,78.15 L 35.4 68.18"/>
  <path fill="none" d="M23.22,77.99 L 13.42 62.54"/>
  <path fill="none" d="M24.56,78.83 L 61.97 82.95"/>
  <path fill="none" d="M35.96,65.8 L 26.22 40.76"/>
  <path fill="none" d="M13.42,62.25 L 25.54 40.71"/>
  <path fill="none" d="M13.47,62.49 L 39.43 79.09"/>
  <path fill="none" d="M26.57,39.56 L 48.52 23.46"/>
  <path fill="none" d="M26.61,39.63 L 42.69 30.33"/>
  <path fill="none" d="M48.72,23.67 L 43.95 29.28"/>
  <path fill="none" d="M43.23,30.72 L 37.87 55.07"/>
  <path fill="none" d="M95.59,145.82 L 78.58 137.1"/>
  <path fill="none" d="M96.65,144.9 L 92.7 133.3"/>
  <path fill="none" d="M97.66,144.85 L 102.3 123.96"/>
  <path fill="none" d="M78.67,136.09 L 90.92 132.38"/>
  <path fill="none" d="M76.72,135.3 L 63.15 110.89"/>
  <path fill="none" d="M91.12,131.15 L 63.25 110.8"/>
  <path fill="none" d="M93.27,131.01 L 101.33 123.41"/>
  <path fill="none" d="M62.83,110.38 L 39.43 79.09"/>
  <path fill="none" d="M63,110.32 L 62.84 83.91"/>
  <path fill="none" d="M37.85,55.36 L 39.43 79.08"/>
  <path fill="none" d="M37.89,55.35 L 45.64 76.93"/>
  <path fill="none" d="M39.44,79.09 L 45.56 77.09"/>
  <path fill="none" d="M39.43,79.09 L 47.97 99.65"/>
  <path fill="none" d="M45.69,77.18 L 46.42 91.3"/>
  <path fill="none" d="M45.8,77.11 L 70.38 90.06"/>
  <path fill="none" d="M48,99.64 L 46.51 92.01"/>
  <path fill="none" d="M46.76,91.5 L 62.07 83.45"/>
  <path fill="none" d="M46.8,91.64 L 70.31 90.4"/>
  <path fill="none" d="M63.7,83.02 L 90.98 82.25"/>
  <path fill="none" d="M71.59,90.13 L 91.07 82.74"/>
  <path fill="none" d="M92.84,83.65 L 102.24 120.23"/>
  <path fill="none" d="M92.71,80.73 L 98.95 42.66"/>
</g>
<g stroke-width="0.42" stroke="#D3D3D3" id="img-23348659-2">
</g>
<g font-size="4" stroke="#000000" stroke-opacity="0.000" fill="#000000" id="img-23348659-3">
</g>
<g stroke-width="0" stroke="#000000" id="img-23348659-4">
  <circle cx="96.86" cy="32.32" r="2.18" fill="#D1EBFA"/>
  <circle cx="97.57" cy="13.33" r="2.02" fill="#DCF0FC"/>
  <circle cx="106.41" cy="20.33" r="2.06" fill="#D8EEFB"/>
  <circle cx="79.91" cy="27.75" r="2.13" fill="#FFEBE5"/>
  <circle cx="113.93" cy="45.63" r="2.04" fill="#E1F2FC"/>
  <circle cx="96.43" cy="60.69" r="2.17" fill="#FFEEE9"/>
  <circle cx="126.81" cy="89.56" r="2.07" fill="#DAEFFB"/>
  <circle cx="118.05" cy="115.87" r="2.1" fill="#FFF1ED"/>
  <circle cx="145.15" cy="96.82" r="2.12" fill="#CAE7F9"/>
  <circle cx="104.52" cy="98.57" r="1.93" fill="#FFE1D8"/>
  <circle cx="120.16" cy="104.27" r="2.11" fill="#FFF1ED"/>
  <circle cx="108.57" cy="103.08" r="2.12" fill="#FFEBE5"/>
  <circle cx="82.56" cy="95.01" r="1.19" fill="#FFAC9C"/>
  <circle cx="103.5" cy="74.96" r="2.12" fill="#FFE9E3"/>
  <circle cx="60.42" cy="64.22" r="0.63" fill="#F26A59"/>
  <circle cx="86.94" cy="50.31" r="1.62" fill="#FFCEC1"/>
  <circle cx="66.53" cy="39.49" r="0.95" fill="#FF9280"/>
  <circle cx="92.01" cy="42.86" r="1.22" fill="#FFAC9C"/>
  <circle cx="64.23" cy="54.06" r="0.32" fill="#C7382E"/>
  <circle cx="130.46" cy="53.48" r="2.22" fill="#DAEFFB"/>
  <circle cx="146.67" cy="64.07" r="2.26" fill="#B9DEF7"/>
  <circle cx="129.3" cy="79" r="2.21" fill="#C5E5F9"/>
  <circle cx="121.7" cy="69.33" r="2.24" fill="#C7E6F9"/>
  <circle cx="105.48" cy="86.67" r="2.21" fill="#D1EBFA"/>
  <circle cx="84.62" cy="65.58" r="2.08" fill="#FFE8E1"/>
  <circle cx="79.94" cy="114.52" r="2.16" fill="#E5F4FD"/>
  <circle cx="93.29" cy="95.85" r="2.17" fill="#DAEFFB"/>
  <circle cx="67.1" cy="116.03" r="2.13" fill="#EEF8FE"/>
  <circle cx="44.09" cy="118.32" r="2.05" fill="#E7F5FD"/>
  <circle cx="21.17" cy="95.01" r="1.8" fill="#FFD7CD"/>
  <circle cx="23.69" cy="78.73" r="0.84" fill="#FF8473"/>
  <circle cx="36.5" cy="67.18" r="1.42" fill="#FFBFB0"/>
  <circle cx="13.33" cy="62.4" r="0.16" fill="#9E1B17"/>
  <circle cx="25.93" cy="40.02" r="0.76" fill="#FB7C6A"/>
  <circle cx="49.54" cy="22.72" r="1.21" fill="#FFAC9C"/>
  <circle cx="43.41" cy="29.91" r="0.79" fill="#FD7F6D"/>
  <circle cx="97.25" cy="146.67" r="1.79" fill="#FFD7CD"/>
  <circle cx="77.37" cy="136.48" r="1.3" fill="#FFB3A3"/>
  <circle cx="92.25" cy="131.97" r="1.34" fill="#FFB8A9"/>
  <circle cx="63.01" cy="110.62" r="0.29" fill="#C03229"/>
  <circle cx="37.84" cy="55.21" r="0.14" fill="#951612"/>
  <circle cx="39.43" cy="79.09" r="0.01" fill="#610102"/>
  <circle cx="45.69" cy="77.05" r="0.12" fill="#901310"/>
  <circle cx="48.02" cy="99.78" r="0.14" fill="#951612"/>
  <circle cx="46.44" cy="91.66" r="0.34" fill="#CB3B31"/>
  <circle cx="62.83" cy="83.05" r="0.83" fill="#FF8473"/>
  <circle cx="70.97" cy="90.36" r="0.63" fill="#F26A59"/>
  <circle cx="92.47" cy="82.21" r="1.44" fill="#FFBFB0"/>
  <circle cx="102.72" cy="122.09" r="1.84" fill="#FFDBD2"/>
  <circle cx="99.29" cy="40.61" r="2" fill="#FFF5F1"/>
</g>
<g font-size="4" stroke="#000000" stroke-opacity="0.000" fill="#000000" id="img-23348659-5">
</g>
</svg>
