<?xml version="1.0" encoding="UTF-8"?>
<svg xmlns="http://www.w3.org/2000/svg"
     xmlns:xlink="http://www.w3.org/1999/xlink"
     xmlns:gadfly="http://www.gadflyjl.org/ns"
     version="1.2"
     width="160mm" height="160mm" viewBox="0 0 160 160"
     stroke="none"
     fill="#000000"
     stroke-width="0.3"
     font-size="3.88"
>
<g stroke-width="0.42" fill="#000000" fill-opacity="0.000" stroke="#D3D3D3" id="img-caed9fdc-1">
  <path fill="none" d="M98.83,108.31 L 67.54 117.91"/>
  <path fill="none" d="M102.09,106.65 L 139.56 78.6"/>
  <path fill="none" d="M99.13,106.63 L 68.91 83.5"/>
  <path fill="none" d="M98.78,108.1 L 61.47 115"/>
  <path fill="none" d="M101.18,105.99 L 110.08 78.84"/>
  <path fill="none" d="M100.72,105.91 L 103.67 59.34"/>
  <path fill="none" d="M102.27,106.94 L 121.11 97.62"/>
  <path fill="none" d="M99.36,106.37 L 87.83 93.47"/>
  <path fill="none" d="M98.97,106.88 L 60.39 86.11"/>
  <path fill="none" d="M98.79,107.36 L 85.11 104.36"/>
  <path fill="none" d="M100.73,105.91 L 101.79 90.37"/>
  <path fill="none" d="M98.75,107.67 L 76.51 106.55"/>
  <path fill="none" d="M63.28,46.17 L 63.62 96.46"/>
  <path fill="none" d="M63.07,46.16 L 61.23 67.79"/>
  <path fill="none" d="M60.98,43.48 L 18.51 36.46"/>
  <path fill="none" d="M64.8,45.59 L 89.93 74.21"/>
  <path fill="none" d="M63.14,46.17 L 61.46 77.06"/>
  <path fill="none" d="M61.42,45.25 L 45.81 57"/>
  <path fill="none" d="M65.56,43.52 L 97.64 38.82"/>
  <path fill="none" d="M65.58,43.69 L 75.21 42.99"/>
  <path fill="none" d="M65.42,42.99 L 94.96 31.07"/>
  <path fill="none" d="M39.32,70.24 L 57.73 59.1"/>
  <path fill="none" d="M39.64,71.25 L 58.93 70.05"/>
  <path fill="none" d="M39.59,70.92 L 85.41 61.03"/>
  <path fill="none" d="M39.54,70.74 L 77.37 59.21"/>
  <path fill="none" d="M39.28,72.59 L 56.53 83.82"/>
  <path fill="none" d="M35.24,71.08 L 15.52 68.27"/>
  <path fill="none" d="M35.97,69.72 L 29.02 61.81"/>
  <path fill="none" d="M39.03,72.91 L 72.55 104.85"/>
  <path fill="none" d="M61.68,57.34 L 93.02 47.77"/>
  <path fill="none" d="M59.86,60.14 L 60.79 67.8"/>
  <path fill="none" d="M61.77,58.03 L 77.27 58.47"/>
  <path fill="none" d="M58.21,59.66 L 38.36 83.89"/>
  <path fill="none" d="M58.52,59.87 L 35.69 100.14"/>
  <path fill="none" d="M61.33,59.29 L 101.63 90.01"/>
  <path fill="none" d="M61.35,56.67 L 95.23 31.56"/>
  <path fill="none" d="M67.04,117.7 L 53.07 90.13"/>
  <path fill="none" d="M67.14,117.67 L 64.06 101.13"/>
  <path fill="none" d="M67.46,117.77 L 103.42 84.37"/>
  <path fill="none" d="M67.47,118.24 L 85.66 133.13"/>
  <path fill="none" d="M67.15,117.67 L 61.52 78.46"/>
  <path fill="none" d="M66.85,118.05 L 35.75 121.2"/>
  <path fill="none" d="M67.07,117.69 L 44.79 60.61"/>
  <path fill="none" d="M67.32,117.68 L 75.61 94.18"/>
  <path fill="none" d="M53.94,87.96 L 67.43 83.26"/>
  <path fill="none" d="M54.01,88.87 L 99.99 97.46"/>
  <path fill="none" d="M51.78,90.26 L 45.45 112.83"/>
  <path fill="none" d="M51.85,86.81 L 40.79 40.72"/>
  <path fill="none" d="M50.51,88.2 L 39.12 85.99"/>
  <path fill="none" d="M53.81,87.66 L 56.46 86.15"/>
  <path fill="none" d="M53.59,87.35 L 68.58 73.84"/>
  <path fill="none" d="M53.86,89.33 L 82.59 103.48"/>
  <path fill="none" d="M54.04,88.6 L 101.58 90.14"/>
  <path fill="none" d="M54.02,88.8 L 74.18 91.81"/>
  <path fill="none" d="M53.12,86.98 L 76.41 44.85"/>
  <path fill="none" d="M51.09,87.2 L 29.01 61.82"/>
  <path fill="none" d="M65.83,97.96 L 102.95 83.61"/>
  <path fill="none" d="M64.5,96.62 L 78.72 60.68"/>
  <path fill="none" d="M65.89,98.12 L 84.21 92.47"/>
  <path fill="none" d="M62.8,96.61 L 59.21 87.14"/>
  <path fill="none" d="M61.29,99.08 L 36.84 101.88"/>
  <path fill="none" d="M116.88,51.62 L 139.8 75.66"/>
  <path fill="none" d="M116.2,52.06 L 127.72 79.62"/>
  <path fill="none" d="M117.57,49.84 L 144.35 48"/>
  <path fill="none" d="M113.15,50.52 L 81.81 58"/>
  <path fill="none" d="M117.55,49.64 L 129.66 47.72"/>
  <path fill="none" d="M113.81,51.64 L 77.82 90.53"/>
  <path fill="none" d="M113.13,49.58 L 79.81 43.25"/>
  <path fill="none" d="M113.1,49.77 L 58.65 44.22"/>
  <path fill="none" d="M139.24,78.01 L 130.81 80.99"/>
  <path fill="none" d="M139.14,77.6 L 107.47 82.41"/>
  <path fill="none" d="M139.21,76.61 L 89.57 61.21"/>
  <path fill="none" d="M141.74,75.08 L 146.25 50.12"/>
  <path fill="none" d="M139.82,78.89 L 124.76 94.92"/>
  <path fill="none" d="M93.71,48.75 L 68.75 82.3"/>
  <path fill="none" d="M95.77,48.9 L 109.71 74.75"/>
  <path fill="none" d="M93.44,48.5 L 61.94 77.29"/>
  <path fill="none" d="M93.7,45.68 L 70.49 15.1"/>
  <path fill="none" d="M95.82,45.55 L 98.77 40.49"/>
  <path fill="none" d="M95.16,49.1 L 101.77 89.92"/>
  <path fill="none" d="M96.77,47.22 L 129.63 47.35"/>
  <path fill="none" d="M95.09,45.31 L 96.71 32.42"/>
  <path fill="none" d="M67.83,82.23 L 62.08 71.78"/>
  <path fill="none" d="M69.09,82.96 L 126.29 81.81"/>
  <path fill="none" d="M68.02,82.16 L 55.33 32.95"/>
  <path fill="none" d="M67.73,83.67 L 46.19 113.19"/>
  <path fill="none" d="M68.52,83.79 L 85.66 133.13"/>
  <path fill="none" d="M67.6,82.41 L 17.94 37.65"/>
  <path fill="none" d="M69.06,83.19 L 120.94 96.05"/>
  <path fill="none" d="M67.67,83.62 L 35.15 120.02"/>
  <path fill="none" d="M67.39,83.05 L 39.16 85.4"/>
  <path fill="none" d="M67.5,83.4 L 36.55 101"/>
  <path fill="none" d="M68.73,82.29 L 98.59 40.37"/>
  <path fill="none" d="M67.42,82.76 L 15.47 68.55"/>
  <path fill="none" d="M68.45,83.81 L 73.65 104.21"/>
  <path fill="none" d="M63.09,70.51 L 102.88 82.11"/>
  <path fill="none" d="M60.96,72.04 L 59.28 113.1"/>
  <path fill="none" d="M59.88,68.14 L 41.54 40.4"/>
  <path fill="none" d="M61.49,67.83 L 68.44 35.13"/>
  <path fill="none" d="M62.66,71.31 L 84.65 90.35"/>
  <path fill="none" d="M59.27,71.07 L 38.81 84.39"/>
  <path fill="none" d="M59.29,68.73 L 45.88 59.73"/>
  <path fill="none" d="M62.23,71.68 L 83.05 102.95"/>
  <path fill="none" d="M62.96,70.86 L 101.6 90.05"/>
  <path fill="none" d="M126.34,82.22 L 78.47 91.7"/>
  <path fill="none" d="M56.45,32.27 L 85.93 59.12"/>
  <path fill="none" d="M56.22,28.97 L 67.73 15.04"/>
  <path fill="none" d="M54.91,33.01 L 58.26 82.81"/>
  <path fill="none" d="M56.78,31.8 L 75.48 41.73"/>
  <path fill="none" d="M53.21,32.41 L 29.06 58.5"/>
  <path fill="none" d="M57.05,30.7 L 94.8 30.28"/>
  <path fill="none" d="M55.03,33 L 56.07 41.68"/>
  <path fill="none" d="M101.24,95.8 L 92.39 77.88"/>
  <path fill="none" d="M100.19,96.86 L 62.05 78.08"/>
  <path fill="none" d="M100.1,97.06 L 88.43 92.6"/>
  <path fill="none" d="M100.04,97.23 L 60.56 85.68"/>
  <path fill="none" d="M103.44,95.88 L 130.77 49.35"/>
  <path fill="none" d="M105.02,80.42 L 103.93 59.34"/>
  <path fill="none" d="M102.89,82.09 L 72.34 72.99"/>
  <path fill="none" d="M104.87,80.43 L 100.2 40.79"/>
  <path fill="none" d="M60.66,113.62 L 90 77.61"/>
  <path fill="none" d="M59.32,113.1 L 61.38 78.47"/>
  <path fill="none" d="M59.13,113.1 L 58.47 87.29"/>
  <path fill="none" d="M57.14,114.32 L 36.58 103.24"/>
  <path fill="none" d="M60.57,113.55 L 75.05 93.88"/>
  <path fill="none" d="M112.92,146.66 L 85.66 133.13"/>
  <path fill="none" d="M112.92,146.65 L 84.55 105.18"/>
  <path fill="none" d="M112.93,146.65 L 101.85 90.37"/>
  <path fill="none" d="M85.57,59.66 L 42.36 39.44"/>
  <path fill="none" d="M85.72,61.76 L 62.01 77.38"/>
  <path fill="none" d="M89.03,62.1 L 121.56 94.96"/>
  <path fill="none" d="M86.74,58.57 L 69.95 15.4"/>
  <path fill="none" d="M88.45,62.51 L 101.71 89.94"/>
  <path fill="none" d="M86.92,62.64 L 74.86 104.23"/>
  <path fill="none" d="M43.39,113.25 L 35.99 103.95"/>
  <path fill="none" d="M46.01,113.07 L 69.09 74.26"/>
  <path fill="none" d="M47.05,114.43 L 82.51 104.43"/>
  <path fill="none" d="M46.7,113.7 L 74.58 93.41"/>
  <path fill="none" d="M85.66,133.13 L 61.7 78.41"/>
  <path fill="none" d="M85.66,133.13 L 101.73 90.36"/>
  <path fill="none" d="M17.2,38.2 L 26.6 58.12"/>
  <path fill="none" d="M144.98,49.43 L 101.97 89.99"/>
  <path fill="none" d="M144.48,47.07 L 99.03 30.99"/>
  <path fill="none" d="M108.54,76.62 L 93.63 75.98"/>
  <path fill="none" d="M110.03,74.61 L 104.56 59.21"/>
  <path fill="none" d="M111.96,78.61 L 121.96 94.64"/>
  <path fill="none" d="M108.87,77.89 L 88.24 90.63"/>
  <path fill="none" d="M108.74,77.63 L 78.32 91.24"/>
  <path fill="none" d="M109.21,75.12 L 79.16 44.48"/>
  <path fill="none" d="M109.04,78.12 L 76 104.99"/>
  <path fill="none" d="M90.37,73.91 L 69.94 34.92"/>
  <path fill="none" d="M93.27,77.1 L 121.25 95.34"/>
  <path fill="none" d="M90.73,78 L 87.02 89.68"/>
  <path fill="none" d="M89.26,76.48 L 60.57 84.45"/>
  <path fill="none" d="M91.9,73.71 L 99.42 40.75"/>
  <path fill="none" d="M90.31,77.82 L 75.34 104.44"/>
  <path fill="none" d="M101.98,55.84 L 70.74 34.22"/>
  <path fill="none" d="M101.78,58.03 L 72.24 71.45"/>
  <path fill="none" d="M101.66,56.51 L 58.58 44.6"/>
  <path fill="none" d="M41.35,40.51 L 61.09 77.15"/>
  <path fill="none" d="M42.01,36.91 L 67.47 14.79"/>
  <path fill="none" d="M61.9,77.25 L 77.99 60.21"/>
  <path fill="none" d="M60.75,77.98 L 39.06 84.91"/>
  <path fill="none" d="M60.73,77.62 L 15.5 68.4"/>
  <path fill="none" d="M61.88,78.3 L 82.93 103.05"/>
  <path fill="none" d="M61.93,78.25 L 74.77 90.62"/>
  <path fill="none" d="M61.71,77.13 L 76.56 44.93"/>
  <path fill="none" d="M61.32,77.07 L 56.69 46.28"/>
  <path fill="none" d="M67.34,34.54 L 45.58 56.74"/>
  <path fill="none" d="M68.98,35.18 L 70.15 70.15"/>
  <path fill="none" d="M71.1,33.34 L 97.65 38.08"/>
  <path fill="none" d="M67.04,34.17 L 29.41 58.91"/>
  <path fill="none" d="M34.08,119.56 L 36.79 87.76"/>
  <path fill="none" d="M33.99,119.56 L 34.47 104.45"/>
  <path fill="none" d="M35.02,119.92 L 68.91 74.14"/>
  <path fill="none" d="M80.03,60.79 L 85.9 89.62"/>
  <path fill="none" d="M77.63,59.77 L 38.82 84.41"/>
  <path fill="none" d="M81.22,56.91 L 98.28 40.11"/>
  <path fill="none" d="M81.83,58.05 L 129.68 47.84"/>
  <path fill="none" d="M79.28,56.25 L 77.83 45.12"/>
  <path fill="none" d="M84.13,91.53 L 39.15 85.85"/>
  <path fill="none" d="M84.92,90.09 L 71.63 74.06"/>
  <path fill="none" d="M84.11,91.88 L 78.51 92.06"/>
  <path fill="none" d="M69.19,15.55 L 70.18 70.15"/>
  <path fill="none" d="M36.22,83.53 L 28.32 62.23"/>
  <path fill="none" d="M45.05,60.49 L 57.34 83.08"/>
  <path fill="none" d="M46.01,59.52 L 68.27 71.33"/>
  <path fill="none" d="M46.06,57.43 L 75.42 43.8"/>
  <path fill="none" d="M45.46,56.64 L 54.84 45.74"/>
  <path fill="none" d="M58.3,82.81 L 56.46 46.3"/>
  <path fill="none" d="M36.79,101.6 L 74.22 92.64"/>
  <path fill="none" d="M34.17,99.87 L 27.91 62.34"/>
  <path fill="none" d="M36.84,102.39 L 71.93 106.19"/>
  <path fill="none" d="M71.09,74.39 L 83.27 102.84"/>
  <path fill="none" d="M15.26,66.89 L 54.32 45.11"/>
  <path fill="none" d="M83.09,102.93 L 77.49 93.97"/>
  <path fill="none" d="M84.03,102.75 L 96.59 32.4"/>
  <path fill="none" d="M82.5,104.39 L 76.45 105.89"/>
  <path fill="none" d="M74.52,90.93 L 29.41 61.36"/>
  <path fill="none" d="M75.21,42.95 L 58.66 43.86"/>
</g>
<g stroke-width="0.42" stroke="#D3D3D3" id="img-caed9fdc-2">
</g>
<g font-size="4" stroke="#000000" stroke-opacity="0.000" fill="#000000" id="img-caed9fdc-3">
</g>
<g stroke-width="0" stroke="#000000" id="img-caed9fdc-4">
  <circle cx="100.6" cy="107.76" r="1.78" fill="#B5DCF6"/>
  <circle cx="63.27" cy="43.85" r="2.22" fill="#4E91D3"/>
  <circle cx="37.43" cy="71.39" r="2.12" fill="#3F81C5"/>
  <circle cx="59.59" cy="57.97" r="2.09" fill="#89C2EE"/>
  <circle cx="67.2" cy="118.01" r="0.34" fill="#EB5F50"/>
  <circle cx="52.26" cy="88.54" r="1.71" fill="#BADFF7"/>
  <circle cx="63.63" cy="98.81" r="2.26" fill="#63A5DF"/>
  <circle cx="115.34" cy="49.99" r="2.15" fill="#275EA0"/>
  <circle cx="141.34" cy="77.27" r="2.14" fill="#3776BB"/>
  <circle cx="94.86" cy="47.21" r="1.84" fill="#AAD6F5"/>
  <circle cx="68.24" cy="82.98" r="0.82" fill="#FFC2B4"/>
  <circle cx="61.05" cy="69.91" r="2.04" fill="#8FC6EF"/>
  <circle cx="128.62" cy="81.77" r="2.23" fill="#3B7BC0"/>
  <circle cx="54.76" cy="30.73" r="2.2" fill="#3F81C5"/>
  <circle cx="102.27" cy="97.88" r="2.23" fill="#4486CA"/>
  <circle cx="105.14" cy="82.77" r="2.26" fill="#63A5DF"/>
  <circle cx="59.19" cy="115.43" r="2.23" fill="#63A5DF"/>
  <circle cx="112.93" cy="146.67" r="0.02" fill="#6C0403"/>
  <circle cx="87.52" cy="60.57" r="2.07" fill="#8FC6EF"/>
  <circle cx="44.83" cy="115.06" r="2.22" fill="#73B2E6"/>
  <circle cx="85.66" cy="133.13" r="0" fill="#6C0403"/>
  <circle cx="16.2" cy="36.07" r="2.25" fill="#3370B5"/>
  <circle cx="146.67" cy="47.84" r="2.23" fill="#79B6E8"/>
  <circle cx="110.77" cy="76.71" r="2.14" fill="#3B7BC0"/>
  <circle cx="91.4" cy="75.88" r="2.14" fill="#2B64A7"/>
  <circle cx="103.82" cy="57.11" r="2.15" fill="#1F5290"/>
  <circle cx="40.25" cy="38.45" r="2.24" fill="#68A9E2"/>
  <circle cx="61.42" cy="77.77" r="0.68" fill="#FFAA99"/>
  <circle cx="68.91" cy="32.95" r="2.14" fill="#1F5290"/>
  <circle cx="123.18" cy="96.6" r="2.21" fill="#4E91D3"/>
  <circle cx="33.93" cy="121.39" r="1.76" fill="#B5DCF6"/>
  <circle cx="79.57" cy="58.53" r="2.21" fill="#498CCF"/>
  <circle cx="86.34" cy="91.81" r="2.14" fill="#3F81C5"/>
  <circle cx="69.15" cy="13.33" r="2.13" fill="#2F6AAE"/>
  <circle cx="36.98" cy="85.58" r="2.1" fill="#89C2EE"/>
  <circle cx="43.93" cy="58.42" r="2.26" fill="#5DA0DD"/>
  <circle cx="58.41" cy="85.05" r="2.15" fill="#3F81C5"/>
  <circle cx="34.55" cy="102.14" r="2.22" fill="#63A5DF"/>
  <circle cx="70.22" cy="72.36" r="2.12" fill="#498CCF"/>
  <circle cx="99.93" cy="38.49" r="2.22" fill="#4486CA"/>
  <circle cx="13.33" cy="67.96" r="2.12" fill="#84BEEC"/>
  <circle cx="83.8" cy="104.07" r="1.29" fill="#F9F8F9"/>
  <circle cx="101.81" cy="90.15" r="0.22" fill="#C9392F"/>
  <circle cx="131.94" cy="47.36" r="2.21" fill="#0D3262"/>
  <circle cx="76.34" cy="92.13" r="2.09" fill="#89C2EE"/>
  <circle cx="77.53" cy="42.82" r="2.23" fill="#4E91D3"/>
  <circle cx="27.55" cy="60.14" r="2.14" fill="#3776BB"/>
  <circle cx="96.98" cy="30.26" r="2.09" fill="#4E91D3"/>
  <circle cx="74.22" cy="106.44" r="2.21" fill="#63A5DF"/>
  <circle cx="56.35" cy="43.99" r="2.23" fill="#4486CA"/>
</g>
<g font-size="4" stroke="#000000" stroke-opacity="0.000" fill="#000000" id="img-caed9fdc-5">
</g>
</svg>
