<?xml version="1.0" encoding="UTF-8"?>
<svg xmlns="http://www.w3.org/2000/svg"
     xmlns:xlink="http://www.w3.org/1999/xlink"
     xmlns:gadfly="http://www.gadflyjl.org/ns"
     version="1.2"
     width="160mm" height="160mm" viewBox="0 0 160 160"
     stroke="none"
     fill="#000000"
     stroke-width="0.3"
     font-size="3.88"
>
<g stroke-width="0.42" fill="#000000" fill-opacity="0.000" stroke="#D3D3D3" id="img-388c8781-1">
  <path fill="none" d="M71.75,116.5 L 53.56 135.47"/>
  <path fill="none" d="M71.75,116.5 L 86.52 83.07"/>
  <path fill="none" d="M71.75,116.5 L 61.27 91.76"/>
  <path fill="none" d="M71.75,116.5 L 86.78 101.39"/>
  <path fill="none" d="M71.75,116.5 L 104.54 92.39"/>
  <path fill="none" d="M71.75,116.5 L 114.29 143.24"/>
  <path fill="none" d="M71.75,116.5 L 134.92 143.59"/>
  <path fill="none" d="M71.75,116.5 L 47.14 83.83"/>
  <path fill="none" d="M71.75,116.5 L 41.77 29.66"/>
  <path fill="none" d="M71.75,116.5 L 64.11 68.7"/>
  <path fill="none" d="M71.75,116.5 L 21.54 119.96"/>
  <path fill="none" d="M53.51,135.43 L 86.47 83.05"/>
  <path fill="none" d="M53.56,135.47 L 86.79 101.4"/>
  <path fill="none" d="M53.48,135.42 L 69.27 102.5"/>
  <path fill="none" d="M53.65,135.62 L 71.35 131.14"/>
  <path fill="none" d="M53.4,135.39 L 63.98 68.7"/>
  <path fill="none" d="M53.08,135.56 L 21.51 120.13"/>
  <path fill="none" d="M86.41,83 L 70.36 100.87"/>
  <path fill="none" d="M86.52,82.32 L 62.92 29.67"/>
  <path fill="none" d="M86.8,82.29 L 102.5 23.63"/>
  <path fill="none" d="M87.09,82.78 L 126.34 91.05"/>
  <path fill="none" d="M86.34,82.47 L 64.38 68.52"/>
  <path fill="none" d="M61.65,91.35 L 86.68 100.9"/>
  <path fill="none" d="M61.44,91.65 L 69.06 100.85"/>
  <path fill="none" d="M61,90.39 L 62.24 29.81"/>
  <path fill="none" d="M61.65,91.35 L 108.34 109.04"/>
  <path fill="none" d="M61.36,91.71 L 91.3 140.08"/>
  <path fill="none" d="M61.39,90.51 L 94.19 42.01"/>
  <path fill="none" d="M60.41,90.68 L 14.97 57.44"/>
  <path fill="none" d="M60.58,90.52 L 40.94 62.41"/>
  <path fill="none" d="M86.65,101.08 L 70.68 101.58"/>
  <path fill="none" d="M87.09,100.6 L 83.82 36.98"/>
  <path fill="none" d="M87.2,100.61 L 102.61 23.65"/>
  <path fill="none" d="M87.28,101.5 L 104.77 145.12"/>
  <path fill="none" d="M69.59,100.62 L 62.43 29.8"/>
  <path fill="none" d="M69.75,100.62 L 73.97 21.87"/>
  <path fill="none" d="M70.42,102.28 L 114.38 143.13"/>
  <path fill="none" d="M68.78,101.99 L 40.18 114.04"/>
  <path fill="none" d="M63.82,28 L 101.23 22.2"/>
  <path fill="none" d="M63.56,27.34 L 72.53 21.06"/>
  <path fill="none" d="M63.64,27.48 L 86.98 14.43"/>
  <path fill="none" d="M62.03,29.79 L 55.21 74.04"/>
  <path fill="none" d="M85.61,33.44 L 101.5 22.9"/>
  <path fill="none" d="M84.25,32.49 L 88.41 15.53"/>
  <path fill="none" d="M83.98,36.97 L 87.19 63.62"/>
  <path fill="none" d="M84.46,36.86 L 109.38 108.03"/>
  <path fill="none" d="M81.45,35.04 L 30.96 42.56"/>
  <path fill="none" d="M81.91,36.1 L 65.55 48.83"/>
  <path fill="none" d="M101.21,21.82 L 75.95 20.11"/>
  <path fill="none" d="M101.46,21.02 L 90.88 14.51"/>
  <path fill="none" d="M103.76,23.49 L 122.02 59.22"/>
  <path fill="none" d="M102.08,23.45 L 89.55 44.97"/>
  <path fill="none" d="M75.79,19.21 L 86.89 14.25"/>
  <path fill="none" d="M74.6,21.79 L 86.83 63.69"/>
  <path fill="none" d="M74.11,21.87 L 75.36 78.17"/>
  <path fill="none" d="M75.95,19.85 L 120.83 16.68"/>
  <path fill="none" d="M73.32,21.71 L 46.95 82.24"/>
  <path fill="none" d="M72.26,20.49 L 42.15 28.93"/>
  <path fill="none" d="M88.89,15.59 L 87.53 63.6"/>
  <path fill="none" d="M88.51,15.55 L 75.86 78.21"/>
  <path fill="none" d="M89.41,15.54 L 105.08 90.98"/>
  <path fill="none" d="M87.68,15.2 L 65.06 48.37"/>
  <path fill="none" d="M86.04,67.57 L 76.86 78.69"/>
  <path fill="none" d="M88.73,67.69 L 104.75 91.12"/>
  <path fill="none" d="M86.98,68.03 L 73.68 128.73"/>
  <path fill="none" d="M87.57,68.08 L 90.31 123.32"/>
  <path fill="none" d="M77.54,81.26 L 104.42 91.54"/>
  <path fill="none" d="M75.31,82.72 L 73.35 128.69"/>
  <path fill="none" d="M76.13,82.61 L 89.71 123.44"/>
  <path fill="none" d="M76.98,82.1 L 116.14 123.44"/>
  <path fill="none" d="M73.17,80.03 L 26.86 71.49"/>
  <path fill="none" d="M73.41,79.35 L 41.42 61.88"/>
  <path fill="none" d="M104.9,92.68 L 91.34 123.51"/>
  <path fill="none" d="M105.58,92.7 L 116.87 122.98"/>
  <path fill="none" d="M105.49,92.73 L 109.51 107.99"/>
  <path fill="none" d="M105.43,92.74 L 114.78 142.91"/>
  <path fill="none" d="M105.1,90.98 L 95.94 42.37"/>
  <path fill="none" d="M75.15,130.1 L 88.25 126.23"/>
  <path fill="none" d="M75.22,130.41 L 115.48 125.29"/>
  <path fill="none" d="M75.03,131.54 L 103.9 145.92"/>
  <path fill="none" d="M72.67,128.78 L 47.66 49.24"/>
  <path fill="none" d="M92.69,125.54 L 115.46 125.06"/>
  <path fill="none" d="M92.18,124.15 L 108.62 110.73"/>
  <path fill="none" d="M91.74,127.44 L 104.43 145.31"/>
  <path fill="none" d="M89.1,123.75 L 56.17 78.06"/>
  <path fill="none" d="M116.56,126.9 L 106.21 145.22"/>
  <path fill="none" d="M117.32,127.16 L 115.03 142.9"/>
  <path fill="none" d="M119.7,124.36 L 144.59 116.55"/>
  <path fill="none" d="M117.66,122.85 L 118.65 47.41"/>
  <path fill="none" d="M109.73,111.34 L 105.6 145.01"/>
  <path fill="none" d="M110.19,111.34 L 114.81 142.9"/>
  <path fill="none" d="M111.65,109.65 L 124.75 109.65"/>
  <path fill="none" d="M110.93,108.24 L 132.32 77.81"/>
  <path fill="none" d="M106.98,146.16 L 114.21 143.87"/>
  <path fill="none" d="M106.73,145.67 L 144.93 117.2"/>
  <path fill="none" d="M106.03,145.12 L 127.41 93.08"/>
  <path fill="none" d="M107.05,146.51 L 134.88 143.85"/>
  <path fill="none" d="M104.02,145.72 L 46.23 106.01"/>
  <path fill="none" d="M115.1,142.92 L 127.66 93.16"/>
  <path fill="none" d="M115.67,143.65 L 134.87 143.79"/>
  <path fill="none" d="M115.17,142.94 L 126.1 111.56"/>
  <path fill="none" d="M114.18,143.58 L 94.46 142.01"/>
  <path fill="none" d="M145.35,114.17 L 129.18 92.85"/>
  <path fill="none" d="M144.59,115.25 L 128.68 110.26"/>
  <path fill="none" d="M145.29,114.22 L 106.24 66.38"/>
  <path fill="none" d="M145.05,114.45 L 106.84 80.15"/>
  <path fill="none" d="M128.34,93.2 L 135.34 143.26"/>
  <path fill="none" d="M127.96,93.21 L 126.91 107.64"/>
  <path fill="none" d="M126.92,90.07 L 106.29 66.34"/>
  <path fill="none" d="M128.69,89.74 L 132.79 78.05"/>
  <path fill="none" d="M127.97,89.64 L 123.13 18.68"/>
  <path fill="none" d="M126.8,90.19 L 75 40.98"/>
  <path fill="none" d="M135.28,143.28 L 127.26 111.61"/>
  <path fill="none" d="M135.4,143.26 L 133.49 78.16"/>
  <path fill="none" d="M125.88,107.84 L 105.82 66.65"/>
  <path fill="none" d="M127.16,107.68 L 133.06 78.13"/>
  <path fill="none" d="M125.29,111.03 L 93.91 140.43"/>
  <path fill="none" d="M125.3,108.27 L 65.41 51.64"/>
  <path fill="none" d="M106.99,64.29 L 120.88 61.56"/>
  <path fill="none" d="M106.58,63.4 L 139.44 38.22"/>
  <path fill="none" d="M102.72,64.82 L 38.27 68.2"/>
  <path fill="none" d="M103.19,63.36 L 75.12 40.85"/>
  <path fill="none" d="M102.72,64.59 L 41.61 61.22"/>
  <path fill="none" d="M132.33,74.62 L 124.23 62.92"/>
  <path fill="none" d="M133.81,74.31 L 140.74 39.03"/>
  <path fill="none" d="M132.6,74.46 L 119.61 47.2"/>
  <path fill="none" d="M131.81,75.16 L 90.31 48.17"/>
  <path fill="none" d="M131.5,76 L 64.45 68.34"/>
  <path fill="none" d="M93.13,139.91 L 122.24 63.16"/>
  <path fill="none" d="M90.75,140.58 L 46.16 106.11"/>
  <path fill="none" d="M124.3,59.42 L 139.86 38.64"/>
  <path fill="none" d="M122.44,59.06 L 119.24 47.34"/>
  <path fill="none" d="M123,58.99 L 122.98 18.69"/>
  <path fill="none" d="M120.89,61.61 L 57.05 75.76"/>
  <path fill="none" d="M139.12,37.66 L 120.71 44.48"/>
  <path fill="none" d="M139.71,35.28 L 124.42 18.14"/>
  <path fill="none" d="M139.74,38.55 L 106.64 76.94"/>
  <path fill="none" d="M139.03,37.31 L 90.64 46.51"/>
  <path fill="none" d="M117.86,47.25 L 106.01 76.56"/>
  <path fill="none" d="M116.5,45.36 L 90.68 46.81"/>
  <path fill="none" d="M116.55,44.76 L 97.81 40.57"/>
  <path fill="none" d="M116.52,44.97 L 75.58 39.76"/>
  <path fill="none" d="M116.51,45.43 L 66 49.96"/>
  <path fill="none" d="M121.34,17.93 L 97.3 38.52"/>
  <path fill="none" d="M121.02,17.44 L 75.4 38.57"/>
  <path fill="none" d="M104.12,76.66 L 89.47 48.94"/>
  <path fill="none" d="M104.62,76.46 L 96.08 42.34"/>
  <path fill="none" d="M103.19,79.71 L 40.08 113.84"/>
  <path fill="none" d="M102.93,78.82 L 47.51 83.02"/>
  <path fill="none" d="M90.04,45.35 L 93.82 41.7"/>
  <path fill="none" d="M86.69,48.42 L 47.28 82.48"/>
  <path fill="none" d="M86.29,47.74 L 26.75 70.28"/>
  <path fill="none" d="M86.29,46.13 L 42.14 29.31"/>
  <path fill="none" d="M93.75,41.62 L 56.53 74.76"/>
  <path fill="none" d="M93.26,40.77 L 65.9 49.5"/>
  <path fill="none" d="M93.18,40.41 L 48.95 47.16"/>
  <path fill="none" d="M38.67,112.72 L 46.34 83.99"/>
  <path fill="none" d="M37.42,112.74 L 25.31 73.24"/>
  <path fill="none" d="M38.99,112.83 L 53.98 78.29"/>
  <path fill="none" d="M37.99,112.64 L 36.22 70.45"/>
  <path fill="none" d="M45.76,82.64 L 26.62 72.16"/>
  <path fill="none" d="M47.3,82.5 L 53.15 77.67"/>
  <path fill="none" d="M46.48,84.02 L 44.6 102.49"/>
  <path fill="none" d="M46.59,82.16 L 47.07 49.33"/>
  <path fill="none" d="M46.05,83.86 L 21.4 119.72"/>
  <path fill="none" d="M26.87,71.46 L 52.67 75.87"/>
  <path fill="none" d="M24.98,68.85 L 28.52 45"/>
  <path fill="none" d="M24.62,68.82 L 24.2 27.61"/>
  <path fill="none" d="M52.81,75.37 L 38.1 69.14"/>
  <path fill="none" d="M54.1,78.34 L 45.15 102.62"/>
  <path fill="none" d="M53.5,74.49 L 30.16 44.57"/>
  <path fill="none" d="M55.87,74.25 L 72.45 41.43"/>
  <path fill="none" d="M53.51,78.01 L 21.41 119.73"/>
  <path fill="none" d="M36.6,70.4 L 43.88 102.53"/>
  <path fill="none" d="M35.54,66.24 L 29.43 44.94"/>
  <path fill="none" d="M37.83,66.99 L 71.7 40.81"/>
  <path fill="none" d="M37.92,67.13 L 62.03 51.34"/>
  <path fill="none" d="M35.55,66.24 L 24.72 27.54"/>
  <path fill="none" d="M43.82,102.54 L 29.36 44.95"/>
  <path fill="none" d="M45.13,102.61 L 63.11 52.19"/>
  <path fill="none" d="M43.16,102.83 L 14.42 57.95"/>
  <path fill="none" d="M30.98,42.71 L 71.26 39.65"/>
  <path fill="none" d="M30.94,43.31 L 61.72 49.71"/>
  <path fill="none" d="M27.21,44.27 L 14.87 54.92"/>
  <path fill="none" d="M71.97,41.1 L 65.29 48.54"/>
  <path fill="none" d="M71.33,38.9 L 26.11 26.15"/>
  <path fill="none" d="M71.6,40.67 L 41.36 60.29"/>
  <path fill="none" d="M71.34,40.11 L 48.9 46.9"/>
  <path fill="none" d="M61.69,50.41 L 15.34 56"/>
  <path fill="none" d="M62,49.01 L 25.88 26.66"/>
  <path fill="none" d="M14.01,54.34 L 23.51 27.49"/>
  <path fill="none" d="M15.32,56.61 L 38.52 60.86"/>
  <path fill="none" d="M14.79,54.84 L 41.15 29.51"/>
  <path fill="none" d="M26.15,26 L 40.99 28.98"/>
  <path fill="none" d="M25.63,26.99 L 45.73 46.15"/>
  <path fill="none" d="M25.55,27.07 L 63.76 68"/>
  <path fill="none" d="M40.12,59.58 L 41.55 29.69"/>
  <path fill="none" d="M39.57,62.62 L 21.31 119.67"/>
  <path fill="none" d="M41.88,29.61 L 63.84 67.94"/>
  <path fill="none" d="M48.28,48.9 L 63.79 67.98"/>
</g>
<g stroke-width="0.42" stroke="#D3D3D3" id="img-388c8781-2">
</g>
<g font-size="4" stroke="#000000" stroke-opacity="0.000" fill="#000000" id="img-388c8781-3">
</g>
<g stroke-width="0" stroke="#000000" id="img-388c8781-4">
  <circle cx="71.75" cy="116.5" r="0" fill="#6D0404"/>
  <circle cx="53.35" cy="135.69" r="0.29" fill="#E7594A"/>
  <circle cx="86.69" cy="82.69" r="0.4" fill="#FA7A69"/>
  <circle cx="60.99" cy="91.1" r="0.68" fill="#FFB9AA"/>
  <circle cx="87.11" cy="101.07" r="0.45" fill="#FF8775"/>
  <circle cx="69.69" cy="101.61" r="0.95" fill="#FFE1D8"/>
  <circle cx="62.27" cy="28.24" r="1.51" fill="#C1E3F8"/>
  <circle cx="83.71" cy="34.7" r="2.19" fill="#599CDA"/>
  <circle cx="102.96" cy="21.93" r="1.68" fill="#A5D3F4"/>
  <circle cx="74.07" cy="19.98" r="1.81" fill="#94C9F0"/>
  <circle cx="88.95" cy="13.33" r="2.17" fill="#599CDA"/>
  <circle cx="87.46" cy="65.84" r="2.15" fill="#5397D7"/>
  <circle cx="75.41" cy="80.45" r="2.19" fill="#599CDA"/>
  <circle cx="105.26" cy="91.86" r="0.86" fill="#FFD4C9"/>
  <circle cx="73.26" cy="130.66" r="1.89" fill="#88C1ED"/>
  <circle cx="90.43" cy="125.59" r="2.18" fill="#5FA1DD"/>
  <circle cx="117.63" cy="125.01" r="2.08" fill="#6AABE3"/>
  <circle cx="109.94" cy="109.65" r="1.64" fill="#ABD7F5"/>
  <circle cx="105.39" cy="146.67" r="1.6" fill="#B0DAF6"/>
  <circle cx="114.92" cy="143.64" r="0.71" fill="#FFBEAF"/>
  <circle cx="146.67" cy="115.9" r="2.09" fill="#316EB2"/>
  <circle cx="128.09" cy="91.42" r="1.72" fill="#9FD0F3"/>
  <circle cx="135.41" cy="143.8" r="0.52" fill="#FF9987"/>
  <circle cx="126.76" cy="109.65" r="1.94" fill="#82BDEB"/>
  <circle cx="104.87" cy="64.71" r="2.07" fill="#255B9C"/>
  <circle cx="133.44" cy="76.22" r="1.87" fill="#88C1ED"/>
  <circle cx="92.39" cy="141.85" r="2" fill="#76B4E8"/>
  <circle cx="123" cy="61.14" r="2.07" fill="#255B9C"/>
  <circle cx="141.16" cy="36.9" r="2.09" fill="#0D3363"/>
  <circle cx="118.67" cy="45.24" r="2.09" fill="#215493"/>
  <circle cx="122.98" cy="16.53" r="2.07" fill="#194781"/>
  <circle cx="105.17" cy="78.65" r="2.16" fill="#2D68AB"/>
  <circle cx="88.41" cy="46.93" r="2.18" fill="#5FA1DD"/>
  <circle cx="95.51" cy="40.06" r="2.26" fill="#5397D7"/>
  <circle cx="38.08" cy="114.92" r="2.18" fill="#498CCE"/>
  <circle cx="46.58" cy="83.09" r="0.89" fill="#FFD9CE"/>
  <circle cx="24.64" cy="71.08" r="2.17" fill="#3F80C5"/>
  <circle cx="54.87" cy="76.24" r="2.14" fill="#64A6E0"/>
  <circle cx="36.13" cy="68.31" r="2.06" fill="#1D4E8A"/>
  <circle cx="44.37" cy="104.73" r="2.16" fill="#4486CA"/>
  <circle cx="28.84" cy="42.87" r="2.06" fill="#215493"/>
  <circle cx="73.42" cy="39.49" r="2.09" fill="#316EB2"/>
  <circle cx="63.84" cy="50.15" r="2.08" fill="#2D68AB"/>
  <circle cx="13.33" cy="56.24" r="1.94" fill="#82BDEB"/>
  <circle cx="24.18" cy="25.61" r="1.92" fill="#82BDEB"/>
  <circle cx="40.05" cy="61.14" r="1.5" fill="#C1E3F8"/>
  <circle cx="41.58" cy="29.09" r="0.58" fill="#FFA493"/>
  <circle cx="47.09" cy="47.44" r="1.81" fill="#94C9F0"/>
  <circle cx="64.04" cy="68.3" r="0.39" fill="#F77463"/>
  <circle cx="21.21" cy="119.99" r="0.32" fill="#EB6050"/>
</g>
<g font-size="4" stroke="#000000" stroke-opacity="0.000" fill="#000000" id="img-388c8781-5">
</g>
</svg>
