<?xml version="1.0" encoding="UTF-8"?>
<svg xmlns="http://www.w3.org/2000/svg"
     xmlns:xlink="http://www.w3.org/1999/xlink"
     xmlns:gadfly="http://www.gadflyjl.org/ns"
     version="1.2"
     width="160mm" height="160mm" viewBox="0 0 160 160"
     stroke="none"
     fill="#000000"
     stroke-width="0.3"
     font-size="3.88"
>
<g stroke-width="0.42" fill="#000000" fill-opacity="0.000" stroke="#D3D3D3" id="img-468da5a2-1">
  <path fill="none" d="M131.58,116.55 L 106.69 82.06"/>
  <path fill="none" d="M131.02,117.13 L 90.6 89.61"/>
  <path fill="none" d="M131,117.16 L 98.14 95.51"/>
  <path fill="none" d="M121.15,47.86 L 94.55 39.15"/>
  <path fill="none" d="M121.21,47.73 L 74.05 14.61"/>
  <path fill="none" d="M121.32,47.62 L 113.65 37.5"/>
  <path fill="none" d="M121.27,48.37 L 76.82 92.85"/>
  <path fill="none" d="M121.5,48.5 L 111.6 87.65"/>
  <path fill="none" d="M121.75,48.5 L 130.01 79.64"/>
  <path fill="none" d="M19.28,85.22 L 51.34 79.82"/>
  <path fill="none" d="M19.31,85.58 L 68.6 85.14"/>
  <path fill="none" d="M19.3,85.34 L 73.18 79.24"/>
  <path fill="none" d="M18.13,83.6 L 32.66 57.2"/>
  <path fill="none" d="M145.06,104.08 L 115.05 74.39"/>
  <path fill="none" d="M144.4,105.64 L 91.29 104.91"/>
  <path fill="none" d="M144.6,104.75 L 113.07 90.68"/>
  <path fill="none" d="M53.21,92.67 L 87.93 71.72"/>
  <path fill="none" d="M53.47,93.3 L 103.24 80.8"/>
  <path fill="none" d="M49.05,94.51 L 26.53 101.17"/>
  <path fill="none" d="M50.04,91.91 L 36.85 70.76"/>
  <path fill="none" d="M53.52,93.52 L 86.49 88.67"/>
  <path fill="none" d="M50.11,95.85 L 36.88 118.96"/>
  <path fill="none" d="M53.54,93.92 L 72.91 94.42"/>
  <path fill="none" d="M50.31,91.77 L 34.71 57.28"/>
  <path fill="none" d="M52.65,77.39 L 49.13 69.42"/>
  <path fill="none" d="M53.62,77.2 L 54.83 33.17"/>
  <path fill="none" d="M52.6,81.48 L 41.27 105.68"/>
  <path fill="none" d="M54.3,81.57 L 62.66 105.61"/>
  <path fill="none" d="M53.53,81.7 L 53.17 113.99"/>
  <path fill="none" d="M55.38,80.76 L 87.15 103.54"/>
  <path fill="none" d="M53.54,77.2 L 53.31 44.53"/>
  <path fill="none" d="M54.27,77.31 L 67.36 38.18"/>
  <path fill="none" d="M55.77,79.85 L 108.9 89.39"/>
  <path fill="none" d="M54.85,77.61 L 60.59 69.42"/>
  <path fill="none" d="M69.08,118.89 L 65.65 75.9"/>
  <path fill="none" d="M71.51,120.95 L 110.66 117.74"/>
  <path fill="none" d="M70.41,119.2 L 87.57 90.29"/>
  <path fill="none" d="M67.21,120.19 L 42.36 108.67"/>
  <path fill="none" d="M67,121.13 L 38.06 121.01"/>
  <path fill="none" d="M69.86,123.32 L 75.73 144.46"/>
  <path fill="none" d="M70.86,119.54 L 94.6 95.87"/>
  <path fill="none" d="M68.99,118.89 L 61.99 59.97"/>
  <path fill="none" d="M50.49,67.55 L 87.82 71.22"/>
  <path fill="none" d="M50.3,66.37 L 87.8 49.41"/>
  <path fill="none" d="M45.93,67.64 L 22.97 70.88"/>
  <path fill="none" d="M46.16,66.27 L 15.4 50.39"/>
  <path fill="none" d="M47.76,69.58 L 40.74 105.51"/>
  <path fill="none" d="M48.44,69.61 L 52.91 114"/>
  <path fill="none" d="M50.21,68.44 L 94.22 93.13"/>
  <path fill="none" d="M49.98,68.78 L 68.88 84.35"/>
  <path fill="none" d="M50.48,67.01 L 75.27 63.67"/>
  <path fill="none" d="M48.66,65.07 L 52.84 44.48"/>
  <path fill="none" d="M47.1,65.3 L 26.2 26.99"/>
  <path fill="none" d="M88.66,70.5 L 89.76 50.76"/>
  <path fill="none" d="M88.06,71.88 L 65.57 95.28"/>
  <path fill="none" d="M87.82,71.38 L 67.72 73.42"/>
  <path fill="none" d="M88.87,72.07 L 95.5 92.07"/>
  <path fill="none" d="M88.21,70.61 L 69.21 37.99"/>
  <path fill="none" d="M89.41,71.46 L 130.01 79.64"/>
  <path fill="none" d="M90.89,50.53 L 104.42 78.26"/>
  <path fill="none" d="M92.06,49.22 L 107.38 54.5"/>
  <path fill="none" d="M91.22,50.33 L 98.43 60.42"/>
  <path fill="none" d="M87.72,49.19 L 63.86 57.04"/>
  <path fill="none" d="M88.91,50.54 L 76.42 76.93"/>
  <path fill="none" d="M88.73,46.5 L 80.88 33.15"/>
  <path fill="none" d="M22.67,72.36 L 62.04 95.75"/>
  <path fill="none" d="M22.97,70.84 L 33.37 69.17"/>
  <path fill="none" d="M22.81,72.1 L 73.09 93.58"/>
  <path fill="none" d="M22.42,69.69 L 51.58 43.76"/>
  <path fill="none" d="M111.4,73.79 L 66.03 95.92"/>
  <path fill="none" d="M112.4,70.77 L 90.95 29.36"/>
  <path fill="none" d="M111.26,73.41 L 71 84.8"/>
  <path fill="none" d="M113.13,75.04 L 111.37 87.61"/>
  <path fill="none" d="M111.26,72.14 L 71.31 60.31"/>
  <path fill="none" d="M62.38,95.32 L 37.27 70.43"/>
  <path fill="none" d="M61.92,97.86 L 42.36 106.79"/>
  <path fill="none" d="M63.87,99.18 L 63.53 105.49"/>
  <path fill="none" d="M66.25,96.73 L 93.94 94.44"/>
  <path fill="none" d="M66.16,97.6 L 86.83 104.18"/>
  <path fill="none" d="M88.84,29.35 L 66.52 71.65"/>
  <path fill="none" d="M92.03,28.14 L 110.22 34.95"/>
  <path fill="none" d="M88.35,29.01 L 63.25 56.1"/>
  <path fill="none" d="M87.79,28.2 L 55.41 41.38"/>
  <path fill="none" d="M88.67,29.25 L 70.35 57.74"/>
  <path fill="none" d="M63.23,73.28 L 37.91 69.17"/>
  <path fill="none" d="M64.12,75.47 L 41.65 105.91"/>
  <path fill="none" d="M65.33,75.91 L 63.54 105.49"/>
  <path fill="none" d="M67.34,74.91 L 94.32 92.97"/>
  <path fill="none" d="M64.95,71.45 L 62.24 59.93"/>
  <path fill="none" d="M64.65,71.54 L 54.12 44.38"/>
  <path fill="none" d="M67.46,74.71 L 73.43 77.91"/>
  <path fill="none" d="M64.31,71.7 L 63.02 69.52"/>
  <path fill="none" d="M66.19,71.5 L 79.03 33.34"/>
  <path fill="none" d="M73.41,118.15 L 26.51 102.58"/>
  <path fill="none" d="M76.47,116.78 L 87.83 90.42"/>
  <path fill="none" d="M73.29,118.99 L 38.05 120.87"/>
  <path fill="none" d="M75.63,121.15 L 76.28 144.37"/>
  <path fill="none" d="M75.54,116.59 L 75.24 96.77"/>
  <path fill="none" d="M75.19,116.62 L 70.03 86.33"/>
  <path fill="none" d="M75.65,116.59 L 77.42 65.62"/>
  <path fill="none" d="M77.33,117.43 L 109.36 91.18"/>
  <path fill="none" d="M110.86,117.29 L 90.1 90.14"/>
  <path fill="none" d="M110.73,117.44 L 90.98 106.02"/>
  <path fill="none" d="M111.17,117.18 L 111.07 91.98"/>
  <path fill="none" d="M110.83,117.32 L 76.98 80.66"/>
  <path fill="none" d="M111.4,117.24 L 130.01 79.64"/>
  <path fill="none" d="M90.24,38.01 L 57.15 31.32"/>
  <path fill="none" d="M93.09,40.59 L 104.74 78.14"/>
  <path fill="none" d="M94.64,38.15 L 110.1 36.03"/>
  <path fill="none" d="M90.53,39.64 L 63.63 56.55"/>
  <path fill="none" d="M91.56,40.51 L 76.32 76.88"/>
  <path fill="none" d="M90.81,39.99 L 63.5 66.05"/>
  <path fill="none" d="M90.77,39.95 L 70.81 58.12"/>
  <path fill="none" d="M90.48,37.34 L 81.69 32.33"/>
  <path fill="none" d="M56.06,32.85 L 87.58 86.39"/>
  <path fill="none" d="M54.57,33.15 L 53.61 39.97"/>
  <path fill="none" d="M52.63,30.41 L 27.38 25.38"/>
  <path fill="none" d="M55.91,32.93 L 68.11 57.61"/>
  <path fill="none" d="M105.74,78.06 L 111.96 37.93"/>
  <path fill="none" d="M103.38,81.21 L 77.28 93.5"/>
  <path fill="none" d="M104.18,82.12 L 97.48 92.33"/>
  <path fill="none" d="M104.16,82.11 L 90.27 102.97"/>
  <path fill="none" d="M103.18,80.16 L 77.72 79.08"/>
  <path fill="none" d="M107.75,55.21 L 96.88 92.05"/>
  <path fill="none" d="M107.47,55.03 L 70.78 84.37"/>
  <path fill="none" d="M107.36,54.56 L 55.52 42.75"/>
  <path fill="none" d="M107.95,55.23 L 110.87 87.6"/>
  <path fill="none" d="M108.27,55.09 L 130.01 79.64"/>
  <path fill="none" d="M107.48,54.33 L 81.47 32.65"/>
  <path fill="none" d="M72.47,15.54 L 77.26 61.14"/>
  <path fill="none" d="M71.01,15.19 L 54.55 40.33"/>
  <path fill="none" d="M71.83,15.52 L 68.48 33.82"/>
  <path fill="none" d="M70.73,14.97 L 35.31 53.52"/>
  <path fill="none" d="M111.35,37.74 L 100.65 60.22"/>
  <path fill="none" d="M111.71,37.88 L 96.83 92.04"/>
  <path fill="none" d="M110.08,35.75 L 70.33 36.02"/>
  <path fill="none" d="M110.1,35.43 L 81.96 31.53"/>
  <path fill="none" d="M15.09,50.85 L 33.9 67.29"/>
  <path fill="none" d="M14.21,51.47 L 27.01 82.84"/>
  <path fill="none" d="M15.63,48.91 L 51.04 42.64"/>
  <path fill="none" d="M15.51,50.14 L 59.78 66.8"/>
  <path fill="none" d="M25.04,99.61 L 34.89 70.98"/>
  <path fill="none" d="M25.48,103.86 L 34.51 118.98"/>
  <path fill="none" d="M26.01,100.25 L 60.22 69.1"/>
  <path fill="none" d="M24.74,99.53 L 33.31 57.44"/>
  <path fill="none" d="M37.71,69.8 L 68.72 84.6"/>
  <path fill="none" d="M37.92,68.51 L 75.27 63.66"/>
  <path fill="none" d="M37.87,69.38 L 73.24 78.42"/>
  <path fill="none" d="M35.1,66.57 L 25.62 27.21"/>
  <path fill="none" d="M37.86,68.2 L 66.92 60.26"/>
  <path fill="none" d="M87.8,86.27 L 78.42 65.42"/>
  <path fill="none" d="M87.9,86.23 L 68.9 38.14"/>
  <path fill="none" d="M42.57,107.72 L 61.15 107.74"/>
  <path fill="none" d="M42.06,106.29 L 73.68 80.42"/>
  <path fill="none" d="M35.21,118.7 L 28.39 87.26"/>
  <path fill="none" d="M36.83,118.94 L 68.03 61.66"/>
  <path fill="none" d="M75.62,144.49 L 64.12 109.89"/>
  <path fill="none" d="M74.95,144.84 L 54.53 118.09"/>
  <path fill="none" d="M77.15,144.52 L 95.41 96.39"/>
  <path fill="none" d="M64.81,105.98 L 98.34 63.91"/>
  <path fill="none" d="M64.91,106.06 L 73.68 96.19"/>
  <path fill="none" d="M65.65,107.49 L 86.73 105.13"/>
  <path fill="none" d="M62.3,105.78 L 34.89 57.19"/>
  <path fill="none" d="M100.54,64.23 L 110.23 87.75"/>
  <path fill="none" d="M97.9,63.45 L 77.31 77.69"/>
  <path fill="none" d="M97.54,62.51 L 64.09 67.28"/>
  <path fill="none" d="M98.52,60.36 L 80.96 33.1"/>
  <path fill="none" d="M53.47,114.02 L 61.4 59.96"/>
  <path fill="none" d="M55.32,115.58 L 86.83 105.57"/>
  <path fill="none" d="M54.22,114.26 L 69.24 86.21"/>
  <path fill="none" d="M72.95,94.03 L 30.17 85.45"/>
  <path fill="none" d="M77.04,95.86 L 87.18 103.5"/>
  <path fill="none" d="M74.06,92.49 L 70.43 86.19"/>
  <path fill="none" d="M30.22,85 L 68.6 85.13"/>
  <path fill="none" d="M29.87,83.77 L 67.17 60.85"/>
  <path fill="none" d="M28.34,82.71 L 33.32 57.44"/>
  <path fill="none" d="M94.94,96.15 L 90.29 102.99"/>
  <path fill="none" d="M95.04,92.29 L 78.66 65.29"/>
  <path fill="none" d="M98.42,93.59 L 108.96 90.42"/>
  <path fill="none" d="M63.84,58.5 L 75.38 62.62"/>
  <path fill="none" d="M61.76,59.98 L 61.84 65.35"/>
  <path fill="none" d="M87.41,103.24 L 70.67 86.01"/>
  <path fill="none" d="M87.66,103.03 L 63.19 69.4"/>
  <path fill="none" d="M88.08,102.78 L 70.04 61.75"/>
  <path fill="none" d="M69.38,83.99 L 54.12 44.38"/>
  <path fill="none" d="M70.65,84.23 L 73.91 80.66"/>
  <path fill="none" d="M71.04,85.02 L 130.01 79.64"/>
  <path fill="none" d="M77.21,65.6 L 75.74 76.73"/>
  <path fill="none" d="M75.33,63.96 L 64.04 67.01"/>
  <path fill="none" d="M75.45,62.46 L 71.2 60.58"/>
  <path fill="none" d="M55.4,41.36 L 66 36.91"/>
  <path fill="none" d="M55.41,41.36 L 77.68 32.08"/>
  <path fill="none" d="M51.39,43.51 L 35.67 53.94"/>
  <path fill="none" d="M67.64,38.25 L 62.31 65.39"/>
  <path fill="none" d="M65.89,35.48 L 27.35 25.51"/>
  <path fill="none" d="M109.06,88.88 L 63.92 68.51"/>
  <path fill="none" d="M73.7,77.52 L 63.59 69.03"/>
  <path fill="none" d="M25.72,27.19 L 33.13 53"/>
  <path fill="none" d="M69.92,57.52 L 78.96 33.32"/>
  <path fill="none" d="M77.76,32.26 L 35.79 54.14"/>
</g>
<g stroke-width="0.42" stroke="#D3D3D3" id="img-468da5a2-2">
</g>
<g font-size="4" stroke="#000000" stroke-opacity="0.000" fill="#000000" id="img-468da5a2-3">
</g>
<g stroke-width="0" stroke="#000000" id="img-468da5a2-4">
  <circle cx="132.95" cy="118.45" r="2.25" fill="#0F3769"/>
  <circle cx="121.62" cy="48.02" r="0.48" fill="#FA7968"/>
  <circle cx="17.03" cy="85.6" r="2.19" fill="#3D7EC3"/>
  <circle cx="146.67" cy="105.67" r="2.18" fill="#255C9D"/>
  <circle cx="51.25" cy="93.86" r="2.2" fill="#3D7EC3"/>
  <circle cx="53.56" cy="79.45" r="2.16" fill="#3270B4"/>
  <circle cx="69.26" cy="121.14" r="2.17" fill="#5295D5"/>
  <circle cx="48.21" cy="67.32" r="2.21" fill="#5699D8"/>
  <circle cx="88.62" cy="71.3" r="0.77" fill="#FFB0A0"/>
  <circle cx="89.89" cy="48.47" r="2.2" fill="#84BEEC"/>
  <circle cx="20.72" cy="71.2" r="2.19" fill="#255C9D"/>
  <circle cx="113.44" cy="72.79" r="2.18" fill="#4183C7"/>
  <circle cx="63.99" cy="96.92" r="2.18" fill="#498CCF"/>
  <circle cx="89.9" cy="27.34" r="2.19" fill="#1F518F"/>
  <circle cx="65.47" cy="73.65" r="2.17" fill="#498CCF"/>
  <circle cx="75.57" cy="118.87" r="2.19" fill="#4183C7"/>
  <circle cx="111.17" cy="117.69" r="0.49" fill="#FA7968"/>
  <circle cx="92.43" cy="38.45" r="2.15" fill="#5699D8"/>
  <circle cx="54.89" cy="30.86" r="2.22" fill="#194781"/>
  <circle cx="105.39" cy="80.26" r="2.13" fill="#4183C7"/>
  <circle cx="107.9" cy="54.68" r="0.53" fill="#FE8371"/>
  <circle cx="72.23" cy="13.33" r="2.13" fill="#68A9E2"/>
  <circle cx="112.3" cy="35.73" r="2.13" fill="#63A5E0"/>
  <circle cx="13.33" cy="49.32" r="2.23" fill="#194781"/>
  <circle cx="24.27" cy="101.84" r="2.26" fill="#0C3161"/>
  <circle cx="35.64" cy="68.81" r="2.21" fill="#2F6BAF"/>
  <circle cx="88.73" cy="88.34" r="2.17" fill="#4D90D2"/>
  <circle cx="40.31" cy="107.72" r="2.17" fill="#2861A3"/>
  <circle cx="35.71" cy="121" r="2.25" fill="#123C71"/>
  <circle cx="76.34" cy="146.67" r="2.2" fill="#1F518F"/>
  <circle cx="63.41" cy="107.75" r="2.17" fill="#2861A3"/>
  <circle cx="99.71" cy="62.2" r="2.1" fill="#4183C7"/>
  <circle cx="53.14" cy="116.27" r="2.19" fill="#3D7EC3"/>
  <circle cx="75.2" cy="94.48" r="2.2" fill="#6DADE4"/>
  <circle cx="27.89" cy="84.99" r="2.23" fill="#2F6BAF"/>
  <circle cx="96.23" cy="94.25" r="2.2" fill="#71B0E6"/>
  <circle cx="61.73" cy="57.74" r="2.15" fill="#2C66A9"/>
  <circle cx="89" cy="104.87" r="2.19" fill="#5FA1DD"/>
  <circle cx="69.82" cy="85.13" r="1.17" fill="#FFDFD6"/>
  <circle cx="77.5" cy="63.37" r="2.16" fill="#3270B4"/>
  <circle cx="53.29" cy="42.24" r="2.2" fill="#5699D8"/>
  <circle cx="68.08" cy="36.04" r="2.16" fill="#4D90D2"/>
  <circle cx="111.06" cy="89.78" r="2.11" fill="#A5D3F4"/>
  <circle cx="75.44" cy="78.98" r="2.18" fill="#63A5E0"/>
  <circle cx="61.88" cy="67.59" r="2.15" fill="#3270B4"/>
  <circle cx="25.07" cy="24.92" r="2.26" fill="#0F3769"/>
  <circle cx="130.01" cy="79.64" r="0" fill="#6A0303"/>
  <circle cx="69.12" cy="59.66" r="2.19" fill="#225796"/>
  <circle cx="79.75" cy="31.22" r="2.15" fill="#5FA1DD"/>
  <circle cx="33.76" cy="55.2" r="2.2" fill="#225796"/>
</g>
<g font-size="4" stroke="#000000" stroke-opacity="0.000" fill="#000000" id="img-468da5a2-5">
</g>
</svg>
