<?xml version="1.0" encoding="UTF-8"?>
<svg xmlns="http://www.w3.org/2000/svg"
     xmlns:xlink="http://www.w3.org/1999/xlink"
     xmlns:gadfly="http://www.gadflyjl.org/ns"
     version="1.2"
     width="160mm" height="160mm" viewBox="0 0 160 160"
     stroke="none"
     fill="#000000"
     stroke-width="0.3"
     font-size="3.88"
>
<g stroke-width="0.42" fill="#000000" fill-opacity="0.000" stroke="#D3D3D3" id="img-5ce4ffcd-1">
  <path fill="none" d="M37.25,29.93 L 46.57 46.66"/>
  <path fill="none" d="M34.55,29.46 L 29.31 34.04"/>
  <path fill="none" d="M35.44,26 L 31.95 16.49"/>
  <path fill="none" d="M36.89,30.1 L 51.57 73.52"/>
  <path fill="none" d="M38.28,28.65 L 90.32 43.94"/>
  <path fill="none" d="M38.32,27.58 L 57.99 23.35"/>
  <path fill="none" d="M36.43,30.2 L 39.94 62.1"/>
  <path fill="none" d="M38.31,27.55 L 47.11 25.52"/>
  <path fill="none" d="M45.81,47.37 L 29.49 36.65"/>
  <path fill="none" d="M46.68,46.6 L 32.15 16.4"/>
  <path fill="none" d="M49.28,47.14 L 55.53 41.74"/>
  <path fill="none" d="M48.69,50.47 L 55.6 62.95"/>
  <path fill="none" d="M48.77,50.43 L 84.36 108.3"/>
  <path fill="none" d="M47.79,50.74 L 50.89 92.33"/>
  <path fill="none" d="M49.07,46.93 L 77.29 14.96"/>
  <path fill="none" d="M49.78,48.91 L 79.8 53.74"/>
  <path fill="none" d="M46.69,50.54 L 41.11 62.3"/>
  <path fill="none" d="M47.78,46.39 L 49.08 27.2"/>
  <path fill="none" d="M28.03,33.32 L 30.83 16.59"/>
  <path fill="none" d="M29.81,35.81 L 55.03 39.96"/>
  <path fill="none" d="M29.2,37.01 L 55.12 63.31"/>
  <path fill="none" d="M27.28,37.59 L 24.95 50.08"/>
  <path fill="none" d="M29.53,36.59 L 80.23 67.45"/>
  <path fill="none" d="M29.63,34.52 L 47.27 25.98"/>
  <path fill="none" d="M32.75,15.97 L 55.64 38.77"/>
  <path fill="none" d="M30.82,16.59 L 24.93 50.08"/>
  <path fill="none" d="M30.29,16.43 L 14.28 51.91"/>
  <path fill="none" d="M33.38,14.66 L 95.43 21.45"/>
  <path fill="none" d="M33.09,15.54 L 47.35 23.93"/>
  <path fill="none" d="M57.14,42.49 L 56.72 62.68"/>
  <path fill="none" d="M55.13,41.06 L 26.64 51.51"/>
  <path fill="none" d="M55.1,40.96 L 15.53 53.32"/>
  <path fill="none" d="M56.31,42.31 L 36.93 86.68"/>
  <path fill="none" d="M59.18,41.19 L 119.17 67.54"/>
  <path fill="none" d="M59.37,40.38 L 107.51 41.88"/>
  <path fill="none" d="M58.55,38.6 L 77.38 15.03"/>
  <path fill="none" d="M54.61,64.08 L 26.62 53.1"/>
  <path fill="none" d="M58.18,66.51 L 67.06 76.08"/>
  <path fill="none" d="M58.86,65.22 L 98.09 71.16"/>
  <path fill="none" d="M58.77,65.58 L 111.56 83"/>
  <path fill="none" d="M56.61,67.1 L 55.23 116.61"/>
  <path fill="none" d="M22.32,52.62 L 15.61 53.65"/>
  <path fill="none" d="M24.12,54.49 L 18.54 84.06"/>
  <path fill="none" d="M25.21,54.42 L 35.33 86.6"/>
  <path fill="none" d="M26.15,53.84 L 60.76 87.11"/>
  <path fill="none" d="M26.26,50.86 L 58.42 24.26"/>
  <path fill="none" d="M13.67,56.28 L 17.76 84.04"/>
  <path fill="none" d="M15.45,54.91 L 66.53 76.84"/>
  <path fill="none" d="M14.25,56.11 L 31.7 96.46"/>
  <path fill="none" d="M15.12,52.56 L 47.53 26.4"/>
  <path fill="none" d="M20.42,85.98 L 66.38 78.09"/>
  <path fill="none" d="M19.9,87.89 L 30.85 97.09"/>
  <path fill="none" d="M20.43,86.69 L 33.75 88.47"/>
  <path fill="none" d="M20.35,85.67 L 50.16 76.3"/>
  <path fill="none" d="M20.38,86.95 L 76.59 101.04"/>
  <path fill="none" d="M66.47,78.43 L 38.18 88.04"/>
  <path fill="none" d="M66.37,77.43 L 54.5 75.92"/>
  <path fill="none" d="M70.63,78.57 L 124.75 101.04"/>
  <path fill="none" d="M70.78,78.01 L 111.47 83.41"/>
  <path fill="none" d="M70.63,76.87 L 119.21 56.82"/>
  <path fill="none" d="M33.36,96.4 L 35.26 90.94"/>
  <path fill="none" d="M34.1,96.83 L 50.83 77.33"/>
  <path fill="none" d="M34.89,98.31 L 83.84 92.74"/>
  <path fill="none" d="M34.83,98 L 90.02 83.93"/>
  <path fill="none" d="M34.79,97.84 L 60.27 89.29"/>
  <path fill="none" d="M37.79,87.34 L 50.55 77.04"/>
  <path fill="none" d="M38.29,88.95 L 83.83 92.32"/>
  <path fill="none" d="M37.83,90.16 L 70.88 115.34"/>
  <path fill="none" d="M37.24,90.71 L 53.95 116.96"/>
  <path fill="none" d="M54.28,76.63 L 84.06 91.5"/>
  <path fill="none" d="M54.47,76.06 L 90 82.95"/>
  <path fill="none" d="M53.28,77.63 L 71.67 114.68"/>
  <path fill="none" d="M54.19,74.48 L 107.59 42.2"/>
  <path fill="none" d="M50.66,74.11 L 41.77 65.77"/>
  <path fill="none" d="M84.96,94.42 L 73.75 114.73"/>
  <path fill="none" d="M87.8,93.8 L 102.77 104.86"/>
  <path fill="none" d="M87.78,93.82 L 120.81 118.89"/>
  <path fill="none" d="M87.85,91.24 L 119.36 69.68"/>
  <path fill="none" d="M87.96,91.43 L 136.87 64.67"/>
  <path fill="none" d="M85.79,90.29 L 82.12 56.18"/>
  <path fill="none" d="M93.27,85.35 L 103.52 104.21"/>
  <path fill="none" d="M93.63,85.11 L 121.19 118.5"/>
  <path fill="none" d="M91.66,85.56 L 86.11 108.03"/>
  <path fill="none" d="M92.9,81.25 L 112.42 21.39"/>
  <path fill="none" d="M74.81,116 L 102.44 106.94"/>
  <path fill="none" d="M74.68,115.69 L 83.52 111.27"/>
  <path fill="none" d="M74.66,117.75 L 108.99 135.88"/>
  <path fill="none" d="M73.05,118.92 L 77.52 144.43"/>
  <path fill="none" d="M73.64,114.67 L 98.92 61.75"/>
  <path fill="none" d="M106.42,107.63 L 120.83 118.86"/>
  <path fill="none" d="M102.36,105.82 L 81.16 102.02"/>
  <path fill="none" d="M106.87,105.79 L 124.62 102.34"/>
  <path fill="none" d="M103.69,108.32 L 98.04 121.14"/>
  <path fill="none" d="M103.7,104.12 L 82.74 56.02"/>
  <path fill="none" d="M120.42,119.69 L 87.76 110.84"/>
  <path fill="none" d="M120.52,119.38 L 81.01 102.53"/>
  <path fill="none" d="M123.19,118.02 L 126.34 104.11"/>
  <path fill="none" d="M124.64,119.04 L 144.8 106.06"/>
  <path fill="none" d="M84.16,108.45 L 80.29 103.46"/>
  <path fill="none" d="M87.22,108.68 L 112.05 85.21"/>
  <path fill="none" d="M87.13,111.9 L 109.42 135.31"/>
  <path fill="none" d="M83.48,109.3 L 53.04 95.41"/>
  <path fill="none" d="M81.2,101.63 L 124.58 101.89"/>
  <path fill="none" d="M80.21,99.7 L 98.99 73.28"/>
  <path fill="none" d="M77.18,99.99 L 41.75 65.79"/>
  <path fill="none" d="M129.08,102.24 L 144.47 104.53"/>
  <path fill="none" d="M126.46,99.68 L 121.55 70.61"/>
  <path fill="none" d="M125.52,100.07 L 114.95 85.49"/>
  <path fill="none" d="M125.41,103.66 L 109.64 123"/>
  <path fill="none" d="M145.39,103.03 L 122.45 70.24"/>
  <path fill="none" d="M144.86,103.56 L 102.05 72.77"/>
  <path fill="none" d="M144.8,103.65 L 115.52 84.89"/>
  <path fill="none" d="M145.01,106.34 L 112.6 135.43"/>
  <path fill="none" d="M119,68.75 L 102.44 71.17"/>
  <path fill="none" d="M120.21,70.41 L 114.63 81.71"/>
  <path fill="none" d="M119.47,67.05 L 91.48 44.54"/>
  <path fill="none" d="M120.21,66.45 L 108.34 42.42"/>
  <path fill="none" d="M100.13,73.69 L 97.29 120.96"/>
  <path fill="none" d="M98.26,72.39 L 64.27 87.71"/>
  <path fill="none" d="M100.83,69.36 L 107.94 42.46"/>
  <path fill="none" d="M101.67,69.8 L 128.07 38.11"/>
  <path fill="none" d="M98.64,70.01 L 50.83 26.5"/>
  <path fill="none" d="M113.55,85.9 L 111.06 134.7"/>
  <path fill="none" d="M113.37,85.89 L 108.55 122.53"/>
  <path fill="none" d="M114.33,81.59 L 128.24 38.2"/>
  <path fill="none" d="M113.06,81.57 L 96.37 22.25"/>
  <path fill="none" d="M109.38,135.35 L 98.71 124.68"/>
  <path fill="none" d="M110.47,134.75 L 108.73 126.83"/>
  <path fill="none" d="M111.37,134.74 L 116.7 107.32"/>
  <path fill="none" d="M108.82,137.55 L 80.08 146.03"/>
  <path fill="none" d="M108.78,136.45 L 76.75 129.51"/>
  <path fill="none" d="M99.32,123.44 L 106.1 124.39"/>
  <path fill="none" d="M98.79,121.68 L 115.5 106.64"/>
  <path fill="none" d="M95.78,124.83 L 79.34 144.91"/>
  <path fill="none" d="M94.99,122.92 L 57.41 119.09"/>
  <path fill="none" d="M97.25,120.96 L 99.63 61.93"/>
  <path fill="none" d="M109.17,122.7 L 116.22 107.16"/>
  <path fill="none" d="M106.49,125.98 L 79.74 145.34"/>
  <path fill="none" d="M106.09,124.46 L 57.41 119.11"/>
  <path fill="none" d="M107.97,122.53 L 99.94 61.91"/>
  <path fill="none" d="M115.23,106.25 L 76.52 128.01"/>
  <path fill="none" d="M117.23,103.01 L 119.67 57.14"/>
  <path fill="none" d="M118.08,103.24 L 137.06 64.85"/>
  <path fill="none" d="M115.89,103.39 L 83.1 55.82"/>
  <path fill="none" d="M76.47,144.91 L 56.59 120.61"/>
  <path fill="none" d="M77.5,144.44 L 75.04 131.17"/>
  <path fill="none" d="M77.32,144.48 L 62.87 90.68"/>
  <path fill="none" d="M57.16,119.91 L 72.75 128.06"/>
  <path fill="none" d="M55.68,116.67 L 61.81 90.7"/>
  <path fill="none" d="M54.57,116.69 L 40.75 66.38"/>
  <path fill="none" d="M74.02,127 L 62.94 90.66"/>
  <path fill="none" d="M73.44,127.28 L 52.28 96.31"/>
  <path fill="none" d="M74.9,126.92 L 81.46 69.94"/>
  <path fill="none" d="M60.4,89.6 L 52.99 93.49"/>
  <path fill="none" d="M63.79,87.04 L 80.51 69.5"/>
  <path fill="none" d="M63.48,86.79 L 90.6 44.69"/>
  <path fill="none" d="M62.67,86.48 L 72.61 28.84"/>
  <path fill="none" d="M52.41,92.8 L 90.55 44.65"/>
  <path fill="none" d="M50.32,92.46 L 40.92 66.33"/>
  <path fill="none" d="M83.22,67.82 L 119.19 56.77"/>
  <path fill="none" d="M82.24,66.76 L 90.72 44.75"/>
  <path fill="none" d="M83.29,68.19 L 136.81 64.49"/>
  <path fill="none" d="M119.21,56.41 L 91.57 44.39"/>
  <path fill="none" d="M120.18,56.83 L 136.85 64.28"/>
  <path fill="none" d="M119.93,56.14 L 136.17 22.36"/>
  <path fill="none" d="M119.37,56.2 L 108.45 42.35"/>
  <path fill="none" d="M119.18,56.71 L 101.5 59.79"/>
  <path fill="none" d="M91.56,43.83 L 136.17 22.36"/>
  <path fill="none" d="M91.62,44.04 L 107.52 41.98"/>
  <path fill="none" d="M91.62,44.01 L 127.9 37.81"/>
  <path fill="none" d="M91.11,43.47 L 96 22.26"/>
  <path fill="none" d="M137.24,64.03 L 136.17 22.36"/>
  <path fill="none" d="M136.9,64.19 L 108.54 42.25"/>
  <path fill="none" d="M136.17,22.36 L 108.56 41.57"/>
  <path fill="none" d="M136.17,22.36 L 128.61 37.29"/>
  <path fill="none" d="M136.17,22.36 L 113.15 20.9"/>
  <path fill="none" d="M136.17,22.36 L 96.91 21.55"/>
  <path fill="none" d="M108.65,41.79 L 127.91 37.83"/>
  <path fill="none" d="M128.05,37.37 L 112.97 21.27"/>
  <path fill="none" d="M127.95,37.51 L 96.83 21.87"/>
  <path fill="none" d="M128,38.03 L 101.14 58.99"/>
  <path fill="none" d="M112.04,20.89 L 96.91 21.5"/>
  <path fill="none" d="M112.42,21.39 L 100.27 58.38"/>
  <path fill="none" d="M112.05,20.94 L 75.12 26.38"/>
  <path fill="none" d="M112.05,20.74 L 80.86 13.81"/>
  <path fill="none" d="M96.24,22.27 L 99.54 58.29"/>
  <path fill="none" d="M95.44,21.7 L 75.09 26.23"/>
  <path fill="none" d="M95.5,21.22 L 80.7 14.26"/>
  <path fill="none" d="M95.43,21.56 L 62.18 22.83"/>
  <path fill="none" d="M98.96,58.44 L 79.62 15.32"/>
  <path fill="none" d="M98.38,58.86 L 61.61 24.36"/>
  <path fill="none" d="M97.98,59.52 L 83.9 54.75"/>
  <path fill="none" d="M73.83,24.71 L 77.87 15.33"/>
  <path fill="none" d="M70.89,26.09 L 62.1 23.51"/>
  <path fill="none" d="M71.55,28.34 L 41.61 62.63"/>
  <path fill="none" d="M78.9,15.5 L 81.73 51.96"/>
  <path fill="none" d="M76.71,14.14 L 51.24 24.23"/>
  <path fill="none" d="M61.28,24.65 L 80.68 52.33"/>
  <path fill="none" d="M59.14,24.82 L 41.12 62.3"/>
  <path fill="none" d="M80.31,52.66 L 50.84 26.48"/>
</g>
<g stroke-width="0.42" stroke="#D3D3D3" id="img-5ce4ffcd-2">
</g>
<g font-size="4" stroke="#000000" stroke-opacity="0.000" fill="#000000" id="img-5ce4ffcd-3">
</g>
<g stroke-width="0" stroke="#000000" id="img-5ce4ffcd-4">
  <circle cx="36.19" cy="28.04" r="2.09" fill="#5598D8"/>
  <circle cx="47.63" cy="48.57" r="2.09" fill="#3471B6"/>
  <circle cx="27.67" cy="35.46" r="2.08" fill="#3776BB"/>
  <circle cx="31.2" cy="14.42" r="2.11" fill="#498CCF"/>
  <circle cx="57.18" cy="40.31" r="2.1" fill="#5598D8"/>
  <circle cx="56.67" cy="64.89" r="2.12" fill="#2D68AC"/>
  <circle cx="24.54" cy="52.29" r="2.15" fill="#24599A"/>
  <circle cx="13.33" cy="54" r="2.21" fill="#18457F"/>
  <circle cx="18.1" cy="86.37" r="2.26" fill="#0C3160"/>
  <circle cx="68.57" cy="77.71" r="2.14" fill="#498CCF"/>
  <circle cx="32.61" cy="98.57" r="2.2" fill="#1B4A86"/>
  <circle cx="36.01" cy="88.78" r="2.19" fill="#1E4F8D"/>
  <circle cx="52.29" cy="75.63" r="2.14" fill="#4588CB"/>
  <circle cx="86.03" cy="92.49" r="2.12" fill="#5194D5"/>
  <circle cx="92.2" cy="83.38" r="2.15" fill="#4588CB"/>
  <circle cx="72.67" cy="116.7" r="2.16" fill="#275EA0"/>
  <circle cx="104.61" cy="106.22" r="2.2" fill="#18457F"/>
  <circle cx="122.68" cy="120.3" r="2.25" fill="#0F3668"/>
  <circle cx="85.56" cy="110.25" r="2.19" fill="#1E4F8D"/>
  <circle cx="78.86" cy="101.61" r="2.25" fill="#0F3668"/>
  <circle cx="126.84" cy="101.91" r="2.17" fill="#24599A"/>
  <circle cx="146.67" cy="104.85" r="2.13" fill="#2D68AC"/>
  <circle cx="121.18" cy="68.43" r="2.12" fill="#93C8F0"/>
  <circle cx="100.27" cy="71.49" r="2.11" fill="#86BFED"/>
  <circle cx="113.66" cy="83.7" r="2.12" fill="#74B2E7"/>
  <circle cx="110.95" cy="136.92" r="2.13" fill="#2A63A6"/>
  <circle cx="97.16" cy="123.14" r="2.1" fill="#3776BB"/>
  <circle cx="108.26" cy="124.69" r="2.1" fill="#3776BB"/>
  <circle cx="117.12" cy="105.18" r="2.09" fill="#9CCEF2"/>
  <circle cx="77.91" cy="146.67" r="2.18" fill="#1B4A86"/>
  <circle cx="55.16" cy="118.86" r="2.17" fill="#1B4A86"/>
  <circle cx="74.65" cy="129.06" r="2.06" fill="#3E7FC4"/>
  <circle cx="62.31" cy="88.6" r="2.07" fill="#67A8E1"/>
  <circle cx="51.06" cy="94.51" r="2.09" fill="#5194D5"/>
  <circle cx="81.64" cy="68.3" r="1.59" fill="#E4F4FD"/>
  <circle cx="119.7" cy="56.62" r="0.51" fill="#FC7C6B"/>
  <circle cx="90.96" cy="44.12" r="0.64" fill="#FF9886"/>
  <circle cx="137.25" cy="64.46" r="0.42" fill="#F16958"/>
  <circle cx="136.17" cy="22.36" r="0" fill="#6A0303"/>
  <circle cx="108.09" cy="41.9" r="0.55" fill="#FF8674"/>
  <circle cx="128.39" cy="37.73" r="0.47" fill="#F97866"/>
  <circle cx="112.59" cy="20.86" r="0.53" fill="#FE816F"/>
  <circle cx="96.17" cy="21.53" r="0.71" fill="#FFA594"/>
  <circle cx="99.7" cy="60.11" r="1.75" fill="#D5EDFB"/>
  <circle cx="72.97" cy="26.7" r="2.08" fill="#ADD8F5"/>
  <circle cx="78.73" cy="13.33" r="2.09" fill="#A4D3F4"/>
  <circle cx="60.06" cy="22.91" r="2.04" fill="#78B6E8"/>
  <circle cx="81.89" cy="54.07" r="2.04" fill="#5194D5"/>
  <circle cx="40.17" cy="64.27" r="2.1" fill="#3471B6"/>
  <circle cx="49.22" cy="25.03" r="2.08" fill="#3776BB"/>
</g>
<g font-size="4" stroke="#000000" stroke-opacity="0.000" fill="#000000" id="img-5ce4ffcd-5">
</g>
</svg>
