<?xml version="1.0" encoding="UTF-8"?>
<svg xmlns="http://www.w3.org/2000/svg"
     xmlns:xlink="http://www.w3.org/1999/xlink"
     xmlns:gadfly="http://www.gadflyjl.org/ns"
     version="1.2"
     width="160mm" height="160mm" viewBox="0 0 160 160"
     stroke="none"
     fill="#000000"
     stroke-width="0.3"
     font-size="3.88"
>
<g stroke-width="0.42" fill="#000000" fill-opacity="0.000" stroke="#D3D3D3" id="img-815d74f8-1">
  <path fill="none" d="M100.1,112.84 L 117.18 119.06"/>
  <path fill="none" d="M100.11,112.83 L 144.88 103.99"/>
  <path fill="none" d="M100.1,112.81 L 133.09 81.43"/>
  <path fill="none" d="M100.06,112.81 L 69.9 49.45"/>
  <path fill="none" d="M100.05,112.85 L 71.92 137.12"/>
  <path fill="none" d="M100.05,112.83 L 49.58 114.94"/>
  <path fill="none" d="M100.06,112.86 L 82.91 140.64"/>
  <path fill="none" d="M100.05,112.85 L 83.62 121.29"/>
  <path fill="none" d="M100.07,112.86 L 94.24 146.24"/>
  <path fill="none" d="M117.33,106.22 L 117.19 119.05"/>
  <path fill="none" d="M117.33,106.22 L 119.75 140.5"/>
  <path fill="none" d="M117.33,106.21 L 90.55 36.35"/>
  <path fill="none" d="M117.33,106.21 L 115.76 54.37"/>
  <path fill="none" d="M117.33,106.22 L 83 140.71"/>
  <path fill="none" d="M117.33,106.21 L 83.62 121.29"/>
  <path fill="none" d="M117.33,106.22 L 94.38 146.29"/>
  <path fill="none" d="M117.2,119.06 L 144.88 103.99"/>
  <path fill="none" d="M117.19,119.08 L 119.74 140.5"/>
  <path fill="none" d="M117.19,119.05 L 120.19 85.77"/>
  <path fill="none" d="M117.19,119.05 L 115.76 54.37"/>
  <path fill="none" d="M117.18,119.06 L 51.38 101.82"/>
  <path fill="none" d="M117.18,119.07 L 83.07 140.8"/>
  <path fill="none" d="M117.18,119.08 L 94.45 146.34"/>
  <path fill="none" d="M144.89,103.99 L 119.79 140.51"/>
  <path fill="none" d="M144.89,103.98 L 146.67 56.65"/>
  <path fill="none" d="M144.89,103.98 L 120.19 85.77"/>
  <path fill="none" d="M144.89,103.98 L 138.07 47.3"/>
  <path fill="none" d="M144.88,103.99 L 102.51 122.31"/>
  <path fill="none" d="M119.75,140.5 L 120.19 85.77"/>
  <path fill="none" d="M119.68,140.57 L 59.8 145.7"/>
  <path fill="none" d="M119.69,140.53 L 83.62 121.31"/>
  <path fill="none" d="M119.69,140.58 L 94.59 146.57"/>
  <path fill="none" d="M146.67,56.65 L 120.19 85.77"/>
  <path fill="none" d="M146.67,56.65 L 138.08 47.3"/>
  <path fill="none" d="M146.67,56.65 L 92.67 64.78"/>
  <path fill="none" d="M146.67,56.65 L 107.91 18.46"/>
  <path fill="none" d="M146.67,56.65 L 109.26 76.81"/>
  <path fill="none" d="M120.19,85.77 L 138.07 47.3"/>
  <path fill="none" d="M120.19,85.77 L 126.26 72.4"/>
  <path fill="none" d="M120.19,85.77 L 82.59 73.3"/>
  <path fill="none" d="M120.19,85.77 L 108.87 63.89"/>
  <path fill="none" d="M120.19,85.77 L 106.68 47.92"/>
  <path fill="none" d="M120.19,85.77 L 44.2 78.3"/>
  <path fill="none" d="M138.07,47.3 L 126.27 72.39"/>
  <path fill="none" d="M138.07,47.3 L 133.32 80.97"/>
  <path fill="none" d="M138.07,47.3 L 108.87 63.87"/>
  <path fill="none" d="M138.07,47.29 L 76.94 13.33"/>
  <path fill="none" d="M126.26,72.39 L 82.59 73.3"/>
  <path fill="none" d="M126.26,72.39 L 108.87 63.88"/>
  <path fill="none" d="M126.26,72.39 L 85.98 86.49"/>
  <path fill="none" d="M126.26,72.39 L 80.56 105.14"/>
  <path fill="none" d="M133.02,81.2 L 82.59 73.3"/>
  <path fill="none" d="M133.02,81.27 L 85.98 86.49"/>
  <path fill="none" d="M133.04,81.14 L 92.66 64.82"/>
  <path fill="none" d="M82.59,73.3 L 108.86 63.88"/>
  <path fill="none" d="M82.59,73.3 L 85.97 86.49"/>
  <path fill="none" d="M82.59,73.3 L 92.54 64.84"/>
  <path fill="none" d="M82.59,73.3 L 90.55 36.35"/>
  <path fill="none" d="M82.59,73.3 L 92.38 50.3"/>
  <path fill="none" d="M82.59,73.3 L 29.76 86.7"/>
  <path fill="none" d="M82.59,73.3 L 51.33 101.64"/>
  <path fill="none" d="M82.59,73.3 L 40.12 91.93"/>
  <path fill="none" d="M108.86,63.88 L 85.98 86.49"/>
  <path fill="none" d="M108.86,63.88 L 92.67 64.79"/>
  <path fill="none" d="M108.86,63.87 L 61.64 35.01"/>
  <path fill="none" d="M108.86,63.89 L 102.51 122.31"/>
  <path fill="none" d="M85.97,86.49 L 59.35 57.52"/>
  <path fill="none" d="M85.97,86.49 L 76.69 57.87"/>
  <path fill="none" d="M85.97,86.5 L 62.5 128.74"/>
  <path fill="none" d="M85.97,86.49 L 49.56 114.88"/>
  <path fill="none" d="M85.97,86.5 L 83.59 121.27"/>
  <path fill="none" d="M92.55,64.75 L 61.63 35.02"/>
  <path fill="none" d="M92.53,64.78 L 59.35 57.51"/>
  <path fill="none" d="M92.54,64.83 L 54.3 89.41"/>
  <path fill="none" d="M92.57,64.86 L 68.61 111.92"/>
  <path fill="none" d="M61.51,34.95 L 38.58 29.29"/>
  <path fill="none" d="M61.58,35.04 L 59.34 57.49"/>
  <path fill="none" d="M61.57,35.04 L 54.29 89.4"/>
  <path fill="none" d="M61.62,34.91 L 76.94 13.33"/>
  <path fill="none" d="M38.58,29.29 L 59.33 57.49"/>
  <path fill="none" d="M38.58,29.29 L 76.94 13.33"/>
  <path fill="none" d="M38.58,29.29 L 52.55 16.18"/>
  <path fill="none" d="M38.58,29.29 L 69.9 49.45"/>
  <path fill="none" d="M38.58,29.29 L 90.55 36.35"/>
  <path fill="none" d="M38.58,29.29 L 14.36 85.86"/>
  <path fill="none" d="M59.33,57.52 L 54.29 89.4"/>
  <path fill="none" d="M59.34,57.49 L 76.94 13.33"/>
  <path fill="none" d="M59.34,57.49 L 86.02 15.94"/>
  <path fill="none" d="M59.33,57.52 L 51.22 101.57"/>
  <path fill="none" d="M59.34,57.52 L 83.58 121.27"/>
  <path fill="none" d="M54.29,89.4 L 69.9 49.45"/>
  <path fill="none" d="M54.29,89.44 L 71.92 137.12"/>
  <path fill="none" d="M54.28,89.44 L 43.32 122.94"/>
  <path fill="none" d="M54.27,89.43 L 32.37 103.65"/>
  <path fill="none" d="M54.26,89.42 L 40.12 91.94"/>
  <path fill="none" d="M54.27,89.43 L 15.27 116.49"/>
  <path fill="none" d="M54.29,89.44 L 82.4 140.63"/>
  <path fill="none" d="M76.94,13.33 L 52.55 16.18"/>
  <path fill="none" d="M76.94,13.33 L 86.02 15.94"/>
  <path fill="none" d="M76.94,13.33 L 90.55 36.35"/>
  <path fill="none" d="M76.94,13.33 L 92.38 50.3"/>
  <path fill="none" d="M52.55,16.18 L 86.02 15.94"/>
  <path fill="none" d="M52.55,16.18 L 69.9 49.45"/>
  <path fill="none" d="M52.55,16.18 L 107.91 18.46"/>
  <path fill="none" d="M52.55,16.18 L 29.7 86.64"/>
  <path fill="none" d="M86.02,15.94 L 69.9 49.45"/>
  <path fill="none" d="M86.02,15.94 L 90.55 36.35"/>
  <path fill="none" d="M86.02,15.94 L 107.91 18.46"/>
  <path fill="none" d="M86.02,15.94 L 115.76 54.37"/>
  <path fill="none" d="M86.02,15.94 L 76.69 57.87"/>
  <path fill="none" d="M69.9,49.45 L 90.55 36.35"/>
  <path fill="none" d="M69.9,49.45 L 115.76 54.37"/>
  <path fill="none" d="M69.9,49.45 L 106.68 47.92"/>
  <path fill="none" d="M69.9,49.45 L 40.11 91.93"/>
  <path fill="none" d="M90.55,36.35 L 115.76 54.37"/>
  <path fill="none" d="M90.55,36.35 L 106.68 47.92"/>
  <path fill="none" d="M107.91,18.46 L 115.76 54.37"/>
  <path fill="none" d="M107.91,18.46 L 106.68 47.92"/>
  <path fill="none" d="M107.91,18.46 L 76.69 57.87"/>
  <path fill="none" d="M107.91,18.46 L 92.38 50.3"/>
  <path fill="none" d="M115.76,54.37 L 92.38 50.3"/>
  <path fill="none" d="M115.76,54.37 L 109.26 76.81"/>
  <path fill="none" d="M115.76,54.37 L 104.41 92"/>
  <path fill="none" d="M106.68,47.92 L 76.69 57.87"/>
  <path fill="none" d="M106.68,47.92 L 92.38 50.3"/>
  <path fill="none" d="M106.68,47.92 L 109.26 76.81"/>
  <path fill="none" d="M106.68,47.92 L 104.41 92"/>
  <path fill="none" d="M106.68,47.92 L 88.55 95.53"/>
  <path fill="none" d="M76.69,57.87 L 109.26 76.81"/>
  <path fill="none" d="M76.69,57.87 L 104.41 92"/>
  <path fill="none" d="M76.69,57.87 L 32.37 103.65"/>
  <path fill="none" d="M76.69,57.87 L 44.2 78.3"/>
  <path fill="none" d="M92.38,50.3 L 109.26 76.81"/>
  <path fill="none" d="M92.38,50.3 L 88.55 95.53"/>
  <path fill="none" d="M92.38,50.3 L 68.6 111.92"/>
  <path fill="none" d="M109.26,76.81 L 80.56 105.14"/>
  <path fill="none" d="M109.26,76.81 L 104.41 92"/>
  <path fill="none" d="M109.26,76.81 L 88.55 95.53"/>
  <path fill="none" d="M109.26,76.81 L 83.61 121.28"/>
  <path fill="none" d="M80.56,105.14 L 104.41 92"/>
  <path fill="none" d="M80.56,105.14 L 88.55 95.53"/>
  <path fill="none" d="M80.56,105.14 L 102.51 122.31"/>
  <path fill="none" d="M80.56,105.14 L 62.5 128.74"/>
  <path fill="none" d="M80.56,105.14 L 71.92 137.12"/>
  <path fill="none" d="M80.56,105.14 L 32.37 103.65"/>
  <path fill="none" d="M80.56,105.14 L 40.12 91.94"/>
  <path fill="none" d="M104.41,92 L 88.55 95.53"/>
  <path fill="none" d="M104.41,92 L 102.51 122.31"/>
  <path fill="none" d="M104.41,92 L 71.92 137.12"/>
  <path fill="none" d="M88.55,95.53 L 102.51 122.31"/>
  <path fill="none" d="M88.55,95.53 L 62.5 128.74"/>
  <path fill="none" d="M88.55,95.53 L 43.32 122.94"/>
  <path fill="none" d="M102.51,122.31 L 62.5 128.74"/>
  <path fill="none" d="M102.51,122.31 L 43.32 122.94"/>
  <path fill="none" d="M62.5,128.74 L 71.92 137.12"/>
  <path fill="none" d="M62.5,128.74 L 43.32 122.94"/>
  <path fill="none" d="M62.5,128.74 L 32.37 103.65"/>
  <path fill="none" d="M62.5,128.74 L 49.54 115.02"/>
  <path fill="none" d="M71.92,137.12 L 43.32 122.94"/>
  <path fill="none" d="M43.32,122.94 L 49.41 115.02"/>
  <path fill="none" d="M43.32,122.94 L 14.42 86.31"/>
  <path fill="none" d="M43.32,122.94 L 29.7 86.8"/>
  <path fill="none" d="M32.37,103.65 L 49.39 114.88"/>
  <path fill="none" d="M32.36,103.65 L 29.69 86.81"/>
  <path fill="none" d="M49.39,114.88 L 14.46 86.27"/>
  <path fill="none" d="M49.41,114.86 L 29.72 86.79"/>
  <path fill="none" d="M49.46,114.84 L 44.19 78.3"/>
  <path fill="none" d="M49.49,114.84 L 51.16 101.97"/>
  <path fill="none" d="M49.56,115 L 93.82 146.42"/>
  <path fill="none" d="M14.51,86.03 L 44.19 78.3"/>
  <path fill="none" d="M14.49,86.2 L 51 101.69"/>
  <path fill="none" d="M14.51,86.16 L 40.1 91.94"/>
  <path fill="none" d="M14.25,86.36 L 13.4 115.48"/>
  <path fill="none" d="M29.75,86.68 L 44.19 78.3"/>
  <path fill="none" d="M29.74,86.77 L 51.02 101.66"/>
  <path fill="none" d="M29.63,86.8 L 14.43 115.75"/>
  <path fill="none" d="M29.71,86.8 L 57.08 144.15"/>
  <path fill="none" d="M44.19,78.3 L 51.13 101.58"/>
  <path fill="none" d="M44.19,78.3 L 14.78 115.98"/>
  <path fill="none" d="M51.04,101.64 L 40.12 91.95"/>
  <path fill="none" d="M51.13,101.96 L 40.31 137.55"/>
  <path fill="none" d="M51.36,101.87 L 68.54 111.94"/>
  <path fill="none" d="M40.11,91.95 L 39.73 137.46"/>
  <path fill="none" d="M40.12,91.95 L 68.54 111.94"/>
  <path fill="none" d="M15.15,119.33 L 38.13 138.21"/>
  <path fill="none" d="M15.33,119.09 L 56.28 144.85"/>
  <path fill="none" d="M41.2,138.09 L 68.55 112"/>
  <path fill="none" d="M41.65,140.18 L 56.1 145.24"/>
  <path fill="none" d="M41.76,139.58 L 82.13 141.05"/>
  <path fill="none" d="M41.61,138.72 L 83.57 121.31"/>
  <path fill="none" d="M68.57,112.02 L 58.47 144.05"/>
  <path fill="none" d="M68.61,112.02 L 82.42 140.62"/>
  <path fill="none" d="M68.63,112 L 83.57 121.29"/>
  <path fill="none" d="M68.62,112.01 L 93.92 146.32"/>
  <path fill="none" d="M59.77,145.5 L 82.14 141.17"/>
  <path fill="none" d="M59.28,144.55 L 83.57 121.32"/>
  <path fill="none" d="M59.81,145.91 L 93.74 146.66"/>
  <path fill="none" d="M82.66,140.57 L 83.59 121.33"/>
  <path fill="none" d="M83.1,141.29 L 93.79 146.48"/>
  <path fill="none" d="M83.6,121.33 L 94.01 146.27"/>
</g>
<g stroke-width="0.42" stroke="#D3D3D3" id="img-815d74f8-2">
</g>
<g font-size="4" stroke="#000000" stroke-opacity="0.000" fill="#000000" id="img-815d74f8-3">
</g>
<g stroke-width="0" stroke="#000000" id="img-815d74f8-4">
  <circle cx="100.08" cy="112.83" r="0.03" fill="#F9F8F9"/>
  <circle cx="117.33" cy="106.21" r="0" fill="#F9F8F9"/>
  <circle cx="117.19" cy="119.07" r="0.01" fill="#F9F8F9"/>
  <circle cx="144.89" cy="103.99" r="0" fill="#F9F8F9"/>
  <circle cx="119.75" cy="140.56" r="0.07" fill="#F9F8F9"/>
  <circle cx="146.67" cy="56.65" r="0" fill="#F9F8F9"/>
  <circle cx="120.19" cy="85.77" r="0" fill="#F9F8F9"/>
  <circle cx="138.07" cy="47.3" r="0" fill="#F9F8F9"/>
  <circle cx="126.27" cy="72.39" r="0" fill="#F9F8F9"/>
  <circle cx="133.29" cy="81.24" r="0.26" fill="#F9F8F9"/>
  <circle cx="82.59" cy="73.3" r="0" fill="#F9F8F9"/>
  <circle cx="108.86" cy="63.88" r="0.01" fill="#F9F8F9"/>
  <circle cx="85.97" cy="86.49" r="0" fill="#F9F8F9"/>
  <circle cx="92.6" cy="64.79" r="0.07" fill="#F9F8F9"/>
  <circle cx="61.58" cy="34.97" r="0.07" fill="#F9F8F9"/>
  <circle cx="38.58" cy="29.29" r="0" fill="#F9F8F9"/>
  <circle cx="59.33" cy="57.5" r="0.01" fill="#F9F8F9"/>
  <circle cx="54.28" cy="89.42" r="0.02" fill="#F9F8F9"/>
  <circle cx="76.94" cy="13.33" r="0" fill="#F9F8F9"/>
  <circle cx="52.55" cy="16.18" r="0" fill="#F9F8F9"/>
  <circle cx="86.02" cy="15.94" r="0" fill="#F9F8F9"/>
  <circle cx="69.9" cy="49.45" r="0" fill="#F9F8F9"/>
  <circle cx="90.55" cy="36.35" r="0" fill="#F9F8F9"/>
  <circle cx="107.91" cy="18.46" r="0" fill="#F9F8F9"/>
  <circle cx="115.76" cy="54.37" r="0" fill="#F9F8F9"/>
  <circle cx="106.68" cy="47.92" r="-0" fill="#610102"/>
  <circle cx="76.69" cy="57.87" r="0" fill="#F9F8F9"/>
  <circle cx="92.38" cy="50.3" r="0" fill="#F9F8F9"/>
  <circle cx="109.26" cy="76.81" r="0" fill="#F9F8F9"/>
  <circle cx="80.56" cy="105.14" r="0" fill="#F9F8F9"/>
  <circle cx="104.41" cy="92" r="0" fill="#F9F8F9"/>
  <circle cx="88.55" cy="95.53" r="0" fill="#F9F8F9"/>
  <circle cx="102.51" cy="122.31" r="0" fill="#F9F8F9"/>
  <circle cx="62.5" cy="128.74" r="0" fill="#F9F8F9"/>
  <circle cx="71.92" cy="137.12" r="0" fill="#F9F8F9"/>
  <circle cx="43.32" cy="122.94" r="0" fill="#F9F8F9"/>
  <circle cx="32.36" cy="103.65" r="0" fill="#F9F8F9"/>
  <circle cx="49.47" cy="114.94" r="0.1" fill="#F9F8F9"/>
  <circle cx="14.25" cy="86.1" r="0.25" fill="#F9F8F9"/>
  <circle cx="29.67" cy="86.72" r="0.08" fill="#F9F8F9"/>
  <circle cx="44.19" cy="78.3" r="0.01" fill="#F9F8F9"/>
  <circle cx="51.19" cy="101.77" r="0.19" fill="#F9F8F9"/>
  <circle cx="40.11" cy="91.94" r="0.01" fill="#F9F8F9"/>
  <circle cx="13.33" cy="117.84" r="2.26" fill="#F9F8F9"/>
  <circle cx="39.72" cy="139.51" r="1.97" fill="#F9F8F9"/>
  <circle cx="68.58" cy="111.97" r="0.05" fill="#F9F8F9"/>
  <circle cx="57.9" cy="145.87" r="1.83" fill="#F9F8F9"/>
  <circle cx="82.64" cy="141.07" r="0.49" fill="#F9F8F9"/>
  <circle cx="83.59" cy="121.3" r="0.03" fill="#F9F8F9"/>
  <circle cx="94.17" cy="146.67" r="0.41" fill="#F9F8F9"/>
</g>
<g font-size="4" stroke="#000000" stroke-opacity="0.000" fill="#000000" id="img-815d74f8-5">
</g>
</svg>
