<?xml version="1.0" encoding="UTF-8"?>
<svg xmlns="http://www.w3.org/2000/svg"
     xmlns:xlink="http://www.w3.org/1999/xlink"
     version="1.2"
     width="160mm" height="160mm" viewBox="0 0 160 160"
     stroke="none"
     fill="#000000"
     stroke-width="0.3"
     font-size="3.88"
>
<g stroke-width="0.67" fill="#000000" fill-opacity="0.000" stroke="#D3D3D3" id="img-641211c3-1">
  <path fill="none" d="M113.95,101.73 L 101.78 90.6"/>
  <path fill="none" d="M118.18,105.82 L 127.78 115.63"/>
  <path fill="none" d="M71.86,129.68 L 72.59 108.34"/>
  <path fill="none" d="M101.71,86.99 L 107.99 80.74"/>
  <path fill="none" d="M97.4,87.94 L 79.52 81.46"/>
  <path fill="none" d="M62.46,69.6 L 53.36 61.11"/>
  <path fill="none" d="M66.3,72.73 L 75.92 79.57"/>
  <path fill="none" d="M62.26,62.95 L 76.26 79.21"/>
  <path fill="none" d="M58.58,59.5 L 45.05 49.26"/>
  <path fill="none" d="M132.08,120.63 L 138.61 129.29"/>
  <path fill="none" d="M16.47,38.08 L 22.17 34.58"/>
  <path fill="none" d="M83.44,67.69 L 78.43 78.89"/>
  <path fill="none" d="M142.11,135.47 L 145.26 143.21"/>
  <path fill="none" d="M83.56,88.22 L 78.88 82.37"/>
  <path fill="none" d="M49.9,57.23 L 44.48 49.83"/>
  <path fill="none" d="M22.45,30.72 L 16.01 25.35"/>
  <path fill="none" d="M24.41,29.58 L 22.11 16.76"/>
  <path fill="none" d="M27.55,34.95 L 40.71 45.82"/>
  <path fill="none" d="M72.64,107.87 L 77.23 82.78"/>
  <path fill="none" d="M72.4,108.24 L 63.88 114.75"/>
</g>
<g stroke-width="0.67" stroke="#D3D3D3" id="img-641211c3-2">
</g>
<g font-size="4" stroke="#000000" stroke-opacity="0.000" fill="#000000" id="img-641211c3-3">
</g>
<g stroke-width="0" stroke="#000000" stroke-opacity="0.000" id="img-641211c3-4">
  <circle cx="116.12" cy="103.72" r="2.82" fill="#7BB8E9"/>
  <circle cx="71.85" cy="130.01" r="0.32" fill="#C4352C"/>
  <circle cx="99.85" cy="88.84" r="2.51" fill="#BBE0F7"/>
  <circle cx="64.27" cy="71.29" r="2.38" fill="#D6EDFB"/>
  <circle cx="60.6" cy="61.03" r="2.43" fill="#CCE9FA"/>
  <circle cx="109.88" cy="78.86" r="2.56" fill="#9FCFF3"/>
  <circle cx="130.09" cy="117.99" r="3.17" fill="#4A8DCF"/>
  <circle cx="13.5" cy="39.91" r="3.34" fill="#3877BC"/>
  <circle cx="84.42" cy="65.49" r="2.31" fill="#FFF5F1"/>
  <circle cx="140.77" cy="132.15" r="3.44" fill="#306CB0"/>
  <circle cx="85.07" cy="90.1" r="2.31" fill="#FFF5F1"/>
  <circle cx="51.45" cy="59.33" r="2.5" fill="#A9D6F5"/>
  <circle cx="24.99" cy="32.84" r="3.18" fill="#4A8DCF"/>
  <circle cx="72.59" cy="108.1" r="0.23" fill="#B02620"/>
  <circle cx="146.67" cy="146.67" r="3.58" fill="#265D9F"/>
  <circle cx="77.6" cy="80.76" r="1.97" fill="#FFDFD6"/>
  <circle cx="13.33" cy="23.11" r="3.34" fill="#3877BC"/>
  <circle cx="63.86" cy="114.76" r="0.02" fill="#660202"/>
  <circle cx="21.5" cy="13.33" r="3.34" fill="#3877BC"/>
  <circle cx="42.84" cy="47.59" r="2.66" fill="#94C9F0"/>
</g>
<g font-size="4" stroke="#000000" stroke-opacity="0.000" fill="#000000" id="img-641211c3-5">
</g>
</svg>
