<?xml version="1.0" encoding="UTF-8"?>
<svg xmlns="http://www.w3.org/2000/svg"
     xmlns:xlink="http://www.w3.org/1999/xlink"
     version="1.2"
     width="160mm" height="160mm" viewBox="0 0 160 160"
     stroke="none"
     fill="#000000"
     stroke-width="0.3"
     font-size="3.88"
>
<g stroke-width="0.67" fill="#000000" fill-opacity="0.000" stroke="#D3D3D3" id="img-bbaf9757-1">
  <path fill="none" d="M91.31,143.21 L 88.86 135.27"/>
  <path fill="none" d="M88.83,146 L 85.31 145.34"/>
  <path fill="none" d="M84.48,130.53 L 78.08 127.97"/>
  <path fill="none" d="M13.4,28.58 L 18.72 13.37"/>
  <path fill="none" d="M13.38,28.96 L 17.91 46.91"/>
  <path fill="none" d="M121.97,75.96 L 130.74 74"/>
  <path fill="none" d="M114.96,78.02 L 103.64 82.17"/>
  <path fill="none" d="M40.13,85.75 L 29.35 68.75"/>
  <path fill="none" d="M43.08,89.41 L 58.3 104.48"/>
  <path fill="none" d="M39.1,88.3 L 31.37 90.14"/>
  <path fill="none" d="M27.44,65.45 L 18.42 48.25"/>
  <path fill="none" d="M77.95,95 L 63.18 104.94"/>
  <path fill="none" d="M83.84,91.57 L 97.08 84.99"/>
  <path fill="none" d="M138.06,73.18 L 142.94 73.16"/>
  <path fill="none" d="M18.77,13.34 L 30.93 15.94"/>
  <path fill="none" d="M59.77,109.76 L 58.43 115.08"/>
  <path fill="none" d="M62.39,109.27 L 72.85 123.86"/>
  <path fill="none" d="M58.61,109.2 L 49.12 121.38"/>
  <path fill="none" d="M80.51,141.34 L 76.11 129.91"/>
  <path fill="none" d="M39.33,135.56 L 45.16 126.87"/>
</g>
<g stroke-width="0.67" stroke="#D3D3D3" id="img-bbaf9757-2">
</g>
<g font-size="4" stroke="#000000" stroke-opacity="0.000" fill="#000000" id="img-bbaf9757-3">
</g>
<g stroke-width="0" stroke="#000000" stroke-opacity="0.000" id="img-bbaf9757-4">
  <circle cx="92.38" cy="146.67" r="3.47" fill="#16427A"/>
  <circle cx="87.81" cy="131.85" r="3.43" fill="#17457E"/>
  <circle cx="13.33" cy="28.77" r="0.19" fill="#A8211B"/>
  <circle cx="118.4" cy="76.75" r="3.52" fill="#123B70"/>
  <circle cx="41.4" cy="87.75" r="2.27" fill="#9CCEF2"/>
  <circle cx="28.33" cy="67.14" r="1.83" fill="#FFE6DF"/>
  <circle cx="80.79" cy="93.09" r="3.28" fill="#245A9B"/>
  <circle cx="134.36" cy="73.19" r="3.56" fill="#10386C"/>
  <circle cx="18.73" cy="13.33" r="0.04" fill="#710505"/>
  <circle cx="60.55" cy="106.7" r="3.04" fill="#3877BC"/>
  <circle cx="30.93" cy="15.94" r="0.01" fill="#610102"/>
  <circle cx="146.67" cy="73.15" r="3.58" fill="#0E3567"/>
  <circle cx="81.79" cy="144.68" r="3.43" fill="#17457E"/>
  <circle cx="57.61" cy="118.28" r="3.17" fill="#2C66A9"/>
  <circle cx="18.09" cy="47.61" r="0.69" fill="#FA7967"/>
  <circle cx="74.86" cy="126.68" r="3.33" fill="#215493"/>
  <circle cx="37.38" cy="138.46" r="3.36" fill="#1D4E8B"/>
  <circle cx="47.04" cy="124.05" r="3.25" fill="#265D9F"/>
  <circle cx="28.89" cy="90.74" r="2.44" fill="#7BB8E9"/>
  <circle cx="100.28" cy="83.4" r="3.43" fill="#17457E"/>
</g>
<g font-size="4" stroke="#000000" stroke-opacity="0.000" fill="#000000" id="img-bbaf9757-5">
</g>
</svg>
