<?xml version="1.0" encoding="UTF-8"?>
<svg xmlns="http://www.w3.org/2000/svg"
     xmlns:xlink="http://www.w3.org/1999/xlink"
     version="1.2"
     width="160mm" height="160mm" viewBox="0 0 160 160"
     stroke="none"
     fill="#000000"
     stroke-width="0.3"
     font-size="3.88"
>
<g stroke-width="0.67" fill="#000000" fill-opacity="0.000" stroke="#D3D3D3" id="img-94f7d1df-1">
  <path fill="none" d="M114.29,24.77 L 100.89 36.71"/>
  <path fill="none" d="M119.44,21.1 L 130.22 15.06"/>
  <path fill="none" d="M83.75,23.85 L 96.79 36.61"/>
  <path fill="none" d="M78.64,20.62 L 66.51 16.18"/>
  <path fill="none" d="M99.57,41.26 L 104.65 58.89"/>
  <path fill="none" d="M97.43,41.02 L 89.46 55.38"/>
  <path fill="none" d="M25.38,143.46 L 28.39 133.02"/>
  <path fill="none" d="M62.9,97.27 L 77.85 80.44"/>
  <path fill="none" d="M59.37,101.01 L 46.2 114.07"/>
  <path fill="none" d="M50.85,51.97 L 61.72 66.41"/>
  <path fill="none" d="M77.7,78.78 L 61.89 66.58"/>
  <path fill="none" d="M79.15,78.41 L 87.1 60.16"/>
  <path fill="none" d="M79.84,79.82 L 100.96 84.99"/>
  <path fill="none" d="M105.18,64.11 L 103.74 82.98"/>
  <path fill="none" d="M16.6,132.58 L 26.19 130.63"/>
  <path fill="none" d="M141.9,137.2 L 135.74 127.69"/>
  <path fill="none" d="M118.51,104.37 L 105.18 87.68"/>
  <path fill="none" d="M121.9,108.77 L 132.23 122.63"/>
  <path fill="none" d="M31.55,127.87 L 42.28 117.84"/>
  <path fill="none" d="M136.69,14.32 L 143.09 16.18"/>
</g>
<g stroke-width="0.67" stroke="#D3D3D3" id="img-94f7d1df-2">
</g>
<g font-size="4" stroke="#000000" stroke-opacity="0.000" fill="#000000" id="img-94f7d1df-3">
</g>
<g stroke-width="0" stroke="#000000" stroke-opacity="0.000" id="img-94f7d1df-4">
  <circle cx="116.67" cy="22.66" r="3.05" fill="#6BACE3"/>
  <circle cx="81.54" cy="21.69" r="2.97" fill="#76B4E8"/>
  <circle cx="98.8" cy="38.57" r="2.69" fill="#A9D6F5"/>
  <circle cx="24.45" cy="146.67" r="3.2" fill="#5699D8"/>
  <circle cx="61.19" cy="99.2" r="2.47" fill="#FFF0EB"/>
  <circle cx="50.84" cy="51.96" r="0.01" fill="#610102"/>
  <circle cx="78.66" cy="79.53" r="1.17" fill="#FFA08E"/>
  <circle cx="105.39" cy="61.45" r="2.56" fill="#BEE1F8"/>
  <circle cx="61.79" cy="66.5" r="0.12" fill="#8B100E"/>
  <circle cx="13.33" cy="133.24" r="3.2" fill="#5699D8"/>
  <circle cx="63.42" cy="15.04" r="3.16" fill="#599CDA"/>
  <circle cx="143.68" cy="139.97" r="3.16" fill="#599CDA"/>
  <circle cx="120.24" cy="106.54" r="2.67" fill="#A9D6F5"/>
  <circle cx="88.16" cy="57.71" r="2.56" fill="#FFF5F1"/>
  <circle cx="29.26" cy="130.01" r="3.01" fill="#71B0E5"/>
  <circle cx="44.27" cy="115.98" r="2.61" fill="#B6DDF7"/>
  <circle cx="103.53" cy="85.61" r="2.54" fill="#E3F3FC"/>
  <circle cx="133.3" cy="13.33" r="3.39" fill="#4587CB"/>
  <circle cx="134.07" cy="125.1" r="2.96" fill="#76B4E8"/>
  <circle cx="146.67" cy="17.23" r="3.58" fill="#3471B6"/>
</g>
<g font-size="4" stroke="#000000" stroke-opacity="0.000" fill="#000000" id="img-94f7d1df-5">
</g>
</svg>
