<?xml version="1.0" encoding="UTF-8"?>
<svg xmlns="http://www.w3.org/2000/svg"
     xmlns:xlink="http://www.w3.org/1999/xlink"
     version="1.2"
     width="160mm" height="160mm" viewBox="0 0 160 160"
     stroke="none"
     fill="#000000"
     stroke-width="0.3"
     font-size="3.88"
>
<g stroke-width="0.67" fill="#000000" fill-opacity="0.000" stroke="#D3D3D3" id="img-63f9d702-1">
  <path fill="none" d="M58.24,43.28 L 67.34 62.53"/>
  <path fill="none" d="M55.09,40.78 L 44.65 38.49"/>
  <path fill="none" d="M56.99,39.04 L 55.54 28.04"/>
  <path fill="none" d="M59.08,39.92 L 76.82 26.71"/>
  <path fill="none" d="M55.07,41.64 L 33.97 45.36"/>
  <path fill="none" d="M68.54,67.49 L 68.79 75.4"/>
  <path fill="none" d="M70.63,66.33 L 90.92 79.8"/>
  <path fill="none" d="M66.38,63.31 L 55.24 54.86"/>
  <path fill="none" d="M66.41,66.51 L 57.69 73.43"/>
  <path fill="none" d="M40.5,36.46 L 30.18 27.87"/>
  <path fill="none" d="M43.7,39.92 L 51.74 51.25"/>
  <path fill="none" d="M139.45,137.53 L 144.36 143.74"/>
  <path fill="none" d="M134.88,131.75 L 127.19 122.08"/>
  <path fill="none" d="M95.57,83.83 L 108.67 98.4"/>
  <path fill="none" d="M96.44,80.52 L 106.17 77.2"/>
  <path fill="none" d="M115.69,94.84 L 113.07 98.23"/>
  <path fill="none" d="M113.05,103.68 L 122.77 116.41"/>
  <path fill="none" d="M112.97,13.33 L 96.08 16.05"/>
  <path fill="none" d="M95.97,16.09 L 77.44 26.31"/>
  <path fill="none" d="M15.64,49.22 L 29.55 46.23"/>
</g>
<g stroke-width="0.67" stroke="#D3D3D3" id="img-63f9d702-2">
</g>
<g font-size="4" stroke="#000000" stroke-opacity="0.000" fill="#000000" id="img-63f9d702-3">
</g>
<g stroke-width="0" stroke="#000000" stroke-opacity="0.000" id="img-63f9d702-4">
  <circle cx="57.28" cy="41.26" r="2.15" fill="#EEF8FE"/>
  <circle cx="68.45" cy="64.89" r="2.5" fill="#86C0ED"/>
  <circle cx="68.88" cy="78.15" r="2.64" fill="#6BACE3"/>
  <circle cx="42.33" cy="37.98" r="2.28" fill="#A9D6F5"/>
  <circle cx="137.17" cy="134.63" r="3.54" fill="#143F75"/>
  <circle cx="28.25" cy="26.26" r="2.41" fill="#8CC4EE"/>
  <circle cx="93.5" cy="81.52" r="2.98" fill="#4385C9"/>
  <circle cx="117.86" cy="92.04" r="3.39" fill="#1F518F"/>
  <circle cx="110.97" cy="100.95" r="3.3" fill="#265D9F"/>
  <circle cx="55.26" cy="25.92" r="2.06" fill="#D8EEFB"/>
  <circle cx="146.67" cy="146.67" r="3.58" fill="#10386C"/>
  <circle cx="112.98" cy="13.33" r="0.01" fill="#610102"/>
  <circle cx="124.95" cy="119.27" r="3.45" fill="#194882"/>
  <circle cx="96.02" cy="16.06" r="0.05" fill="#770706"/>
  <circle cx="77.12" cy="26.49" r="0.36" fill="#D24136"/>
  <circle cx="13.33" cy="49.72" r="2.27" fill="#9FCFF3"/>
  <circle cx="31.75" cy="45.75" r="2.16" fill="#BEE1F8"/>
  <circle cx="109.24" cy="76.15" r="3.11" fill="#3471B6"/>
  <circle cx="53.21" cy="53.33" r="2.44" fill="#89C2ED"/>
  <circle cx="55.53" cy="75.14" r="2.64" fill="#6BACE3"/>
</g>
<g font-size="4" stroke="#000000" stroke-opacity="0.000" fill="#000000" id="img-63f9d702-5">
</g>
</svg>
