<?xml version="1.0" encoding="UTF-8"?>
<svg xmlns="http://www.w3.org/2000/svg"
     xmlns:xlink="http://www.w3.org/1999/xlink"
     xmlns:gadfly="http://www.gadflyjl.org/ns"
     version="1.2"
     width="160mm" height="160mm" viewBox="0 0 160 160"
     stroke="none"
     fill="#000000"
     stroke-width="0.3"
     font-size="3.88"
>
<g stroke-width="0.42" fill="#000000" fill-opacity="0.000" stroke="#D3D3D3" id="img-5405ee24-1">
  <path fill="none" d="M83.78,30.9 L 68.2 80.72"/>
  <path fill="none" d="M84.98,29.52 L 116.48 14.36"/>
  <path fill="none" d="M84.22,30.94 L 87.75 55.71"/>
  <path fill="none" d="M83.82,30.91 L 79.11 48.01"/>
  <path fill="none" d="M83.15,30.31 L 56.86 40.34"/>
  <path fill="none" d="M84.32,30.92 L 94.89 73.2"/>
  <path fill="none" d="M84.99,30.36 L 132.35 51.87"/>
  <path fill="none" d="M83.23,30.48 L 49.45 51.57"/>
  <path fill="none" d="M144.98,50.6 L 135.4 52.26"/>
  <path fill="none" d="M146.36,51.99 L 137.93 98.65"/>
  <path fill="none" d="M144.96,50.47 L 112.67 53.72"/>
  <path fill="none" d="M145.13,49.54 L 109.75 31.94"/>
  <path fill="none" d="M144.98,50.62 L 94 60.17"/>
  <path fill="none" d="M117.97,98.53 L 85.7 145.19"/>
  <path fill="none" d="M118.92,95.56 L 119.56 52.79"/>
  <path fill="none" d="M117.86,95.93 L 79.37 49.23"/>
  <path fill="none" d="M117.38,96.6 L 87.02 84.93"/>
  <path fill="none" d="M119.92,95.92 L 135.24 76.97"/>
  <path fill="none" d="M117.27,97.13 L 86.67 96"/>
  <path fill="none" d="M117.56,98.12 L 112.79 101.44"/>
  <path fill="none" d="M84.42,144.89 L 78.79 105.65"/>
  <path fill="none" d="M84.81,144.87 L 87.09 114.3"/>
  <path fill="none" d="M85.07,144.91 L 90.24 121.75"/>
  <path fill="none" d="M83.74,145.13 L 59.69 105.64"/>
  <path fill="none" d="M67.9,80.91 L 49.12 78.73"/>
  <path fill="none" d="M68.2,80.72 L 78.7 49.35"/>
  <path fill="none" d="M68.25,80.74 L 92.3 42.8"/>
  <path fill="none" d="M67.93,81.06 L 37.47 99.34"/>
  <path fill="none" d="M68.25,81.14 L 98.14 132.48"/>
  <path fill="none" d="M68.35,80.88 L 94.7 73.53"/>
  <path fill="none" d="M68.35,80.86 L 106.77 66"/>
  <path fill="none" d="M68.3,81.09 L 92.53 102.08"/>
  <path fill="none" d="M68.11,81.17 L 65.71 115.88"/>
  <path fill="none" d="M68.31,81.09 L 85.28 95.46"/>
  <path fill="none" d="M68.05,81.16 L 59.55 104.19"/>
  <path fill="none" d="M67.95,80.8 L 42.77 61.23"/>
  <path fill="none" d="M49.12,78.73 L 74.38 84.72"/>
  <path fill="none" d="M49.12,78.73 L 13.37 63.46"/>
  <path fill="none" d="M49.12,78.73 L 94.69 73.49"/>
  <path fill="none" d="M49.12,78.73 L 29.42 61.64"/>
  <path fill="none" d="M49.12,78.73 L 92.51 102.11"/>
  <path fill="none" d="M49.12,78.73 L 57.82 91.2"/>
  <path fill="none" d="M49.12,78.73 L 93.31 60.37"/>
  <path fill="none" d="M117.62,15.48 L 86.48 83.61"/>
  <path fill="none" d="M120.19,15.08 L 139.08 35.88"/>
  <path fill="none" d="M86.57,57.17 L 60.14 59.06"/>
  <path fill="none" d="M87.93,58.45 L 87.18 112.16"/>
  <path fill="none" d="M89.21,57.63 L 106.78 65.4"/>
  <path fill="none" d="M86.65,57.53 L 73.33 62.26"/>
  <path fill="none" d="M88.27,58.42 L 93.72 81.62"/>
  <path fill="none" d="M88.67,58.25 L 102.1 80.3"/>
  <path fill="none" d="M89.32,56.88 L 110.15 54.02"/>
  <path fill="none" d="M88.8,55.99 L 107.28 32.49"/>
  <path fill="none" d="M87.88,58.45 L 85.93 95.18"/>
  <path fill="none" d="M118.21,51.94 L 80.25 71.13"/>
  <path fill="none" d="M118.14,50.72 L 94.42 42.08"/>
  <path fill="none" d="M118.98,49.83 L 104.15 15.38"/>
  <path fill="none" d="M120.53,52.46 L 130.44 65.16"/>
  <path fill="none" d="M121.12,51.38 L 132.21 52.39"/>
  <path fill="none" d="M120.45,52.52 L 135.34 74.51"/>
  <path fill="none" d="M118.61,52.44 L 94.62 81.83"/>
  <path fill="none" d="M118.12,51.71 L 112.62 53.46"/>
  <path fill="none" d="M118.13,51.75 L 93.99 60.11"/>
  <path fill="none" d="M78.66,70.75 L 56.65 41.07"/>
  <path fill="none" d="M78.39,71.05 L 59.99 59.69"/>
  <path fill="none" d="M79.79,72.55 L 85.57 83.64"/>
  <path fill="none" d="M80.15,72.25 L 93.13 82.01"/>
  <path fill="none" d="M80.28,72.02 L 101.55 80.93"/>
  <path fill="none" d="M80.08,72.33 L 111.13 101.32"/>
  <path fill="none" d="M79.24,72.67 L 76.65 123.43"/>
  <path fill="none" d="M78.28,71.31 L 42.84 61.1"/>
  <path fill="none" d="M80.13,70.95 L 93.36 60.46"/>
  <path fill="none" d="M111.18,119.52 L 95.04 73.71"/>
  <path fill="none" d="M110.97,119.63 L 86.65 85.41"/>
  <path fill="none" d="M111.11,119.55 L 94.4 83.59"/>
  <path fill="none" d="M110.84,119.74 L 92.75 102.29"/>
  <path fill="none" d="M112.17,119.81 L 136.77 100.59"/>
  <path fill="none" d="M110.6,120.28 L 66.5 116.79"/>
  <path fill="none" d="M111.5,119.47 L 111.89 103.12"/>
  <path fill="none" d="M78.16,103.42 L 59.51 60.1"/>
  <path fill="none" d="M79.29,103.53 L 93.36 83.5"/>
  <path fill="none" d="M79.78,104.3 L 92.49 102.21"/>
  <path fill="none" d="M79.47,103.69 L 101.82 82.39"/>
  <path fill="none" d="M79.31,105.44 L 89.89 120.06"/>
  <path fill="none" d="M79.26,103.51 L 110.72 54.91"/>
  <path fill="none" d="M79.38,103.6 L 85.37 96.57"/>
  <path fill="none" d="M74.68,84.68 L 94.72 73.59"/>
  <path fill="none" d="M74.7,84.76 L 85.01 84.58"/>
  <path fill="none" d="M74.6,84.91 L 86.73 112.25"/>
  <path fill="none" d="M74.67,84.68 L 106.82 66.11"/>
  <path fill="none" d="M74.52,84.6 L 72.46 63.63"/>
  <path fill="none" d="M74.65,84.87 L 85.32 95.42"/>
  <path fill="none" d="M74.38,84.82 L 58.03 91.26"/>
  <path fill="none" d="M74.65,84.87 L 100.39 110.4"/>
  <path fill="none" d="M74.63,84.63 L 93.42 60.52"/>
  <path fill="none" d="M79.34,48.11 L 102.84 15.24"/>
  <path fill="none" d="M78.27,48.45 L 56.86 40.77"/>
  <path fill="none" d="M79.1,49.37 L 92.6 102.04"/>
  <path fill="none" d="M78.26,48.91 L 42.83 60.86"/>
  <path fill="none" d="M79.48,49.12 L 93.36 60.01"/>
  <path fill="none" d="M91.79,42.25 L 60.03 58.66"/>
  <path fill="none" d="M93.1,43.02 L 93.94 81.59"/>
  <path fill="none" d="M93.41,42.98 L 102.48 80.14"/>
  <path fill="none" d="M94.25,40.78 L 106.94 32.13"/>
  <path fill="none" d="M114.82,88.5 L 134.88 76.56"/>
  <path fill="none" d="M112.89,88.47 L 73.23 63.16"/>
  <path fill="none" d="M112.77,88.73 L 94.96 82.96"/>
  <path fill="none" d="M112.88,89.68 L 92.77 102.1"/>
  <path fill="none" d="M112.92,88.44 L 103.92 82.23"/>
  <path fill="none" d="M113.18,90 L 91.01 120.06"/>
  <path fill="none" d="M112.75,89.35 L 86.65 95.78"/>
  <path fill="none" d="M113.02,89.86 L 77.15 123.66"/>
  <path fill="none" d="M114.37,88.07 L 139.49 38.92"/>
  <path fill="none" d="M13.35,63.47 L 36.69 99.17"/>
  <path fill="none" d="M13.36,63.43 L 55.71 40.86"/>
  <path fill="none" d="M13.37,63.44 L 29.28 61.59"/>
  <path fill="none" d="M13.37,63.44 L 42.04 61.02"/>
  <path fill="none" d="M37.52,99.47 L 85.06 84.86"/>
  <path fill="none" d="M37.54,99.59 L 85.1 96.03"/>
  <path fill="none" d="M37.53,99.75 L 58.48 104.76"/>
  <path fill="none" d="M103.72,15.48 L 107.44 64.93"/>
  <path fill="none" d="M103.34,15.46 L 93.72 59.88"/>
  <path fill="none" d="M55.77,40.95 L 29.43 61.53"/>
  <path fill="none" d="M56.62,41.08 L 85.47 83.7"/>
  <path fill="none" d="M56.64,41.07 L 71.76 61.77"/>
  <path fill="none" d="M56.89,40.45 L 106.68 31.5"/>
  <path fill="none" d="M98.44,132.36 L 86.31 85.57"/>
  <path fill="none" d="M98.15,132.48 L 87.7 114.16"/>
  <path fill="none" d="M99.68,132.74 L 136.8 100.63"/>
  <path fill="none" d="M97.66,132.99 L 66.41 117.11"/>
  <path fill="none" d="M131.83,64.8 L 133.56 54.12"/>
  <path fill="none" d="M132.36,68.19 L 135.51 74.41"/>
  <path fill="none" d="M130.02,65.62 L 112.48 54.52"/>
  <path fill="none" d="M130.55,65.07 L 109.18 32.58"/>
  <path fill="none" d="M130.03,67.56 L 86.55 95.55"/>
  <path fill="none" d="M130.52,68.07 L 101.48 110.3"/>
  <path fill="none" d="M132.06,64.85 L 139.8 39.05"/>
  <path fill="none" d="M58.06,59.22 L 29.44 61.58"/>
  <path fill="none" d="M59.97,59.72 L 93.1 82.05"/>
  <path fill="none" d="M58.24,58.54 L 49.43 52.37"/>
  <path fill="none" d="M95.18,73.32 L 106.83 66.13"/>
  <path fill="none" d="M95.21,73.48 L 134.67 75.69"/>
  <path fill="none" d="M94.8,73.68 L 66.13 116.03"/>
  <path fill="none" d="M94.92,73.72 L 90.54 119.88"/>
  <path fill="none" d="M95.12,73.26 L 110.59 54.82"/>
  <path fill="none" d="M94.78,73.25 L 59.74 29.78"/>
  <path fill="none" d="M95.08,73.69 L 111.37 101.13"/>
  <path fill="none" d="M95.16,73.3 L 138.88 38.43"/>
  <path fill="none" d="M29.42,61.52 L 59.14 29.76"/>
  <path fill="none" d="M29.43,61.55 L 48.19 52.27"/>
  <path fill="none" d="M29.42,61.64 L 57.81 91.21"/>
  <path fill="none" d="M29.41,61.65 L 58.81 104.28"/>
  <path fill="none" d="M86.83,83.87 L 106.91 66.24"/>
  <path fill="none" d="M85.5,83.68 L 72.91 63.48"/>
  <path fill="none" d="M86.17,85.59 L 90.33 119.89"/>
  <path fill="none" d="M85.22,85.19 L 59.92 104.46"/>
  <path fill="none" d="M86.91,85.14 L 111.03 101.45"/>
  <path fill="none" d="M87.64,112.27 L 102.2 82.68"/>
  <path fill="none" d="M87.59,114.21 L 90.07 119.96"/>
  <path fill="none" d="M88.22,113.06 L 100.15 111.14"/>
  <path fill="none" d="M87.3,112.17 L 93.6 60.59"/>
  <path fill="none" d="M108.02,66.31 L 136.92 98.94"/>
  <path fill="none" d="M107.04,66.36 L 86.34 95.33"/>
  <path fill="none" d="M133.98,54.13 L 136.04 74.25"/>
  <path fill="none" d="M133.95,54.13 L 137.62 98.64"/>
  <path fill="none" d="M132.64,53.63 L 103.79 80.53"/>
  <path fill="none" d="M132.24,52.83 L 94 60.17"/>
  <path fill="none" d="M135.39,74.48 L 109.15 32.59"/>
  <path fill="none" d="M135.12,76.86 L 101.6 110.4"/>
  <path fill="none" d="M73.12,63.3 L 93.2 81.93"/>
  <path fill="none" d="M73.37,62.38 L 110.17 54.12"/>
  <path fill="none" d="M71.43,62.18 L 49.5 52.25"/>
  <path fill="none" d="M72.06,63.59 L 59.51 104.17"/>
  <path fill="none" d="M93.87,83.68 L 90.53 119.88"/>
  <path fill="none" d="M92.95,82.88 L 58.03 91.28"/>
  <path fill="none" d="M94.67,83.41 L 111.19 101.27"/>
  <path fill="none" d="M93.95,81.59 L 93.65 60.6"/>
  <path fill="none" d="M92.79,102.17 L 136.51 99.91"/>
  <path fill="none" d="M92.55,102.3 L 77.05 123.57"/>
  <path fill="none" d="M101.61,82.1 L 59.99 104.56"/>
  <path fill="none" d="M102.26,80.21 L 93.79 60.57"/>
  <path fill="none" d="M65.44,115.91 L 49.02 52.65"/>
  <path fill="none" d="M66.35,117.2 L 76 123.76"/>
  <path fill="none" d="M90.28,119.9 L 86.03 96.75"/>
  <path fill="none" d="M89.75,120.19 L 58 91.4"/>
  <path fill="none" d="M91.14,120.18 L 100.37 111.59"/>
  <path fill="none" d="M110.21,54.27 L 93.99 60.11"/>
  <path fill="none" d="M106.66,31.15 L 59.91 29.44"/>
  <path fill="none" d="M59.44,29.89 L 57.9 91.18"/>
  <path fill="none" d="M48.42,52.54 L 42.68 60.65"/>
  <path fill="none" d="M49.55,52.09 L 93.29 60.17"/>
  <path fill="none" d="M85.11,95.84 L 58.03 91.33"/>
  <path fill="none" d="M85.64,96.72 L 76.84 123.47"/>
  <path fill="none" d="M58.02,91.37 L 100.22 110.65"/>
  <path fill="none" d="M57.97,91.43 L 76.24 123.53"/>
  <path fill="none" d="M57.84,91.19 L 42.63 61.35"/>
  <path fill="none" d="M60.08,105.07 L 100.15 110.88"/>
  <path fill="none" d="M100.24,111.41 L 77.26 123.82"/>
  <path fill="none" d="M111.48,101.07 L 93.79 60.57"/>
  <path fill="none" d="M42.85,60.98 L 93.28 60.24"/>
</g>
<g stroke-width="0.42" stroke="#D3D3D3" id="img-5405ee24-2">
</g>
<g font-size="4" stroke="#000000" stroke-opacity="0.000" fill="#000000" id="img-5405ee24-3">
</g>
<g stroke-width="0" stroke="#000000" id="img-5405ee24-4">
  <circle cx="84.08" cy="29.95" r="0.96" fill="#FFEDE8"/>
  <circle cx="146.67" cy="50.3" r="1.64" fill="#82BDEB"/>
  <circle cx="118.9" cy="97.19" r="1.56" fill="#91C7F0"/>
  <circle cx="84.67" cy="146.67" r="1.73" fill="#72B1E6"/>
  <circle cx="68.13" cy="80.94" r="0.22" fill="#DC4C3F"/>
  <circle cx="49.12" cy="78.73" r="0" fill="#700504"/>
  <circle cx="118.6" cy="13.33" r="2.26" fill="#0E3566"/>
  <circle cx="87.95" cy="57.07" r="1.33" fill="#B7DDF7"/>
  <circle cx="119.59" cy="51.24" r="1.48" fill="#A0D1F3"/>
  <circle cx="79.3" cy="71.61" r="1.02" fill="#ECF7FD"/>
  <circle cx="111.48" cy="120.35" r="0.85" fill="#FFDED5"/>
  <circle cx="78.62" cy="104.49" r="1.12" fill="#D9EFFB"/>
  <circle cx="74.53" cy="84.76" r="0.15" fill="#C03229"/>
  <circle cx="78.93" cy="48.68" r="0.68" fill="#FFC2B4"/>
  <circle cx="93.07" cy="41.59" r="1.38" fill="#AFD9F6"/>
  <circle cx="113.85" cy="89.08" r="1.09" fill="#E0F2FC"/>
  <circle cx="13.33" cy="63.44" r="0.03" fill="#800A09"/>
  <circle cx="37" cy="99.63" r="0.53" fill="#FFA08F"/>
  <circle cx="103.62" cy="14.15" r="1.29" fill="#BEE1F8"/>
  <circle cx="56.27" cy="40.56" r="0.61" fill="#FFB5A5"/>
  <circle cx="98.75" cy="133.54" r="1.18" fill="#D3ECFB"/>
  <circle cx="131.54" cy="66.58" r="1.73" fill="#72B1E6"/>
  <circle cx="59.1" cy="59.14" r="1.01" fill="#FFF2EE"/>
  <circle cx="94.95" cy="73.46" r="0.25" fill="#E45547"/>
  <circle cx="29.36" cy="61.58" r="0.08" fill="#9C1915"/>
  <circle cx="86.05" cy="84.56" r="1" fill="#FFF2EE"/>
  <circle cx="87.17" cy="113.23" r="1.03" fill="#ECF7FD"/>
  <circle cx="107.5" cy="65.72" r="0.75" fill="#FFCEC2"/>
  <circle cx="133.81" cy="52.53" r="1.54" fill="#91C7F0"/>
  <circle cx="136.2" cy="75.78" r="1.47" fill="#A0D1F3"/>
  <circle cx="72.36" cy="62.6" r="0.99" fill="#FFF2EE"/>
  <circle cx="93.96" cy="82.64" r="1" fill="#FFF2EE"/>
  <circle cx="92.64" cy="102.18" r="0.14" fill="#C03229"/>
  <circle cx="137.72" cy="99.84" r="1.16" fill="#D9EFFB"/>
  <circle cx="102.8" cy="81.46" r="1.3" fill="#BEE1F8"/>
  <circle cx="65.66" cy="116.72" r="0.81" fill="#FFD9CF"/>
  <circle cx="90.45" cy="120.83" r="0.91" fill="#FFE8E2"/>
  <circle cx="111.41" cy="53.84" r="1.22" fill="#CCE8FA"/>
  <circle cx="108.29" cy="31.21" r="1.56" fill="#91C7F0"/>
  <circle cx="59.46" cy="29.43" r="0.44" fill="#FF917F"/>
  <circle cx="48.84" cy="51.95" r="0.69" fill="#FFC8BB"/>
  <circle cx="85.88" cy="95.97" r="0.76" fill="#FFCEC2"/>
  <circle cx="57.9" cy="91.31" r="0.13" fill="#B52A23"/>
  <circle cx="59.27" cy="104.95" r="0.78" fill="#FFD4C8"/>
  <circle cx="101" cy="111" r="0.82" fill="#FFD9CF"/>
  <circle cx="111.91" cy="102.05" r="1.02" fill="#ECF7FD"/>
  <circle cx="76.61" cy="124.17" r="0.71" fill="#FFC8BB"/>
  <circle cx="42.45" cy="60.99" r="0.39" fill="#FD816F"/>
  <circle cx="93.65" cy="60.23" r="0.35" fill="#F5705F"/>
  <circle cx="140.34" cy="37.26" r="1.79" fill="#6AABE3"/>
</g>
<g font-size="4" stroke="#000000" stroke-opacity="0.000" fill="#000000" id="img-5405ee24-5">
</g>
</svg>
