<?xml version="1.0" encoding="UTF-8"?>
<svg xmlns="http://www.w3.org/2000/svg"
     xmlns:xlink="http://www.w3.org/1999/xlink"
     xmlns:gadfly="http://www.gadflyjl.org/ns"
     version="1.2"
     width="160mm" height="160mm" viewBox="0 0 160 160"
     stroke="none"
     fill="#000000"
     stroke-width="0.3"
     font-size="3.88"
>
<g stroke-width="0.42" fill="#000000" fill-opacity="0.000" stroke="#D3D3D3" id="img-985d27e4-1">
  <path fill="none" d="M105.08,37.65 L 114.25 41.11"/>
  <path fill="none" d="M102.5,34.73 L 97.89 15.6"/>
  <path fill="none" d="M102.42,39 L 96.37 60.77"/>
  <path fill="none" d="M100.98,37.72 L 79.07 46.76"/>
  <path fill="none" d="M104.39,38.59 L 118.51 56.15"/>
  <path fill="none" d="M73.25,64.33 L 44.87 78.87"/>
  <path fill="none" d="M75.1,63.38 L 99.03 50.91"/>
  <path fill="none" d="M73.99,64.88 L 69.71 88.9"/>
  <path fill="none" d="M75.21,63.81 L 93.61 62.96"/>
  <path fill="none" d="M75.96,88.97 L 44.9 79.18"/>
  <path fill="none" d="M78.21,91.2 L 83.51 107.49"/>
  <path fill="none" d="M79.06,88.41 L 83.06 85.31"/>
  <path fill="none" d="M77.86,91.28 L 78.54 97.24"/>
  <path fill="none" d="M79.42,89.22 L 107.03 84.66"/>
  <path fill="none" d="M13.34,80.46 L 33.39 80.16"/>
  <path fill="none" d="M13.34,80.47 L 32.56 94.03"/>
  <path fill="none" d="M13.34,80.46 L 28.12 65.08"/>
  <path fill="none" d="M64.76,100.28 L 46.9 103.32"/>
  <path fill="none" d="M67.89,100.79 L 82.31 108.5"/>
  <path fill="none" d="M67.52,101.26 L 81.71 117.32"/>
  <path fill="none" d="M66.39,98.33 L 65.94 68.15"/>
  <path fill="none" d="M68.08,99.86 L 77.03 99.09"/>
  <path fill="none" d="M66.9,98.4 L 69.55 89.57"/>
  <path fill="none" d="M114.78,43.48 L 97.3 61.31"/>
  <path fill="none" d="M116.81,44.06 L 119.43 55.7"/>
  <path fill="none" d="M96.85,115.36 L 91.82 91.87"/>
  <path fill="none" d="M96.86,115.35 L 93.94 101.13"/>
  <path fill="none" d="M95.79,115.93 L 79.94 100.14"/>
  <path fill="none" d="M97.68,119.51 L 102.39 144.56"/>
  <path fill="none" d="M46.27,102.21 L 61.68 83.85"/>
  <path fill="none" d="M46.88,104.04 L 66.07 108.44"/>
  <path fill="none" d="M43.3,104.07 L 19.75 109.97"/>
  <path fill="none" d="M33.39,80.16 L 28.16 65.09"/>
  <path fill="none" d="M33.39,80.16 L 69.32 89.15"/>
  <path fill="none" d="M144.32,64.43 L 117.4 66.39"/>
  <path fill="none" d="M68.02,75.81 L 89.52 88.67"/>
  <path fill="none" d="M64.63,75.79 L 33.23 94.06"/>
  <path fill="none" d="M68.28,74.58 L 84.17 72.76"/>
  <path fill="none" d="M67.8,76.11 L 91.92 97.62"/>
  <path fill="none" d="M65.05,73.31 L 46.99 52.2"/>
  <path fill="none" d="M67.06,72.97 L 76.37 49.49"/>
  <path fill="none" d="M44.14,78.88 L 15.97 65.19"/>
  <path fill="none" d="M44.41,79.46 L 37.35 110.11"/>
  <path fill="none" d="M44.19,78.79 L 28.17 65.08"/>
  <path fill="none" d="M92.99,88.35 L 106.78 76.28"/>
  <path fill="none" d="M89.28,89.26 L 63.86 83.13"/>
  <path fill="none" d="M90.78,91.84 L 83.69 116.87"/>
  <path fill="none" d="M90.76,87.71 L 86.85 74.53"/>
  <path fill="none" d="M89.63,91.03 L 80.11 97.94"/>
  <path fill="none" d="M92.91,88.27 L 113.69 68.06"/>
  <path fill="none" d="M56.05,55.69 L 62.24 81.5"/>
  <path fill="none" d="M56.67,55.1 L 85.68 64.18"/>
  <path fill="none" d="M56.43,55.49 L 64.49 64.45"/>
  <path fill="none" d="M55.03,55.14 L 28.18 65.04"/>
  <path fill="none" d="M55.03,54.52 L 47.48 51.52"/>
  <path fill="none" d="M55.98,53.98 L 60.03 27.54"/>
  <path fill="none" d="M106.46,73.93 L 88.12 65.14"/>
  <path fill="none" d="M102.32,51.55 L 113.83 64.91"/>
  <path fill="none" d="M57.66,136.54 L 67.36 110.85"/>
  <path fill="none" d="M57.36,136.45 L 59.81 124.97"/>
  <path fill="none" d="M63.9,82.88 L 82.62 83.88"/>
  <path fill="none" d="M63.55,83.72 L 69.39 89.01"/>
  <path fill="none" d="M86.18,65.65 L 69.85 88.96"/>
  <path fill="none" d="M88.25,64.67 L 113.08 66.4"/>
  <path fill="none" d="M15.98,65.12 L 28.11 65.06"/>
  <path fill="none" d="M141.32,53 L 117.16 65.55"/>
  <path fill="none" d="M102.68,122.71 L 85.88 110.72"/>
  <path fill="none" d="M102.76,125.32 L 87.68 137.67"/>
  <path fill="none" d="M104.72,121.83 L 108.34 95.69"/>
  <path fill="none" d="M38.14,111.32 L 47.96 113.16"/>
  <path fill="none" d="M38.03,111.63 L 58.92 123.02"/>
  <path fill="none" d="M83.93,111.59 L 83.35 116.8"/>
  <path fill="none" d="M82.06,109.42 L 70.16 108.98"/>
  <path fill="none" d="M84.22,107.39 L 84.7 86.13"/>
  <path fill="none" d="M33.14,94.57 L 48.34 112.5"/>
  <path fill="none" d="M32.62,94.56 L 19.41 109.4"/>
  <path fill="none" d="M83.42,120.98 L 85.75 136.92"/>
  <path fill="none" d="M69.01,107.05 L 85.32 74.4"/>
  <path fill="none" d="M69.6,107.49 L 77.49 100.11"/>
  <path fill="none" d="M50.09,112.87 L 77.2 99.69"/>
  <path fill="none" d="M49.9,114.14 L 59.11 122.75"/>
  <path fill="none" d="M84.26,71.89 L 67.94 66.67"/>
  <path fill="none" d="M88.3,72.1 L 113.12 66.99"/>
  <path fill="none" d="M86.06,70.44 L 82.71 33.65"/>
  <path fill="none" d="M88.11,73.48 L 107.24 83.36"/>
  <path fill="none" d="M95.52,98.31 L 106.63 94.31"/>
  <path fill="none" d="M85.74,82.1 L 94.78 64.79"/>
  <path fill="none" d="M67.02,64.21 L 76.06 49.33"/>
  <path fill="none" d="M77.56,97.69 L 69.89 89.49"/>
  <path fill="none" d="M79.46,97.4 L 94.86 64.83"/>
  <path fill="none" d="M100.83,145.77 L 87.97 139.88"/>
  <path fill="none" d="M95.87,15.14 L 83.87 29.83"/>
  <path fill="none" d="M128.96,95.11 L 110.94 85.32"/>
  <path fill="none" d="M128.71,95.91 L 110.74 93.83"/>
  <path fill="none" d="M69.56,89.57 L 60.45 122.37"/>
  <path fill="none" d="M69.99,89.28 L 106.52 93.35"/>
  <path fill="none" d="M62.46,25.97 L 80.43 30.93"/>
  <path fill="none" d="M114.53,68.59 L 109.79 82.34"/>
  <path fill="none" d="M119.25,60.06 L 109.27 91.56"/>
  <path fill="none" d="M84.24,137.93 L 61.25 124.35"/>
</g>
<g stroke-width="0.42" stroke="#D3D3D3" id="img-985d27e4-2">
</g>
<g font-size="4" stroke="#000000" stroke-opacity="0.000" fill="#000000" id="img-985d27e4-3">
</g>
<g stroke-width="0" stroke="#000000" id="img-985d27e4-4">
  <circle cx="103.01" cy="36.88" r="2.12" fill="#C3E4F8"/>
  <circle cx="74.18" cy="63.86" r="1" fill="#FF9A89"/>
  <circle cx="77.66" cy="89.51" r="1.71" fill="#FFD7CD"/>
  <circle cx="13.33" cy="80.47" r="0.01" fill="#610102"/>
  <circle cx="66.41" cy="100" r="1.61" fill="#FFD0C4"/>
  <circle cx="116.33" cy="41.89" r="2.13" fill="#C3E4F8"/>
  <circle cx="97.29" cy="117.43" r="2.03" fill="#E3F3FC"/>
  <circle cx="45.09" cy="103.62" r="1.77" fill="#FFDBD2"/>
  <circle cx="33.39" cy="80.16" r="0" fill="#610102"/>
  <circle cx="146.67" cy="64.26" r="2.26" fill="#A4D3F4"/>
  <circle cx="66.33" cy="74.8" r="1.89" fill="#FFE1D8"/>
  <circle cx="44.5" cy="79.06" r="0.39" fill="#D8473B"/>
  <circle cx="91.37" cy="89.77" r="2.07" fill="#FFF3EF"/>
  <circle cx="55.84" cy="54.84" r="0.84" fill="#FF8A78"/>
  <circle cx="108.4" cy="74.86" r="2.07" fill="#FFF1ED"/>
  <circle cx="100.93" cy="49.92" r="2.06" fill="#FFF0EB"/>
  <circle cx="56.93" cy="138.46" r="1.97" fill="#FFF1ED"/>
  <circle cx="62.55" cy="82.81" r="1.3" fill="#FFB8A9"/>
  <circle cx="86.94" cy="64.57" r="1.27" fill="#FFB6A6"/>
  <circle cx="15.82" cy="65.12" r="0.15" fill="#9A1814"/>
  <circle cx="143.41" cy="51.91" r="2.26" fill="#A4D3F4"/>
  <circle cx="104.42" cy="123.96" r="2.06" fill="#E1F2FC"/>
  <circle cx="37.11" cy="111.13" r="1" fill="#FF9D8B"/>
  <circle cx="84.17" cy="109.49" r="2.02" fill="#FFF3EF"/>
  <circle cx="32.89" cy="94.26" r="0.38" fill="#D54438"/>
  <circle cx="83.11" cy="118.9" r="2.03" fill="#ECF7FD"/>
  <circle cx="68.09" cy="108.91" r="1.99" fill="#FFF3EF"/>
  <circle cx="49.07" cy="113.37" r="1.09" fill="#FFA594"/>
  <circle cx="86.25" cy="72.53" r="2.01" fill="#E7F5FD"/>
  <circle cx="93.51" cy="99.04" r="2.05" fill="#E7F5FD"/>
  <circle cx="84.75" cy="83.99" r="2.05" fill="#FFEEE9"/>
  <circle cx="65.91" cy="66.02" r="2.04" fill="#FFE9E3"/>
  <circle cx="78.73" cy="98.94" r="1.64" fill="#FFD2C6"/>
  <circle cx="28.14" cy="65.06" r="0.03" fill="#6C0303"/>
  <circle cx="102.78" cy="146.67" r="2.06" fill="#C7E6F9"/>
  <circle cx="97.34" cy="13.33" r="2.23" fill="#A4D3F4"/>
  <circle cx="130.89" cy="96.16" r="2.11" fill="#D6EDFB"/>
  <circle cx="69.65" cy="89.24" r="0.33" fill="#CB3B31"/>
  <circle cx="45.86" cy="50.87" r="1.67" fill="#FFD4C8"/>
  <circle cx="60.36" cy="25.39" r="2.09" fill="#FFF0EB"/>
  <circle cx="95.78" cy="62.86" r="2.09" fill="#FFF5F1"/>
  <circle cx="115.24" cy="66.55" r="2.08" fill="#DFF1FC"/>
  <circle cx="77.14" cy="47.55" r="2" fill="#E1F2FC"/>
  <circle cx="119.93" cy="57.91" r="2.17" fill="#C5E5F9"/>
  <circle cx="82.51" cy="31.5" r="2.07" fill="#C7E6F9"/>
  <circle cx="86.05" cy="139.01" r="2.02" fill="#E5F4FD"/>
  <circle cx="109.1" cy="84.32" r="2.01" fill="#E1F2FC"/>
  <circle cx="18.64" cy="110.25" r="1.1" fill="#FFA796"/>
  <circle cx="60.09" cy="123.66" r="1.29" fill="#FFB8A9"/>
  <circle cx="108.63" cy="93.58" r="2.04" fill="#FFE9E3"/>
</g>
<g font-size="4" stroke="#000000" stroke-opacity="0.000" fill="#000000" id="img-985d27e4-5">
</g>
</svg>
