<?xml version="1.0" encoding="UTF-8"?>
<svg xmlns="http://www.w3.org/2000/svg"
     xmlns:xlink="http://www.w3.org/1999/xlink"
     xmlns:gadfly="http://www.gadflyjl.org/ns"
     version="1.2"
     width="160mm" height="160mm" viewBox="0 0 160 160"
     stroke="none"
     fill="#000000"
     stroke-width="0.3"
     font-size="3.88"
>
<g stroke-width="0.42" fill="#000000" fill-opacity="0.000" stroke="#D3D3D3" id="img-efb58b3f-1">
  <path fill="none" d="M129.75,140.54 L 140.91 131.68"/>
  <path fill="none" d="M126.46,140.14 L 114.55 124.68"/>
  <path fill="none" d="M126.95,139.85 L 121.39 127.14"/>
  <path fill="none" d="M125.6,142.52 L 109.16 146.16"/>
  <path fill="none" d="M128.55,139.74 L 130.14 134.2"/>
  <path fill="none" d="M140.47,129.65 L 115.33 123.48"/>
  <path fill="none" d="M142.53,127.87 L 140.77 109.13"/>
  <path fill="none" d="M140.42,130.55 L 133.11 131.61"/>
  <path fill="none" d="M111.57,121.57 L 98.18 110.32"/>
  <path fill="none" d="M111.65,121.47 L 87.38 98.4"/>
  <path fill="none" d="M138.95,108.42 L 122.15 123.63"/>
  <path fill="none" d="M139.54,105.03 L 124.07 76.02"/>
  <path fill="none" d="M118.37,124.51 L 82.17 114.37"/>
  <path fill="none" d="M124.61,73.18 L 145.29 55.69"/>
  <path fill="none" d="M124.47,73.02 L 135.33 61.51"/>
  <path fill="none" d="M122.56,72.63 L 112.2 43.9"/>
  <path fill="none" d="M121.42,74.96 L 73.74 90.58"/>
  <path fill="none" d="M145.1,55.41 L 138.13 59.32"/>
  <path fill="none" d="M145.04,53.74 L 126.12 44.59"/>
  <path fill="none" d="M135.5,58.75 L 125.57 45.26"/>
  <path fill="none" d="M134.97,61.03 L 113.37 72.32"/>
  <path fill="none" d="M123.78,45.46 L 112.5 71.5"/>
  <path fill="none" d="M122.88,43 L 106.66 34.92"/>
  <path fill="none" d="M123.03,42.74 L 96.5 23.55"/>
  <path fill="none" d="M110.39,72.04 L 84.83 51.9"/>
  <path fill="none" d="M111.29,71.43 L 107.55 58.42"/>
  <path fill="none" d="M110.76,74.6 L 103.16 85.42"/>
  <path fill="none" d="M110.84,74.65 L 91.39 105.49"/>
  <path fill="none" d="M112.53,74.77 L 122.79 97.39"/>
  <path fill="none" d="M103.69,34.99 L 86.83 44.52"/>
  <path fill="none" d="M103.83,35.2 L 84.84 49.91"/>
  <path fill="none" d="M84.93,46.82 L 84.08 49.37"/>
  <path fill="none" d="M84.09,46.15 L 64.24 58.66"/>
  <path fill="none" d="M82.07,51.51 L 64.29 58.76"/>
  <path fill="none" d="M81.98,50.62 L 50.95 45.07"/>
  <path fill="none" d="M84.16,52.4 L 86.11 57.36"/>
  <path fill="none" d="M63.25,58.52 L 37.46 29.7"/>
  <path fill="none" d="M63.17,59.42 L 46.49 72.51"/>
  <path fill="none" d="M64.02,59.58 L 85.01 95.42"/>
  <path fill="none" d="M50.13,43.88 L 53.51 26.27"/>
  <path fill="none" d="M49.9,45.92 L 49.42 60.78"/>
  <path fill="none" d="M53.09,25.88 L 37.49 29.6"/>
  <path fill="none" d="M54.12,25.89 L 85.66 33.96"/>
  <path fill="none" d="M13.34,20.72 L 37.31 29.59"/>
  <path fill="none" d="M13.34,20.73 L 31.93 36.43"/>
  <path fill="none" d="M37.43,29.54 L 43.93 15.21"/>
  <path fill="none" d="M31.93,36.43 L 43.93 15.21"/>
  <path fill="none" d="M31.93,36.43 L 59.55 28.77"/>
  <path fill="none" d="M31.93,36.43 L 46.29 72.46"/>
  <path fill="none" d="M43.96,15.2 L 59.56 28.72"/>
  <path fill="none" d="M43.97,15.19 L 71.67 13.34"/>
  <path fill="none" d="M59.62,28.71 L 71.73 13.45"/>
  <path fill="none" d="M59.64,28.75 L 95.8 23.38"/>
  <path fill="none" d="M59.58,28.8 L 49.6 60.81"/>
  <path fill="none" d="M71.96,13.39 L 95.83 23.17"/>
  <path fill="none" d="M71.91,13.46 L 86.01 33.46"/>
  <path fill="none" d="M96.43,23.62 L 110.94 41.65"/>
  <path fill="none" d="M87.34,34.46 L 110.52 42.25"/>
  <path fill="none" d="M87.1,34.83 L 105.92 55.51"/>
  <path fill="none" d="M86.52,35.06 L 86.68 57.25"/>
  <path fill="none" d="M111.34,43.91 L 107.61 55.15"/>
  <path fill="none" d="M106.79,58.46 L 102.41 85.11"/>
  <path fill="none" d="M97.15,107.17 L 101.68 88.68"/>
  <path fill="none" d="M94.98,108.11 L 65.94 91.73"/>
  <path fill="none" d="M100.52,87.78 L 74.66 101.83"/>
  <path fill="none" d="M65.41,92.32 L 71.88 101.21"/>
  <path fill="none" d="M63.47,89.15 L 49.7 62.04"/>
  <path fill="none" d="M74.04,104.31 L 79.28 112.26"/>
  <path fill="none" d="M71.12,103 L 50.29 105.98"/>
  <path fill="none" d="M49.48,62.1 L 52.49 87.17"/>
  <path fill="none" d="M78.92,112.57 L 53.86 89.83"/>
  <path fill="none" d="M78.45,113.52 L 59.24 110.05"/>
  <path fill="none" d="M51.58,89.91 L 43.2 98.65"/>
  <path fill="none" d="M53.84,87.66 L 67.83 74.35"/>
  <path fill="none" d="M55.71,108.68 L 43.5 101.03"/>
  <path fill="none" d="M55.57,108.98 L 50.2 106.77"/>
  <path fill="none" d="M43.3,101.29 L 47.65 105.18"/>
  <path fill="none" d="M43.71,99.49 L 71.2 91.37"/>
  <path fill="none" d="M48.68,104.67 L 46.36 72.79"/>
  <path fill="none" d="M49.8,107.32 L 70.6 130.45"/>
  <path fill="none" d="M71.39,90.23 L 46.49 72.72"/>
  <path fill="none" d="M71.88,92.18 L 57.3 120.93"/>
  <path fill="none" d="M46.52,72.63 L 67.54 73.56"/>
  <path fill="none" d="M69.66,73.89 L 94.52 80.58"/>
  <path fill="none" d="M69.46,72.92 L 85.47 59.84"/>
  <path fill="none" d="M95.57,79.35 L 87.33 60.29"/>
  <path fill="none" d="M95.3,82.63 L 87.02 95.46"/>
  <path fill="none" d="M97.86,82.09 L 121.96 98.1"/>
  <path fill="none" d="M86.75,98.84 L 89.57 105.34"/>
  <path fill="none" d="M84.96,98.7 L 70.82 121.19"/>
  <path fill="none" d="M88.79,108.33 L 71.35 121.67"/>
  <path fill="none" d="M89.18,108.71 L 73.21 130.33"/>
  <path fill="none" d="M68.05,123.97 L 50.52 135.06"/>
  <path fill="none" d="M67.74,122.87 L 58.41 122.76"/>
  <path fill="none" d="M49.79,134.37 L 55.38 124.5"/>
  <path fill="none" d="M50.81,135.81 L 69.95 132.35"/>
  <path fill="none" d="M58.12,123.77 L 70.21 130.93"/>
  <path fill="none" d="M73.89,132.79 L 104.71 145.76"/>
  <path fill="none" d="M124.03,101.14 L 130.29 129.66"/>
  <path fill="none" d="M108.86,145.44 L 128.8 133.17"/>
</g>
<g stroke-width="0.42" stroke="#D3D3D3" id="img-efb58b3f-2">
</g>
<g font-size="4" stroke="#000000" stroke-opacity="0.000" fill="#000000" id="img-efb58b3f-3">
</g>
<g stroke-width="0" stroke="#000000" id="img-efb58b3f-4">
  <circle cx="127.9" cy="142.01" r="2.26" fill="#6EAEE4"/>
  <circle cx="142.75" cy="130.21" r="2.26" fill="#6EAEE4"/>
  <circle cx="113.22" cy="122.96" r="2.08" fill="#91C7F0"/>
  <circle cx="140.56" cy="106.96" r="2.09" fill="#8EC5EF"/>
  <circle cx="120.5" cy="125.11" r="2.12" fill="#86C0ED"/>
  <circle cx="123.19" cy="74.38" r="1.79" fill="#E3F3FC"/>
  <circle cx="146.67" cy="54.52" r="1.73" fill="#D6EDFB"/>
  <circle cx="136.57" cy="60.2" r="1.73" fill="#D6EDFB"/>
  <circle cx="124.5" cy="43.8" r="1.74" fill="#FFEDE7"/>
  <circle cx="111.79" cy="73.14" r="1.71" fill="#DCF0FC"/>
  <circle cx="105.16" cy="34.17" r="1.61" fill="#FFF0EB"/>
  <circle cx="85.44" cy="45.3" r="1.53" fill="#FFDBD2"/>
  <circle cx="83.57" cy="50.9" r="1.55" fill="#FFDBD2"/>
  <circle cx="63.69" cy="59.01" r="0.63" fill="#FB7C6A"/>
  <circle cx="49.94" cy="44.89" r="0.99" fill="#FFAA99"/>
  <circle cx="53.6" cy="25.75" r="0.51" fill="#F06756"/>
  <circle cx="13.33" cy="20.72" r="0.01" fill="#610102"/>
  <circle cx="37.39" cy="29.63" r="0.09" fill="#8B100E"/>
  <circle cx="31.93" cy="36.43" r="0" fill="#610102"/>
  <circle cx="43.94" cy="15.19" r="0.02" fill="#6C0303"/>
  <circle cx="59.59" cy="28.75" r="0.05" fill="#770706"/>
  <circle cx="71.82" cy="13.33" r="0.15" fill="#A31E19"/>
  <circle cx="96.19" cy="23.32" r="0.37" fill="#DD4D40"/>
  <circle cx="86.51" cy="34.18" r="0.84" fill="#FF9886"/>
  <circle cx="111.76" cy="42.67" r="1.26" fill="#FFC5B8"/>
  <circle cx="107.07" cy="56.77" r="1.64" fill="#FFEEE9"/>
  <circle cx="96.68" cy="109.07" r="1.87" fill="#B6DDF7"/>
  <circle cx="102.12" cy="86.91" r="1.75" fill="#CFEAFA"/>
  <circle cx="64.32" cy="90.81" r="1.79" fill="#FFF5F1"/>
  <circle cx="73" cy="102.73" r="1.81" fill="#DCF0FC"/>
  <circle cx="49.4" cy="61.44" r="0.64" fill="#FB7C6A"/>
  <circle cx="80.33" cy="113.86" r="1.83" fill="#D1EBFA"/>
  <circle cx="52.68" cy="88.76" r="1.53" fill="#FFDBD2"/>
  <circle cx="57.35" cy="109.71" r="1.85" fill="#E5F4FD"/>
  <circle cx="41.89" cy="100.02" r="1.82" fill="#FFEDE7"/>
  <circle cx="48.79" cy="106.19" r="1.46" fill="#FFD5CB"/>
  <circle cx="72.48" cy="90.99" r="1.27" fill="#FFC5B8"/>
  <circle cx="46.35" cy="72.62" r="0.17" fill="#A8211B"/>
  <circle cx="68.62" cy="73.61" r="1.04" fill="#FFAF9E"/>
  <circle cx="96.31" cy="81.06" r="1.79" fill="#ECF7FD"/>
  <circle cx="86.7" cy="58.84" r="1.52" fill="#FFD9CF"/>
  <circle cx="85.98" cy="97.08" r="1.84" fill="#DFF1FC"/>
  <circle cx="90.34" cy="107.14" r="1.88" fill="#BBE0F7"/>
  <circle cx="69.75" cy="122.89" r="1.93" fill="#B3DCF6"/>
  <circle cx="48.76" cy="136.18" r="2" fill="#A7D4F4"/>
  <circle cx="56.38" cy="122.74" r="1.95" fill="#C5E5F9"/>
  <circle cx="71.98" cy="131.99" r="1.98" fill="#B9DEF7"/>
  <circle cx="123.61" cy="99.2" r="1.9" fill="#B1DAF6"/>
  <circle cx="106.87" cy="146.67" r="2.25" fill="#73B2E7"/>
  <circle cx="130.79" cy="131.95" r="2.25" fill="#71B0E5"/>
</g>
<g font-size="4" stroke="#000000" stroke-opacity="0.000" fill="#000000" id="img-efb58b3f-5">
</g>
</svg>
