<?xml version="1.0" encoding="UTF-8"?>
<svg xmlns="http://www.w3.org/2000/svg"
     xmlns:xlink="http://www.w3.org/1999/xlink"
     xmlns:gadfly="http://www.gadflyjl.org/ns"
     version="1.2"
     width="160mm" height="160mm" viewBox="0 0 160 160"
     stroke="none"
     fill="#000000"
     stroke-width="0.3"
     font-size="3.88"
>
<g stroke-width="0.42" fill="#000000" fill-opacity="0.000" stroke="#D3D3D3" id="img-d9b377a7-1">
  <path fill="none" d="M72.94,95.69 L 97.4 101.6"/>
  <path fill="none" d="M72.63,95.23 L 75.21 81.5"/>
  <path fill="none" d="M72.65,95.98 L 79.22 125.38"/>
  <path fill="none" d="M72.2,95.49 L 47.61 87.46"/>
  <path fill="none" d="M72.55,95.99 L 71.08 133.09"/>
  <path fill="none" d="M72.7,95.25 L 86.06 61.13"/>
  <path fill="none" d="M72.29,95.33 L 55.07 78.05"/>
  <path fill="none" d="M72.84,95.34 L 91.75 77.21"/>
  <path fill="none" d="M100.5,84.27 L 100.53 47.51"/>
  <path fill="none" d="M100.65,85 L 114.54 116.65"/>
  <path fill="none" d="M100.86,84.53 L 131.7 74.25"/>
  <path fill="none" d="M100.13,84.52 L 72.47 74.37"/>
  <path fill="none" d="M100.35,85.01 L 90.8 108.28"/>
  <path fill="none" d="M100.3,84.32 L 86.4 61.11"/>
  <path fill="none" d="M100.31,84.99 L 82.96 115.48"/>
  <path fill="none" d="M109.02,71.39 L 100.66 47.49"/>
  <path fill="none" d="M108.92,71.45 L 92.91 50.32"/>
  <path fill="none" d="M109.27,72.12 L 120.76 109.17"/>
  <path fill="none" d="M109.5,71.6 L 134.08 61.19"/>
  <path fill="none" d="M108.8,71.59 L 86.55 60.94"/>
  <path fill="none" d="M108.89,72.04 L 86.79 96.51"/>
  <path fill="none" d="M47.71,48.68 L 28.35 58.14"/>
  <path fill="none" d="M48.45,48.42 L 61.69 45.67"/>
  <path fill="none" d="M48.39,48.72 L 78.47 68.94"/>
  <path fill="none" d="M124.65,90.51 L 97.7 120.55"/>
  <path fill="none" d="M124.65,90.51 L 111.82 104.95"/>
  <path fill="none" d="M125.04,89.83 L 134.31 61.41"/>
  <path fill="none" d="M124.81,89.83 L 116.93 61.97"/>
  <path fill="none" d="M39.86,38.28 L 74.85 22.18"/>
  <path fill="none" d="M39.17,38.15 L 16.62 14.61"/>
  <path fill="none" d="M39.54,38.89 L 47.1 86.87"/>
  <path fill="none" d="M39.54,38.89 L 42.7 59.68"/>
  <path fill="none" d="M75.58,22.31 L 100.24 46.82"/>
  <path fill="none" d="M75.7,22.06 L 102.5 26.15"/>
  <path fill="none" d="M97.02,120.84 L 63.57 119.97"/>
  <path fill="none" d="M97.43,120.44 L 97.76 102.08"/>
  <path fill="none" d="M97.23,120.49 L 90.84 108.97"/>
  <path fill="none" d="M97.06,121.03 L 71.42 133.31"/>
  <path fill="none" d="M97.78,121.05 L 120.17 133.58"/>
  <path fill="none" d="M62.89,119.53 L 47.37 87.73"/>
  <path fill="none" d="M63.56,119.86 L 82.37 115.91"/>
  <path fill="none" d="M15.63,94.3 L 46.72 87.42"/>
  <path fill="none" d="M114.41,116.75 L 98.06 101.95"/>
  <path fill="none" d="M114.84,117.4 L 120.41 133.38"/>
  <path fill="none" d="M146.4,47.28 L 134.69 60.75"/>
  <path fill="none" d="M146.3,47.15 L 117.17 61.42"/>
  <path fill="none" d="M97.49,101.43 L 75.56 81.38"/>
  <path fill="none" d="M97.72,102.07 L 93.59 134.01"/>
  <path fill="none" d="M98.14,101.79 L 111.19 105.14"/>
  <path fill="none" d="M97.49,101.95 L 83.05 115.55"/>
  <path fill="none" d="M97.94,101.34 L 116.65 61.94"/>
  <path fill="none" d="M97.42,101.84 L 82.7 108.27"/>
  <path fill="none" d="M75.22,80.74 L 71.33 52"/>
  <path fill="none" d="M75.38,80.75 L 78.69 69.53"/>
  <path fill="none" d="M102.73,26.57 L 92.83 49.67"/>
  <path fill="none" d="M103.03,26.57 L 116.68 61.23"/>
  <path fill="none" d="M28.31,58.54 L 54.48 77.54"/>
  <path fill="none" d="M98.34,36.52 L 74.35 42.64"/>
  <path fill="none" d="M98.53,36.77 L 86.37 60.43"/>
  <path fill="none" d="M98.94,36.74 L 116.59 61.28"/>
  <path fill="none" d="M114.88,48.36 L 134.11 60.83"/>
  <path fill="none" d="M114.22,48.35 L 79.13 68.96"/>
  <path fill="none" d="M131.77,73.87 L 117.12 61.84"/>
  <path fill="none" d="M74.2,43.05 L 85.98 60.46"/>
  <path fill="none" d="M73.79,43.07 L 54.98 77.43"/>
  <path fill="none" d="M92.3,50.05 L 71.67 51.59"/>
  <path fill="none" d="M92.67,50.4 L 92.04 76.56"/>
  <path fill="none" d="M92.46,50.33 L 79.02 68.84"/>
  <path fill="none" d="M49.39,106.6 L 54.73 78.15"/>
  <path fill="none" d="M49.7,107 L 81.96 108.41"/>
  <path fill="none" d="M79.66,125.91 L 104.59 136.89"/>
  <path fill="none" d="M79.08,125.45 L 62.61 102.94"/>
  <path fill="none" d="M79.4,125.39 L 86.42 97.21"/>
  <path fill="none" d="M79.43,125.4 L 82.63 116.2"/>
  <path fill="none" d="M79.46,126.11 L 88.63 146.31"/>
  <path fill="none" d="M71.98,73.88 L 62.2 45.96"/>
  <path fill="none" d="M72.29,74.57 L 90.48 108.29"/>
  <path fill="none" d="M71.77,74.07 L 43.1 60.22"/>
  <path fill="none" d="M72.49,74.29 L 91.65 76.89"/>
  <path fill="none" d="M105.34,137.08 L 129.02 139.4"/>
  <path fill="none" d="M105.33,136.97 L 120.12 133.88"/>
  <path fill="none" d="M104.71,136.74 L 82.58 108.73"/>
  <path fill="none" d="M121.01,110 L 129.33 139.02"/>
  <path fill="none" d="M120.89,110.02 L 120.56 133.35"/>
  <path fill="none" d="M120.49,109.43 L 86.9 96.96"/>
  <path fill="none" d="M62.4,45.8 L 85.87 60.57"/>
  <path fill="none" d="M47.62,87.43 L 86.12 96.72"/>
  <path fill="none" d="M90.7,109.01 L 93.49 134.01"/>
  <path fill="none" d="M90.68,108.25 L 92.01 77.32"/>
  <path fill="none" d="M90.64,109.02 L 88.81 146.27"/>
  <path fill="none" d="M93.39,134.77 L 88.93 146.3"/>
  <path fill="none" d="M111.18,105.28 L 82.73 108.39"/>
  <path fill="none" d="M129.04,139.56 L 106.1 146.44"/>
  <path fill="none" d="M105.52,146.22 L 82.54 108.76"/>
  <path fill="none" d="M105.33,146.56 L 89.18 146.66"/>
  <path fill="none" d="M62.55,102.28 L 78.63 69.5"/>
  <path fill="none" d="M54.58,77.45 L 42.97 60.37"/>
  <path fill="none" d="M55.06,78.06 L 82.09 108.14"/>
  <path fill="none" d="M116.49,61.8 L 92.36 76.74"/>
  <path fill="none" d="M82.31,108.04 L 78.83 69.54"/>
</g>
<g stroke-width="0.42" stroke="#D3D3D3" id="img-d9b377a7-2">
</g>
<g font-size="4" stroke="#000000" stroke-opacity="0.000" fill="#000000" id="img-d9b377a7-3">
</g>
<g stroke-width="0" stroke="#000000" id="img-d9b377a7-4">
  <circle cx="72.56" cy="95.61" r="0.37" fill="#610102"/>
  <circle cx="100.49" cy="84.65" r="0.37" fill="#610102"/>
  <circle cx="109.15" cy="71.75" r="0.37" fill="#610102"/>
  <circle cx="48.06" cy="48.5" r="0.38" fill="#610102"/>
  <circle cx="124.91" cy="90.21" r="0.38" fill="#670202"/>
  <circle cx="39.47" cy="38.46" r="0.41" fill="#800B09"/>
  <circle cx="75.26" cy="21.99" r="0.43" fill="#860D0B"/>
  <circle cx="97.43" cy="120.85" r="0.39" fill="#6F0404"/>
  <circle cx="15.39" cy="13.33" r="1.7" fill="#8CC4EE"/>
  <circle cx="63.1" cy="119.96" r="0.46" fill="#921411"/>
  <circle cx="100.53" cy="47.11" r="0.39" fill="#6D0404"/>
  <circle cx="13.33" cy="94.81" r="2.26" fill="#092C58"/>
  <circle cx="114.7" cy="117.02" r="0.39" fill="#6B0303"/>
  <circle cx="146.67" cy="46.97" r="0.39" fill="#6B0303"/>
  <circle cx="97.77" cy="101.69" r="0.37" fill="#610102"/>
  <circle cx="75.28" cy="81.12" r="0.37" fill="#610102"/>
  <circle cx="102.88" cy="26.21" r="0.37" fill="#650202"/>
  <circle cx="27.99" cy="58.31" r="0.38" fill="#610102"/>
  <circle cx="98.71" cy="36.43" r="0.37" fill="#610102"/>
  <circle cx="114.55" cy="48.15" r="0.37" fill="#610102"/>
  <circle cx="132.08" cy="74.12" r="0.38" fill="#6B0303"/>
  <circle cx="73.98" cy="42.73" r="0.37" fill="#610102"/>
  <circle cx="92.68" cy="50.02" r="0.37" fill="#610102"/>
  <circle cx="71.28" cy="51.62" r="0.37" fill="#610102"/>
  <circle cx="49.32" cy="106.98" r="0.37" fill="#610102"/>
  <circle cx="79.3" cy="125.76" r="0.37" fill="#610102"/>
  <circle cx="72.11" cy="74.24" r="0.37" fill="#610102"/>
  <circle cx="104.95" cy="137.05" r="0.38" fill="#650202"/>
  <circle cx="120.89" cy="109.58" r="0.42" fill="#7C0908"/>
  <circle cx="62.07" cy="45.6" r="0.37" fill="#610102"/>
  <circle cx="47.17" cy="87.32" r="0.44" fill="#8B100E"/>
  <circle cx="90.66" cy="108.63" r="0.37" fill="#610102"/>
  <circle cx="93.54" cy="134.4" r="0.38" fill="#690303"/>
  <circle cx="111.56" cy="105.24" r="0.37" fill="#630202"/>
  <circle cx="134.43" cy="61.04" r="0.37" fill="#610102"/>
  <circle cx="71.06" cy="133.49" r="0.38" fill="#690303"/>
  <circle cx="129.45" cy="139.44" r="0.42" fill="#7C0908"/>
  <circle cx="105.72" cy="146.56" r="0.38" fill="#650202"/>
  <circle cx="120.55" cy="133.79" r="0.42" fill="#7C0908"/>
  <circle cx="86.2" cy="60.78" r="0.37" fill="#610102"/>
  <circle cx="62.39" cy="102.63" r="0.37" fill="#610102"/>
  <circle cx="86.51" cy="96.81" r="0.39" fill="#710504"/>
  <circle cx="82.76" cy="115.83" r="0.38" fill="#690303"/>
  <circle cx="54.8" cy="77.77" r="0.37" fill="#610102"/>
  <circle cx="42.76" cy="60.05" r="0.37" fill="#610102"/>
  <circle cx="116.82" cy="61.59" r="0.37" fill="#630202"/>
  <circle cx="82.34" cy="108.43" r="0.37" fill="#610102"/>
  <circle cx="92.03" cy="76.94" r="0.37" fill="#610102"/>
  <circle cx="88.79" cy="146.67" r="0.38" fill="#670202"/>
  <circle cx="78.8" cy="69.15" r="0.37" fill="#610102"/>
</g>
<g font-size="4" stroke="#000000" stroke-opacity="0.000" fill="#000000" id="img-d9b377a7-5">
</g>
</svg>
