<?xml version="1.0" encoding="UTF-8"?>
<svg xmlns="http://www.w3.org/2000/svg"
     xmlns:xlink="http://www.w3.org/1999/xlink"
     xmlns:gadfly="http://www.gadflyjl.org/ns"
     version="1.2"
     width="160mm" height="160mm" viewBox="0 0 160 160"
     stroke="none"
     fill="#000000"
     stroke-width="0.3"
     font-size="3.88"
>
<g stroke-width="0.42" fill="#000000" fill-opacity="0.000" stroke="#D3D3D3" id="img-b35e2517-1">
  <path fill="none" d="M91.86,118.85 L 63.47 120.61"/>
  <path fill="none" d="M92.04,119.59 L 87.8 121.51"/>
  <path fill="none" d="M91.9,118.27 L 71.54 113.91"/>
  <path fill="none" d="M95,116.85 L 109.97 89.44"/>
  <path fill="none" d="M94.55,120.77 L 98.93 136.53"/>
  <path fill="none" d="M84.4,73.93 L 83.09 62.06"/>
  <path fill="none" d="M84.06,74.73 L 60.33 93.54"/>
  <path fill="none" d="M83.99,74.62 L 78.94 76.7"/>
  <path fill="none" d="M84.95,74.41 L 115.38 73.75"/>
  <path fill="none" d="M83.97,74.29 L 60.04 67.58"/>
  <path fill="none" d="M54.57,62.48 L 82.15 61.26"/>
  <path fill="none" d="M54.51,62.7 L 78.91 76.7"/>
  <path fill="none" d="M53.8,62.65 L 29.41 72.67"/>
  <path fill="none" d="M54.45,62.79 L 57.96 66.35"/>
  <path fill="none" d="M44.83,90.61 L 56.92 104.92"/>
  <path fill="none" d="M45.25,87.84 L 67.8 73.28"/>
  <path fill="none" d="M50.47,78.82 L 54.59 88.13"/>
  <path fill="none" d="M50.28,78.89 L 57.72 104.49"/>
  <path fill="none" d="M50.64,76.11 L 66.21 50.44"/>
  <path fill="none" d="M50.88,78.55 L 69.01 98.55"/>
  <path fill="none" d="M49.53,75.92 L 45.51 56.89"/>
  <path fill="none" d="M48.35,77.12 L 29.48 73.34"/>
  <path fill="none" d="M38.61,43.97 L 35.25 47.73"/>
  <path fill="none" d="M41.33,44.08 L 58.09 66.24"/>
  <path fill="none" d="M35.71,50.22 L 43.47 54.22"/>
  <path fill="none" d="M35.55,50.48 L 57.83 66.51"/>
  <path fill="none" d="M61.2,78.1 L 55.93 88.17"/>
  <path fill="none" d="M61.67,77.38 L 77.17 58.09"/>
  <path fill="none" d="M61.75,77.45 L 82.33 61.73"/>
  <path fill="none" d="M61.83,77.69 L 78.9 76.71"/>
  <path fill="none" d="M61.13,78.06 L 42.3 102.35"/>
  <path fill="none" d="M55.49,91.04 L 57.93 104.44"/>
  <path fill="none" d="M56.74,89.37 L 80.9 86.77"/>
  <path fill="none" d="M54.7,90.98 L 52.11 98.24"/>
  <path fill="none" d="M77.79,57.5 L 96.04 44.22"/>
  <path fill="none" d="M77.22,58.13 L 69.38 71.62"/>
  <path fill="none" d="M77.47,58.18 L 78.92 76.69"/>
  <path fill="none" d="M77.87,57.73 L 91.53 57.02"/>
  <path fill="none" d="M61.6,119.01 L 59.4 95.73"/>
  <path fill="none" d="M62.33,119.1 L 69.22 99.6"/>
  <path fill="none" d="M61,119.18 L 52.3 101.47"/>
  <path fill="none" d="M61.14,122.32 L 52.61 144.49"/>
  <path fill="none" d="M101.62,92.34 L 78.94 76.72"/>
  <path fill="none" d="M101.59,92.48 L 89.03 95.55"/>
  <path fill="none" d="M83.65,121.3 L 60.22 107.69"/>
  <path fill="none" d="M85.86,120.14 L 87.72 97.09"/>
  <path fill="none" d="M87.19,124.25 L 98.07 136.98"/>
  <path fill="none" d="M144.93,14.93 L 128.96 29.59"/>
  <path fill="none" d="M59.89,108.13 L 74.16 122.17"/>
  <path fill="none" d="M68.78,48.67 L 95.81 43.69"/>
  <path fill="none" d="M67.22,50.68 L 68.7 71.47"/>
  <path fill="none" d="M66.62,47.33 L 59.95 24.2"/>
  <path fill="none" d="M65.45,49.43 L 46.92 54.57"/>
  <path fill="none" d="M68.73,49.49 L 91.59 56.62"/>
  <path fill="none" d="M96.28,44.47 L 83.52 60.56"/>
  <path fill="none" d="M98.19,44.11 L 116.69 55"/>
  <path fill="none" d="M98.27,42.97 L 125.06 32.07"/>
  <path fill="none" d="M69.7,71.9 L 82.34 61.75"/>
  <path fill="none" d="M68.32,73.72 L 59.82 93.14"/>
  <path fill="none" d="M69.93,72.39 L 99.4 65.87"/>
  <path fill="none" d="M69.77,71.99 L 91.72 57.6"/>
  <path fill="none" d="M68.16,73.63 L 52.47 98.41"/>
  <path fill="none" d="M67.76,72.08 L 59.94 67.83"/>
  <path fill="none" d="M102.06,31.8 L 93.1 55.87"/>
  <path fill="none" d="M104.83,49.54 L 83.74 60.82"/>
  <path fill="none" d="M105.36,49.98 L 100.2 65.15"/>
  <path fill="none" d="M28.82,92.97 L 57.92 94.32"/>
  <path fill="none" d="M27.31,91.3 L 28.27 74.28"/>
  <path fill="none" d="M28.5,93.85 L 40.22 102.63"/>
  <path fill="none" d="M83.66,61.75 L 100.33 75.26"/>
  <path fill="none" d="M60.33,95.23 L 73.38 105.67"/>
  <path fill="none" d="M70.09,112.2 L 69.46 99.63"/>
  <path fill="none" d="M71.16,112.61 L 86.94 96.73"/>
  <path fill="none" d="M68.82,113.14 L 42.78 104"/>
  <path fill="none" d="M99.45,66.02 L 78.94 76.7"/>
  <path fill="none" d="M99.61,65.26 L 93.44 57.86"/>
  <path fill="none" d="M100.53,65.44 L 116.67 56.55"/>
  <path fill="none" d="M100.26,66.29 L 110.04 86.79"/>
  <path fill="none" d="M120.07,78.09 L 118.18 57.35"/>
  <path fill="none" d="M118.57,80.76 L 88.94 95.3"/>
  <path fill="none" d="M84.88,85.51 L 100.16 77.1"/>
  <path fill="none" d="M78.92,76.73 L 69.68 98.43"/>
  <path fill="none" d="M102.64,75.01 L 117.06 57.01"/>
  <path fill="none" d="M100.95,77.82 L 91.53 99.54"/>
  <path fill="none" d="M70.06,99.07 L 89.38 100.81"/>
  <path fill="none" d="M46.52,56.3 L 57.91 66.41"/>
  <path fill="none" d="M65.04,91.68 L 59.15 68.45"/>
  <path fill="none" d="M67.11,93.83 L 89.44 100.51"/>
  <path fill="none" d="M66.44,94.75 L 73.74 105.32"/>
  <path fill="none" d="M63.88,94.01 L 42.75 102.94"/>
  <path fill="none" d="M93.28,57.97 L 109.94 86.84"/>
  <path fill="none" d="M118.59,54.33 L 126.41 33.38"/>
  <path fill="none" d="M116.07,74.76 L 111.24 86.75"/>
  <path fill="none" d="M86.93,94.97 L 59.73 68.12"/>
  <path fill="none" d="M88.47,96.92 L 90.12 99.63"/>
  <path fill="none" d="M86.86,96.65 L 76.05 105.64"/>
  <path fill="none" d="M15.38,117.26 L 40.09 104.2"/>
  <path fill="none" d="M77.1,121.86 L 90.07 102.23"/>
  <path fill="none" d="M139.78,96 L 112.12 88.52"/>
  <path fill="none" d="M92.21,100.11 L 109.44 88.94"/>
</g>
<g stroke-width="0.42" stroke="#D3D3D3" id="img-b35e2517-2">
</g>
<g font-size="4" stroke="#000000" stroke-opacity="0.000" fill="#000000" id="img-b35e2517-3">
</g>
<g stroke-width="0" stroke="#FF0000" id="img-b35e2517-4">
  <circle cx="93.98" cy="118.72" r="2.04" fill="#FFDFD6"/>
  <circle cx="84.45" cy="74.43" r="0.48" fill="#DD4D40"/>
  <circle cx="54.17" cy="62.5" r="0.38" fill="#CE3E33"/>
  <circle cx="43.47" cy="88.99" r="2.04" fill="#FFDFD6"/>
  <circle cx="49.85" cy="77.42" r="1.47" fill="#FFBDAE"/>
  <circle cx="40.04" cy="42.37" r="2.06" fill="#FFE1D8"/>
  <circle cx="33.87" cy="49.27" r="1.98" fill="#FFDDD4"/>
  <circle cx="61.4" cy="77.72" r="0.42" fill="#D54438"/>
  <circle cx="55.21" cy="89.53" r="1.48" fill="#FFBDAE"/>
  <circle cx="77.44" cy="57.75" r="0.41" fill="#D54438"/>
  <circle cx="61.76" cy="120.72" r="1.65" fill="#FFC7BA"/>
  <circle cx="101.76" cy="92.44" r="0.17" fill="#9A1814"/>
  <circle cx="85.67" cy="122.47" r="2.24" fill="#FFE9E3"/>
  <circle cx="146.67" cy="13.33" r="2.26" fill="#CFEAFA"/>
  <circle cx="58.33" cy="106.59" r="2.1" fill="#FFE2DA"/>
  <circle cx="67.1" cy="48.98" r="1.64" fill="#FFC7BA"/>
  <circle cx="97.08" cy="43.46" r="1.24" fill="#FFAA99"/>
  <circle cx="68.79" cy="72.64" r="1.13" fill="#FFA08E"/>
  <circle cx="102.77" cy="29.87" r="1.97" fill="#FFDBD2"/>
  <circle cx="59.32" cy="22.01" r="2.18" fill="#ECF7FD"/>
  <circle cx="105.67" cy="49.09" r="0.91" fill="#FF8775"/>
  <circle cx="27.22" cy="92.89" r="1.54" fill="#FFC1B3"/>
  <circle cx="83" cy="61.22" r="0.81" fill="#FB7C6A"/>
  <circle cx="59.27" cy="94.38" r="1.3" fill="#FFAF9E"/>
  <circle cx="70.16" cy="113.61" r="1.36" fill="#FFB3A3"/>
  <circle cx="100" cy="65.73" r="0.59" fill="#EA5D4E"/>
  <circle cx="120.24" cy="79.94" r="1.78" fill="#FFD2C6"/>
  <circle cx="83.01" cy="86.54" r="2.04" fill="#FFDFD6"/>
  <circle cx="78.92" cy="76.71" r="0.02" fill="#660202"/>
  <circle cx="101.61" cy="76.3" r="1.59" fill="#FFC3B5"/>
  <circle cx="69.43" cy="99.01" r="0.6" fill="#EC6051"/>
  <circle cx="45.13" cy="55.07" r="1.78" fill="#FFD2C6"/>
  <circle cx="65.46" cy="93.34" r="1.65" fill="#FFC7BA"/>
  <circle cx="92.7" cy="56.96" r="1.12" fill="#FF9D8B"/>
  <circle cx="51.53" cy="99.89" r="1.69" fill="#FFCCBF"/>
  <circle cx="118.04" cy="55.79" r="1.5" fill="#FFBFB0"/>
  <circle cx="28.34" cy="73.11" r="1.12" fill="#FF9D8B"/>
  <circle cx="116.49" cy="73.73" r="1.07" fill="#FF9886"/>
  <circle cx="87.82" cy="95.85" r="1.2" fill="#FFA594"/>
  <circle cx="58.84" cy="67.24" r="1.2" fill="#FFA594"/>
  <circle cx="13.33" cy="118.34" r="2.23" fill="#FFF0EB"/>
  <circle cx="75.82" cy="123.8" r="2.23" fill="#FFEDE7"/>
  <circle cx="142.02" cy="96.61" r="2.23" fill="#FFF1ED"/>
  <circle cx="90.92" cy="100.95" r="1.48" fill="#FFBDAE"/>
  <circle cx="110.69" cy="88.13" r="1.43" fill="#FFB8A9"/>
  <circle cx="99.53" cy="138.68" r="2.15" fill="#EEF8FE"/>
  <circle cx="74.72" cy="106.74" r="1.66" fill="#FFC9BC"/>
  <circle cx="41.39" cy="103.51" r="1.41" fill="#FFB8A9"/>
  <circle cx="51.77" cy="146.67" r="2.24" fill="#ECF7FD"/>
  <circle cx="127.23" cy="31.18" r="2.26" fill="#FFEBE5"/>
</g>
<g font-size="4" stroke="#000000" stroke-opacity="0.000" fill="#000000" id="img-b35e2517-5">
</g>
</svg>
