<?xml version="1.0" encoding="UTF-8"?>
<svg xmlns="http://www.w3.org/2000/svg"
     xmlns:xlink="http://www.w3.org/1999/xlink"
     xmlns:gadfly="http://www.gadflyjl.org/ns"
     version="1.2"
     width="160mm" height="160mm" viewBox="0 0 160 160"
     stroke="none"
     fill="#000000"
     stroke-width="0.3"
     font-size="3.88"
>
<g stroke-width="0.42" fill="#000000" fill-opacity="0.000" stroke="#D3D3D3" id="img-d5d66ea7-1">
  <path fill="none" d="M127.74,30.49 L 108.96 34.2"/>
  <path fill="none" d="M128.81,31.58 L 123.53 55.46"/>
  <path fill="none" d="M129.87,29.04 L 139.06 14.85"/>
  <path fill="none" d="M128.73,28.87 L 125.97 19.09"/>
  <path fill="none" d="M108.76,34.66 L 122.16 55.7"/>
  <path fill="none" d="M108.1,34.37 L 71.14 41.93"/>
  <path fill="none" d="M108.84,33.98 L 124.66 18.74"/>
  <path fill="none" d="M122.31,58.85 L 108.58 85.84"/>
  <path fill="none" d="M124.01,58.82 L 135.37 79.41"/>
  <path fill="none" d="M71.12,41.93 L 46.04 51.2"/>
  <path fill="none" d="M71.12,41.94 L 53.63 63.2"/>
  <path fill="none" d="M46.03,51.21 L 53.63 63.2"/>
  <path fill="none" d="M46.03,51.22 L 38.91 73.97"/>
  <path fill="none" d="M53.63,63.2 L 35.55 88.9"/>
  <path fill="none" d="M53.63,63.2 L 80.19 76.21"/>
  <path fill="none" d="M35.56,88.97 L 45.65 97.08"/>
  <path fill="none" d="M35.53,88.99 L 40.18 117.61"/>
  <path fill="none" d="M38.91,74.32 L 45.9 96.91"/>
  <path fill="none" d="M38.98,74.28 L 53.27 89.77"/>
  <path fill="none" d="M46.43,97.06 L 53.22 90.99"/>
  <path fill="none" d="M46.36,97.8 L 60 115.76"/>
  <path fill="none" d="M46.49,97.65 L 69.04 110.74"/>
  <path fill="none" d="M54.61,90.86 L 76.84 104.41"/>
  <path fill="none" d="M54.56,89.87 L 73.62 75.07"/>
  <path fill="none" d="M53.62,91.25 L 47.21 113.23"/>
  <path fill="none" d="M62.77,116.21 L 76.89 106.69"/>
  <path fill="none" d="M59.56,118.34 L 41.01 130.43"/>
  <path fill="none" d="M63.09,117.5 L 93.72 120.89"/>
  <path fill="none" d="M80.21,106.93 L 94.26 119.7"/>
  <path fill="none" d="M77.81,107.45 L 70.53 124.38"/>
  <path fill="none" d="M80.45,104.4 L 105.82 88.84"/>
  <path fill="none" d="M80.27,104.15 L 89.56 96.39"/>
  <path fill="none" d="M41.34,131.76 L 53.46 132.75"/>
  <path fill="none" d="M39.41,129.48 L 40.26 119.73"/>
  <path fill="none" d="M94.73,122.94 L 85.58 138.06"/>
  <path fill="none" d="M97.23,119.55 L 111.74 103.27"/>
  <path fill="none" d="M97.93,121.23 L 129.3 122.86"/>
  <path fill="none" d="M82.87,138.45 L 71.25 127.75"/>
  <path fill="none" d="M84.22,137.77 L 83.56 131.85"/>
  <path fill="none" d="M56.3,144.86 L 68.45 128.04"/>
  <path fill="none" d="M55.09,144.43 L 55.48 135.03"/>
  <path fill="none" d="M67.78,127.22 L 57.47 132.03"/>
  <path fill="none" d="M71.66,125.54 L 79.77 122.31"/>
  <path fill="none" d="M71.47,125.16 L 93.87 110.54"/>
  <path fill="none" d="M67.79,125.41 L 48.53 116.18"/>
  <path fill="none" d="M57.5,132.08 L 79.8 122.38"/>
  <path fill="none" d="M54.61,131.04 L 47.58 117.16"/>
  <path fill="none" d="M83.73,120.42 L 102.19 110.04"/>
  <path fill="none" d="M83.28,119.86 L 96.98 104.59"/>
  <path fill="none" d="M102.59,107.36 L 99.9 104.55"/>
  <path fill="none" d="M104.49,106.77 L 107.28 89.82"/>
  <path fill="none" d="M99.52,101.15 L 106.53 89.54"/>
  <path fill="none" d="M100.4,102.18 L 124.04 92.54"/>
  <path fill="none" d="M96.37,103.64 L 72.76 111.15"/>
  <path fill="none" d="M109.69,88.18 L 123.93 91.24"/>
  <path fill="none" d="M105.7,88.6 L 92.21 94.73"/>
  <path fill="none" d="M127.64,90.14 L 134.89 82.83"/>
  <path fill="none" d="M127.97,92.87 L 137.5 98.76"/>
  <path fill="none" d="M125.69,93.88 L 124.42 100.77"/>
  <path fill="none" d="M136.75,83.42 L 139.07 97.72"/>
  <path fill="none" d="M135.34,83.17 L 125.12 101.02"/>
  <path fill="none" d="M137.16,100.1 L 115.39 101.49"/>
  <path fill="none" d="M138.7,102.1 L 132.37 120.78"/>
  <path fill="none" d="M121.82,102.68 L 115.37 101.89"/>
  <path fill="none" d="M121.86,103.43 L 97.78 108.88"/>
  <path fill="none" d="M123.15,104.98 L 115.32 123.25"/>
  <path fill="none" d="M111.24,100.64 L 87.07 88.39"/>
  <path fill="none" d="M63.13,95.58 L 84.99 88.24"/>
  <path fill="none" d="M63.23,96.15 L 89.19 95.42"/>
  <path fill="none" d="M59.4,96.88 L 31.12 107.02"/>
  <path fill="none" d="M85.56,86.87 L 80.43 76.45"/>
  <path fill="none" d="M87.18,87.75 L 98.92 86.41"/>
  <path fill="none" d="M90.02,93.99 L 80.44 76.45"/>
  <path fill="none" d="M92.13,96.18 L 120.08 112.72"/>
  <path fill="none" d="M80.18,76.24 L 74.97 74.8"/>
  <path fill="none" d="M80.51,76.37 L 99.04 85.76"/>
  <path fill="none" d="M91.38,66.73 L 74.93 74.27"/>
  <path fill="none" d="M92.99,67.4 L 99.66 85.2"/>
  <path fill="none" d="M74.93,74.91 L 99.02 85.8"/>
  <path fill="none" d="M99.85,87.41 L 96.08 107.24"/>
  <path fill="none" d="M101.04,86.89 L 132.69 106.86"/>
  <path fill="none" d="M136.15,109.66 L 145.04 118.81"/>
  <path fill="none" d="M135.43,110.13 L 142.41 127.2"/>
  <path fill="none" d="M145.84,122.67 L 144.14 127.17"/>
  <path fill="none" d="M144.36,120.87 L 133.91 122.6"/>
  <path fill="none" d="M144.41,119.88 L 124.21 114.46"/>
  <path fill="none" d="M141.24,128.25 L 133.66 124.1"/>
  <path fill="none" d="M141.04,130.02 L 121.4 135.57"/>
  <path fill="none" d="M130.03,124.67 L 120.76 134.51"/>
  <path fill="none" d="M116.89,135.79 L 85.45 130.08"/>
  <path fill="none" d="M118.24,134.07 L 115.34 127.41"/>
  <path fill="none" d="M85.46,129.39 L 112.18 125.65"/>
  <path fill="none" d="M82.07,127.92 L 71.98 113.44"/>
  <path fill="none" d="M81.21,129.16 L 41.38 118.93"/>
  <path fill="none" d="M115.68,123.44 L 120.78 115.76"/>
  <path fill="none" d="M15.07,117.31 L 27.55 108.83"/>
  <path fill="none" d="M15.44,118.5 L 39.28 118.66"/>
  <path fill="none" d="M31.07,108.5 L 44.67 114.42"/>
  <path fill="none" d="M41.29,118.16 L 44.75 116.28"/>
  <path fill="none" d="M138.32,13.87 L 126.87 17.43"/>
</g>
<g stroke-width="0.42" stroke="#D3D3D3" id="img-d5d66ea7-2">
</g>
<g font-size="4" stroke="#000000" stroke-opacity="0.000" fill="#000000" id="img-d5d66ea7-3">
</g>
<g stroke-width="0" stroke="#FF0000" id="img-d5d66ea7-4">
  <circle cx="129.11" cy="30.22" r="1.34" fill="#FFBFB0"/>
  <circle cx="108.53" cy="34.29" r="0.42" fill="#DD4D40"/>
  <circle cx="123.13" cy="57.23" r="1.74" fill="#FFDBD2"/>
  <circle cx="71.13" cy="41.93" r="0.01" fill="#660202"/>
  <circle cx="46.03" cy="51.21" r="0.01" fill="#610102"/>
  <circle cx="53.63" cy="63.2" r="0" fill="#610102"/>
  <circle cx="35.52" cy="88.94" r="0.05" fill="#770706"/>
  <circle cx="38.86" cy="74.15" r="0.18" fill="#A31E19"/>
  <circle cx="46.05" cy="97.4" r="0.49" fill="#E55748"/>
  <circle cx="53.87" cy="90.41" r="0.84" fill="#FF8A78"/>
  <circle cx="61.17" cy="117.29" r="1.85" fill="#FFE1D8"/>
  <circle cx="78.65" cy="105.51" r="2.03" fill="#FFF0EB"/>
  <circle cx="39.23" cy="131.59" r="2.03" fill="#FFF0EB"/>
  <circle cx="95.82" cy="121.13" r="2.03" fill="#D3ECFB"/>
  <circle cx="84.46" cy="139.91" r="2.07" fill="#C3E4F8"/>
  <circle cx="54.99" cy="146.67" r="2.14" fill="#ACD7F5"/>
  <circle cx="69.69" cy="126.32" r="2.03" fill="#CFEAFA"/>
  <circle cx="55.56" cy="132.92" r="2.02" fill="#CFEAFA"/>
  <circle cx="81.82" cy="121.5" r="2.11" fill="#B3DCF6"/>
  <circle cx="104.13" cy="108.96" r="2.13" fill="#B3DCF6"/>
  <circle cx="98.41" cy="102.99" r="2.06" fill="#C5E5F9"/>
  <circle cx="107.63" cy="87.73" r="2.03" fill="#DFF1FC"/>
  <circle cx="126.09" cy="91.71" r="2.12" fill="#B6DDF7"/>
  <circle cx="136.41" cy="81.3" r="2.07" fill="#C3E4F8"/>
  <circle cx="139.43" cy="99.95" r="2.18" fill="#AED9F5"/>
  <circle cx="124.02" cy="102.94" r="2.12" fill="#BBE0F7"/>
  <circle cx="113.2" cy="101.63" r="2.11" fill="#D8EEFB"/>
  <circle cx="61.26" cy="96.21" r="1.89" fill="#FFE4DD"/>
  <circle cx="86.06" cy="87.88" r="1.08" fill="#FFA796"/>
  <circle cx="90.77" cy="95.38" r="1.52" fill="#FFCCBF"/>
  <circle cx="80.35" cy="76.29" r="0.17" fill="#A31E19"/>
  <circle cx="92.54" cy="66.2" r="1.23" fill="#FFB3A3"/>
  <circle cx="74.23" cy="74.59" r="0.74" fill="#FD7F6D"/>
  <circle cx="100.07" cy="86.28" r="1.11" fill="#FFAA99"/>
  <circle cx="95.67" cy="109.36" r="2.07" fill="#E1F2FC"/>
  <circle cx="134.58" cy="108.06" r="2.15" fill="#D1EBFA"/>
  <circle cx="146.67" cy="120.48" r="2.24" fill="#A9D6F5"/>
  <circle cx="143.3" cy="129.38" r="2.26" fill="#A1D1F3"/>
  <circle cx="131.62" cy="122.98" r="2.23" fill="#A4D3F4"/>
  <circle cx="119.17" cy="136.2" r="2.23" fill="#A7D4F4"/>
  <circle cx="83.31" cy="129.7" r="2.08" fill="#DCF0FC"/>
  <circle cx="114.43" cy="125.33" r="2.18" fill="#B3DCF6"/>
  <circle cx="70.81" cy="111.77" r="1.96" fill="#FFE8E1"/>
  <circle cx="122.03" cy="113.87" r="2.17" fill="#C7E6F9"/>
  <circle cx="13.33" cy="118.49" r="2.02" fill="#FFEDE7"/>
  <circle cx="29.22" cy="107.7" r="1.94" fill="#FFF5F1"/>
  <circle cx="40.35" cy="118.67" r="1.02" fill="#FFA08E"/>
  <circle cx="46.62" cy="115.27" r="2.04" fill="#FFEBE5"/>
  <circle cx="140.04" cy="13.33" r="1.73" fill="#FFDFD6"/>
  <circle cx="125.61" cy="17.82" r="1.27" fill="#FFB8A9"/>
</g>
<g font-size="4" stroke="#000000" stroke-opacity="0.000" fill="#000000" id="img-d5d66ea7-5">
</g>
</svg>
